<svg xmlns="http://www.w3.org/2000/svg" width="250" height="138" viewBox="0 0 250 138">
  <g id="Group_9772" data-name="Group 9772" transform="translate(-961 -2527)">
    <g id="Group_9697" data-name="Group 9697" transform="translate(1005 2569)">
      <path id="Path_28941" data-name="Path 28941" d="M234.738,44.31l20.827,20.759h-41.6Z" transform="translate(-211.634 -11.651)" fill="#5b979b"/>
      <path id="Path_28942" data-name="Path 28942" d="M271.28,43.9c0-2.414.005-4.826-.005-7.24a10.312,10.312,0,0,0-.113-1.287c-.227-1.743-1.489-2.139-2.665-2.252a8.163,8.163,0,0,0-1.028-.005c-.245.005-.4-.049-.4-.343.008-.278.178-.3.391-.3,1.268,0,2.535,0,3.8,0,1.818,0,3.639,0,5.457.005.224,0,.55-.124.558.3.011.461-.34.31-.577.329a9.167,9.167,0,0,0-1.022.051,2.957,2.957,0,0,0-2.519,3.148q-.053,6.769-.076,13.538a24.324,24.324,0,0,1-.424,4.925c-.79,3.774-3.221,5.967-6.841,6.927a15.435,15.435,0,0,1-5.139.407,13.92,13.92,0,0,1-4.453-.85,8.464,8.464,0,0,1-5.357-6.792,37.948,37.948,0,0,1-.3-6.012c-.008-3.62.011-7.24-.011-10.86a14.335,14.335,0,0,0-.208-2.3c-.237-1.395-.982-2.028-2.633-2.171-.34-.03-.685-.008-1.03-.005-.216,0-.378-.03-.383-.3-.005-.3.165-.337.4-.337,1.09,0,2.177,0,3.267,0h8.1a.917.917,0,0,1,.4.016.581.581,0,0,1,.291.337c.014.073-.181.262-.294.272-.488.051-.99,0-1.467.084a2.542,2.542,0,0,0-2.358,2.732c-.051,5.02-.1,10.037-.065,15.057a24.324,24.324,0,0,0,.5,4.2,5.974,5.974,0,0,0,5.246,5.076A10.211,10.211,0,0,0,268.4,58.5a6.283,6.283,0,0,0,2.6-4.6c.154-1.386.24-2.786.27-4.181C271.312,47.779,271.28,45.839,271.28,43.9Z" transform="translate(-156.729 -31.765)" fill="#fff"/>
      <path id="Path_28943" data-name="Path 28943" d="M248.633,52.146c-1.759,0-3.52-.005-5.279.011a.635.635,0,0,0-.491.248q-1.177,2.7-2.3,5.424a5.582,5.582,0,0,0-.278,1.076,1.536,1.536,0,0,0,1.036,1.877,11.873,11.873,0,0,0,1.826.386c.256.043.467.062.467.4s-.232.318-.461.318h-8.141c-.208,0-.432.038-.445-.289-.011-.259.04-.426.345-.453a5.33,5.33,0,0,0,.6-.148,2.792,2.792,0,0,0,2.026-1.408c.761-1.43,1.535-2.859,2.177-4.343,3.223-7.461,6.406-14.941,9.605-22.413.035-.081.076-.162.1-.245.081-.251.229-.459.512-.364a.823.823,0,0,1,.464.37q2.97,7.032,5.91,14.08,2.233,5.333,4.488,10.657a19.362,19.362,0,0,0,.987,1.85,3.974,3.974,0,0,0,3.067,1.991.684.684,0,0,1,.37.119.525.525,0,0,1,.127.391c-.011.081-.175.159-.286.2a.986.986,0,0,1-.31.008c-3.356,0-6.711.005-10.067-.008-.224,0-.615.178-.62-.267,0-.353.3-.41.61-.448a5.533,5.533,0,0,0,1.044-.221,1.672,1.672,0,0,0,1.154-2.3c-.394-1.289-.912-2.544-1.4-3.806-.3-.777-.658-1.532-.966-2.306a.549.549,0,0,0-.6-.4C252.153,52.154,250.394,52.146,248.633,52.146Zm-5.041-1.511h10.183l-4.947-11.769-.165.008Z" transform="translate(-176.666 -32.202)" fill="#fff"/>
      <path id="Path_28944" data-name="Path 28944" d="M236.192,35.564c-.194.183-.345.324-.491.469q-10.107,10.095-20.212,20.193a1.481,1.481,0,0,1-1.122.548,1.213,1.213,0,0,1-1.136-.731,1.189,1.189,0,0,1,.173-1.335,3.487,3.487,0,0,1,.307-.324Q224.4,43.7,235.091,33.023a1.349,1.349,0,0,1,1.589-.477,1.785,1.785,0,0,1,.531.391q2.788,2.78,5.559,5.57,5.478,5.515,10.954,11.035c1.656,1.67,3.307,3.35,4.969,5.017a1.315,1.315,0,0,1,.372,1.389,1.206,1.206,0,0,1-1,.858,1.3,1.3,0,0,1-1.2-.445q-3.747-3.779-7.491-7.558-6.409-6.453-12.821-12.907C236.451,35.791,236.338,35.7,236.192,35.564Z" transform="translate(-213.099 -31.802)" fill="#5b979b"/>
      <path id="Path_28945" data-name="Path 28945" d="M236.2,43.094c-.183.173-.345.321-.5.477Q225.608,53.65,215.515,63.734a1.5,1.5,0,0,1-1.117.566,1.219,1.219,0,0,1-1.154-.7,1.189,1.189,0,0,1,.173-1.373,6.261,6.261,0,0,1,.434-.453q10.548-10.54,21.1-21.077c1-1,1.521-.993,2.509,0q3.67,3.7,7.345,7.391,5.7,5.737,11.4,11.48c.817.823,1.645,1.635,2.436,2.484a1.821,1.821,0,0,1,.456.877,1.136,1.136,0,0,1-.672,1.284,1.3,1.3,0,0,1-1.451-.243c-.922-.909-1.834-1.832-2.746-2.751q-3.941-3.969-7.874-7.936Q241.55,48.44,236.74,43.6C236.576,43.436,236.4,43.28,236.2,43.094Z" transform="translate(-213.1 -19.056)" fill="#5b979b"/>
      <path id="Path_28946" data-name="Path 28946" d="M236.266,36.17a4.313,4.313,0,0,1,.92.545c.871.855,1.691,1.761,2.549,2.627.912.92,1.856,1.81,2.77,2.727q3.382,3.383,6.752,6.779,4.722,4.754,9.438,9.516a1.354,1.354,0,0,1,.326,1.513,1.209,1.209,0,0,1-1.314.712,1.824,1.824,0,0,1-.869-.486q-3.99-3.973-7.949-7.982Q244.795,48,240.7,43.874l-4.087-4.13c-.415-.418-.418-.418-.836,0q-10.156,10.139-20.306,20.284a1.35,1.35,0,0,1-1.421.515,1.262,1.262,0,0,1-.623-2.072c.189-.229.415-.429.626-.639q10.516-10.5,21.034-21.01a1.366,1.366,0,0,1,1.122-.545Z" transform="translate(-213.094 -25.468)" fill="#5b979b"/>
      <path id="Path_28947" data-name="Path 28947" d="M262.827,58.689c.278.011.434.024.591.024,2.848,0,5.7.011,8.545-.008a12.122,12.122,0,0,0,1.821-.167,3.9,3.9,0,0,0,2.762-1.794.7.7,0,0,1,.86-.324,3.279,3.279,0,0,1-.089.34c-.556,1.54-1.122,3.075-1.664,4.621a.614.614,0,0,1-.682.472c-5.295-.013-10.587-.008-15.882-.016-.227,0-.583-.043-.655-.181-.148-.286.008-.569.267-.817,1.956-1.877,3.933-3.736,5.832-5.673a38.357,38.357,0,0,0,5.373-6.609,14.166,14.166,0,0,0,2.147-5.395,6.652,6.652,0,0,0-2.215-6.522,6.1,6.1,0,0,0-7.7.259,6.994,6.994,0,0,0-2.061,2.981c-.156.421-.391.51-.823.38a10.553,10.553,0,0,1,.839-3.167,7.481,7.481,0,0,1,5.675-4.693A7.954,7.954,0,0,1,275,43.459a20.721,20.721,0,0,1-3.868,6.236c-2.576,2.892-5.252,5.694-7.884,8.535C263.137,58.349,263.027,58.47,262.827,58.689Z" transform="translate(-136.249 -32.156)" fill="#fff"/>
      <path id="Path_28948" data-name="Path 28948" d="M268.128,35.649c1.411-.688,2.8-1.368,4.189-2.047l2.331-1.133c.108-.051.213-.108.324-.148.585-.216.8-.073.8.539q0,12.555,0,25.107a14.207,14.207,0,0,0,.1,1.513,1.643,1.643,0,0,0,1.368,1.465c.707.151,1.43.229,2.139.34.105.526.078.564-.423.564-3.3,0-6.59,0-9.886.008-.413,0-.548-.143-.415-.577.539-.073,1.092-.146,1.645-.227a1.961,1.961,0,0,0,1.977-2.225q.044-2.12.051-4.243c.005-4.305.013-8.607,0-12.912-.008-1.411-.054-2.827-.154-4.235a2.882,2.882,0,0,0-.461-1.319,1.392,1.392,0,0,0-1.559-.507,12.045,12.045,0,0,0-1.362.421C268.311,36.2,268.317,36.218,268.128,35.649Z" transform="translate(-119.695 -32.162)" fill="#fff"/>
      <path id="Path_28949" data-name="Path 28949" d="M247.517,46.125a3.043,3.043,0,0,1,.437-.062c2.3,0,4.594-.04,6.886.024A5.773,5.773,0,0,1,259,47.66a4.253,4.253,0,0,1,1.022,4.416,4.042,4.042,0,0,1-3.132,2.935,9.537,9.537,0,0,1-4.205-.046c-.418-.081-.537.032-.534.432.013,1.535,0,3.067.011,4.6a8.572,8.572,0,0,0,.092,1.111,1.464,1.464,0,0,0,1.5,1.319,5.077,5.077,0,0,1,.537.011.909.909,0,0,1,.275.162,1.768,1.768,0,0,1-.256.181.6.6,0,0,1-.221.005q-3.043,0-6.083,0a1.072,1.072,0,0,1-.31-.013c-.07-.024-.119-.108-.178-.165.059-.057.108-.143.178-.162a1.41,1.41,0,0,1,.356-.016,1.6,1.6,0,0,0,1.85-1.694c.016-.162.011-.329.011-.491q0-5.83,0-11.661a4,4,0,0,0-.035-.623c-.194-1.192-.647-1.573-1.888-1.608-.154-.005-.3-.032-.456-.049Zm4.637,4.577c0,1.041.014,2.082-.008,3.124a.469.469,0,0,0,.483.548c.429.054.852.138,1.281.17a3.1,3.1,0,0,0,2.322-.715,3.783,3.783,0,0,0,1.279-3.361,3.63,3.63,0,0,0-2.376-3.358,4.845,4.845,0,0,0-2.468-.057c-.367.067-.531.21-.521.615C252.173,48.677,252.154,49.691,252.154,50.7Z" transform="translate(-154.689 -8.697)" fill="#fff"/>
      <path id="Path_28950" data-name="Path 28950" d="M248.69,57.416c-.955,0-1.91.011-2.865-.008a.541.541,0,0,0-.6.383c-.4,1-.86,1.966-1.227,2.97-.421,1.149-.105,1.637,1.09,1.848a2.321,2.321,0,0,1,.437.086.9.9,0,0,1,.243.192c-.092.051-.186.151-.278.151q-2.306.016-4.61,0c-.089,0-.178-.108-.267-.167.078-.078.146-.216.232-.224a2.58,2.58,0,0,0,2.01-1.837c1.2-2.724,2.374-5.459,3.55-8.195.9-2.09,1.788-4.189,2.695-6.277a2.042,2.042,0,0,1,.375-.44,2.472,2.472,0,0,1,.324.437q2.852,6.793,5.7,13.589c.181.424.394.833.6,1.246a2.583,2.583,0,0,0,1.977,1.508c.113.019.21.143.313.218a.932.932,0,0,1-.332.143c-1.939.008-3.879.011-5.818,0-.116,0-.232-.113-.348-.173a1.561,1.561,0,0,1,.31-.178c.224-.073.467-.1.688-.183a.919.919,0,0,0,.655-1.16c-.442-1.262-.944-2.5-1.449-3.741-.043-.105-.291-.175-.445-.178C250.659,57.408,249.675,57.416,248.69,57.416Zm3.032-.833-2.883-6.849-.162.024-2.935,6.824Z" transform="translate(-166.406 -8.956)" fill="#fff"/>
      <path id="Path_28951" data-name="Path 28951" d="M268.969,57.416c-.985,0-1.969-.011-2.954.011a.588.588,0,0,0-.448.245c-.472,1.06-.947,2.123-1.343,3.213-.364,1-.019,1.513,1.028,1.713.175.032.356.046.526.094.084.024.151.111.224.167a.879.879,0,0,1-.256.178,1.791,1.791,0,0,1-.4.008c-1.373,0-2.743.005-4.116-.005a1.209,1.209,0,0,1-.38-.14c.111-.094.213-.254.337-.272a2.137,2.137,0,0,0,1.648-1.3q.866-1.809,1.667-3.652c1.608-3.73,3.2-7.469,4.8-11.2a1.042,1.042,0,0,1,.111-.243,4.5,4.5,0,0,1,.313-.332c.1.113.243.208.3.34q1.675,3.969,3.334,7.946,1.295,3.087,2.6,6.172c.127.3.294.583.442.877a2.471,2.471,0,0,0,1.875,1.43,1.182,1.182,0,0,1,.351.2c-.129.062-.262.175-.391.178q-2.861.016-5.724,0a1.179,1.179,0,0,1-.378-.143,2.721,2.721,0,0,1,.361-.216,2.013,2.013,0,0,1,.345-.081c.793-.173,1.181-.655.931-1.424-.4-1.211-.912-2.387-1.4-3.566-.046-.108-.289-.183-.442-.186C270.935,57.408,269.951,57.416,268.969,57.416Zm.151-7.669-.156-.022-2.948,6.843h5.967Z" transform="translate(-132.049 -8.956)" fill="#fff"/>
      <path id="Path_28952" data-name="Path 28952" d="M248.669,45.869a1.953,1.953,0,0,1,.216.5c.105,1.527.194,3.056.286,4.586.013.186.03.372.043.558l-.124.062c-.078-.124-.167-.245-.235-.378a21.16,21.16,0,0,0-1.295-2.479,4.658,4.658,0,0,0-3.485-1.945,5.362,5.362,0,0,0-5.125,1.983,7.7,7.7,0,0,0-1.465,3.552,12.963,12.963,0,0,0,.2,5.834,5.947,5.947,0,0,0,5.859,4.345,6.313,6.313,0,0,0,5.341-2.886,3.282,3.282,0,0,1,.3-.386c.059-.059.17-.065.256-.094.011.1.065.232.024.3a7.25,7.25,0,0,1-3.971,3.558c-3.142.968-6.091.637-8.526-1.783a8.282,8.282,0,0,1-2.409-5.883,9.4,9.4,0,0,1,1.475-5.562,8.113,8.113,0,0,1,6.2-3.755,7.838,7.838,0,0,1,4.324.8c1.092.518,1.408.413,1.939-.693A2.475,2.475,0,0,1,248.669,45.869Z" transform="translate(-176.67 -9.005)" fill="#fff"/>
      <path id="Path_28953" data-name="Path 28953" d="M256.177,49.815c-.04-.084-.119-.17-.116-.251.043-1.055.1-2.109.151-3.161.011-.262.132-.351.4-.351q6.417.012,12.839,0c.27,0,.418.07.429.367.043,1.038.105,2.077.143,3.118.005.089-.1.183-.154.275a.95.95,0,0,1-.194-.243,9.127,9.127,0,0,0-.461-1.341,2.552,2.552,0,0,0-2.322-1.26c-.788-.032-1.581.005-2.371-.013-.324-.008-.4.121-.4.421.008,4.394,0,8.788.011,13.182.005,1.354.521,1.842,1.883,1.867.059,0,.129-.019.175.008a1.812,1.812,0,0,1,.254.181,1.564,1.564,0,0,1-.275.162.668.668,0,0,1-.221.005q-2.974,0-5.95,0a1.742,1.742,0,0,1-.356-.019c-.057-.013-.146-.105-.138-.138.019-.07.086-.17.146-.178a3.525,3.525,0,0,1,.534-.022,1.474,1.474,0,0,0,1.61-1.532c.046-1.519.065-3.037.07-4.556.011-2.905.005-5.807,0-8.713,0-.664,0-.669-.666-.664-.817.011-1.637.022-2.455.051a2.549,2.549,0,0,0-2.314,2.336,3.744,3.744,0,0,1-.143.469Z" transform="translate(-140.178 -8.694)" fill="#fff"/>
      <path id="Path_28954" data-name="Path 28954" d="M267.8,46.079h7.456l.019.17c-.3.043-.607.081-.909.132a5.025,5.025,0,0,0-.782.159c-.917.31-1.076,1.074-1.076,1.9-.008,2.382-.005,4.764-.005,7.148,0,1.5,0,3.008.005,4.513a3.389,3.389,0,0,0,.065.661c.135.68.423.976,1.119.976,1.594,0,3.191.008,4.777-.1a3.206,3.206,0,0,0,2.482-1.648c.31-.486.548-1.02.828-1.527a1.056,1.056,0,0,1,.229-.221c.022.111.089.237.059.332-.391,1.281-.807,2.554-1.192,3.836-.1.334-.326.326-.588.326q-5.053,0-10.11,0c-.669,0-1.341.008-2.012-.011-.127,0-.254-.119-.38-.183a1.512,1.512,0,0,1,.367-.159c.278-.04.569-.008.839-.076a1.382,1.382,0,0,0,1.176-1.332,12.263,12.263,0,0,0,.084-1.335q.012-5.3,0-10.59a11.613,11.613,0,0,0-.086-1.335c-.108-.917-.7-1.365-1.8-1.413-.191-.008-.383-.038-.574-.057Z" transform="translate(-120.279 -8.648)" fill="#fff"/>
      <path id="Path_28955" data-name="Path 28955" d="M252.864,46.3c.324-.321,6.722-.313,7.1-.035-.2.035-.329.059-.459.081a7.636,7.636,0,0,0-.963.162,1.269,1.269,0,0,0-.944,1.13,10.7,10.7,0,0,0-.1,1.376q-.012,5.381,0,10.765a14,14,0,0,0,.094,1.424,1.544,1.544,0,0,0,1.6,1.217,5.04,5.04,0,0,1,.537.022c.065.008.116.105.173.162-.059.057-.111.14-.181.162a1.072,1.072,0,0,1-.31.013q-3.043,0-6.083,0c-.043,0-.1.016-.132,0-.116-.057-.224-.127-.337-.189a1.2,1.2,0,0,1,.324-.159c.3-.046.626-.03.925-.105a1.3,1.3,0,0,0,1.06-1.222c.038-.415.084-.831.084-1.246q.012-5.495.005-10.989c0-.208,0-.415-.008-.626-.065-1.295-.615-1.834-1.918-1.894C253.171,46.339,253.018,46.315,252.864,46.3Z" transform="translate(-145.623 -8.687)" fill="#fff"/>
    </g>
    <rect id="Rectangle_1218" data-name="Rectangle 1218" width="250" height="138" transform="translate(961 2527)" opacity="0"/>
  </g>
</svg>
