<svg xmlns="http://www.w3.org/2000/svg" width="250" height="138" viewBox="0 0 250 138">
  <g id="Group_9872" data-name="Group 9872" transform="translate(-204 -2499)">
    <rect id="Rectangle_1274" data-name="Rectangle 1274" width="250" height="138" transform="translate(204 2499)" opacity="0"/>
    <g id="Group_9871" data-name="Group 9871" transform="translate(81.723 2140.999)">
      <path id="Path_29645" data-name="Path 29645" d="M168.6,413.614a11.134,11.134,0,0,1,10.723-11.532c.153-.006.3-.009.456-.009,5.654,0,9,3.318,10.008,7.213l-3.548,1.2a6.166,6.166,0,0,0-6.46-4.86c-3.665,0-7.328,2.668-7.328,8.06s3.577,7.963,7.369,7.963a6.653,6.653,0,0,0,6.607-4.889l3.448,1.124a9.957,9.957,0,0,1-10.1,7.357,11,11,0,0,1-11.2-10.784C168.575,414.176,168.58,413.894,168.6,413.614Z" transform="translate(46.399 12.881)" fill="#fff"/>
      <path id="Path_29646" data-name="Path 29646" d="M180.541,424.741h-3.636V402.055h3.636v8.9a5.417,5.417,0,0,1,4.327-1.918c3.765,0,5.58,2.7,5.58,6.057v9.649h-3.533v-9.028a2.952,2.952,0,0,0-3.145-3.389A3.173,3.173,0,0,0,180.6,415.5c0,.091.006.182.012.274Z" transform="translate(62.568 12.844)" fill="#fff"/>
      <path id="Path_29647" data-name="Path 29647" d="M187.317,411.413l3.907-.606c.882-.115,1.127-.562,1.127-1.1,0-1.283-.865-2.321-2.886-2.321a2.887,2.887,0,0,0-3.121,2.627l-.009.141-3.315-.75c.274-2.639,2.668-4.989,6.416-4.989,4.7,0,6.492,2.668,6.492,5.769v7.572a13.981,13.981,0,0,0,.188,2.453h-3.392a9.381,9.381,0,0,1-.144-1.947,5.323,5.323,0,0,1-4.7,2.409,4.791,4.791,0,0,1-5.166-4.38c-.006-.074-.009-.147-.012-.221C182.7,413.287,184.7,411.787,187.317,411.413Zm5.033,2.453v-.694l-3.98.591a2.107,2.107,0,0,0-2.036,2.077,2.02,2.02,0,0,0,2.053,1.986,1.591,1.591,0,0,0,.168-.009,3.476,3.476,0,0,0,3.812-3.106A3.38,3.38,0,0,0,192.35,413.867Z" transform="translate(73.822 17.433)" fill="#fff"/>
      <path id="Path_29648" data-name="Path 29648" d="M190.827,401.947a2.377,2.377,0,0,1,2.409,2.35v.029a2.365,2.365,0,1,1-2.409-2.38Zm-1.774,23.078V409.693h3.592v15.259Z" transform="translate(85.093 12.634)" fill="#fff"/>
      <path id="Path_29649" data-name="Path 29649" d="M195.145,420.136h-3.633V404.877h3.548v2.033a5.047,5.047,0,0,1,4.513-2.48c3.721,0,5.51,2.7,5.51,6.057v9.649h-3.633v-9.028c0-1.874-.85-3.389-3.13-3.389a3.215,3.215,0,0,0-3.2,3.236,3.05,3.05,0,0,0,.024.368Z" transform="translate(90.93 17.45)" fill="#fff"/>
      <path id="Path_29650" data-name="Path 29650" d="M197.631,424.741V402.055h3.633v22.686Z" transform="translate(102.811 12.844)" fill="#fff"/>
      <path id="Path_29651" data-name="Path 29651" d="M202.626,401.947a2.365,2.365,0,1,1-2.353,2.35A2.381,2.381,0,0,1,202.626,401.947Zm-1.789,23.078V409.693h3.6v15.259Z" transform="translate(107.941 12.635)" fill="#fff"/>
      <path id="Path_29652" data-name="Path 29652" d="M206.922,420.135h-3.633V404.877h3.533v2.033a5.073,5.073,0,0,1,4.516-2.48c3.736,0,5.525,2.7,5.525,6.057v9.649h-3.636v-9.028a2.952,2.952,0,0,0-3.145-3.389,3.2,3.2,0,0,0-3.183,3.218,3.341,3.341,0,0,0,.023.385Z" transform="translate(113.798 17.45)" fill="#fff"/>
      <path id="Path_29653" data-name="Path 29653" d="M217.422,415.928l6.4,8.813H219.37l-4.486-6.286-1.874,1.974v4.327H209.4v-22.7h3.607v13.6l5.854-6.172H223.7Z" transform="translate(125.669 12.844)" fill="#fff"/>
      <path id="Path_29654" data-name="Path 29654" d="M171.928,408.769l15.723,9.028v18.13l-15.679,9.087L156.252,436v-18.13l15.676-9.1m0-13.329-5.769,3.348-15.706,9.1-5.772,3.345v31.444L150.454,446l15.72,9.028,5.769,3.318,5.769-3.348,15.679-9.1,5.769-3.33V411.1l-5.769-3.315-15.721-9.031L171.9,395.44Z" transform="translate(0 0)" fill="#fff"/>
    </g>
  </g>
</svg>
