<svg xmlns="http://www.w3.org/2000/svg" width="250" height="138" viewBox="0 0 250 138">
  <g id="Group_9760" data-name="Group 9760" transform="translate(-1461 -2665)">
    <rect id="Rectangle_1241" data-name="Rectangle 1241" width="250" height="138" transform="translate(1461 2665)" opacity="0"/>
    <g id="Group_9757" data-name="Group 9757" transform="translate(1530 2686)">
      <g id="Group_9738" data-name="Group 9738" transform="translate(13.587)">
        <path id="Path_29001" data-name="Path 29001" d="M156.185,263.044c-2.108,2.672-4.13,5.241-6.159,7.8-2.566,3.242-5.143,6.475-7.7,9.725-.723.924-1.21,1.03-2.043-.03-4.408-5.6-8.9-11.139-13.377-16.693-.257-.319-.464-.924-.918-.759-.546.195-.278.836-.278,1.272-.021,4.91-.015,9.817-.018,14.727,0,.475-.032.951-.038,1.426a1.147,1.147,0,0,1-.75,1.243c-.561.174-.874-.263-1.172-.629q-2.923-3.6-5.834-7.219-6.138-7.6-12.273-15.2c-2-2.48-3.992-4.972-6-7.449a2.489,2.489,0,0,1-.215-3.295c7.552-12.666,15.007-25.385,22.494-38.089a7.992,7.992,0,0,1,.853-1.311,1.414,1.414,0,0,1,1.633-.593,1.668,1.668,0,0,1,1.21,1.591c-.009,1.048,0,2.1,0,3.147q0,9.362.009,18.727a.966.966,0,0,0,.263.741q2.015-3.485,4.036-6.974c3.059-5.267,6.109-10.543,9.2-15.8,1.275-2.167,2.716-2.117,3.995.053q6.413,10.859,12.831,21.712a.935.935,0,0,0,.218.186c.446-.319.236-.785.239-1.175q.018-9.721.009-19.442c0-.431-.009-.862.033-1.284a1.62,1.62,0,0,1,1.213-1.588,1.549,1.549,0,0,1,1.783.874q2.161,3.609,4.3,7.227,5.837,9.88,11.662,19.76c2.483,4.213,4.951,8.435,7.455,12.636A2.1,2.1,0,0,1,182.6,251q-8.7,10.753-17.41,21.5c-2.179,2.7-4.322,5.421-6.486,8.131-.407.508-.791,1.27-1.562.948-.691-.289-.655-1.084-.655-1.76q0-7.653,0-15.3A2.081,2.081,0,0,0,156.185,263.044ZM139.447,216.03a2.4,2.4,0,0,0-1.16,1.3c-1.954,3.316-3.885,6.649-5.837,9.97q-6.147,10.452-12.317,20.9c-.431.729-.747,1.308-.056,2.158,5.344,6.569,10.623,13.188,15.949,19.769a35.178,35.178,0,0,0,3.425,4.071C139.447,254.692,139.447,235.416,139.447,216.03Zm3.894-.065c-.086.033-.174.065-.26.094v58.056c.709-.233.927-.756,1.243-1.146,1.96-2.445,3.888-4.913,5.834-7.369q6.111-7.715,12.229-15.426c.351-.446.744-.827.307-1.5-.667-1.033-1.213-2.146-1.839-3.206q-6.236-10.544-12.483-21.077Q145.87,220.168,143.342,215.965Zm16.6.151c-.378.227-.269.593-.269.906q-.009,9.641-.006,19.282a3.328,3.328,0,0,0,.36,1.659c1.854,3.254,3.7,6.513,5.633,9.722,1.143,1.9,1.193,2.247-.154,3.912-1.642,2.031-3.292,4.06-4.91,6.106a3.14,3.14,0,0,0-.939,2.016c.032,4.429.015,8.857.021,13.283,0,.319-.121.768.224.912.469.2.617-.334.833-.6,2.421-3,4.821-6.011,7.233-9.014q5.531-6.886,11.077-13.758a1.687,1.687,0,0,0,.142-2.279c-1.323-2.079-2.459-4.278-3.711-6.4q-7.294-12.382-14.608-24.75C160.622,216.709,160.454,216.249,159.937,216.116Zm-37.5-.056-.363-.142-4.322,7.307q-7.081,11.97-14.151,23.944c-1.42,2.409-1.337,2.38.446,4.564,4.207,5.155,8.352,10.363,12.53,15.544,1.857,2.3,3.726,4.591,5.6,6.9.372-.331.26-.635.26-.895.009-4.62-.015-9.241.027-13.859a3.178,3.178,0,0,0-.892-2.167c-1.695-2.052-3.345-4.142-5.066-6.173a2.187,2.187,0,0,1-.207-2.858c1.261-2.073,2.353-4.254,3.747-6.229a13.384,13.384,0,0,0,2.453-8.668C122.279,227.577,122.436,221.814,122.436,216.06Z" transform="translate(-98.896 -207.811)" fill="#144b6f"/>
      </g>
      <g id="Group_9739" data-name="Group 9739" transform="translate(0 83.479)">
        <path id="Path_29002" data-name="Path 29002" d="M94.294,236.282H98.2a4.481,4.481,0,0,1,4.742,4.8c0,2.873-1.819,5.049-4.83,5.049H94.294Zm2.129,8.128h1.6c1.887,0,2.722-1.4,2.722-3.322,0-1.609-.782-3.085-2.71-3.085H96.423Z" transform="translate(-94.294 -235.703)" fill="#144b6f"/>
        <path id="Path_29003" data-name="Path 29003" d="M99.669,241.363c0,.924.464,1.827,1.482,1.827a1.164,1.164,0,0,0,1.29-.791h2.049a3.238,3.238,0,0,1-3.392,2.391c-2.436,0-3.49-1.819-3.49-3.761,0-2.318,1.187-3.974,3.564-3.974,2.539,0,3.4,1.836,3.4,3.682a4.14,4.14,0,0,1-.03.623H99.669Zm2.855-1.258c-.015-.862-.357-1.585-1.355-1.585-.98,0-1.376.676-1.456,1.585Z" transform="translate(-87.824 -234.194)" fill="#144b6f"/>
        <path id="Path_29004" data-name="Path 29004" d="M100.444,246.511V236.086h2.046v10.425Z" transform="translate(-82.287 -236.086)" fill="#144b6f"/>
        <path id="Path_29005" data-name="Path 29005" d="M101.536,238.435h1.14v-2h2.046v2h1.45v1.541h-1.45v3.649c0,.561.171.779.779.779a3.884,3.884,0,0,0,.466-.024v1.408a4.615,4.615,0,0,1-1.376.142c-1.441,0-1.916-.771-1.916-2.064v-3.891h-1.14v-1.541Z" transform="translate(-80.155 -235.403)" fill="#144b6f"/>
        <path id="Path_29006" data-name="Path 29006" d="M109.929,242.709a16.293,16.293,0,0,0,.1,1.91h-1.954a3.024,3.024,0,0,1-.106-.72,2.176,2.176,0,0,1-2.079.895,2.286,2.286,0,0,1-2.533-2.321c0-1.683,1.352-2.462,3.519-2.462h1.054v-.452c0-.525-.189-1.042-1.137-1.042-.865,0-1.054.369-1.148.9H103.7c.112-1.314.924-2.377,3.171-2.365,1.981.015,3.059.785,3.059,2.548v3.106Zm-2-1.456H107.1c-1.234,0-1.692.378-1.692,1.089a.951.951,0,0,0,1.066.986c1.3,0,1.458-.9,1.458-1.881v-.195Z" transform="translate(-76.599 -234.194)" fill="#144b6f"/>
        <path id="Path_29007" data-name="Path 29007" d="M106.248,236.282h2.129v3.841h3.962v-3.841h2.132v9.849h-2.132v-4.263h-3.962v4.263h-2.129Z" transform="translate(-70.955 -235.703)" fill="#144b6f"/>
        <path id="Path_29008" data-name="Path 29008" d="M116.2,242.357c0,.714,0,1.488.015,2.149h-2c-.03-.2-.041-.6-.056-.853a2.1,2.1,0,0,1-2.034,1.024c-1.506,0-2.468-.915-2.468-2.749v-4.815h2.043v4.405c0,.818.254,1.491,1.14,1.491.933,0,1.32-.5,1.32-1.96v-3.933H116.2Z" transform="translate(-64.319 -234.079)" fill="#144b6f"/>
        <path id="Path_29009" data-name="Path 29009" d="M112.5,236.086h2.046V239.9a2.314,2.314,0,0,1,2.114-.957c2.014,0,3.017,1.662,3.017,3.735,0,2.12-1.089,4-3.215,4a2.014,2.014,0,0,1-1.943-.871,3.485,3.485,0,0,1-.08.7h-1.957c.015-.8.015-1.615.015-2.418v-8.007Zm5.1,6.637c0-1.231-.461-2.135-1.565-2.135-1.169,0-1.582.762-1.582,2.267,0,1.243.366,2.2,1.559,2.2C117.057,245.055,117.6,244.122,117.6,242.723Z" transform="translate(-58.78 -236.086)" fill="#144b6f"/>
        <path id="Path_29010" data-name="Path 29010" d="M125.337,243.187a3.949,3.949,0,0,1-4.249,3.177c-3.124,0-4.6-2.211-4.6-5.013,0-2.7,1.523-5.117,4.7-5.117,2.622,0,3.891,1.541,4.133,3.186H123.2a1.932,1.932,0,0,0-2.073-1.515c-1.757,0-2.436,1.58-2.436,3.372,0,1.665.59,3.419,2.492,3.419a1.959,1.959,0,0,0,2.014-1.506h2.143Z" transform="translate(-50.961 -235.797)" fill="#144b6f"/>
        <path id="Path_29011" data-name="Path 29011" d="M126.421,242.709a16.287,16.287,0,0,0,.1,1.91h-1.954a3.026,3.026,0,0,1-.1-.72,2.185,2.185,0,0,1-2.081.895,2.286,2.286,0,0,1-2.533-2.321c0-1.683,1.352-2.462,3.519-2.462h1.054v-.452c0-.525-.189-1.042-1.137-1.042-.862,0-1.054.369-1.146.9h-1.949c.112-1.314.924-2.377,3.174-2.365,1.978.015,3.056.785,3.056,2.548v3.106Zm-1.993-1.456h-.836c-1.234,0-1.692.378-1.692,1.089a.951.951,0,0,0,1.066.986c1.3,0,1.461-.9,1.461-1.881Z" transform="translate(-44.401 -234.194)" fill="#144b6f"/>
        <path id="Path_29012" data-name="Path 29012" d="M124.747,243.967v3.484h-2.034V239.01c0-.6,0-1.19-.015-1.783h1.981a8.082,8.082,0,0,1,.068.921,2.339,2.339,0,0,1,2.149-1.092c1.659,0,2.944,1.388,2.944,3.682,0,2.607-1.435,4.051-3.224,4.051A2.032,2.032,0,0,1,124.747,243.967Zm3.014-3.15c0-1.355-.546-2.12-1.521-2.12-1.163,0-1.577.747-1.577,2.238,0,1.411.381,2.229,1.488,2.229C127.236,243.164,127.761,242.322,127.761,240.816Z" transform="translate(-38.838 -234.194)" fill="#144b6f"/>
        <path id="Path_29013" data-name="Path 29013" d="M125.6,236.086h2.046v1.828H125.6Zm0,3.032h2.046v7.393H125.6Z" transform="translate(-33.18 -236.086)" fill="#144b6f"/>
        <path id="Path_29014" data-name="Path 29014" d="M126.687,238.435h1.14v-2h2.046v2h1.45v1.541h-1.45v3.649c0,.561.174.779.782.779a3.911,3.911,0,0,0,.466-.024v1.408a4.624,4.624,0,0,1-1.376.142c-1.441,0-1.919-.771-1.919-2.064v-3.891h-1.14Z" transform="translate(-31.05 -235.403)" fill="#144b6f"/>
        <path id="Path_29015" data-name="Path 29015" d="M135.083,242.709a16.286,16.286,0,0,0,.1,1.91h-1.957a3.028,3.028,0,0,1-.1-.72,2.179,2.179,0,0,1-2.078.895,2.287,2.287,0,0,1-2.536-2.321c0-1.683,1.355-2.462,3.522-2.462h1.054v-.452c0-.525-.189-1.042-1.137-1.042-.865,0-1.054.369-1.149.9h-1.946c.109-1.314.924-2.377,3.171-2.365,1.981.015,3.059.785,3.059,2.548v3.106Zm-2-1.456h-.836c-1.231,0-1.689.378-1.689,1.089a.949.949,0,0,0,1.063.986c1.3,0,1.461-.9,1.461-1.881Z" transform="translate(-27.495 -234.194)" fill="#144b6f"/>
        <path id="Path_29016" data-name="Path 29016" d="M131.362,246.511V236.086h2.049v10.425Z" transform="translate(-21.923 -236.086)" fill="#144b6f"/>
      </g>
    </g>
  </g>
</svg>
