<svg xmlns="http://www.w3.org/2000/svg" width="250" height="138" viewBox="0 0 250 138">
  <g id="Group_9817" data-name="Group 9817" transform="translate(-1460 -3023)">
    <rect id="Rectangle_1248" data-name="Rectangle 1248" width="250" height="138" transform="translate(1460 3023)" opacity="0"/>
    <g id="Group_9816" data-name="Group 9816" transform="translate(1251.251 2755.5)">
      <path id="Path_29443" data-name="Path 29443" d="M234.038,333.221a15.1,15.1,0,0,0,11.7,5.107,17.336,17.336,0,0,0,2.684-.208,1.837,1.837,0,0,0,1.514-1.374,1.859,1.859,0,0,0-.633-1.951,10.713,10.713,0,0,1,6.638-19.028c4.675,0,8.64,4.078,10.051,7.912l3.753-1.61a1.344,1.344,0,0,1,1.326.128,1.372,1.372,0,0,1,.621,1.19,5.313,5.313,0,0,1-1.566,3.709,1.4,1.4,0,0,1,1.138,1.727c-.328,1.35-2.319,2.391-4.723,2.391a7.99,7.99,0,0,1-1.222-.1,11.279,11.279,0,0,1-1.138,1.35.923.923,0,0,0-.236.873.908.908,0,0,0,.6.669c10.066,3.553,13.8,22.941-11.036,22.941-9.566,0-22.432-4.362-22.432-16.007A11.492,11.492,0,0,1,234.038,333.221Zm27.2-10.283c.781,1.094,1.827,1.678,2.335,1.31s.288-1.554-.489-2.648-1.827-1.679-2.335-1.31S260.456,321.845,261.233,322.938Z" transform="translate(0 0)" fill="#f59e0b"/>
      <g id="Group_9815" data-name="Group 9815" transform="translate(285.3 324.152)">
        <path id="Path_29444" data-name="Path 29444" d="M247.638,318.209l6.281.032a12.193,12.193,0,0,1,8.656,3.549,11.567,11.567,0,0,1,3.737,8.729,12.2,12.2,0,0,1-3.649,8.877,11.971,11.971,0,0,1-8.849,3.7H247.6q-2.067,0-2.58-.849a4.483,4.483,0,0,1-.409-2.171V321.2a9.32,9.32,0,0,1,.052-1.19,2.728,2.728,0,0,1,.324-.881Q245.465,318.207,247.638,318.209Zm10.7,17.06A5.944,5.944,0,0,0,260.3,330.7a6.137,6.137,0,0,0-1.919-4.6,6.282,6.282,0,0,0-4.5-1.851h-3.257v12.834h3.293A6.343,6.343,0,0,0,258.334,335.27Z" transform="translate(-244.614 -316.815)" fill="#f59e0b"/>
        <path id="Path_29445" data-name="Path 29445" d="M258.572,337.817a7.211,7.211,0,0,1-5.688-2.6,9.311,9.311,0,0,1-2.259-6.333v-5.941a9.369,9.369,0,0,1,.052-1.19,3.067,3.067,0,0,1,.288-.881q.475-.919,2.648-.917c1.586,0,2.512.429,2.784,1.29a5.341,5.341,0,0,1,.2,1.73v5.944a2.891,2.891,0,0,0,.8,2.171,2.928,2.928,0,0,0,2.139.781,2.975,2.975,0,0,0,2.175-.813,2.87,2.87,0,0,0,.829-2.139v-6.013a10.211,10.211,0,0,1,.052-1.17,2.72,2.72,0,0,1,.324-.9c.292-.589,1.166-.881,2.612-.881q2.139,0,2.616.917a3.053,3.053,0,0,1,.288.9,9.305,9.305,0,0,1,.052,1.17v12.021a9.024,9.024,0,0,1-.052,1.138,2.381,2.381,0,0,1-.32.865q-.511.883-2.616.881-2.073,0-2.548-.813a2.723,2.723,0,0,1-.341-1.394,3.36,3.36,0,0,1-.609.681,8.7,8.7,0,0,1-.917.745A4.511,4.511,0,0,1,258.572,337.817Z" transform="translate(-226.549 -311.567)" fill="#f59e0b"/>
        <path id="Path_29446" data-name="Path 29446" d="M261.789,329.062a2.773,2.773,0,0,0,.949,2.243,3.116,3.116,0,0,0,2.023.8,3.515,3.515,0,0,0,2-.629,2.967,2.967,0,0,1,1.51-.629q1.021,0,2.48,1.8a2.984,2.984,0,0,1,.781,1.766c0,.861-.625,1.666-1.867,2.411a8.083,8.083,0,0,1-4.755,1.358,9.766,9.766,0,0,1-6.081-2.275,8.058,8.058,0,0,1-2.271-2.9,9.026,9.026,0,0,1-.885-4.006,8.84,8.84,0,0,1,.885-3.974,8.168,8.168,0,0,1,2.271-2.868,9.5,9.5,0,0,1,6.013-2.239,8.948,8.948,0,0,1,2.512.353,8.665,8.665,0,0,1,1.8.7l.545.341c.409.272.725.489.949.645a1.945,1.945,0,0,1,.885,1.546,3.691,3.691,0,0,1-.713,1.951q-1.226,1.869-2.343,1.871a3.953,3.953,0,0,1-1.835-.749,2.453,2.453,0,0,0-1.751-.577,3.265,3.265,0,0,0-2.119.813A2.775,2.775,0,0,0,261.789,329.062Z" transform="translate(-211.364 -311.693)" fill="#f59e0b"/>
        <path id="Path_29447" data-name="Path 29447" d="M270.755,335.214l4.515,3.733a5.091,5.091,0,0,1,1.07,1.09,1.389,1.389,0,0,1,.22.713,4.194,4.194,0,0,1-1.049,2.207q-1.154,1.424-2.039,1.426a4.01,4.01,0,0,1-2.071-.985l-.34-.24c-.521-.429-1.322-1.182-2.412-2.255s-1.911-1.839-2.476-2.291v2.612a10.27,10.27,0,0,1-.052,1.174,2.585,2.585,0,0,1-.324.9c-.292.589-1.166.885-2.612.885-1.426,0-2.3-.309-2.616-.917a3.172,3.172,0,0,1-.288-.9,9.335,9.335,0,0,1-.052-1.17V320.849a9.337,9.337,0,0,1,.052-1.17,3.172,3.172,0,0,1,.288-.9c.316-.609,1.2-.917,2.648-.917a3.6,3.6,0,0,1,2.311.577,1.913,1.913,0,0,1,.609,1.494,9,9,0,0,1,.036.953v10.764q.607-.511,1.851-1.731t1.851-1.735l.4-.272a3.615,3.615,0,0,1,2.039-.917c.565,0,1.218.461,1.951,1.378a4.03,4.03,0,0,1,1.106,2.155q0,.781-1.258,1.834Z" transform="translate(-197.682 -317.861)" fill="#f59e0b"/>
        <path id="Path_29448" data-name="Path 29448" d="M267.834,318.209l6.285.032a12.194,12.194,0,0,1,8.657,3.549,11.567,11.567,0,0,1,3.737,8.729,12.19,12.19,0,0,1-3.653,8.877,11.956,11.956,0,0,1-8.845,3.7H267.8q-2.073,0-2.58-.849a4.484,4.484,0,0,1-.409-2.171V321.2a9.321,9.321,0,0,1,.052-1.19,2.705,2.705,0,0,1,.321-.881C265.5,318.513,266.388,318.209,267.834,318.209Zm10.7,17.06A5.954,5.954,0,0,0,280.5,330.7a6.123,6.123,0,0,0-1.919-4.6,6.266,6.266,0,0,0-4.5-1.851h-3.261v12.834h3.3A6.35,6.35,0,0,0,278.534,335.27Z" transform="translate(-183.897 -316.815)" fill="#f59e0b"/>
        <path id="Path_29449" data-name="Path 29449" d="M285.4,319.983l9.169,18.947a4.428,4.428,0,0,1,.577,1.731q0,1.226-1.971,2.207a4.464,4.464,0,0,1-1.819.581,1.813,1.813,0,0,1-1.086-.309,1.986,1.986,0,0,1-.609-.645c-.124-.224-.3-.565-.529-1.018l-1.763-3.669h-9.41l-1.763,3.669q-.343.679-.529.986a2.456,2.456,0,0,1-.609.629,1.767,1.767,0,0,1-1.09.32,4.449,4.449,0,0,1-1.815-.577q-1.971-.949-1.971-2.175a4.427,4.427,0,0,1,.577-1.731l9.169-18.979a2.966,2.966,0,0,1,1.138-1.258,3.005,3.005,0,0,1,1.614-.477A2.875,2.875,0,0,1,285.4,319.983Zm-2.752,8.148-2.239,4.655h4.515Z" transform="translate(-167.744 -316.791)" fill="#f59e0b"/>
        <path id="Path_29450" data-name="Path 29450" d="M288.567,318.141a12.522,12.522,0,0,1,12.426,12.65,12.95,12.95,0,0,1-3.533,9.165,11.416,11.416,0,0,1-8.693,3.786,11.768,11.768,0,0,1-8.777-3.734,12.347,12.347,0,0,1-3.613-8.9,13.637,13.637,0,0,1,1.018-5.28,12.175,12.175,0,0,1,2.716-4.126,12.711,12.711,0,0,1,3.906-2.616A11.4,11.4,0,0,1,288.567,318.141Zm-6.181,12.8a6.5,6.5,0,0,0,1.951,4.9,6.025,6.025,0,0,0,8.708.052,6.45,6.45,0,0,0,1.939-4.923,6.534,6.534,0,0,0-1.955-4.955,6.168,6.168,0,0,0-4.362-1.871,6.082,6.082,0,0,0-4.346,1.887A6.541,6.541,0,0,0,282.386,330.943Z" transform="translate(-149.142 -317.019)" fill="#f59e0b"/>
      </g>
    </g>
  </g>
</svg>
