<svg xmlns="http://www.w3.org/2000/svg" width="250" height="138" viewBox="0 0 250 138">
  <g id="Group_9770" data-name="Group 9770" transform="translate(-460 -2527)">
    <g id="Group_9719" data-name="Group 9719" transform="translate(516 2563)">
      <path id="Path_28956" data-name="Path 28956" d="M256.635,121.345c1.567,1.327,3.063,2.593,4.56,3.859,2.379,2.012,4.762,4.016,7.132,6.04.278.238.419.219.671-.028,1.95-1.9,3.92-3.772,5.873-5.663.242-.235.386-.3.666-.021,1.485,1.454,2.99,2.885,4.5,4.313.228.216.261.334-.009.551-.6.482-1.188.993-1.76,1.515-.231.212-.367.212-.6-.009-.7-.685-1.442-1.334-2.15-2.012-.221-.214-.353-.228-.591,0-1.193,1.129-2.4,2.24-3.616,3.343-.24.219-.245.329.014.544q1.811,1.5,3.581,3.049c.249.219.381.2.631-.012q8.742-7.422,17.5-14.825l.859-.725c-.306,1.671-.591,3.221-.873,4.772q-1.447,7.9-2.892,15.8c-.162.889-.146.892-1.059.892q-13.888,0-27.778.014c-.581,0-.826-.106-.941-.743-1.212-6.812-2.466-13.616-3.708-20.421C256.642,121.533,256.644,121.5,256.635,121.345Zm18.7,18.966h11.623c-1.04-.953-2.028-1.854-3.014-2.76-.36-.332-1-.673-1-1,0-.419.687-.661,1.068-.986.346-.292.739-.8,1.066-.767.374.038.7.565,1.045.885.593.558,1.184,1.118,1.831,1.729l1.247-8.346Zm-.144.073-13.9-11.268,1.233,8.164c.169.049.216-.052.28-.111.736-.7,1.482-1.4,2.2-2.125.254-.254.419-.264.692-.026.513.445,1.054.856,1.6,1.266.254.191.374.315.045.574-.461.358-.875.776-1.306,1.172-.823.755-1.645,1.515-2.555,2.353Z" transform="translate(-155.634 -104.498)" fill="#fff"/>
      <path id="Path_28957" data-name="Path 28957" d="M220.574,140.785v.7c0,3.306-.007,6.612.009,9.917,0,.438-.1.586-.555.565-.866-.04-1.739-.035-2.607,0-.442.016-.565-.1-.562-.558.019-4.27.009-8.539.009-12.807,0-1.1.035-2.193-.014-3.287-.024-.532.16-.621.633-.6.885.038,1.774.028,2.663,0a.889.889,0,0,1,.838.414q3.593,4.909,7.219,9.8c.106.144.167.336.416.414v-.567c0-3.153.016-6.308-.014-9.463,0-.522.151-.619.626-.6.866.038,1.736.021,2.607,0,.313-.007.459.028.459.414q-.021,8.188,0,16.376c0,.4-.141.464-.487.454-.868-.021-1.739-.024-2.607,0a.788.788,0,0,1-.741-.384q-3.7-5.082-7.411-10.146C220.927,141.258,220.8,141.086,220.574,140.785Z" transform="translate(-209.454 -86.3)" fill="#fff"/>
      <path id="Path_28958" data-name="Path 28958" d="M214.082,122.872c0-2.682.014-5.365-.012-8.044,0-.485.146-.591.6-.583,2.247.028,4.494,0,6.741.031a8.34,8.34,0,0,1,7.983,5.216,8.706,8.706,0,0,1-1.546,9.27,8.152,8.152,0,0,1-5.2,2.6,51.057,51.057,0,0,1-5.941.132c-.7.016-1.4-.024-2.1.014-.428.021-.541-.118-.539-.539C214.091,128.272,214.082,125.571,214.082,122.872Zm3.7-.033c0,1.645.012,3.287-.009,4.932,0,.4.115.515.508.5.831-.028,1.663,0,2.494-.012a5.1,5.1,0,0,0,5.442-4.736A5.007,5.007,0,0,0,222,117.613a30.88,30.88,0,0,0-3.96-.087c-.355-.009-.259.254-.261.44C217.778,119.59,217.781,121.216,217.781,122.839Z" transform="translate(-213.219 -113.988)" fill="#fea320"/>
      <path id="Path_28959" data-name="Path 28959" d="M235.379,141.74c-1.372,0-2.638-.014-3.9.012-.346.007-.447-.191-.576-.424-.972-1.767-1.953-3.525-2.915-5.3a.659.659,0,0,0-.7-.421,16.171,16.171,0,0,1-1.755,0c-.353-.019-.442.085-.44.438.021,1.68-.019,3.362.026,5.042.014.574-.165.692-.694.664-.828-.047-1.661-.035-2.492,0-.4.016-.548-.068-.548-.515q.028-8.131,0-16.263c0-.374.1-.473.471-.471,2.663.016,5.329-.033,7.993.024a5.072,5.072,0,0,1,4.8,2.845,5.674,5.674,0,0,1-.313,5.866,4.37,4.37,0,0,1-2.4,1.8c-.428.139-.369.259-.186.567,1.12,1.854,2.221,3.72,3.325,5.586C235.172,141.34,235.252,141.5,235.379,141.74Zm-10.277-11.7c0,.642.014,1.285,0,1.927-.009.282.052.391.365.386,1.228-.019,2.456.012,3.685-.012a2.267,2.267,0,0,0,2.325-2.158,2.193,2.193,0,0,0-2.106-2.4c-1.315-.155-2.64-.028-3.962-.068-.271-.009-.306.12-.3.341C225.106,128.722,225.1,129.383,225.1,130.044Z" transform="translate(-203.324 -100.118)" fill="#fff"/>
      <path id="Path_28960" data-name="Path 28960" d="M258.868,152.424a8.919,8.919,0,1,1,9.014-8.917A8.65,8.65,0,0,1,258.868,152.424Zm5.2-8.964a5.36,5.36,0,0,0-.139-1.376,4.9,4.9,0,0,0-3.348-3.927,4.991,4.991,0,0,0-5.216,1.063,5.861,5.861,0,0,0-1.628,5.348,5.15,5.15,0,0,0,6.833,4.308C262.72,148.17,264.054,146.137,264.063,143.46Z" transform="translate(-164.808 -86.466)" fill="#fff"/>
      <path id="Path_28961" data-name="Path 28961" d="M255.586,142.217a8.43,8.43,0,0,1-8.32-6.943c-1.014-5.03,1.7-9.818,7.037-10.743,4.7-.814,9.11,1.513,10.395,6.066,1.24,4.388-.541,9.148-4.965,10.927A11.131,11.131,0,0,1,255.586,142.217Zm5.692-8.9a6.09,6.09,0,0,0-.148-1.466,4.89,4.89,0,0,0-3.522-3.967,4.948,4.948,0,0,0-5.289,1.367,5.978,5.978,0,0,0-1.381,5.113,5.155,5.155,0,0,0,7.212,4.148C260.389,137.532,261.189,135.619,261.278,133.316Z" transform="translate(-168.592 -100.289)" fill="#fff"/>
      <path id="Path_28962" data-name="Path 28962" d="M272.374,151.953c-1.388,0-2.671-.014-3.953.012-.325,0-.414-.179-.532-.393-.983-1.781-1.976-3.555-2.946-5.343a.652.652,0,0,0-.7-.4,17.474,17.474,0,0,1-1.755,0c-.355-.016-.442.1-.44.445.019,1.72,0,3.44.019,5.157,0,.412-.075.56-.52.539-.868-.04-1.739-.038-2.607,0-.445.016-.562-.106-.56-.555.016-4.346.009-8.689.009-13.035,0-1.078.016-2.153-.009-3.23-.009-.362.106-.433.445-.431,2.626.014,5.254-.026,7.88.019a5.181,5.181,0,0,1,4.863,2.753,5.685,5.685,0,0,1-.1,5.729,4.771,4.771,0,0,1-2.981,2.188Zm-10.317-11.673c0,.64.014,1.282-.007,1.925-.009.3.089.386.383.381,1.209-.017,2.416-.009,3.626-.017a2.54,2.54,0,0,0,1.388-.409,2.278,2.278,0,0,0-1.327-4.176c-1.226-.038-2.454,0-3.682-.016-.292,0-.4.087-.388.386C262.071,139,262.057,139.638,262.057,140.281Z" transform="translate(-153.275 -86.299)" fill="#fff"/>
      <path id="Path_28963" data-name="Path 28963" d="M258.31,122.927c0,2.682-.009,5.362.009,8.044,0,.419-.1.558-.534.541-.9-.035-1.812-.031-2.718,0-.4.012-.513-.1-.508-.5.019-2.059-.007-4.118.019-6.176.007-.466-.115-.6-.593-.6q-3.483.039-6.969,0c-.431,0-.539.129-.534.546.019,2.019-.014,4.04.024,6.061.009.567-.167.7-.7.671-.847-.047-1.7-.026-2.548-.007-.351.009-.492-.068-.492-.459q.018-8.188,0-16.371c0-.369.132-.438.461-.431.925.019,1.849.028,2.774,0,.414-.014.5.134.5.515-.019,1.927,0,3.852-.016,5.779,0,.4.122.511.515.508q3.54-.025,7.082,0c.412,0,.5-.136.5-.518-.019-1.927,0-3.852-.016-5.779,0-.391.1-.52.5-.506.887.031,1.776.035,2.663,0,.461-.019.6.1.6.583C258.3,117.527,258.31,120.228,258.31,122.927Z" transform="translate(-174.395 -113.989)" fill="#fea320"/>
      <path id="Path_28964" data-name="Path 28964" d="M231.918,143.36c0-2.682.019-5.365-.014-8.044,0-.522.155-.607.631-.6q5.523.028,11.049,0c.435,0,.584.1.555.551a15.553,15.553,0,0,0,0,2.094c.045.553-.174.633-.661.628-2.435-.023-4.873,0-7.308-.021-.456,0-.576.127-.558.567.035.831.035,1.663,0,2.492-.016.419.089.536.522.532,2.416-.024,4.835.009,7.252-.026.527-.007.628.155.6.628a17.317,17.317,0,0,0,0,2.038c.028.478-.078.642-.6.633-2.379-.033-4.76,0-7.139-.028-.543-.009-.652.165-.631.659.038.925.031,1.849,0,2.774-.012.386.118.464.478.461,2.492-.014,4.986.007,7.477-.021.492-.007.6.134.569.593-.04.753-.021,1.508,0,2.263,0,.294-.038.435-.391.435q-5.721-.021-11.444,0c-.428,0-.381-.235-.381-.5Q231.922,147.411,231.918,143.36Z" transform="translate(-189.091 -86.298)" fill="#fff"/>
      <path id="Path_28965" data-name="Path 28965" d="M239.567,146.774a7.5,7.5,0,0,0,6.315,2.287,2.838,2.838,0,0,0,1.461-.56,1.377,1.377,0,0,0-.2-2.468,13.806,13.806,0,0,0-3.134-.932,18.651,18.651,0,0,1-2.856-.882,4.432,4.432,0,0,1-3.042-4.1,4.8,4.8,0,0,1,2.659-4.59c2.922-1.645,7.9-1.019,10.369,1.259.191.176.226.28.059.5q-.815,1.052-1.588,2.134c-.2.282-.315.341-.628.089a7.113,7.113,0,0,0-5.334-1.562,2.282,2.282,0,0,0-1.056.372,1.283,1.283,0,0,0,.115,2.313,11.892,11.892,0,0,0,2.748.838,20.918,20.918,0,0,1,3.028.9c1.929.791,3.245,2.066,3.3,4.28.056,2.442-1,4.3-3.216,5.073a10.517,10.517,0,0,1-10.736-1.772c-.188-.153-.315-.285-.122-.551C238.332,148.548,238.929,147.68,239.567,146.774Z" transform="translate(-181.369 -86.449)" fill="#fff"/>
      <path id="Path_28966" data-name="Path 28966" d="M271.929,152.425a10.3,10.3,0,0,1-6.861-2.327c-.336-.287-.459-.485-.127-.892a24.666,24.666,0,0,0,1.468-2.078c.2-.3.292-.322.569-.064a7.255,7.255,0,0,0,6.009,2.009,2.723,2.723,0,0,0,1.546-.635,1.358,1.358,0,0,0-.257-2.367,10.621,10.621,0,0,0-2.687-.842,22.959,22.959,0,0,1-2.932-.826c-2.315-.894-3.433-2.327-3.445-4.4a4.848,4.848,0,0,1,3.428-4.816,9.744,9.744,0,0,1,9.55,1.574c.242.186.282.315.078.574-.551.694-1.085,1.4-1.591,2.132-.209.3-.325.261-.588.052a7.128,7.128,0,0,0-5.334-1.565,2.139,2.139,0,0,0-1.28.539,1.235,1.235,0,0,0,.216,2.078,8.673,8.673,0,0,0,2.4.793,22.317,22.317,0,0,1,3.623,1.071c2.212.96,3.186,2.383,3.158,4.6a5.025,5.025,0,0,1-3.3,4.758A9.687,9.687,0,0,1,271.929,152.425Z" transform="translate(-144.661 -86.465)" fill="#fff"/>
      <path id="Path_28967" data-name="Path 28967" d="M221.738,120.27c0-2.073.012-3.772-.009-5.473,0-.4.066-.569.518-.551.906.038,1.814.038,2.72,0,.442-.016.525.134.522.544-.016,3.23-.026,6.459,0,9.689a3.644,3.644,0,0,0,2.085,3.656,4.591,4.591,0,0,0,4-.047,3.589,3.589,0,0,0,1.951-3.56c.012-3.19.019-6.383-.012-9.574,0-.572.129-.746.711-.711.882.054,1.774.024,2.661.009.292,0,.449.038.445.391-.049,3.663.151,7.332-.1,10.986a5.992,5.992,0,0,1-4.214,5.623,10.358,10.358,0,0,1-7,0,6.065,6.065,0,0,1-4.186-5.409C221.6,123.865,221.806,121.877,221.738,120.27Z" transform="translate(-202.873 -113.993)" fill="#fea320"/>
      <path id="Path_28968" data-name="Path 28968" d="M234.88,133.149q0-4.076,0-8.155c0-.315,0-.5.428-.5,2.68.024,5.362-.009,8.042.016a5.26,5.26,0,0,1,5.247,4.143A5.489,5.489,0,0,1,245.755,135a6.372,6.372,0,0,1-2.741.581c-1.3,0-2.6.021-3.908-.012-.466-.012-.555.146-.548.574.021,1.7,0,3.4.016,5.1,0,.386-.087.525-.5.511-.9-.033-1.812-.033-2.718,0-.407.014-.492-.118-.489-.5C234.887,138.546,234.88,135.847,234.88,133.149Zm3.685-3.132c0,.64.012,1.282,0,1.922,0,.28.061.4.374.4,1.226-.016,2.454.021,3.68-.014a2.286,2.286,0,0,0,2.355-2.193,2.226,2.226,0,0,0-2.169-2.353c-1.315-.141-2.64-.026-3.96-.059-.3-.007-.275.181-.275.374Z" transform="translate(-185.077 -100.117)" fill="#fff"/>
      <path id="Path_28969" data-name="Path 28969" d="M232.779,147.836c.788-2.183,1.553-4.3,2.32-6.423.753-2.087,1.515-4.174,2.256-6.266.108-.3.231-.445.586-.435,1.075.028,2.153.031,3.231,0,.445-.012.541.061.365.511-1.489,3.819-2.958,7.644-4.433,11.47-.623,1.614-1.261,3.221-1.868,4.842a.531.531,0,0,1-.6.428c-1.266-.024-2.532-.019-3.8,0a.472.472,0,0,1-.527-.362q-3.162-8.244-6.353-16.479c-.136-.355-.054-.407.282-.4,1.113.014,2.228.024,3.341,0,.358-.009.48.141.586.44q2.206,6.13,4.426,12.258C232.643,147.532,232.7,147.65,232.779,147.836Z" transform="translate(-199.919 -86.299)" fill="#fff"/>
      <path id="Path_28970" data-name="Path 28970" d="M217.534,133.406a5.313,5.313,0,0,0,5.03,5.5,4.338,4.338,0,0,0,4.1-2.026c.264-.384.461-.409.838-.209.765.4,1.546.781,2.332,1.139.268.122.282.219.136.454a7.681,7.681,0,0,1-6.2,3.9,9.056,9.056,0,0,1-7.543-2.616,8.732,8.732,0,0,1-2.007-9.183,8.145,8.145,0,0,1,6.6-5.757,8.359,8.359,0,0,1,7.143,1.4,8.475,8.475,0,0,1,1.979,2.235c.165.261.174.4-.139.544-.854.4-1.692.823-2.534,1.245-.181.089-.289.148-.445-.092a4.5,4.5,0,0,0-5.049-2.151,5.13,5.13,0,0,0-4.038,3.915A7.52,7.52,0,0,0,217.534,133.406Z" transform="translate(-213.708 -100.296)" fill="#fff"/>
      <path id="Path_28971" data-name="Path 28971" d="M244.649,114.135a7.612,7.612,0,0,1,6.63,3.809c.2.311.2.461-.16.626-.807.362-1.6.76-2.391,1.162-.261.134-.4.129-.6-.139a4.613,4.613,0,0,0-5.27-2,5.319,5.319,0,0,0-3.87,4.48,5.65,5.65,0,0,0,2,5.473,4.779,4.779,0,0,0,7.132-1.026c.191-.289.322-.325.616-.174.772.4,1.551.781,2.343,1.132.367.162.424.3.2.652a7.687,7.687,0,0,1-6.11,3.79,9.106,9.106,0,0,1-7.475-2.534,8.7,8.7,0,0,1-2.2-8.939,8.223,8.223,0,0,1,6.416-6.045A11.512,11.512,0,0,1,244.649,114.135Z" transform="translate(-184.774 -114.135)" fill="#fea320"/>
      <path id="Path_28972" data-name="Path 28972" d="M227.255,124.507c1.362,0,2.609.012,3.856-.009a.626.626,0,0,1,.6.393c1.212,1.974,2.435,3.943,3.654,5.915.1.16.2.315.341.532.718-1.158,1.416-2.282,2.111-3.4q.953-1.539,1.9-3.08c.12-.2.216-.358.506-.355,1.264.019,2.527.009,3.783.009.08.209-.075.3-.151.421q-2.989,4.63-6,9.254a1.793,1.793,0,0,0-.306,1.052c.016,2,0,4,.016,6.007,0,.393-.094.52-.5.508-.906-.033-1.814-.031-2.72,0-.4.014-.508-.1-.506-.5.021-2.04,0-4.08.016-6.12a1.454,1.454,0,0,0-.254-.842q-3.078-4.708-6.139-9.433C227.42,124.764,227.361,124.674,227.255,124.507Z" transform="translate(-195.381 -100.115)" fill="#fff"/>
      <path id="Path_28973" data-name="Path 28973" d="M237.889,124.508c0,2.153-.012,4.306.009,6.459,0,.419-.1.56-.536.544-.885-.035-1.776-.033-2.661,0-.426.014-.539-.111-.536-.536.016-4.268,0-8.536.021-12.807,0-.511-.118-.673-.647-.656-1.3.04-2.607-.007-3.91.024-.435.009-.548-.127-.532-.546.033-.772.024-1.548,0-2.322-.007-.318.089-.421.414-.421q6.49.014,12.981,0c.32,0,.426.092.419.416-.021.812-.024,1.626,0,2.435.012.374-.144.435-.468.433-1.341-.014-2.682.009-4.023-.016-.419-.007-.546.106-.541.534C237.9,120.2,237.889,122.355,237.889,124.508Z" transform="translate(-192.893 -113.986)" fill="#fea320"/>
      <path id="Path_28974" data-name="Path 28974" d="M248.9,144.944c0-2.134-.016-4.268.014-6.4,0-.489-.148-.591-.6-.581-1.32.031-2.642,0-3.965.019-.367,0-.5-.087-.48-.468.028-.755.033-1.513,0-2.266-.019-.416.087-.541.525-.536,2.965.021,5.929.012,8.894.012,1.3,0,2.607.009,3.91-.009.334,0,.464.068.449.433-.028.793-.033,1.588,0,2.379.019.412-.155.456-.492.454-1.341-.014-2.682.012-4.023-.016-.428-.009-.532.115-.532.536.016,4.285,0,8.572.024,12.856,0,.518-.143.633-.631.609-.885-.04-1.774-.031-2.661,0-.362.012-.438-.111-.435-.449C248.9,149.322,248.9,147.134,248.9,144.944Z" transform="translate(-172.922 -86.299)" fill="#fff"/>
      <path id="Path_28975" data-name="Path 28975" d="M249.806,134.746c0,2.153-.009,4.306.009,6.459,0,.4-.064.567-.518.546-.9-.04-1.814-.033-2.72,0-.416.014-.485-.136-.485-.513.012-4.306,0-8.614.021-12.92,0-.518-.144-.621-.628-.609-1.3.035-2.607,0-3.91.021-.379.007-.532-.073-.513-.489.035-.734.035-1.473,0-2.207-.019-.421.092-.539.527-.536,3.059.021,6.12.012,9.181.012,1.207,0,2.416.012,3.626-.009.344,0,.459.082.445.44-.028.793-.024,1.586,0,2.379.009.327-.1.414-.416.409-1.3-.016-2.607.033-3.908-.024-.626-.026-.732.191-.722.753C249.828,130.553,249.806,132.65,249.806,134.746Z" transform="translate(-176.703 -100.117)" fill="#fff"/>
      <path id="Path_28976" data-name="Path 28976" d="M217.772,143.365c0,2.7-.007,5.4.009,8.094,0,.386-.08.52-.489.506-.887-.035-1.776-.04-2.661,0-.459.021-.558-.129-.555-.565.016-3.812.009-7.623.009-11.435,0-1.586.014-3.172-.009-4.755,0-.4.111-.511.5-.5q1.387.042,2.774,0c.367-.012.428.111.426.445C217.768,137.892,217.772,140.629,217.772,143.365Z" transform="translate(-213.21 -86.299)" fill="#fff"/>
      <path id="Path_28977" data-name="Path 28977" d="M258.4,131.067h.586q13.8,0,27.59-.009c.525,0,.732.089.546.649-.148.442,0,1.059-.329,1.339-.348.3-.941.1-1.426.1q-12.974.011-25.947.021c-.536,0-.732-.162-.781-.659C258.586,132.044,258.485,131.583,258.4,131.067Z" transform="translate(-153.249 -91.24)" fill="#fea320"/>
    </g>
    <rect id="Rectangle_1216" data-name="Rectangle 1216" width="250" height="138" transform="translate(460 2527)" opacity="0"/>
  </g>
</svg>
