<svg xmlns="http://www.w3.org/2000/svg" width="250" height="138" viewBox="0 0 250 138">
  <g id="Group_9769" data-name="Group 9769" transform="translate(-210 -2527)">
    <g id="Group_9689" data-name="Group 9689" transform="translate(271 2553)">
      <g id="Group_9687" data-name="Group 9687" transform="translate(1.493)">
        <path id="Path_28649" data-name="Path 28649" d="M87.822,47.122a9.156,9.156,0,0,1,.928,1.343q3.306,5,6.6,10.018c.135.2.262.415.4.642-.175.183-.383.113-.561.113q-14.246.008-28.487.013a.926.926,0,0,1-.9-.475c-.842-1.316-1.788-2.563-2.592-3.9-.237-.432.059-.645.353-.844,2.088-1.432,4.154-2.9,6.234-4.351q2.687-1.877,5.381-3.749c.262-.181.483-.445.847-.426a11.875,11.875,0,0,1,2.7,2.055q2.82,2.3,5.589,4.666c.4.348.626.361.863-.175.658-1.47,1.373-2.913,2.058-4.37C87.363,47.424,87.417,47.087,87.822,47.122Z" transform="translate(29.783 6.064)"/>
        <path id="Path_28650" data-name="Path 28650" d="M73.233,43.107a2.728,2.728,0,0,1-.289,1.068,25.822,25.822,0,0,1-5.438,9.333,23.951,23.951,0,0,1-10.39,6.463,37.794,37.794,0,0,1-9.363,1.672,46.241,46.241,0,0,1-7.968-.178,9.364,9.364,0,0,1-1.91-.3c-.011-.364.316-.4.531-.531,1.983-1.157,4.011-2.233,5.969-3.431,2.789-1.9,5.513-3.884,8.3-5.783,1.618-1.1,3.145-2.339,4.863-3.291a.519.519,0,0,1,.213.013,41.218,41.218,0,0,1,3.482,2.794c1.084.874,2.147,1.772,3.207,2.676.383.326.6.316.825-.167,1.287-2.8,2.611-5.586,3.917-8.378a8.015,8.015,0,0,1,.634-1.181,2.133,2.133,0,0,1,1.23-.844A13.744,13.744,0,0,1,73.233,43.107Z" transform="translate(-13.077 1.86)"/>
        <path id="Path_28651" data-name="Path 28651" d="M69.469,27.456a.29.29,0,0,1,.159.256.915.915,0,0,1-.194.763q-4.811,8.7-9.6,17.414A9.958,9.958,0,0,1,58.4,48.226a.323.323,0,0,1-.216-.084,1.621,1.621,0,0,1-.34-.815c-1.338-5.406-2.768-10.79-4.119-16.192a3.07,3.07,0,0,1-.167-1.025.458.458,0,0,1,.135-.213,15.756,15.756,0,0,1,3.787-.7c3.677-.542,7.358-1.068,11.032-1.635C68.83,27.518,69.156,27.534,69.469,27.456Z" transform="translate(13.531 -24.568)" fill="#cfab63"/>
        <path id="Path_28652" data-name="Path 28652" d="M55.358,48.024a8.274,8.274,0,0,1,.893-1.772c.774-1.435,1.567-2.859,2.36-4.281.89-1.6,1.807-3.183,2.678-4.793.542-1,1.111-1.985,1.643-2.991,1.138-2.169,2.368-4.283,3.528-6.436l.1-.2.129.189a11.633,11.633,0,0,1,.823,3.312c.8,4.173,1.68,8.332,2.414,12.519a.765.765,0,0,1,.013.248.427.427,0,0,1-.113.218c-4.577,1.276-9.112,2.7-13.695,3.968C55.881,48.075,55.622,48.226,55.358,48.024Z" transform="translate(16.596 -24.407)" fill="#cbb363"/>
        <path id="Path_28653" data-name="Path 28653" d="M53.4,45.376c.909-1.527,1.937-2.973,2.924-4.448.356-.289.672-.019.966.108,2.622,1.125,5.23,2.282,7.839,3.431.885.391,1.8.72,2.649,1.184a.628.628,0,0,1,.165.151.3.3,0,0,1,.008.216.92.92,0,0,1-.146.162c-3.226,2.557-6.49,5.058-9.729,7.6a1.187,1.187,0,0,1-.788.367.612.612,0,0,1-.413-.359c-.985-2.452-2.066-4.861-3.094-7.294A4.062,4.062,0,0,1,53.4,45.376Z" transform="translate(13.281 -1.919)" fill="#d53911"/>
        <path id="Path_28654" data-name="Path 28654" d="M62.007,42.774c.043-.013.092-.024.138-.035a.592.592,0,0,1,.61.178c2.2,1.7,4.4,3.393,6.574,5.128a.5.5,0,0,1,.162.245c-.054.337.167.531.391.712.2.165.415.313.626.469-.3.569-.909.747-1.411,1.041Q63.549,53.774,58,57.027c-.329.192-.631.628-1.122.321-.154-.281-.008-.529.081-.785C58.482,52.277,60,47.985,61.546,43.7A3.793,3.793,0,0,1,62.007,42.774Z" transform="translate(19.056 1.317)" fill="#830b09"/>
        <path id="Path_28655" data-name="Path 28655" d="M78.126,46.059a.613.613,0,0,0-.343.127c-1.306,1.012-2.7,1.9-4.049,2.848q-3.718,2.614-7.445,5.214a6.578,6.578,0,0,1-.677.453.569.569,0,0,0-.321.61c-1.106-1.505-2.15-3.051-3.145-4.631a7.863,7.863,0,0,1-.227-2.859,14.973,14.973,0,0,1,.013-1.7c.022-.281-.013-.623.4-.693a11.021,11.021,0,0,0,3.188,1.154c.221.035.44.062.661.094a3.12,3.12,0,0,0,3.151-1.2,1.108,1.108,0,0,1,.771-.218c1.8.17,3.606.2,5.4.356.766.065,1.535.019,2.3.119a.754.754,0,0,1,.259.1A.176.176,0,0,1,78.126,46.059Z" transform="translate(27.704 5.627)" fill="#030009"/>
        <path id="Path_28656" data-name="Path 28656" d="M56.661,28.445c.4,1.527.8,3.053,1.187,4.583q1.728,6.741,3.447,13.482l-.092.067a.542.542,0,0,1-.218.013,57.318,57.318,0,0,1-5.414-2.754c-.7-.874-1.262-1.84-1.885-2.765-.65-.968-1.276-1.953-1.91-2.929a23.291,23.291,0,0,1,1.338-2.97c.968-2.031,1.956-4.054,2.946-6.072C56.189,28.833,56.24,28.461,56.661,28.445Z" transform="translate(10.516 -22.889)" fill="#dd9757"/>
        <path id="Path_28657" data-name="Path 28657" d="M79.031,38.97c-2.088.124-4.176.221-6.253.475a2.37,2.37,0,0,1-1.1.046c-2.123-.316-4.208-.833-6.309-1.27A.687.687,0,0,1,65,37.982c-.135-.494.294-.637.566-.844,3.026-2.293,6.091-4.54,9.147-6.795.618-.459,1.222-.936,1.84-1.395l.111-.027.116.022.084.084a.914.914,0,0,1,.119.34c.688,2.692,1.295,5.4,1.969,8.1C79.076,37.947,79.349,38.455,79.031,38.97Z" transform="translate(32.926 -22.08)" fill="#4dbb67"/>
        <path id="Path_28658" data-name="Path 28658" d="M66.066,49.944c-.866-.359-1.737-.7-2.595-1.074q-4.248-1.853-8.483-3.722a1.043,1.043,0,0,0-.5-.108c1.252-1.91,2.479-3.838,3.814-5.691a11.592,11.592,0,0,1,2.991-.971.659.659,0,0,1,.229.024,1.026,1.026,0,0,1,.21.089,6.078,6.078,0,0,0,2.492,1.257.608.608,0,0,1,.486.3c.515,3.083.99,6.169,1.451,9.257A.684.684,0,0,1,66.066,49.944Z" transform="translate(15.121 -6.032)" fill="#df6b3b"/>
        <path id="Path_28659" data-name="Path 28659" d="M42.926,45.191a13.813,13.813,0,0,0,1.489,3.426q-2.937,2.322-5.9,4.613c-.194.151-.38.326-.664.232a.7.7,0,0,1-.291-.334c-1.635-3.906-3.342-7.782-4.979-11.688a2.5,2.5,0,0,1-.321-1.057.228.228,0,0,1,.14-.165,8.547,8.547,0,0,1,2.406.936q3.609,1.566,7.2,3.156C42.43,44.5,42.805,44.7,42.926,45.191Z" transform="translate(-22.619 -2.908)" fill="#d53911"/>
        <path id="Path_28660" data-name="Path 28660" d="M58.065,45.429a12.306,12.306,0,0,1,.116,2.357q.012,1.331,0,2.662c0,.156.086.351-.116.464a.559.559,0,0,1-.138-.189,32.179,32.179,0,0,1-.067-3.345c-.024-.75-.062-.78-.782-.507-2.3.871-4.572,1.81-6.884,2.643l-.119,0a.261.261,0,0,1-.178-.14.945.945,0,0,1-.073-.224,2.611,2.611,0,0,0-.162-.566c-.534-2.352-.906-4.734-1.351-7.1-.37-1.953-.79-3.9-1.047-5.87.03-.237-.019-.545.275-.623.235-.065.4.154.561.308q4.8,4.786,9.589,9.586C57.849,45.043,57.914,45.264,58.065,45.429Z" transform="translate(2.854 -11.804)" fill="#004345"/>
        <path id="Path_28661" data-name="Path 28661" d="M53.687,45.393q-1.91,1.339-3.814,2.681c-2.487,1.743-4.963,3.493-7.466,5.214a7.876,7.876,0,0,1-1.848,1.2c-.272-.254-.21-.591-.213-.9-.008-1.651,0-3.3-.005-4.952a2.978,2.978,0,0,0-.092-.952,5.7,5.7,0,0,1,.051-2.22l.094-.105a20.533,20.533,0,0,0,3.995-.45,1.256,1.256,0,0,0,.343-.1.151.151,0,0,1,.135-.024,7.827,7.827,0,0,1,2.069-.062c1.832.116,3.658.245,5.492.318A1.846,1.846,0,0,1,53.687,45.393Z" transform="translate(-9.192 4.664)" fill="#030009"/>
        <path id="Path_28662" data-name="Path 28662" d="M59.714,49.174c-.194-1.268-.383-2.536-.585-3.8-.216-1.365-.448-2.727-.658-4.092a10.989,10.989,0,0,1-.237-2.058.607.607,0,0,1,.591-.245c.747.022,1.481-.135,2.225-.148a1.8,1.8,0,0,1,.828.3q2.209,1.311,4.4,2.646c.313.189.7.359.475.852A1.936,1.936,0,0,0,66.93,44.7a6.453,6.453,0,0,1,.731,1.778c-.092.31-.378.367-.626.459-2.161.785-4.343,1.5-6.522,2.225-.254.084-.513.208-.78.03Z" transform="translate(21.473 -5.262)" fill="#b56d41"/>
        <path id="Path_28663" data-name="Path 28663" d="M48.51,56.567c.976-1.492,1.948-2.989,2.935-4.475q2.039-3.071,4.095-6.126c.45-.192.618.213.839.432,2.01,1.983,3.995,3.989,6,5.977a1.9,1.9,0,0,1,.307.3.238.238,0,0,1-.035.216.64.64,0,0,1-.192.127c-1.926.65-3.909,1.1-5.864,1.643-2.387.661-4.782,1.289-7.172,1.931C49.12,56.672,48.807,56.834,48.51,56.567Z" transform="translate(4.973 6.767)" fill="#d30000"/>
        <path id="Path_28664" data-name="Path 28664" d="M61.817,34.061A8.571,8.571,0,0,1,62.9,32.447a6.363,6.363,0,0,0,1.934-.912c2.015-1.114,4.014-2.263,6.015-3.407.434-.248.85-.626,1.424-.521a.281.281,0,0,1,.105.2,2.647,2.647,0,0,1-.008.359c-.359,2.676-.86,5.33-1.3,7.992a23.478,23.478,0,0,1-.723,3.784c-.084.129-.011.326-.175.426a.217.217,0,0,1-.208-.051c-1.475-1.284-3.118-2.347-4.675-3.523q-1.477-1.121-2.983-2.2C62.106,34.452,61.879,34.328,61.817,34.061Z" transform="translate(27.56 -24.34)" fill="#95c367"/>
        <path id="Path_28665" data-name="Path 28665" d="M67.917,47.5v-.116a.38.38,0,0,1,.154-.178q3.945-1.444,7.949-2.735a.771.771,0,0,1,.715.038Q78.3,46.694,79.691,49a.621.621,0,0,0-.3.318q-1.149,2.46-2.306,4.912c-.073.154-.043.353-.272.5a2.662,2.662,0,0,1-.742-.483c-1.114-.936-2.242-1.856-3.358-2.792-1.041-.874-2.058-1.775-3.113-2.63A13.125,13.125,0,0,0,67.917,47.5Z" transform="translate(37.914 4.19)" fill="#00000b"/>
        <path id="Path_28666" data-name="Path 28666" d="M58.783,31.108a13.3,13.3,0,0,0-1.23,2.355c-.283.631-.583,1.252-.885,1.875q-1.157,2.4-2.328,4.8c-.119.24-.186.518-.442.669-.8-1.117-1.573-2.25-2.271-3.431-.434-3.186-.664-6.4-1.082-9.586a1.52,1.52,0,0,1,.038-.661c.321-.494.669-.129.958.013,2.3,1.141,4.607,2.282,6.9,3.445a1.132,1.132,0,0,1,.181.113.608.608,0,0,1,.14.159l.024.105Z" transform="translate(8.395 -25.552)" fill="#c9895f"/>
        <path id="Path_28667" data-name="Path 28667" d="M30.177,46.14a11.709,11.709,0,0,1-1.049-3,1.072,1.072,0,0,1,.731-.316c1.659-.24,3.31-.518,4.971-.758a2.081,2.081,0,0,1,.807.019.556.556,0,0,1,.3.213c1.217,3.226,2.3,6.5,3.458,9.748.4,1.122.839,2.233,1.179,3.374.081.275.259.553.054.85-.44.1-.6-.283-.828-.51Q34.981,50.962,30.177,46.14Z" transform="translate(-27.926 0.186)" fill="#e70900"/>
        <path id="Path_28668" data-name="Path 28668" d="M70.928,45.476c-.259.2-.178.494-.178.755-.008,1.5-.005,3-.005,4.5L69.366,48.82c-.162.229-.3.415-.434.61q-1.983,2.933-3.962,5.87a1.125,1.125,0,0,1-.321.4c-2.247-.688-4.524-1.27-6.779-1.926a3,3,0,0,1-.9-.34.4.4,0,0,1-.135-.189l.038-.113a8.11,8.11,0,0,0,1.613-.893c2.436-1.422,4.855-2.867,7.286-4.3,1.556-.917,3.121-1.818,4.683-2.727A.835.835,0,0,1,70.928,45.476Z" transform="translate(19.107 5.574)" fill="#450000"/>
        <path id="Path_28669" data-name="Path 28669" d="M42.889,47.673a1.577,1.577,0,0,0-.664-.566q-2.792-1.21-5.578-2.438-2.177-.955-4.345-1.926a.163.163,0,0,1,.035-.213c1.678-.615,3.409-1.057,5.114-1.586,2.182-.677,4.372-1.327,6.557-1.991a3.657,3.657,0,0,1,.944-.2l.121.027a.37.37,0,0,1,.178.167,52.454,52.454,0,0,1,.858,5.344.366.366,0,0,1-.084.227c-1.009.008-2.018.011-3.026.024-.564.008-.6.027-.529.588C42.584,45.981,42.746,46.826,42.889,47.673Z" transform="translate(-22.581 -5.389)" fill="#df6b3b"/>
        <path id="Path_28670" data-name="Path 28670" d="M28.711,46.525a1.458,1.458,0,0,1,.005-.6c.882-1.637,1.95-3.159,2.935-4.731,1.276-2.034,2.571-4.06,3.852-6.088a1.577,1.577,0,0,1,.278-.348.431.431,0,0,1,.205-.076.578.578,0,0,1,.283.156c1.4,1.775,2.854,3.5,4.251,5.281a2.263,2.263,0,0,1,.653,1.06.359.359,0,0,1-.1.194c-2.358,1.122-4.793,2.066-7.189,3.1-1.462.631-2.919,1.27-4.4,1.858C29.237,46.425,29.008,46.617,28.711,46.525Z" transform="translate(-28.682 -12.304)" fill="#ef7733"/>
        <path id="Path_28671" data-name="Path 28671" d="M69.442,29.264a.308.308,0,0,1-.3.275c-1.832.248-3.666.491-5.5.758-1.489.218-2.97.475-4.459.7-1.195.178-2.4.326-3.593.494-.658.092-1.316.2-1.974.3l-.005-.011a.32.32,0,0,1-.046-.216c.432-1.629,1.106-3.175,1.645-4.769a.654.654,0,0,1,.34-.375c1.877-.008,3.752-.024,5.629-.024,1.208,0,2.42.013,3.628.024A36.862,36.862,0,0,1,69.3,29.078Z" transform="translate(13.558 -26.376)" fill="#ab9569"/>
        <path id="Path_28672" data-name="Path 28672" d="M69.359,31.528l.024-.3a1.059,1.059,0,0,1,.642-.34c3.65-1.047,7.294-2.12,10.941-3.172A1.889,1.889,0,0,1,81.7,27.6c.216.022.324.121.189.345-.07.129-.129.267-.21.388q-3.087,4.649-6.185,9.3c-.081.121-.183.232-.275.345-.237.1-.375-.059-.5-.2-1.7-1.931-3.42-3.838-5.079-5.8A4.129,4.129,0,0,1,69.359,31.528Z" transform="translate(40.361 -24.333)" fill="#007d55"/>
        <path id="Path_28673" data-name="Path 28673" d="M81.923,30c-.051-.367-.313-.173-.453-.138-.86.227-1.713.477-2.568.726q-4.6,1.331-9.187,2.665a1.537,1.537,0,0,1-.3.03l-.049.008c-.105-.278.07-.475.2-.68,1.119-1.775,2.169-3.593,3.25-5.389a1.836,1.836,0,0,1,.742-.8c3.086-.04,6.172-.049,9.257,0,.375.192.793.321,1,.739C83.218,28.129,82.608,29.089,81.923,30Z" transform="translate(40.324 -26.385)" fill="#178d55"/>
        <path id="Path_28674" data-name="Path 28674" d="M63.715,29.989c2,1.365,3.917,2.838,5.864,4.273.655.486,1.314.96,1.977,1.435a1.089,1.089,0,0,1,.4.426,1.169,1.169,0,0,1-.548.367c-3.472,1.109-6.921,2.285-10.423,3.291a.327.327,0,0,1-.221-.073v-.148a1.88,1.88,0,0,1,.078-1.149c.507-2.188,1.106-4.351,1.632-6.536a1.169,1.169,0,0,1,.37-.7A12.427,12.427,0,0,1,63.715,29.989Z" transform="translate(25.662 -20.268)" fill="#abbd67"/>
        <path id="Path_28675" data-name="Path 28675" d="M42.316,28.32l.413.011a15.018,15.018,0,0,1,2.3,1.505c1.19.858,2.4,1.691,3.574,2.565a1.772,1.772,0,0,1,.6.55.357.357,0,0,1-.022.218,10.378,10.378,0,0,1-2.4,1.462c-1.875,1.076-3.76,2.128-5.643,3.186-.337.189-.755.647-1.109-.024A35.542,35.542,0,0,1,39.956,34c-.016-1.635-.027-3.272.008-4.907.016-.763.113-.844.877-.831A6.008,6.008,0,0,1,42.316,28.32Z" transform="translate(-9.579 -23.225)" fill="#93bd67"/>
        <path id="Path_28676" data-name="Path 28676" d="M55.456,37.715q3.383-.983,6.768-1.972c2.279-.666,4.559-1.335,6.841-1.988a1.165,1.165,0,0,1,.863-.067c.227.208.2.491.237.755.194,1.494.229,3,.41,4.5a1.113,1.113,0,0,1-.2.982,15.423,15.423,0,0,1-1.934.016c-.065-.121.108-.208.105-.208a56.127,56.127,0,0,1-6.19-.758c-2.293-.264-4.564-.666-6.854-.968-.119-.059-.229-.124-.2-.289h.008Z" transform="translate(16.498 -14.098)" fill="#d3ab61"/>
        <path id="Path_28677" data-name="Path 28677" d="M28.693,42.36a13.457,13.457,0,0,1,2.225-1.014c1.858-.825,3.739-1.6,5.611-2.39,1.392-.591,2.781-1.187,4.176-1.775a1.341,1.341,0,0,1,.367-.046c.2.264.057.526-.027.774-.753,2.247-1.494,4.5-2.244,6.749a1.425,1.425,0,0,1-.413.688c0,.049,0,.1,0,.146v.027a.5.5,0,0,1-.221.078c-1.756-.45-3.466-1.052-5.2-1.589-1.163-.359-2.333-.688-3.482-1.1a1.937,1.937,0,0,1-.788-.4Z" transform="translate(-28.664 -8.139)" fill="#f16521"/>
        <path id="Path_28678" data-name="Path 28678" d="M47.523,45.766c.224.227.132.515.135.777.011,2.034.011,4.068.016,6.1a3.053,3.053,0,0,1-1.154.78c-1.759,1.014-3.536,1.993-5.308,2.986a.539.539,0,0,0-.105.1,18.889,18.889,0,0,1-4.049-.893.572.572,0,0,1-.3-.4,49.577,49.577,0,0,1-.78-5.114c.054-.526.38-.653.844-.572a7.461,7.461,0,0,1,.8.2c2.913.847,5.837,1.651,8.761,2.463.852.237.923.181.928-.739,0-1.567-.005-3.134.005-4.7C47.307,46.413,47.24,46.049,47.523,45.766Z" transform="translate(-16.307 6.511)" fill="#3b0000"/>
        <path id="Path_28679" data-name="Path 28679" d="M49,52.218a11.148,11.148,0,0,0,2.15-.518c1.91-.483,3.8-1.025,5.7-1.546q2.958-.809,5.913-1.624a2.79,2.79,0,0,1,.367-.051.346.346,0,0,1-.024.353c-.906,1.68-1.853,3.337-2.808,4.993a1.726,1.726,0,0,1-.3.329c-.37.013-.739.035-1.109.035q-4.41,0-8.82,0c-.27,0-.539-.022-.812-.032-.375-.21-.958-.127-1.047-.742A5.482,5.482,0,0,1,49,52.218Z" transform="translate(4.48 11.116)" fill="#b00"/>
        <path id="Path_28680" data-name="Path 28680" d="M56.979,42.838l.016.146a3.109,3.109,0,0,1-.9,1.494c-2.422.008-4.845.022-7.264.024-1.26,0-2.519-.019-3.779-.03-.267-.1-.348-.34-.426-.575-.48-1.408-.944-2.821-1.408-4.235a.784.784,0,0,1,.013-.717.644.644,0,0,1,.334-.151,1.616,1.616,0,0,1,.974.14,32.905,32.905,0,0,0,3.666,1.171c2.67.828,5.352,1.61,8.03,2.409A1.7,1.7,0,0,1,56.979,42.838Z" transform="translate(-4.146 -5.351)" fill="#0d6149"/>
        <path id="Path_28681" data-name="Path 28681" d="M56.341,56.814a.309.309,0,0,1-.294-.148,27.067,27.067,0,0,1-1.163-3.129c-.825-2.382-1.694-4.753-2.5-7.143-.1-.3-.262-.6-.065-.92A12.938,12.938,0,0,1,53.624,43.5c.375-.1.537.2.72.413,1.341,1.532,2.768,2.986,4.105,4.518.213.243.386.515.58.771a.576.576,0,0,0,.3.31.294.294,0,0,1,.059.216c-.777,2.266-1.8,4.435-2.654,6.673A.588.588,0,0,1,56.341,56.814Z" transform="translate(11.279 2.638)" fill="#d70000"/>
        <path id="Path_28682" data-name="Path 28682" d="M58.791,44.378c2.662-.847,5.317-1.721,7.928-2.714v0a.8.8,0,0,0,.1.165,12.075,12.075,0,0,1,.734,2.252,5.144,5.144,0,0,1,.008,2.355,10.943,10.943,0,0,1-1.432,3.62,12.361,12.361,0,0,1-1.972-1.449c-1.675-1.276-3.323-2.589-4.982-3.882a2.778,2.778,0,0,0-.391-.218C58.786,44.464,58.789,44.421,58.791,44.378Z" transform="translate(22.415 -0.451)" fill="#83412f"/>
        <path id="Path_28683" data-name="Path 28683" d="M62.976,54.721c-1.246.062-2.5.059-3.741,0a3.3,3.3,0,0,1-.658-.472c-1.462-1.47-2.937-2.927-4.389-4.408-.254-.256-.682-.539-.173-.96a5.218,5.218,0,0,1,1.907-.264c1.926-.178,3.849-.41,5.783-.472a.6.6,0,0,1,.235.124,1.074,1.074,0,0,1,.351.707c.289,1.581.513,3.172.8,4.753A1.109,1.109,0,0,1,62.976,54.721Z" transform="translate(13.912 10.549)" fill="#830000"/>
        <path id="Path_28684" data-name="Path 28684" d="M58.146,47.105a2.183,2.183,0,0,1-.612-.531q-4.657-4.653-9.309-9.3c-.186-.189-.334-.432-.6-.521-.108.108-.073.24-.086.359-.507-.227-.3-.569-.143-.9a25.673,25.673,0,0,1,3.949-2.22.7.7,0,0,1,.224.038.876.876,0,0,1,.272.2,25.071,25.071,0,0,1,1.457,2.67c1.419,2.722,2.808,5.459,4.256,8.168a7.281,7.281,0,0,1,.577,1.438A1.112,1.112,0,0,1,58.146,47.105Z" transform="translate(2.774 -13.481)" fill="#004d4f"/>
        <path id="Path_28685" data-name="Path 28685" d="M33.968,31.813a21.487,21.487,0,0,1,4.116-2.037,17.226,17.226,0,0,1,3.242-1.047c1.672.893,3.24,1.964,4.871,2.932.194.116.537.267.216.61a1.965,1.965,0,0,1-.85.251c-3.83.548-7.655,1.136-11.488,1.667a2.057,2.057,0,0,1-.445.027.516.516,0,0,1-.221-.084c-.24-.308-.054-.6.049-.885C33.631,32.771,33.787,32.288,33.968,31.813Z" transform="translate(-20.857 -22.405)" fill="#ab9569"/>
        <path id="Path_28686" data-name="Path 28686" d="M34.362,48.125a8.962,8.962,0,0,0,1.721-1.238c1.432-1.079,2.827-2.2,4.232-3.32a.835.835,0,0,1,.6-.235l1.071,1.327a.817.817,0,0,1-.016.718c-.869,2.584-1.853,5.128-2.73,7.709a1.3,1.3,0,0,1-.3.507.347.347,0,0,1-.2.089,17.811,17.811,0,0,1-2.037-2.42c-.809-.96-1.627-1.918-2.366-2.935A.234.234,0,0,1,34.362,48.125Z" transform="translate(-19.114 2.377)" fill="#ab0500"/>
        <path id="Path_28687" data-name="Path 28687" d="M67.767,26.422q2.391-.069,4.782,0c.3.14.38.44.491.709.739,1.8,1.513,3.59,2.252,5.389.1.243.283.483.089.761h-.005c-.267.189-.531.062-.777-.035-2.792-1.082-5.589-2.153-8.365-3.272-.232-.094-.461-.2-.518-.483A7.8,7.8,0,0,1,67.767,26.422Z" transform="translate(34.18 -26.383)" fill="#69c567"/>
        <path id="Path_28688" data-name="Path 28688" d="M35.988,52.789c1.038-2.994,2.193-5.948,3.161-8.966a11.514,11.514,0,0,0,7.6,2.892,1.821,1.821,0,0,1,.731.092.043.043,0,0,1,0,.07c-2.924.483-5.023,2.589-7.555,3.844-1.311.65-2.476,1.573-3.844,2.123Z" transform="translate(-16.282 3.213)" fill="#830b09"/>
        <path id="Path_28689" data-name="Path 28689" d="M57.846,54.657a15.634,15.634,0,0,0-.318-2.266c-.181-1.268-.477-2.517-.607-3.793a1.446,1.446,0,0,0-.121-.348l.07-.067.076.059q3.646,1.032,7.3,2.058c.216.059.453.054.472.359-.763,1.308-1.672,2.522-2.5,3.793a.508.508,0,0,1-.5.243C60.43,54.67,59.138,54.74,57.846,54.657Z" transform="translate(19.042 10.614)" fill="#3b0000"/>
        <path id="Path_28690" data-name="Path 28690" d="M52.987,39.568c-.049,0-.094,0-.143-.005-1.772-2.007-3.5-4.054-5.311-6.023-.4-.437-.769-.906-1.138-1.373l-.024-.111.016-.111a.6.6,0,0,1,.14-.186.838.838,0,0,1,.2-.116c.877-.286,1.775-.494,2.646-.79a1.285,1.285,0,0,1,1.076.073,21.469,21.469,0,0,1,4.626,5.489c-.548.923-1.16,1.807-1.689,2.743A.836.836,0,0,1,52.987,39.568Z" transform="translate(1.34 -18.945)" fill="#007d55"/>
        <path id="Path_28691" data-name="Path 28691" d="M35.851,34.807a3.217,3.217,0,0,1-.55,1.036c-1.861,2.94-3.741,5.867-5.616,8.8A3.847,3.847,0,0,1,28.695,46a30.093,30.093,0,0,1,1.937-10.746,1.38,1.38,0,0,1,.9-.318c1.289-.081,2.576-.194,3.865-.3a.672.672,0,0,1,.359.078Z" transform="translate(-28.661 -12.382)" fill="#e74f1f"/>
        <path id="Path_28692" data-name="Path 28692" d="M36.461,47.036a20.08,20.08,0,0,0-3,.38l-3.579.521a16.3,16.3,0,0,1-.807-3.466,25.633,25.633,0,0,1-.367-5.2c.48-.2.669.218.9.456,2.236,2.287,4.421,4.623,6.714,6.857a1.1,1.1,0,0,1,.132.165l.049.094A.21.21,0,0,1,36.461,47.036Z" transform="translate(-28.677 -4.607)" fill="#ed0f00"/>
        <path id="Path_28693" data-name="Path 28693" d="M64.779,35.19c-.3,1.446-.707,2.87-1.079,4.3-.356,1.359-.669,2.727-1,4.089a7.043,7.043,0,0,1-.432-1.929c-.364-1.662-.723-3.329-1-5.009-.286-1.756-.688-3.488-1-5.238-.192-1.09-.37-2.19-.653-3.264a3.667,3.667,0,0,1-.059-.518c1.13,1.505,2.109,3.113,3.18,4.656C63.417,33.25,64.021,34.273,64.779,35.19Z" transform="translate(23.729 -24.288)" fill="#b5b969"/>
        <path id="Path_28694" data-name="Path 28694" d="M32.073,41.958c-.049,0-.094,0-.143.005l0-.005a1.028,1.028,0,0,1-.146-.218C31.5,39.426,31.3,37.1,31,34.789A19.946,19.946,0,0,1,35.6,30.446a1.876,1.876,0,0,1,1.694.761l.005.011a.2.2,0,0,1,.043.208c-1.6,3.237-3.121,6.514-4.739,9.743A1.674,1.674,0,0,1,32.073,41.958Z" transform="translate(-24.74 -19.539)" fill="#c9895f"/>
        <path id="Path_28695" data-name="Path 28695" d="M55.324,46.669c-.534-.974-1.087-1.942-1.6-2.927-1.141-2.2-2.242-4.421-3.4-6.611-.477-.9-.944-1.8-1.408-2.7-.156-.318.089-.437.3-.456a6.059,6.059,0,0,1,3.283.307,21.649,21.649,0,0,1,1.6,4.313,36.809,36.809,0,0,1,1.211,7.035C55.335,45.974,55.319,46.322,55.324,46.669Z" transform="translate(5.576 -13.646)" fill="#000939"/>
        <path id="Path_28696" data-name="Path 28696" d="M36.292,46.891A21.988,21.988,0,0,1,34.635,45.3c-1.818-1.721-3.447-3.625-5.236-5.37-.208-.2-.367-.486-.707-.507l0-.291a2.037,2.037,0,0,1,.367.046q4.382,1.388,8.761,2.778c.143.046.278.111.415.165a.8.8,0,0,1,.005.715q-.7,1.881-1.384,3.771c-.07.192-.1.459-.415.434h0A1.991,1.991,0,0,0,36.292,46.891Z" transform="translate(-28.664 -4.756)" fill="#f14709"/>
        <path id="Path_28697" data-name="Path 28697" d="M45.216,28.354c-.521.005-1.041,0-1.562.016s-.55.03-.558.548c-.011.917,0,1.834,0,2.754v6.4a.121.121,0,0,1-.019.178.637.637,0,0,1-.564-.3c-1.365-1.637-2.9-3.121-4.256-4.764a.363.363,0,0,1-.019-.208,3.861,3.861,0,0,1,.92-1.419c.655-.839,1.279-1.7,1.926-2.546.148-.194.345-.378.189-.661a13.555,13.555,0,0,1,2.786-.1A2.458,2.458,0,0,1,45.216,28.354Z" transform="translate(-12.479 -23.26)" fill="#9fb565"/>
        <path id="Path_28698" data-name="Path 28698" d="M40.127,47.247a.788.788,0,0,0,.138-.011l.019.019c.165.173-.024.429.138.6a18.6,18.6,0,0,0,.367,2.619c.1.8.254,1.594.391,2.39.03.167.086.332.129.5a19.287,19.287,0,0,1-4.033-1.43c-1.26-1.036-2.341-2.255-3.493-3.4-.224-.221-.556-.523-.046-.828,1.956-.334,3.938-.4,5.907-.6A.634.634,0,0,1,40.127,47.247Z" transform="translate(-20.559 8.766)" fill="#830000"/>
        <path id="Path_28699" data-name="Path 28699" d="M54.2,44.222c.227.987.62,1.923.939,2.881.545,1.64,1.152,3.258,1.729,4.89q.494,1.4.974,2.8c.065.194.227.388.086.62a2.464,2.464,0,0,1-.607-.539q-2.784-2.776-5.565-5.559c-.189-.186-.334-.44-.642-.472C52.106,47.275,53.117,45.724,54.2,44.222Z" transform="translate(9.396 3.89)" fill="#e70900"/>
        <path id="Path_28700" data-name="Path 28700" d="M61.182,39.989c-.019-1.13-.2-2.247-.264-3.369a23.19,23.19,0,0,1-.186-2.867l0-.151h.148a2.653,2.653,0,0,1,.887.049c2.19.558,4.394,1.074,6.573,1.683a1.393,1.393,0,0,1,.539.24c.2.539-.294.623-.566.763-1.508.766-2.978,1.6-4.456,2.411A8.828,8.828,0,0,0,61.773,40,1.365,1.365,0,0,1,61.182,39.989Z" transform="translate(25.694 -14.162)" fill="#b9b165"/>
        <path id="Path_28701" data-name="Path 28701" d="M71.614,29.582a12.277,12.277,0,0,0-2.509,1.279c-1.395.753-2.759,1.559-4.138,2.344-.753.429-1.505.86-2.263,1.276-.17.092-.415.318-.486-.108,1.044-1.564,2.072-3.14,3.137-4.685.742-1.079,1.422-2.2,2.236-3.231a21.341,21.341,0,0,1,4.051,2.935A.164.164,0,0,1,71.614,29.582Z" transform="translate(28.242 -26.265)" fill="#93bd67"/>
        <path id="Path_28702" data-name="Path 28702" d="M48.4,39.074l-.278.059c-1.2,1.57-2.325,3.2-3.512,4.782a2.988,2.988,0,0,1-.653.7,8.193,8.193,0,0,1-1.5,0c-.262-.1-.34-.34-.437-.564-.534-1.214-1.079-2.422-1.589-3.644-.113-.27-.264-.542-.035-.831a5,5,0,0,1,2.3-.761,34.683,34.683,0,0,1,5.187-.046C48.085,38.774,48.352,38.761,48.4,39.074Z" transform="translate(-9.009 -5.492)" fill="#9b9157"/>
        <path id="Path_28703" data-name="Path 28703" d="M69.588,50.014a.3.3,0,0,0-.127.046.836.836,0,0,0-.138-.03,1.2,1.2,0,0,1-.151-.178c-.658-2.007-1.365-3.995-2.023-6a.991.991,0,0,1-.1-.717v.005c.143-.078.313-.016.453-.094a14.386,14.386,0,0,1,4.8-.038,5.1,5.1,0,0,1,1.664.569,29.686,29.686,0,0,1-1.807,2.8c-.658,1.022-1.346,2.02-2.015,3.035A2.435,2.435,0,0,1,69.588,50.014Z" transform="translate(36.37 1.511)" fill="#0d6149"/>
        <path id="Path_28704" data-name="Path 28704" d="M45.586,28.833a17.5,17.5,0,0,1,3.984,1.521c.653,1.349,1.176,2.754,1.761,4.132.094.218.218.453.038.693-.307.175-.577.011-.85-.092-2.042-.761-4.049-1.6-6.1-2.352-.383-.14-.817-.245-1.028-.669a.7.7,0,0,1,.124-.561c.515-.812,1.052-1.613,1.6-2.4C45.227,28.949,45.335,28.757,45.586,28.833Z" transform="translate(-3.737 -22.26)" fill="#69c567"/>
        <path id="Path_28705" data-name="Path 28705" d="M66.68,32.531a.313.313,0,0,0,.148-.3.088.088,0,0,1,.146,0,.766.766,0,0,0,.5.286q3.273.672,6.549,1.333a4.758,4.758,0,0,0,.736.04,9.978,9.978,0,0,1-1.589.34,12.79,12.79,0,0,0-4.993,2.4c-.556.415-1.106.833-1.659,1.252a17.328,17.328,0,0,1-2.527.3.376.376,0,0,1-.183-.132,3.237,3.237,0,0,1,.62-1.559c.591-1.141,1.219-2.263,1.78-3.423C66.316,32.852,66.405,32.606,66.68,32.531Z" transform="translate(30.942 -16.525)" fill="#6fbd65"/>
        <path id="Path_28706" data-name="Path 28706" d="M71.082,33.282c-.44-1.074-.874-2.153-1.319-3.226q-.753-1.817-1.513-3.633c2.384-.054,4.769-.04,7.156-.005q-1.671,2.743-3.339,5.486c-.281.464-.569.923-.852,1.384C71.169,33.285,71.125,33.282,71.082,33.282Z" transform="translate(38.479 -26.383)" fill="#59bb61"/>
        <path id="Path_28707" data-name="Path 28707" d="M55.875,48.507c.005.345.289.5.491.709q2.169,2.181,4.345,4.354a2.508,2.508,0,0,1,.537.607c-1.012.013-2.023.035-3.035.035-1.875,0-3.749-.022-5.624-.035a3.985,3.985,0,0,1,.669-1.3c.8-1.47,1.637-2.916,2.46-4.372h0A.1.1,0,0,1,55.875,48.507Z" transform="translate(11.898 11.094)" fill="#910000"/>
        <path id="Path_28708" data-name="Path 28708" d="M73.3,48.861l.013.146c-1.538.089-3.064-.129-4.6-.192-1.351-.054-2.708-.167-4.062-.254a6.2,6.2,0,0,0,.8-4.416c.442.151.639.618,1.055.807.326-.475.391-1.071.774-1.5.27-.105.424.089.575.24,1.4,1.373,2.929,2.608,4.305,4.006C72.546,48.084,73.066,48.332,73.3,48.861Z" transform="translate(32.379 2.534)" fill="#372f2d"/>
        <path id="Path_28709" data-name="Path 28709" d="M29.517,43.607c.129-.159.213-.024.294.054.372.367.739.736,1.106,1.1q4.184,4.184,8.365,8.37a2.377,2.377,0,0,1,.539.61c.113.076.307.046.321.248a.382.382,0,0,1-.254.21c-.645.07-1.233.488-1.918.31a19.6,19.6,0,0,1-3.445-3.048,25.724,25.724,0,0,1-4.871-7.439C29.6,43.89,29.563,43.747,29.517,43.607Z" transform="translate(-27.266 2.72)" fill="#d30000"/>
        <path id="Path_28710" data-name="Path 28710" d="M67.964,49.539a7.7,7.7,0,0,1,.86-1.384c.987-1.489,1.983-2.97,2.967-4.459a1.529,1.529,0,0,1,.545-.6,8.107,8.107,0,0,1,4.318,3.609,2.326,2.326,0,0,0-.863.216q-3.735,1.262-7.466,2.533A3.19,3.19,0,0,1,67.964,49.539Z" transform="translate(37.994 1.986)" fill="#001925"/>
        <path id="Path_28711" data-name="Path 28711" d="M53.213,26.926a12.623,12.623,0,0,0,.262,2.339c.1.534.062,1.076.148,1.616.183,1.138.189,2.3.353,3.445.1.658.081,1.322.237,1.974a1.174,1.174,0,0,1-.1,1.063c-1.074-1.457-2.023-3-3.026-4.5-.685-1.03-1.354-2.074-2.031-3.11.3-.556.89-.758,1.362-1.087a14.818,14.818,0,0,1,2.7-1.78Z" transform="translate(5.905 -25.541)" fill="#c77353"/>
        <path id="Path_28712" data-name="Path 28712" d="M67.067,45.365c-.016-.194-.024-.375-.235-.5-1.732-1.02-3.458-2.053-5.184-3.08a.623.623,0,0,0-.143-.04c.1-.361.418-.3.674-.313a3.255,3.255,0,0,1,1.888.6c.483.3.941.647,1.435.936.34.2.6.167.753-.256a3.346,3.346,0,0,0-.815-3.226,2.534,2.534,0,0,0-2.994-.089,6.733,6.733,0,0,1-2.711,1.165,3.744,3.744,0,0,1-1.548-.03.261.261,0,0,1-.129-.162c.005-.022.005-.062.016-.065.534-.17.283-.359.013-.55l-.04-.1a.339.339,0,0,1,.062-.2c.785-.672,1.61-1.3,2.441-1.91a1.025,1.025,0,0,1,1.02-.27,8.25,8.25,0,0,1,5.864,1.964c.415.353.842.693,1.265,1.038a1.041,1.041,0,0,0,.162.146l-.008-.005a.39.39,0,0,0,.162.148l.005,0c0,.262-.138.267-.326.167-.475-.1-.769-.512-1.184-.712-.224.108-.132.3-.129.459.016,1.157.046,2.312-.008,3.469A3.235,3.235,0,0,1,67.067,45.365Z" transform="translate(21.161 -7.996)" fill="#bf8f57"/>
        <path id="Path_28713" data-name="Path 28713" d="M69.361,29.053a21.079,21.079,0,0,1,2.058,2.22c.5.513.928,1.09,1.4,1.624.672.753,1.373,1.484,2,2.282a.987.987,0,0,0,.4.321c-.6,1.047-1.319,2.01-1.964,3.024a.5.5,0,0,1-.48.264c-.394-.022-.785-.027-1.176-.04a31.709,31.709,0,0,0-.839-3.739c-.456-1.912-.928-3.822-1.392-5.735A1.009,1.009,0,0,1,69.361,29.053Z" transform="translate(40.359 -21.857)" fill="#0d9b5b"/>
        <path id="Path_28714" data-name="Path 28714" d="M57.093,35.142l.151.148a3.528,3.528,0,0,1,1.333,1.346c.208.5.386,1.009.626,1.489a3.434,3.434,0,0,0,2.4,2,1.936,1.936,0,0,1,.27.116c1.074.618,1.656,1.718,2.511,2.552a.21.21,0,0,1-.016.324,6.649,6.649,0,0,1-2.384-.931c-1.983-.9-3.96-1.8-5.95-2.687a29.468,29.468,0,0,1-1.786-2.705,8.285,8.285,0,0,1,2.7-1.648Z" transform="translate(14.711 -11.522)" fill="#eb914f"/>
        <path id="Path_28715" data-name="Path 28715" d="M61.211,38.7c-.07-.113-.324-.194-.005-.351.55-.27,1.082-.588,1.624-.879q2.383-1.27,4.766-2.536a3.138,3.138,0,0,0,.785-.542.094.094,0,0,1,.146,0l.016,0a3.379,3.379,0,0,1,.744,1.516Q68,37.2,66.716,38.491c-.124.124-.235.259-.361.378-.2.186-.232.348-.016.558a9.47,9.47,0,0,1,.758.82,2.124,2.124,0,0,1,.529,1.546,1.251,1.251,0,0,1-.669-.434c-.486-.426-1.006-.809-1.521-1.2A7.258,7.258,0,0,0,61.211,38.7Z" transform="translate(26.256 -12.859)" fill="#a1a95f"/>
        <path id="Path_28716" data-name="Path 28716" d="M44.592,28.276l.437.059c-1.063,1.632-2.336,3.032-3.391,4.591l-.076.051-.073-.057c-.863-.7-1.883-1.146-2.8-1.764-.61-.413-1.246-.782-1.88-1.163a1.315,1.315,0,0,1-.539-.483,21.118,21.118,0,0,1,3.825-.85A25.625,25.625,0,0,1,44.592,28.276Z" transform="translate(-15.802 -23.187)" fill="#97a165"/>
        <path id="Path_28717" data-name="Path 28717" d="M71.646,50.815a13.912,13.912,0,0,1-1.629-1.4c-1.451-1.349-2.921-2.673-4.386-4.006a3.2,3.2,0,0,1,.958-1.208,28.169,28.169,0,0,1,2.347-1.926,2.436,2.436,0,0,1,.437.925c-.156.326-.518.486-.709.82.262.135.5-.016.72.046a8.766,8.766,0,0,1,.693,1.877c.521,1.365.947,2.765,1.405,4.154A1.648,1.648,0,0,1,71.646,50.815Z" transform="translate(34.034 0.581)" fill="#475f43"/>
        <path id="Path_28718" data-name="Path 28718" d="M49.671,29.745a28.467,28.467,0,0,0-2.131,3.164c-.051.07-.1.07-.148,0-1.036-.72-2.072-1.435-3.1-2.161s-2.05-1.467-3.078-2.2a.669.669,0,0,1-.24-.272,29.585,29.585,0,0,1,6.436.823A10.838,10.838,0,0,1,49.671,29.745Z" transform="translate(-7.822 -23.173)" fill="#81c163"/>
        <path id="Path_28719" data-name="Path 28719" d="M58.569,31.642a1.972,1.972,0,0,1-.747-.3q-3.585-1.78-7.162-3.569V27.76a.319.319,0,0,1-.1-.2,1.8,1.8,0,0,1,.4-1.138c1.443-.046,2.886-.049,4.329,0a1.28,1.28,0,0,1,.491.432q1.295,2.063,2.608,4.114C58.515,31.167,58.693,31.367,58.569,31.642Z" transform="translate(8.457 -26.383)" fill="#ab7f63"/>
        <path id="Path_28720" data-name="Path 28720" d="M45.848,39.923c.351.839.693,1.68,1.049,2.514.337.79.691,1.575,1.036,2.363-2.171.084-4.345.035-6.52.04-1.16.005-2.32-.019-3.48-.032l.005-.129a.836.836,0,0,1,.688-.2q3.31-.012,6.619,0a1.23,1.23,0,0,1,.642.146q-2.933-1.631-5.791-3.393c-.782-.48-1.559-.968-2.355-1.422a1.564,1.564,0,0,1-.7-.645l0-.013c.043-.44.372-.51.72-.561a1.457,1.457,0,0,1,.777.542,12.222,12.222,0,0,0,3.412,2.36.852.852,0,0,0,1.076-.124,10.128,10.128,0,0,1,1.721-1.171C45.079,40.007,45.417,39.737,45.848,39.923Z" transform="translate(-14.489 -5.678)" fill="#bf8f57"/>
        <path id="Path_28721" data-name="Path 28721" d="M54.909,36.833c.105-.167.229-.135.383-.065,1.149.529,2.3,1.047,3.45,1.578,1.443.664,2.881,1.338,4.321,2a.95.95,0,0,0,.218.04.093.093,0,0,1,.146.005v.146c-.55.48-1.292.442-1.918.717a2.955,2.955,0,0,1-.8.035,24.439,24.439,0,0,1-3.118.882c.027-.07.032-.156.081-.205.34-.345.194-.637-.038-.976-.8-1.165-1.575-2.347-2.352-3.525A2.157,2.157,0,0,1,54.909,36.833Z" transform="translate(15.834 -8.859)" fill="#ed7f41"/>
        <path id="Path_28722" data-name="Path 28722" d="M41.637,44.342a1.212,1.212,0,0,1,.1-.272q1.8-2.452,3.6-4.9c.121-.165.218-.334.459-.31a13.594,13.594,0,0,0,.628,2.047c.372,1.152.78,2.29,1.171,3.434C45.613,44.393,43.625,44.385,41.637,44.342Z" transform="translate(-6.693 -5.218)" fill="#475f43"/>
        <path id="Path_28723" data-name="Path 28723" d="M54.988,27.587v.151c-1.408.909-2.711,1.972-4.154,2.832L48.013,26.4H53.5A8.792,8.792,0,0,1,54.988,27.587Z" transform="translate(4.129 -26.36)" fill="#9f7165"/>
        <path id="Path_28724" data-name="Path 28724" d="M56.69,36.544A7.492,7.492,0,0,1,55.358,35.2a19,19,0,0,1,3.148.378c.925.132,1.853.248,2.781.37.8.108,1.61.2,2.414.326.85.127,1.7.289,2.546.41.893.129,1.788.229,2.722.348-.2.2-.488.019-.623.243-2,.14-4,.308-6,.415A6.834,6.834,0,0,1,57.165,36.1a4.992,4.992,0,0,0-.477-.345c-.016-.011-.046-.005-.076-.008C56.515,36.027,56.758,36.269,56.69,36.544Z" transform="translate(16.596 -11.43)" fill="#d99d59"/>
        <path id="Path_28725" data-name="Path 28725" d="M50.728,47.346c-1.84-.143-3.685-.21-5.519-.353a17.149,17.149,0,0,1-3.3-.262c.593-.307,1.23-.515,1.815-.842a12.282,12.282,0,0,0,2.816-2.3c.364-.2.539.105.75.283,1.19,1,2.244,2.139,3.455,3.107a.871.871,0,0,1,.146.154l.027.1-.049.094A.6.6,0,0,0,50.728,47.346Z" transform="translate(-6.233 2.711)" fill="#372f2d"/>
        <path id="Path_28726" data-name="Path 28726" d="M55.6,31.642q-1.181-1.89-2.363-3.776c-.3-.483-.61-.963-.917-1.443q2.683-.073,5.368,0c-.548,1.521-1.092,3.04-1.645,4.559-.081.224-.092.486-.291.658a.093.093,0,0,1-.151,0Z" transform="translate(11.431 -26.383)" fill="#a18163"/>
        <path id="Path_28727" data-name="Path 28727" d="M58.15,50.882a8.967,8.967,0,0,1-1.4-1.427c-.553-.7-1.238-1.279-1.8-1.98-.51-.634-1.176-1.136-1.653-1.81a1.39,1.39,0,0,0-.556-.486A27.4,27.4,0,0,1,54.527,42.5a.686.686,0,0,1,.3.407q1.525,3.569,3.048,7.14C57.99,50.313,58.061,50.6,58.15,50.882Z" transform="translate(12.159 0.961)" fill="#e73107"/>
        <path id="Path_28728" data-name="Path 28728" d="M34.627,37.09c0,.049,0,.1,0,.146-.9.181-1.821.073-2.714.278a1.214,1.214,0,0,1-.37.022,15.672,15.672,0,0,0-2.134.154,19.616,19.616,0,0,1,2.1-4.47.452.452,0,0,1,.5.227c.793,1.038,1.61,2.055,2.379,3.107C34.519,36.718,34.5,36.934,34.627,37.09Z" transform="translate(-27.442 -14.816)" fill="#d15f3d"/>
        <path id="Path_28729" data-name="Path 28729" d="M47.8,48.084c-.6-.513-1.217-.993-1.778-1.548-.647-.637-1.333-1.238-2-1.858a.644.644,0,0,0-.4-.175,8.109,8.109,0,0,0,.65-.9,1,1,0,0,1,1.022-.553c2.185.019,4.37-.011,6.555-.013q5.438-.008,10.876,0c.245,0,.545-.156.747.129l-2.382.032a2.685,2.685,0,0,1-1.395.189c-2.768.04-5.535.016-8.3.016-1.413-.054-2.83.005-4.243-.03-.575-.013-.6.232-.445.688.361,1.03.7,2.069,1.033,3.11C47.838,47.464,48.038,47.766,47.8,48.084Z" transform="translate(-3.319 1.803)" fill="#475f43"/>
        <path id="Path_28730" data-name="Path 28730" d="M33.3,39.063c-.85-1.1-1.7-2.2-2.544-3.3a2.175,2.175,0,0,0-.566-.566,16,16,0,0,1,2.19-3.153c.248.03.31.186.321.413.067,1.351.3,2.689.415,4.033A14.219,14.219,0,0,1,33.3,39.063Z" transform="translate(-26.118 -16.789)" fill="#c77353"/>
        <path id="Path_28731" data-name="Path 28731" d="M68.235,29.547c-1.163-.831-2.322-1.664-3.49-2.484a1.385,1.385,0,0,1-.534-.494c.092-.208.281-.178.448-.178q2.832.012,5.664.027c-.637,1-1.357,1.942-1.937,2.978C68.33,29.439,68.327,29.539,68.235,29.547Z" transform="translate(31.623 -26.378)" fill="#81c163"/>
        <path id="Path_28732" data-name="Path 28732" d="M58.75,36.824c-.372.5-.985.647-1.467.974a6.512,6.512,0,0,1-1.23.674c-1.02-1.4-1.972-2.843-2.87-4.321a5.876,5.876,0,0,1,1.276.531C55.891,35.392,57.318,36.109,58.75,36.824Z" transform="translate(12.905 -13.204)" fill="#eb8f4b"/>
        <path id="Path_28733" data-name="Path 28733" d="M47.527,34.163c-.337-1.063-.844-2.058-1.249-3.094-.181-.461-.4-.909-.6-1.359a.23.23,0,0,1,.059-.324,15.666,15.666,0,0,1,3.593,2.069c.129.272-.046.475-.178.672a11.133,11.133,0,0,1-1.333,2.026v0c-.043.054-.086.105-.127.162l-.027-.011a.114.114,0,0,1-.162.022A.119.119,0,0,1,47.527,34.163Z" transform="translate(0.097 -21.292)" fill="#59bb61"/>
        <path id="Path_28734" data-name="Path 28734" d="M59.752,39.852l-.146-.005q-1-1.1-1.985-2.209c-.183-.2-.367-.4-.548-.607a28.738,28.738,0,0,0,5.648.461.787.787,0,0,1,.5.1c-.7.038-1.1.6-1.621.952s-.974.747-1.451,1.133A.666.666,0,0,1,59.752,39.852Z" transform="translate(19.509 -8.315)" fill="#d99d59"/>
        <path id="Path_28735" data-name="Path 28735" d="M52.567,36.026a28.714,28.714,0,0,0-3.008-.148c-.235.019-.521-.067-.572.3l-.165-.159c.475-1.036,1.176-1.937,1.724-2.929a.49.49,0,0,1,.367-.224A15.429,15.429,0,0,1,52.567,36.026Z" transform="translate(5.504 -15.392)" fill="#01293d"/>
        <path id="Path_28736" data-name="Path 28736" d="M33.815,47.548l.138-.154.084-.035.081.043c0,.318.251.469.44.658.941.949,1.891,1.894,2.832,2.843.17.173.394.31.44.58a21.486,21.486,0,0,1-4.618-2.471C32.968,48.341,33.429,47.961,33.815,47.548Z" transform="translate(-21.111 9.215)" fill="#910101"/>
        <path id="Path_28737" data-name="Path 28737" d="M46.446,32.85a15.229,15.229,0,0,1,1.181-2.12c.1-.2.218-.386.329-.577a11.46,11.46,0,0,1,2.366,1.818,8.292,8.292,0,0,0-2.511.572A6.756,6.756,0,0,1,46.446,32.85Z" transform="translate(1.469 -19.99)" fill="#188d55"/>
        <path id="Path_28738" data-name="Path 28738" d="M62.225,29.081c-.21.21-.308-.054-.423-.124-1.308-.788-2.606-1.591-3.9-2.393a1.361,1.361,0,0,1-.162-.146c.788-.011,1.575-.013,2.363-.03a.57.57,0,0,1,.55.283C61.171,27.479,61.753,28.242,62.225,29.081Z" transform="translate(20.634 -26.379)" fill="#97a165"/>
        <path id="Path_28739" data-name="Path 28739" d="M67.291,45.655c-.469-.154-.386-.572-.434-.925.17-.178.332-.361.512-.529a4.355,4.355,0,0,0,1.462-2.43c.148-.245-.008-.539.119-.788a.078.078,0,0,1,.011-.111c.049-.065.1-.065.143.005a4.525,4.525,0,0,1,0,1.192c-.156.291.03.628-.124.92a3.21,3.21,0,0,1-.774,1.627A4.789,4.789,0,0,1,67.291,45.655Z" transform="translate(36.115 -1.877)" fill="#12644c"/>
        <path id="Path_28740" data-name="Path 28740" d="M64.571,36.075a3.523,3.523,0,0,1-.744-1.516,9.156,9.156,0,0,0,1.67-.237,1.255,1.255,0,0,1,1,.067Z" transform="translate(30.972 -13.032)" fill="#6cb468"/>
        <path id="Path_28741" data-name="Path 28741" d="M47.942,41.831a4.568,4.568,0,0,1,.9-1.494l.011.04a.527.527,0,0,1,.343.267c.318.807.974.852,1.707.842,1.659-.027,3.32-.013,4.979-.005a1.31,1.31,0,0,1,.987.21,1.069,1.069,0,0,0,.04.121.559.559,0,0,1-.14.043Z" transform="translate(4.009 -2.704)" fill="#031c28"/>
        <path id="Path_28742" data-name="Path 28742" d="M34.4,32.133c-.6-.175-1.063-.658-1.694-.761a10.451,10.451,0,0,1,2.255-1.5c.235.208.016.407-.027.6A16.787,16.787,0,0,0,34.4,32.133Z" transform="translate(-21.851 -20.465)" fill="#a58264"/>
        <path id="Path_28743" data-name="Path 28743" d="M63.5,42.5a6.49,6.49,0,0,1,.634-2.811,1.845,1.845,0,0,1,.812,1.16c-.294.418-.558.86-.887,1.254C63.911,42.285,63.814,42.55,63.5,42.5Z" transform="translate(30.407 -3.797)" fill="#9c935b"/>
        <path id="Path_28744" data-name="Path 28744" d="M63.539,41.774a8.611,8.611,0,0,0,.968-1.257c.129-.175.216-.383.477-.394.3,1.273-.575,1.9-1.435,2.646A1.81,1.81,0,0,1,63.539,41.774Z" transform="translate(30.369 -3.067)" fill="#4b6246"/>
        <path id="Path_28745" data-name="Path 28745" d="M34.65,47.429c.005.3-.254.464-.356.709a1.726,1.726,0,0,0-.248.755,6.113,6.113,0,0,1-1.395-1A8.94,8.94,0,0,1,34.65,47.429Z" transform="translate(-21.946 9.334)" fill="#bb0303"/>
        <path id="Path_28746" data-name="Path 28746" d="M51.538,27.609a3.011,3.011,0,0,1-1.492-1.187,11.344,11.344,0,0,1,1.791,0A4.287,4.287,0,0,1,51.538,27.609Z" transform="translate(7.58 -26.383)" fill="#977567"/>
        <path id="Path_28747" data-name="Path 28747" d="M75.333,27.161a2.706,2.706,0,0,1-1-.739,8.189,8.189,0,0,1,1.435-.011A1.587,1.587,0,0,1,75.333,27.161Z" transform="translate(48.808 -26.385)" fill="#14724a"/>
        <path id="Path_28748" data-name="Path 28748" d="M48.51,50.309c.291.329.736.442,1.047.742a7.79,7.79,0,0,1-1.508.011A1.54,1.54,0,0,1,48.51,50.309Z" transform="translate(4.19 14.222)" fill="#9d0606"/>
        <path id="Path_28749" data-name="Path 28749" d="M67.66,42.206c.005-.313-.113-.639.124-.92A1.427,1.427,0,0,1,67.66,42.206Z" transform="translate(37.435 -1.093)" fill="#2a745f"/>
        <path id="Path_28750" data-name="Path 28750" d="M67.661,41.02a.918.918,0,0,1,.059-.631,1.029,1.029,0,0,1,.059.634C67.74,41.085,67.7,41.082,67.661,41.02Z" transform="translate(37.43 -2.616)" fill="#5e9586"/>
        <path id="Path_28751" data-name="Path 28751" d="M67.713,40.883c.016.27.111.553-.119.788A1.341,1.341,0,0,1,67.713,40.883Z" transform="translate(37.352 -1.777)" fill="#2a745f"/>
        <path id="Path_28752" data-name="Path 28752" d="M61.994,38.625a.384.384,0,0,0,.326-.167c.116.049.251.116.2.256-.032.086-.178.07-.267.043A1.95,1.95,0,0,1,61.994,38.625Z" transform="translate(27.86 -5.893)" fill="#afa575"/>
        <path id="Path_28753" data-name="Path 28753" d="M67.653,40.623l.119,0a1.419,1.419,0,0,1,.008.593c-.049,0-.094,0-.143-.005Z" transform="translate(37.439 -2.218)" fill="#2a745f"/>
        <path id="Path_28754" data-name="Path 28754" d="M67.475,42.917c-.124.148-.289.121-.453.094A.434.434,0,0,1,67.475,42.917Z" transform="translate(36.395 1.638)" fill="#475f43"/>
        <path id="Path_28755" data-name="Path 28755" d="M42.074,44.732a.267.267,0,0,1-.343.1A.312.312,0,0,1,42.074,44.732Z" transform="translate(-6.534 4.735)" fill="#372f2d"/>
        <path id="Path_28756" data-name="Path 28756" d="M61.831,41.83a.145.145,0,0,1-.1-.165A.129.129,0,0,1,61.831,41.83Z" transform="translate(27.406 -0.45)" fill="#b56d41"/>
        <path id="Path_28757" data-name="Path 28757" d="M62.158,38.5,62,38.352A.212.212,0,0,1,62.158,38.5Z" transform="translate(27.864 -6.073)" fill="#afa575"/>
        <path id="Path_28758" data-name="Path 28758" d="M62.215,38.552a.2.2,0,0,1-.162-.148A.189.189,0,0,1,62.215,38.552Z" transform="translate(27.96 -5.985)" fill="#afa575"/>
        <path id="Path_28759" data-name="Path 28759" d="M57.475,43.452a26.514,26.514,0,0,0-1.6,3.264c-.5,1.079-1.057,2.131-1.511,3.231-.442,1.076-.985,2.112-1.492,3.161a1.1,1.1,0,0,1-.4.583c-.65-.537-1.314-1.079-1.974-1.627-1.084-.9-2.174-1.788-3.25-2.692-.68-.572-1.341-1.163-2.01-1.743l0-.005a1.1,1.1,0,0,1,.7-.5c3.628-1.235,7.288-2.382,10.9-3.685a1.243,1.243,0,0,1,.434-.084A.366.366,0,0,1,57.475,43.452Z" transform="translate(-0.596 2.414)" fill="#00000b"/>
        <path id="Path_28760" data-name="Path 28760" d="M50.095,43.934h-.148c-.237-.243-.5-.472-.291-.866H50.99C50.793,43.462,50.267,43.516,50.095,43.934Z" transform="translate(6.784 1.932)" fill="#000017"/>
        <path id="Path_28761" data-name="Path 28761" d="M60.1,57.506l-.156-.013c-1.567-1.872-3.037-3.825-4.623-5.681-.213-.245-.512-.48-.453-.882l0-.135c.944-.593,1.778-1.338,2.657-2.015,2.608-2,5.2-4.033,7.8-6.05a15.95,15.95,0,0,1-.933,2.808c-1.09,3.126-2.25,6.228-3.347,9.352a18.153,18.153,0,0,0-.8,2.457h0c-.043.057-.1.1-.143.159Z" transform="translate(15.745 1.358)" fill="#ab0500"/>
        <path id="Path_28762" data-name="Path 28762" d="M67.017,27.655l.151-.151c.005.218.167.259.334.334.974.432,1.974.793,2.97,1.173,1.988.755,3.944,1.6,5.956,2.3.092.032.192.049.286.073a2.168,2.168,0,0,1-.806.747q-3.937,2.913-7.866,5.834c-.993.736-1.977,1.484-2.967,2.225-.049,0-.1,0-.146,0,.388-2.279.788-4.556,1.157-6.838.237-1.481.448-2.967.761-4.437a4.332,4.332,0,0,0,.024-.817c.049-.049.094-.1.14-.148l0-.151C67.017,27.752,67.017,27.7,67.017,27.655Z" transform="translate(32.842 -24.486)" fill="#71c569"/>
        <path id="Path_28763" data-name="Path 28763" d="M57.07,38.417a.141.141,0,0,1,.143.124Z" transform="translate(19.502 -5.963)" fill="#ed7f41"/>
        <path id="Path_28764" data-name="Path 28764" d="M36.534,56.207a.281.281,0,0,1-.286-.146c.262-.243.011-.475-.057-.672-.666-1.964-1.357-3.917-2.047-5.872-.812-2.3-1.635-4.6-2.449-6.908a2.861,2.861,0,0,1-.073-.434c.432-.067.607.286.823.531,1.853,2.1,3.793,4.122,5.651,6.215a8.188,8.188,0,0,1,.685.879l.159.3,0,.143c.151.221.046.429-.04.631-.655,1.554-1.26,3.129-1.888,4.691a1.1,1.1,0,0,1-.467.647Z" transform="translate(-23.693 0.402)" fill="#d70000"/>
        <path id="Path_28765" data-name="Path 28765" d="M38.874,53.078a10.686,10.686,0,0,1-1.551-1.591c-.521-.661-1.152-1.222-1.7-1.867-.833-.982-1.753-1.888-2.641-2.824a6.651,6.651,0,0,0-1.268-1.343L31.57,45.3l0-.148a8.936,8.936,0,0,0,.7-1.778c.359-.92.669-1.861,1.038-2.778a1.6,1.6,0,0,0,.051-.364.54.54,0,0,1,.146.019c.475,1.4,1.133,2.732,1.694,4.1.815,1.985,1.67,3.954,2.519,5.923A29.37,29.37,0,0,1,38.874,53.078Z" transform="translate(-23.786 -2.875)" fill="#e73107"/>
        <path id="Path_28766" data-name="Path 28766" d="M53.623,34.926a.741.741,0,0,0,0,.9,31.066,31.066,0,0,0,.534,3.142q.627,3.5,1.273,7c.192,1.047.394,2.088.593,3.132.121.129.008.329.132.459a.991.991,0,0,1-.008.124,6.364,6.364,0,0,1-2.069-.521c-3.32-.955-6.625-1.958-9.934-2.954-.178-.054-.4-.054-.513-.259.677-.372,1.365-.038,2.02.038a4.015,4.015,0,0,0,2.808-.685,17.2,17.2,0,0,0,1.85-1.484c.723-.645.715-1.1.059-1.815a5.537,5.537,0,0,1-1.494-2.517,8.175,8.175,0,0,1,2.217-2.425,20.443,20.443,0,0,0,2.028-2.045.772.772,0,0,1,.175-.259C53.461,34.7,53.561,34.777,53.623,34.926Z" transform="translate(-3.312 -12.201)" fill="#1b9159"/>
        <path id="Path_28767" data-name="Path 28767" d="M56.3,43.616c-2.282,0-4.564,0-6.846.019a.681.681,0,0,1-.742-.467c-.121-.3-.286-.577-.432-.866a19.3,19.3,0,0,1,2.867-1.192c1.435-.6,2.9-1.128,4.345-1.691a2.627,2.627,0,0,1,.78-.216,15.609,15.609,0,0,1,.049,2.188C56.327,42.132,56.305,42.874,56.3,43.616Z" transform="translate(4.579 -4.629)" fill="#00001d"/>
        <path id="Path_28768" data-name="Path 28768" d="M48.358,40.526c-.159-.119-.14-.289-.132-.459C48.391,40.186,48.367,40.358,48.358,40.526Z" transform="translate(4.482 -3.162)" fill="#0d6149"/>
        <path id="Path_28769" data-name="Path 28769" d="M36.137,51.512c-.2-.165-.129-.391-.138-.6q2.08-1.23,4.162-2.46C42,47.363,43.846,46.3,45.666,45.187a3.023,3.023,0,0,1,1.81-.208l.013,2.188q0,2.946-.005,5.891c0,.124,0,.251,0,.375-.016.618-.062.664-.637.515-.812-.208-1.624-.429-2.433-.655q-3.824-1.072-7.642-2.147C36.282,51.01,36.277,51.026,36.137,51.512Z" transform="translate(-16.274 5.111)" fill="#450000"/>
        <path id="Path_28770" data-name="Path 28770" d="M56.74,45.77c1.179,1.454,2.366,2.9,3.536,4.362a18.207,18.207,0,0,0,1.362,1.656.671.671,0,0,1,.178.545c-.847.165-1.713.108-2.56.267a17.291,17.291,0,0,1-1.91.14,15.2,15.2,0,0,1-2.422.189c-.359-.027-.669.173-1.02.154l-.154-.005c0-.049,0-.1,0-.143.5-1.211.971-2.43,1.494-3.631C55.761,48.133,56.141,46.906,56.74,45.77Z" transform="translate(13.869 6.518)" fill="#ad0000"/>
        <path id="Path_28771" data-name="Path 28771" d="M68.984,37.938h-.146q-3.86-.975-7.715-1.953a3.406,3.406,0,0,1-.345-.138c.329-.3.777-.283,1.168-.413q2.954-.983,5.918-1.929c1.316-.421,2.638-.828,3.957-1.243l0,.151Z" transform="translate(25.798 -16.409)" fill="#a3b965"/>
        <path id="Path_28772" data-name="Path 28772" d="M65.789,27.671l-.14.148Z" transform="translate(34.064 -24.203)" fill="#93bd67"/>
        <path id="Path_28773" data-name="Path 28773" d="M53.531,28.337l.151,0c0,.049,0,.1,0,.143Z" transform="translate(13.495 -23.078)" fill="#ab7f63"/>
        <path id="Path_28774" data-name="Path 28774" d="M56.8,48.308l.143-.159.005.151Z" transform="translate(19.041 10.556)" fill="#830000"/>
        <path id="Path_28775" data-name="Path 28775" d="M32.287,45.447q1.222-3.718,2.447-7.437c.084-.256.159-.515.237-.774l0-.151a2.764,2.764,0,0,1,1.519.491c2.536,1.179,5.09,2.312,7.623,3.493a2.075,2.075,0,0,0,.491.17.868.868,0,0,1,.208.086.326.326,0,0,1,.159.383c-1.6.494-3.2.993-4.8,1.478-1.416.429-2.838.844-4.254,1.27-1.038.31-2.074.634-3.115.941A2.9,2.9,0,0,1,32.287,45.447Z" transform="translate(-22.564 -8.24)" fill="#ed7f41"/>
        <path id="Path_28776" data-name="Path 28776" d="M37.047,38.8q3.063,1.829,6.123,3.655A27.434,27.434,0,0,1,46,44.317H37.94c-.283-.329-.2-.761-.259-1.13-.2-1.289-.375-2.584-.618-3.868A3.03,3.03,0,0,1,37.047,38.8Z" transform="translate(-14.49 -5.316)" fill="#b56d41"/>
        <path id="Path_28777" data-name="Path 28777" d="M40.685,43.021l-.154-.289a.409.409,0,0,0-.138-.086l-.073-.04a.668.668,0,0,1-.132-.1l-.062-.057c-.043-.035-.084-.076-.124-.113l-.062-.059a1.29,1.29,0,0,1-.121-.121,2.12,2.12,0,0,1-.264-.334c-.03-.043-.059-.089-.086-.135l-.046-.067c-.032-.038-.065-.081-.1-.119l-.051-.057c-.035-.038-.07-.073-.1-.111l-.051-.054a1.25,1.25,0,0,1-.1-.105l-.051-.051a1.225,1.225,0,0,1-.1-.1l-.051-.051c-.035-.032-.067-.067-.1-.1l-.051-.051c-.035-.032-.067-.065-.1-.1l-.051-.051c-.035-.032-.067-.065-.1-.1l-.051-.051a1.222,1.222,0,0,1-.1-.1l-.054-.051a1.289,1.289,0,0,1-.105-.105l-.054-.051c-.04-.035-.076-.07-.113-.108l-.057-.054c-.04-.035-.081-.07-.119-.108l-.062-.057c-.04-.038-.081-.076-.119-.116a2.014,2.014,0,0,1-.259-.329c-.032-.046-.059-.092-.086-.138l-.046-.065c-.032-.038-.065-.081-.1-.119l-.051-.057c-.035-.035-.07-.073-.1-.111l-.051-.054a.944.944,0,0,1-.1-.105l-.051-.051a1.226,1.226,0,0,1-.1-.1l-.051-.051c-.035-.032-.067-.067-.1-.1l-.051-.051a1.162,1.162,0,0,1-.1-.1l-.051-.051a1.22,1.22,0,0,1-.1-.1l-.051-.051a.944.944,0,0,1-.105-.1l-.054-.051c-.038-.032-.073-.07-.108-.105l-.057-.054c-.04-.035-.078-.07-.116-.108l-.059-.057a.983.983,0,0,1-.113-.124,1.6,1.6,0,0,1-.146-.208l-.092-.14-.051-.067c-.04-.04-.078-.086-.119-.127l-.065-.065a1.629,1.629,0,0,1-.129-.143l-.057-.084a.346.346,0,0,1-.03-.208l.067-.089a.6.6,0,0,1,.21-.089c1.252.062,2.476.324,3.717.477a.774.774,0,0,1,.413.664A9.823,9.823,0,0,0,41.3,41.934c.143.183.378.348.264.645-.316.03-.5.267-.731.442l-.073,0Z" transform="translate(-18.276 -9.553)" fill="#d99d59"/>
        <path id="Path_28778" data-name="Path 28778" d="M31.4,41.364a1.126,1.126,0,0,1,.17-.488q1.635-3.35,3.272-6.7c.456-.939.89-1.885,1.343-2.827.105-.218.175-.472.432-.583a1.351,1.351,0,0,1,.394.858c1.082,4.305,2.2,8.6,3.3,12.9a1.817,1.817,0,0,1,.121,1.09c-.264.324-.55.124-.8,0-2.455-1.241-4.974-2.355-7.418-3.625-.245-.127-.432-.332-.666-.469Z" transform="translate(-24.068 -18.944)" fill="#de9656"/>
        <path id="Path_28779" data-name="Path 28779" d="M31.455,34.755a1.455,1.455,0,0,1,.623.237q3.779,1.849,7.563,3.7a1.56,1.56,0,0,0,.62.24l.076.013a.416.416,0,0,1,.119.089l.035.065a.22.22,0,0,0,.07.129h0c.051.049.1.1.148.151h0l.148.148h0l.151.148h0c.051.051.094.105.148.151l.151.3c.051.049.094.1.148.148h0c.049.054.1.1.148.151h0c.046.051.1.1.148.148h0c.049.051.1.1.148.148v0c.049.051.1.1.148.148h0c.049.051.1.1.151.148h0c.049.051.1.1.148.151s.1.1.148.148h0c.049.051.1.1.148.148h0c.051.051.1.1.151.151h0c.049.051.1.1.148.148h0c.051.049.094.105.148.151l.3.445c.051.049.094.1.148.148v0c.046.051.1.1.148.148h0c.049.051.1.1.148.148h0c.049.051.1.1.151.151h0c.046.051.1.1.148.148h0c.049.051.1.1.148.148s.1.1.148.151.1.1.151.148h0c.049.051.1.1.148.151h0l.148.148h0c.049.051.1.1.151.148h0l.148.151h0c.051.049.094.1.148.148l.3.448c.051.049.1.1.151.148h0c.046.051.1.1.148.151h0c.049.049.094.1.148.148h0a.087.087,0,0,1,.032.1c-.011.032-.022.051-.032.051a1.178,1.178,0,0,1-.572-.138q-3.035-1.412-6.077-2.816c-1.012-.467-2.031-.92-3.048-1.378q-2.29-2.852-4.58-5.7A5.654,5.654,0,0,1,31.455,34.755Z" transform="translate(-23.976 -12.179)" fill="#eb8f4b"/>
        <path id="Path_28780" data-name="Path 28780" d="M51.848,33.129l0,.148c.084.262-.138.353-.281.461-1.958,1.505-3.949,2.973-5.948,4.426a.483.483,0,0,1-.275.094c-.518-.159-.545-.583-.548-1.017a9.511,9.511,0,0,0,.049-.963,1.9,1.9,0,0,0-1.227-1.786.883.883,0,0,1-.529-.383,10.825,10.825,0,0,1,.7-3.968l0-.148h.148a7.667,7.667,0,0,0,2.287,1.028c1.648.674,3.32,1.292,4.979,1.942A1.408,1.408,0,0,0,51.848,33.129Z" transform="translate(-4.224 -20.258)" fill="#71c569"/>
        <path id="Path_28781" data-name="Path 28781" d="M48.987,30.05c-.084.8-.218,1.589-.364,2.379-.1.55-.156,1.106-.235,1.659a22.512,22.512,0,0,0-1.829,1.365.84.84,0,0,1-.558.17c-1.8.051-3.606-.035-5.408.1-.281-.111-.588-.2-.561-.6l0-.148a5.529,5.529,0,0,0,1.643-.836c2.039-1.117,4.057-2.271,6.083-3.412C48.167,30.5,48.577,30.277,48.987,30.05Z" transform="translate(-9.42 -20.165)" fill="#95c367"/>
        <path id="Path_28782" data-name="Path 28782" d="M49,40.827l-.281-.148a1.148,1.148,0,0,1-.386-.777c-.639-2.592-1.273-5.19-1.872-7.79-.065-.278-.221-.572.019-.847a20.681,20.681,0,0,1,1.956,2.112c.469.529.958,1.055,1.405,1.61.863,1.074,1.823,2.066,2.754,3.083a.746.746,0,0,1,.278.65c-1.049.58-2.1,1.165-3.151,1.743C49.489,40.593,49.241,40.706,49,40.827Z" transform="translate(1.31 -18.103)" fill="#0d9b5b"/>
        <path id="Path_28783" data-name="Path 28783" d="M37.071,47.018c-.224-1.292-.618-2.541-.941-3.806q-1.376-5.418-2.765-10.833a2.129,2.129,0,0,1-.03-.294l.005-.146q3.14-.453,6.279-.906,3.1-.449,6.2-.906a2.959,2.959,0,0,1,.65-.132l0,.011c.227.415-.078.718-.248,1.022-2.007,3.625-3.987,7.267-6.01,10.884-.944,1.689-1.8,3.431-2.84,5.063l-.094.062a.17.17,0,0,1-.208-.019Z" transform="translate(-20.785 -20.261)" fill="#cfab63"/>
        <path id="Path_28784" data-name="Path 28784" d="M33.448,51.13q1.2-2.982,2.4-5.969a4.957,4.957,0,0,1,1.184,1.3c1.044,1.208,2.01,2.479,3.008,3.725a.586.586,0,0,1,.127.34c-1.365.224-2.751.262-4.124.41a16.7,16.7,0,0,1-2.438.194Z" transform="translate(-20.593 5.484)" fill="#ad0000"/>
        <path id="Path_28785" data-name="Path 28785" d="M50.543,31.358q1.092,4.524,2.179,9.047c.027.119.04.243.059.367l-.022.3a.507.507,0,0,1-.351.1c-1.769-.348-3.539-.7-5.3-1.1a1.7,1.7,0,0,1-.653-.332,10.971,10.971,0,0,0-2.039-3.032c-.156-.186-.3-.38-.459-.569a7.375,7.375,0,0,1,1.651-1.338c1.6-1.179,3.21-2.352,4.769-3.59.043,0,.089,0,.135-.005Z" transform="translate(-2.752 -18.196)" fill="#4dbb67"/>
        <path id="Path_28786" data-name="Path 28786" d="M46.4,31.316a.179.179,0,0,1,.127-.162Z" transform="translate(1.39 -18.291)" fill="#0d9b5b"/>
        <path id="Path_28787" data-name="Path 28787" d="M31.51,42.006l.154.146Z" transform="translate(-23.883 0.129)" fill="#e73107"/>
        <path id="Path_28788" data-name="Path 28788" d="M34.776,47.011Q36.253,44.3,37.732,41.6c.744-1.362,1.489-2.727,2.244-4.087.877-1.581,1.8-3.134,2.635-4.737A16.459,16.459,0,0,0,44.025,30L44.176,30l0,.146a2.759,2.759,0,0,1,.4,1.1c.27,1.513.6,3.016.9,4.524a2.117,2.117,0,0,1,.062.955A26.189,26.189,0,0,0,43.2,38a9.175,9.175,0,0,0-4.262,7.882c-.005.421-.011.842-.013,1.262a.222.222,0,0,1-.251-.218c-.027-.726-.421-.685-.955-.521a14.7,14.7,0,0,1-2.519.65C35.054,47.076,34.905,47.122,34.776,47.011Z" transform="translate(-18.339 -20.257)" fill="#cbb363"/>
        <path id="Path_28789" data-name="Path 28789" d="M39.619,36.632a4.032,4.032,0,0,1-.37-1.47c-.356-1.7-.723-3.4-.987-5.112a4.281,4.281,0,0,1,1.082,1.111,2.16,2.16,0,0,0,.291.337c1,1,1.945,2.047,2.846,3.137a1.7,1.7,0,0,0,.553.491c.067.232.334.262.448.448A37.5,37.5,0,0,0,39.619,36.632Z" transform="translate(-12.422 -20.165)" fill="#b5b969"/>
        <path id="Path_28790" data-name="Path 28790" d="M59.29,38.843a7.925,7.925,0,0,1-1.939-.129,7.43,7.43,0,0,1,1.931-.583h.011a.471.471,0,0,1,.005.593A.875.875,0,0,0,59.29,38.843Z" transform="translate(19.979 -6.448)" fill="#e17243"/>
        <path id="Path_28791" data-name="Path 28791" d="M58.076,38.724l-.005-.593.925.488A2.311,2.311,0,0,1,58.076,38.724Z" transform="translate(21.201 -6.448)" fill="#b96f42"/>
        <path id="Path_28792" data-name="Path 28792" d="M57.048,43.071l.291.866c-2.881,1.1-5.834,1.985-8.748,2.994-1.119.386-2.269.685-3.35,1.179l0-.132c-.076-.278.105-.472.237-.672q1.242-1.857,2.473-3.72a1.16,1.16,0,0,1,.607-.521Z" transform="translate(-0.609 1.928)" fill="#001925"/>
        <path id="Path_28793" data-name="Path 28793" d="M49.589,43.066,46.6,47.484l-.332.494-.148-.019q-.676-2.076-1.346-4.151a1.3,1.3,0,0,1-.146-.742Z" transform="translate(-1.641 1.928)" fill="#0e6149"/>
        <path id="Path_28794" data-name="Path 28794" d="M50.757,34.87l.294,0a18.167,18.167,0,0,1-2.088,2.088,22.088,22.088,0,0,0-2.25,2.244,11.883,11.883,0,0,0-1.627-1.956c-.011-.022-.032-.04-.035-.065-.192-1.591-.181-1.627,1.373-1.837A24.619,24.619,0,0,1,50.757,34.87Z" transform="translate(-1.04 -11.997)" fill="#6bb367"/>
        <path id="Path_28795" data-name="Path 28795" d="M36.878,38.78v-.151l.148.154Z" transform="translate(-14.771 -5.603)" fill="#de9656"/>
        <path id="Path_28796" data-name="Path 28796" d="M34.8,36.925c.92-.167,1.8-.5,2.7-.731.1-.024.189-.059.283-.089.966-.289.963-.289,1.055.693a.891.891,0,0,0,.111.264l.024.461a21.928,21.928,0,0,1-3.221-.367c-.267-.03-.534-.076-.8-.081a.093.093,0,0,1-.151,0h0a.1.1,0,0,1-.032-.1q.016-.049.032-.049Z" transform="translate(-18.364 -10.171)" fill="#d3ab62"/>
        <path id="Path_28797" data-name="Path 28797" d="M34.979,36.566l-.148-.151Z" transform="translate(-18.246 -9.361)" fill="#de9656"/>
        <path id="Path_28798" data-name="Path 28798" d="M34.775,36.36h.151v.148Z" transform="translate(-18.341 -9.454)" fill="#de9656"/>
        <path id="Path_28799" data-name="Path 28799" d="M36.528,38.224l-.148-.148Z" transform="translate(-15.617 -6.542)" fill="#de9656"/>
        <path id="Path_28800" data-name="Path 28800" d="M36.586,38.279l-.151-.148Z" transform="translate(-15.523 -6.448)" fill="#de9656"/>
        <path id="Path_28801" data-name="Path 28801" d="M35.588,37.23l-.148-.151Z" transform="translate(-17.212 -8.234)" fill="#de9656"/>
        <path id="Path_28802" data-name="Path 28802" d="M35.535,37.172l-.151-.148Z" transform="translate(-17.307 -8.327)" fill="#de9656"/>
        <path id="Path_28803" data-name="Path 28803" d="M36.639,38.337l-.148-.151Z" transform="translate(-15.428 -6.355)" fill="#de9656"/>
        <path id="Path_28804" data-name="Path 28804" d="M36.694,38.39l-.148-.148Z" transform="translate(-15.335 -6.26)" fill="#de9656"/>
        <path id="Path_28805" data-name="Path 28805" d="M36.42,38.113l-.151-.148Z" transform="translate(-15.805 -6.73)" fill="#de9656"/>
        <path id="Path_28806" data-name="Path 28806" d="M35.477,37.117l-.148-.148Z" transform="translate(-17.401 -8.421)" fill="#de9656"/>
        <path id="Path_28807" data-name="Path 28807" d="M35.422,37.061l-.148-.148Z" transform="translate(-17.494 -8.516)" fill="#de9656"/>
        <path id="Path_28808" data-name="Path 28808" d="M36.863,38.611l-.151-.148Z" transform="translate(-15.053 -5.885)" fill="#de9656"/>
        <path id="Path_28809" data-name="Path 28809" d="M35.367,37.006l-.148-.148Z" transform="translate(-17.587 -8.609)" fill="#de9656"/>
        <path id="Path_28810" data-name="Path 28810" d="M35.311,36.953l-.148-.151Z" transform="translate(-17.682 -8.704)" fill="#de9656"/>
        <path id="Path_28811" data-name="Path 28811" d="M36.916,38.669l-.148-.151Z" transform="translate(-14.958 -5.791)" fill="#de9656"/>
        <path id="Path_28812" data-name="Path 28812" d="M36.971,38.722l-.148-.148Z" transform="translate(-14.865 -5.696)" fill="#de9656"/>
        <path id="Path_28813" data-name="Path 28813" d="M36.362,38.06l-.148-.151Z" transform="translate(-15.898 -6.825)" fill="#de9656"/>
        <path id="Path_28814" data-name="Path 28814" d="M36.307,38l-.148-.148Z" transform="translate(-15.992 -6.919)" fill="#de9656"/>
        <path id="Path_28815" data-name="Path 28815" d="M36.252,37.947,36.1,37.8Z" transform="translate(-16.085 -7.012)" fill="#de9656"/>
        <path id="Path_28816" data-name="Path 28816" d="M36.2,37.894l-.151-.151Z" transform="translate(-16.18 -7.107)" fill="#de9656"/>
        <path id="Path_28817" data-name="Path 28817" d="M36.141,37.836l-.148-.148Z" transform="translate(-16.273 -7.2)" fill="#de9656"/>
        <path id="Path_28818" data-name="Path 28818" d="M35.256,36.9l-.148-.148Z" transform="translate(-17.776 -8.798)" fill="#de9656"/>
        <path id="Path_28819" data-name="Path 28819" d="M36.086,37.781l-.148-.148Z" transform="translate(-16.367 -7.294)" fill="#de9656"/>
        <path id="Path_28820" data-name="Path 28820" d="M36.031,37.725l-.148-.148Z" transform="translate(-16.46 -7.389)" fill="#de9656"/>
        <path id="Path_28821" data-name="Path 28821" d="M35.145,36.732,35,36.581Z" transform="translate(-17.964 -9.079)" fill="#de9656"/>
        <path id="Path_28822" data-name="Path 28822" d="M35.864,37.507l-.148-.151Z" transform="translate(-16.744 -7.764)" fill="#de9656"/>
        <path id="Path_28823" data-name="Path 28823" d="M35.809,37.449l-.148-.148Z" transform="translate(-16.837 -7.857)" fill="#de9656"/>
        <path id="Path_28824" data-name="Path 28824" d="M35.756,37.4l-.151-.151Z" transform="translate(-16.932 -7.952)" fill="#de9656"/>
        <path id="Path_28825" data-name="Path 28825" d="M36.473,38.171l-.148-.151Z" transform="translate(-15.71 -6.637)" fill="#de9656"/>
        <path id="Path_28826" data-name="Path 28826" d="M35.092,36.674l-.151-.148Z" transform="translate(-18.059 -9.173)" fill="#de9656"/>
        <path id="Path_28827" data-name="Path 28827" d="M35.034,36.619l-.148-.148Z" transform="translate(-18.152 -9.266)" fill="#de9656"/>
        <path id="Path_28828" data-name="Path 28828" d="M35.7,37.338l-.148-.148Z" transform="translate(-17.025 -8.046)" fill="#de9656"/>
        <path id="Path_28829" data-name="Path 28829" d="M35.643,37.283l-.148-.148Z" transform="translate(-17.119 -8.139)" fill="#de9656"/>
        <path id="Path_28830" data-name="Path 28830" d="M34.868,36.3v.148L34.72,36.3Z" transform="translate(-18.434 -9.548)" fill="#de9656"/>
        <path id="Path_28831" data-name="Path 28831" d="M50.9,35.7c-.324.307-.753.156-1.125.227-1.2.229-2.414.375-3.631.515-.836.1-.912.143-.914.971,0,.221,0,.445,0,.666-.14-.105-.111-.262-.111-.4a16.282,16.282,0,0,0-.232-3.3q2.95.615,5.9,1.23C50.83,35.612,50.862,35.666,50.9,35.7Z" transform="translate(-1.18 -12.825)" fill="#6fbd65"/>
        <path id="Path_28832" data-name="Path 28832" d="M44.035,34.416c-.256.03-.4-.156-.564-.291a2.784,2.784,0,0,0-.68-.45A1.135,1.135,0,0,0,41.1,34.888c.024.294.1.585.138.882.016.143.013.3-.156.38a.336.336,0,0,1-.41-.081,2.557,2.557,0,0,1-.62-2.144,1.557,1.557,0,0,1,1.163-1.235A2.359,2.359,0,0,1,44.035,34.416Z" transform="translate(-9.437 -15.835)" fill="#acbe69"/>
        <path id="Path_28833" data-name="Path 28833" d="M44.379,35.607a2.857,2.857,0,0,1,.777.747,2.835,2.835,0,0,1-1.624.4c-.593-.016-.755-.259-.79-1a1.592,1.592,0,0,1,1.486-.291l.005,0A1.453,1.453,0,0,1,44.379,35.607Z" transform="translate(-4.818 -11.089)" fill="#6fb56b"/>
        <path id="Path_28834" data-name="Path 28834" d="M44.241,36.173a9.915,9.915,0,0,1-1.486.291,2.979,2.979,0,0,1,.21-1.486A5.451,5.451,0,0,1,44.241,36.173Z" transform="translate(-4.831 -11.8)" fill="#75bf6b"/>
        <path id="Path_28835" data-name="Path 28835" d="M43.441,35.565l-.146-.143A.178.178,0,0,1,43.441,35.565Z" transform="translate(-3.879 -11.047)" fill="#75bf6b"/>
      </g>
      <g id="Group_9688" data-name="Group 9688" transform="translate(0 70.048)">
        <path id="Path_28836" data-name="Path 28836" d="M48.5,54.837c-.084.262-.178.521-.254.788q-.927,3.3-1.845,6.6a2.652,2.652,0,0,1-.167.531.4.4,0,0,1-.707.005,2.22,2.22,0,0,1-.156-.45q-1.226-4-2.447-8.006c-.051-.173-.073-.351-.127-.634.218.081.4.092.459.181a2.428,2.428,0,0,1,.213.6q1.032,3.435,2.066,6.873a1.8,1.8,0,0,0,.421.78c.084-.264.178-.526.254-.793.645-2.3,1.279-4.61,1.931-6.913.073-.256.03-.653.418-.682.475-.038.415.41.491.685.65,2.331,1.284,4.666,1.926,7a1.643,1.643,0,0,0,.386.728c.089-.264.186-.526.264-.8.7-2.314,1.386-4.634,2.093-6.948.081-.267.035-.685.585-.661a2.289,2.289,0,0,1-.035.518c-.823,2.722-1.662,5.441-2.484,8.165-.124.418-.281.691-.842.464L48.69,54.834Z" transform="translate(-3.223 -50.113)" fill="#e0e0e0"/>
        <path id="Path_28837" data-name="Path 28837" d="M65.6,62.231c-.1,1.2.04,2.384-.108,3.73-.213-.235-.351-.318-.38-.432a2.238,2.238,0,0,1-.022-.556V54.532a3.094,3.094,0,0,1,.04-.634c.019-.076.181-.119.34-.216l.17.817c.159-.119.294-.221.434-.318a1.384,1.384,0,0,1,.4-.254A5.935,5.935,0,0,1,70.218,54a1.9,1.9,0,0,1,1.171,1.775c.051,1.7.073,3.4,0,5.1a2.175,2.175,0,0,1-2.263,2.115c-.21.011-.423.005-.637.005A3.756,3.756,0,0,1,65.6,62.231Zm5.344-3.914H70.9a25.031,25.031,0,0,0-.019-2.546,1.637,1.637,0,0,0-1.748-1.6c-.558-.024-1.117-.027-1.672,0a1.761,1.761,0,0,0-1.867,1.78c-.054,1.591-.054,3.188,0,4.78a1.78,1.78,0,0,0,1.856,1.8c.448.024.9.011,1.354.008,1.443-.011,2.085-.62,2.142-2.072C70.971,59.752,70.946,59.034,70.946,58.317Z" transform="translate(34.603 -50.138)" fill="#e0e0e0"/>
        <path id="Path_28838" data-name="Path 28838" d="M64.82,56.26c-.013-.283-.03-.566-.038-.85-.043-1.529-.677-2.161-2.217-2.188-.718-.011-1.438-.027-2.153.013a1.738,1.738,0,0,0-1.883,1.912q-.049,3.512,0,7.021a1.74,1.74,0,0,0,1.964,1.9c.771.011,1.543.013,2.312,0a1.788,1.788,0,0,0,1.966-1.842c.035-.386.038-.777.059-1.268.2.121.383.173.388.243a3.418,3.418,0,0,1-.353,2.314,1.973,1.973,0,0,1-1.573.968c-1.09.046-2.182.062-3.269,0A2.053,2.053,0,0,1,58.1,62.753a5.627,5.627,0,0,1-.1-1.106c-.008-2,0-3.989,0-5.985,0-.159-.005-.321.005-.48a2.294,2.294,0,0,1,2.428-2.4c.8-.032,1.6-.032,2.393,0a2.307,2.307,0,0,1,2.433,2.549,4.885,4.885,0,0,1-.019.718c-.016.1-.138.178-.213.264Z" transform="translate(22.564 -51.672)" fill="#e0e0e0"/>
        <path id="Path_28839" data-name="Path 28839" d="M43.859,58.636h-5.9a7.646,7.646,0,0,0,.089,2.643,1.649,1.649,0,0,0,1.748,1.227c1.114.019,2.231,0,3.347.011.213,0,.5-.108.6.308a1.377,1.377,0,0,1-.394.129c-1.222.008-2.447.03-3.666-.005a2.162,2.162,0,0,1-2.225-2.225q-.057-2.391,0-4.785a2.165,2.165,0,0,1,2.279-2.247c.637-.019,1.276-.022,1.912,0a2.116,2.116,0,0,1,2.19,1.9,19.111,19.111,0,0,1,.078,2.225C43.919,58.056,43.884,58.288,43.859,58.636Zm-.5-.51a11.805,11.805,0,0,0-.032-2.641,1.539,1.539,0,0,0-1.416-1.314,19.739,19.739,0,0,0-2.463-.005,1.537,1.537,0,0,0-1.343.987,5.854,5.854,0,0,0-.038,2.973Z" transform="translate(-12.348 -50.109)" fill="#e0e0e0"/>
        <path id="Path_28840" data-name="Path 28840" d="M78.426,53.706V62.88c-.653.129-.313-.494-.6-.688-1.109,1.127-2.533.777-3.871.685a1.971,1.971,0,0,1-1.78-1.956c-.062-1.753-.065-3.509.005-5.26a1.973,1.973,0,0,1,1.8-1.934C75.435,53.647,76.894,53.706,78.426,53.706Zm-.5.437c-1.306,0-2.552-.046-3.793.016a1.381,1.381,0,0,0-1.4,1.3c-.081,1.88-.1,3.766-.005,5.643a1.507,1.507,0,0,0,1.6,1.381c.45.03.9.013,1.357.011,1.629-.011,2.282-.645,2.29-2.26.011-1.753.005-3.509,0-5.263C77.973,54.712,77.943,54.453,77.924,54.143Z" transform="translate(46.552 -50.094)" fill="#e0e0e0"/>
        <path id="Path_28841" data-name="Path 28841" d="M67.887,53.708v9.174c-.677.119-.267-.534-.572-.68-1.2,1.119-2.673.82-4.065.615a1.836,1.836,0,0,1-1.57-1.872c-.059-1.753-.059-3.512,0-5.265a1.952,1.952,0,0,1,1.78-1.95C64.909,53.646,66.368,53.708,67.887,53.708Zm-.437.442c-1.37,0-2.641-.054-3.9.019a1.585,1.585,0,0,0-1.413,1.675c-.04,1.645-.049,3.3,0,4.942a1.685,1.685,0,0,0,1.751,1.7c.556.027,1.117.027,1.672,0a1.807,1.807,0,0,0,1.885-1.926c.016-.85,0-1.7,0-2.549C67.453,56.764,67.45,55.518,67.45,54.15Z" transform="translate(28.745 -50.093)" fill="#e0e0e0"/>
        <path id="Path_28842" data-name="Path 28842" d="M33.921,53.213c-.871,0-1.74,0-2.611,0s-1.734.016-2.643.024v5.017c.291.019.548.051.8.054,1.144.005,2.287,0,3.428.005.216,0,.488-.086.618.359a12.635,12.635,0,0,1-2.358.076c-.8.019-1.589.005-2.492.005-.081,1.775-.027,3.482-.038,5.257.337.024.593.054.85.054,1.276.005,2.552,0,3.828.011.229,0,.548-.129.65.248a23.357,23.357,0,0,1-5.656.151c-.175-.537-.24-10.347-.062-11.709,1.834.005,3.685-.03,5.535.032a1.319,1.319,0,0,1,.313.086Z" transform="translate(-28.129 -51.665)" fill="#e0e0e0"/>
        <path id="Path_28843" data-name="Path 28843" d="M54.18,58.391c0,.691.016,1.381,0,2.072a2.282,2.282,0,0,1-2.544,2.5c-.529.005-1.06.016-1.591-.005a2.18,2.18,0,0,1-2.263-2.2c-.057-1.618-.054-3.24,0-4.858a2.163,2.163,0,0,1,2.244-2.206c.637-.024,1.276-.024,1.912,0a2.134,2.134,0,0,1,2.2,2.072c.07.869.013,1.751.013,2.627Zm-.5-.067h-.008c0-.823.032-1.648-.008-2.471a1.643,1.643,0,0,0-1.57-1.694,17.057,17.057,0,0,0-2.228,0,1.589,1.589,0,0,0-1.529,1.378,5.688,5.688,0,0,0-.092,1.028c-.011,1.168-.005,2.336,0,3.507a6.344,6.344,0,0,0,.038.715,1.742,1.742,0,0,0,1.9,1.726q.8.02,1.591,0a1.751,1.751,0,0,0,1.907-1.877C53.695,59.864,53.676,59.092,53.676,58.323Z" transform="translate(5.155 -50.11)" fill="#e0e0e0"/>
        <path id="Path_28844" data-name="Path 28844" d="M34.459,53.669l.173.828a4.6,4.6,0,0,0,.378-.281,1.9,1.9,0,0,1,1.308-.507c.61-.011,1.225-.027,1.834,0a2.2,2.2,0,0,1,2.242,2.223c.038.823.013,1.648.016,2.473,0,1.333,0,2.662-.005,3.992,0,.237.089.569-.434.542-.013-.286-.035-.569-.035-.85,0-1.837,0-3.671-.005-5.508a4.974,4.974,0,0,0-.054-.874,1.7,1.7,0,0,0-1.807-1.556c-.531-.019-1.065-.022-1.594,0a1.811,1.811,0,0,0-1.9,1.84c-.032.4-.016.8-.016,1.195q0,2.436,0,4.871v1.025c-.254-.189-.4-.248-.45-.351a.9.9,0,0,1-.03-.394q0-3.993,0-7.984a1.367,1.367,0,0,1,.043-.472C34.149,53.8,34.3,53.763,34.459,53.669Z" transform="translate(-18.05 -50.122)" fill="#e0e0e0"/>
        <path id="Path_28845" data-name="Path 28845" d="M30.985,62.859c.823-1.378,1.589-2.716,2.411-4.016a1.049,1.049,0,0,0-.005-1.292c-.637-1.012-1.217-2.058-1.818-3.091-.132-.227-.256-.459-.386-.693.467-.232.6.1.761.37q.838,1.449,1.678,2.9c.132.227.272.45.453.747a3.19,3.19,0,0,0,.359-.421c.61-1.063,1.2-2.128,1.807-3.191.151-.27.267-.618.782-.407-.143.256-.275.5-.415.744-.6,1.036-1.184,2.08-1.815,3.094a.951.951,0,0,0,.016,1.154c.707,1.125,1.373,2.274,2.05,3.418.132.218.248.448.378.682-.488.221-.62-.113-.78-.383-.615-1.055-1.225-2.115-1.84-3.169-.129-.227-.275-.44-.467-.742-.162.218-.294.367-.394.534q-.987,1.687-1.964,3.377C31.635,62.751,31.487,63.051,30.985,62.859Z" transform="translate(-23.281 -50.09)" fill="#e0e0e0"/>
        <path id="Path_28846" data-name="Path 28846" d="M42.008,55.305a5.274,5.274,0,0,1-1.5-.488l1.5-.119c0-.475-.016-.9.011-1.314.011-.119.154-.229.235-.343.086.108.243.208.251.321.03.421.011.842.011,1.351l2.746.092c-.372.628-.863.348-1.249.388a13.423,13.423,0,0,1-1.405.011,6.277,6.277,0,0,0-.084.653c-.005,1.888-.013,3.779,0,5.667.011,1.386.666,2.018,2.066,2.069.264.011.6-.146.807.272a1.355,1.355,0,0,1-.391.162,5.37,5.37,0,0,1-.955-.022,2.218,2.218,0,0,1-1.977-1.894,5.907,5.907,0,0,1-.067-.952c-.005-1.651,0-3.3,0-4.95Z" transform="translate(-7.112 -51.186)" fill="#e0e0e0"/>
        <path id="Path_28847" data-name="Path 28847" d="M71.029,55.357c-.515-.356-1.1.073-1.524-.4.432-.426,1.012-.019,1.519-.394V53.121c.4-.175.486,0,.494.248.011.418,0,.836,0,1.359h2.614l.067.2c-.116.084-.229.232-.351.24-.45.03-.9.016-1.357.016h-.917c-.019.348-.043.61-.043.869q0,2.594,0,5.184a6.335,6.335,0,0,0,.027.639,1.749,1.749,0,0,0,1.7,1.678c.264.024.534-.008.8.027.121.016.227.132.38.229a2.41,2.41,0,0,1-3.275-1.389,4.2,4.2,0,0,1-.132-1.1c-.013-1.729-.005-3.458-.005-5.187Z" transform="translate(42.102 -51.171)" fill="#e0e0e0"/>
        <path id="Path_28848" data-name="Path 28848" d="M53.656,52.354V65.22c-.17-.076-.334-.1-.367-.175a1.269,1.269,0,0,1-.049-.467q0-5.786,0-11.566a1.3,1.3,0,0,1,.038-.472C53.308,52.462,53.476,52.438,53.656,52.354Z" transform="translate(14.491 -52.354)" fill="#e0e0e0"/>
        <path id="Path_28849" data-name="Path 28849" d="M76.051,52.358V65.23c-.175-.092-.345-.124-.37-.2a1.854,1.854,0,0,1-.049-.55q0-5.7.005-11.4C75.639,52.83,75.474,52.466,76.051,52.358Z" transform="translate(52.477 -52.347)" fill="#e0e0e0"/>
        <path id="Path_28850" data-name="Path 28850" d="M51.644,63.028c-.227-.116-.386-.143-.421-.227a1.214,1.214,0,0,1-.049-.467q0-4.07,0-8.138c0-.129.019-.262.03-.388.4-.008.4-.008.5.674a8.38,8.38,0,0,1,1.37-.712,3.1,3.1,0,0,1,1.691.035c-.229.17-.329.3-.445.318-.286.038-.583.008-.874.038a1.851,1.851,0,0,0-1.689,1.457,5.065,5.065,0,0,0-.113,1.106c-.011,1.78-.005,3.563-.005,5.344Z" transform="translate(10.987 -50.121)" fill="#e0e0e0"/>
        <path id="Path_28851" data-name="Path 28851" d="M54.488,58.136,57.8,62.8c-.5.108-.526.121-.731-.165-.982-1.386-1.95-2.784-2.935-4.167a.553.553,0,0,1,.024-.723c.855-1.246,1.7-2.5,2.549-3.755.159-.235.332-.426.715-.218Z" transform="translate(15.804 -50.09)" fill="#e0e0e0"/>
        <path id="Path_28852" data-name="Path 28852" d="M68.849,62.958c-.113-.067-.272-.111-.3-.192a2.084,2.084,0,0,1-.035-.553q0-3.9,0-7.809a1.966,1.966,0,0,1,.043-.55c.024-.078.189-.113.3-.173A82.457,82.457,0,0,1,68.849,62.958Z" transform="translate(40.422 -50.1)" fill="#e0e0e0"/>
        <path id="Path_28853" data-name="Path 28853" d="M68.929,54.442c-.2-.067-.329-.089-.332-.116-.035-.55-.065-1.1-.078-1.656-.005-.24.132-.332.41-.245Z" transform="translate(40.429 -52.289)" fill="#e0e0e0"/>
      </g>
    </g>
    <rect id="Rectangle_1215" data-name="Rectangle 1215" width="250" height="138" transform="translate(210 2527)" opacity="0"/>
  </g>
</svg>
