<svg xmlns="http://www.w3.org/2000/svg" width="250" height="138" viewBox="0 0 250 138">
  <g id="Group_9774" data-name="Group 9774" transform="translate(-460 -2665)">
    <g id="Group_9691" data-name="Group 9691" transform="translate(501 2706)">
      <path id="Path_28867" data-name="Path 28867" d="M111.638,41.843l.156-.009c.031.755.026,1.507,0,2.261l-.158-.009Z" transform="translate(-111.638 -15.123)" fill="#a8aaad"/>
      <path id="Path_28868" data-name="Path 28868" d="M111.638,43.069l.182-.012a.16.16,0,0,1,.009.2.167.167,0,0,0-.192,0Z" transform="translate(-111.638 -13.453)" fill="#a8aaad"/>
      <path id="Path_28869" data-name="Path 28869" d="M111.739,59.582a.16.16,0,0,0-.009-.2l-.024-.632c.024-.755.028-1.507,0-2.261a26.4,26.4,0,0,1,2-9.3,27.71,27.71,0,0,1,16.959-15.977c.114-.043.234-.071.39-.116v5.956a22.117,22.117,0,0,0-12.833,14.323,21.379,21.379,0,0,0,.71,14.489,22.163,22.163,0,0,0,42.547-5.443H136.732V54.752h30.4c.1.083.076.215.085.334a27.4,27.4,0,0,1-8.026,22.127,27.038,27.038,0,0,1-14.437,7.7,26.628,26.628,0,0,1-7.248.428,27.9,27.9,0,0,1-25.151-21.652A31.2,31.2,0,0,1,111.739,59.582Z" transform="translate(-111.548 -29.779)" fill="#fff"/>
      <path id="Path_28870" data-name="Path 28870" d="M160.993,32.5c2.6-.052,5.2-.123,7.795.052a21.761,21.761,0,0,1,6.995,1.488,13.714,13.714,0,0,1,8.507,9.954,17.325,17.325,0,0,1-2.782,14.475,14.694,14.694,0,0,1-8.388,5.722,23.939,23.939,0,0,1-7.449.712c-2.536-.1-5.062-.322-7.6-.468-1.112-.066-2.238.052-3.357.09-.326.009-.653.024-.979.033a1.383,1.383,0,0,1-.279-.017c-.251-.047-.4-.177-.369-.343.035-.218.208-.248.388-.253a8.741,8.741,0,0,0,1.02-.118,1.308,1.308,0,0,0,1.114-.932,6.754,6.754,0,0,0,.338-1.687c.151-1.661.18-3.324.182-4.989q0-8.921,0-17.836c0-1-.028-1.992-.092-2.988a2.043,2.043,0,0,0-1.975-2.233,6.774,6.774,0,0,0-.977-.08c-.123-.007-.251-.007-.371-.026s-.239-.08-.248-.234a.281.281,0,0,1,.225-.31,1.808,1.808,0,0,1,.646-.059c1.183.028,2.366.04,3.548.1C158.256,32.615,159.623,32.5,160.993,32.5Zm-1.282,15.007h.038c0,2.817-.009,5.632,0,8.45a45.576,45.576,0,0,0,.2,4.752,2.185,2.185,0,0,0,1.408,1.916,8.5,8.5,0,0,0,1.874.546,23.742,23.742,0,0,0,4.793.289,14.409,14.409,0,0,0,6.363-1.623,10.593,10.593,0,0,0,5.306-5.649,18.189,18.189,0,0,0,.927-10.174,14.542,14.542,0,0,0-11.251-11.53,29.731,29.731,0,0,0-7.522-.525,8.791,8.791,0,0,0-1.339.177.8.8,0,0,0-.745.906c-.021.9-.05,1.8-.05,2.706C159.706,41,159.711,44.254,159.711,47.506Z" transform="translate(-55.884 -27.951)" fill="#fff"/>
      <path id="Path_28871" data-name="Path 28871" d="M122.337,49.826a1.029,1.029,0,0,1-.066-.535V31.221c0-.092,0-.187,0-.279,0-.192.092-.282.284-.293.341-.021.679-.076,1.02-.08.965-.012,1.933-.052,2.9,0a27.752,27.752,0,0,1,16.351,6.378A27.861,27.861,0,0,1,151.4,49.334a3.1,3.1,0,0,1,.1.36.48.48,0,0,1-.026.161h-5.9a22.275,22.275,0,0,0-8.847-10.361,21.809,21.809,0,0,0-8.8-3.127,8.653,8.653,0,0,0-.047,1.5c-.012.5,0,1,0,1.5V49.8A53.272,53.272,0,0,1,122.337,49.826Z" transform="translate(-97.125 -30.542)" fill="#a8aaad"/>
      <path id="Path_28872" data-name="Path 28872" d="M162.971,56.343c-.014-1.287.033-2.78-.066-4.272a6.748,6.748,0,0,0-.121-.878,1.685,1.685,0,0,0-1.124-1.322,5.053,5.053,0,0,0-1.736-.312,2.306,2.306,0,0,1-.461-.038.237.237,0,0,1-.194-.234.265.265,0,0,1,.166-.26,1.345,1.345,0,0,1,.6-.085c1.322.033,2.645.045,3.967.1,1.216.05,2.425-.064,3.638-.073.468,0,.934-.028,1.4-.024.355.007.539.132.546.322s-.14.27-.549.293a5.986,5.986,0,0,0-1.1.18,1.5,1.5,0,0,0-1.1,1.041,4.824,4.824,0,0,0-.206,1.192c-.1,1.381-.088,2.768-.092,4.152-.007,1.93,0,3.861,0,5.791,0,.248-.019.5-.026.745a1.013,1.013,0,0,1-.653.934,14.653,14.653,0,0,1-2.612.994,24.7,24.7,0,0,1-7.811.8,24.363,24.363,0,0,1-6.5-1.161,16.474,16.474,0,0,1-6.307-3.7,14.5,14.5,0,0,1-3.778-6.3,17.467,17.467,0,0,1,1.628-14.65,14.3,14.3,0,0,1,8.807-6.538,25.2,25.2,0,0,1,6.51-.828,34.191,34.191,0,0,1,7.227.757,21.653,21.653,0,0,0,2.73.355c.076,0,.154.007.232.009.9.033.854.274.778.892a45.755,45.755,0,0,0-.263,5.311c0,.265-.021.53-.047.792a.307.307,0,0,1-.289.312c-.206.019-.272-.121-.3-.286-.052-.322-.095-.646-.147-.968a5,5,0,0,0-2.616-3.761,14.081,14.081,0,0,0-4.663-1.561,22.566,22.566,0,0,0-5.772-.177,12.46,12.46,0,0,0-6.865,2.763,10.266,10.266,0,0,0-3.08,4.542,17.554,17.554,0,0,0-.951,7.9,17.227,17.227,0,0,0,2.936,8.164,14.359,14.359,0,0,0,7.577,5.561,15.678,15.678,0,0,0,8.473.39,5.836,5.836,0,0,0,1.23-.428,1.607,1.607,0,0,0,.986-1.512c.012-.357.007-.714.007-1.074Z" transform="translate(-75.724 -28.265)" fill="#fff"/>
      <path id="Path_28873" data-name="Path 28873" d="M173.964,49.536a32.037,32.037,0,0,1,.849-7.279,17.719,17.719,0,0,1,2.55-5.968A9.729,9.729,0,0,1,180.68,33.2a8.315,8.315,0,0,1,3.054-.937,7.884,7.884,0,0,1,3.8.485,7.741,7.741,0,0,1,2.893,1.994,15.3,15.3,0,0,1,3.43,6.846,25.81,25.81,0,0,1,.684,3.941,22.378,22.378,0,0,1,.121,2.51,34.775,34.775,0,0,1-.211,3.674,29.464,29.464,0,0,1-.785,4.206,16.821,16.821,0,0,1-2.583,5.651,9.131,9.131,0,0,1-4.173,3.324,8.141,8.141,0,0,1-3.749.485,7.948,7.948,0,0,1-5.408-3.07,15.887,15.887,0,0,1-3.037-6.439,23.71,23.71,0,0,1-.681-4.5C174,50.823,173.971,50.282,173.964,49.536Zm3.454-1.469a32.96,32.96,0,0,0,.206,3.953,27.666,27.666,0,0,0,.639,3.806,17.091,17.091,0,0,0,1.923,4.984,6.7,6.7,0,0,0,2.141,2.3,4.161,4.161,0,0,0,3.832.471,4.9,4.9,0,0,0,2.084-1.675,12.506,12.506,0,0,0,2.065-4.506,31.107,31.107,0,0,0,.918-7.191c.024-.606-.033-1.211-.047-1.817a31.818,31.818,0,0,0-.589-5.315,19.451,19.451,0,0,0-1.952-5.713,7.294,7.294,0,0,0-2.768-3.023,4.021,4.021,0,0,0-2.6-.52,4.49,4.49,0,0,0-2.876,1.755,11.013,11.013,0,0,0-1.833,3.648,23.159,23.159,0,0,0-.934,4.743A35.35,35.35,0,0,0,177.418,48.067Z" transform="translate(-26.528 -28.263)" fill="#a8aaad"/>
      <path id="Path_28874" data-name="Path 28874" d="M172.783,48.768v-10.5a5.025,5.025,0,0,0-.038-.885.681.681,0,0,0-.859-.561,7.868,7.868,0,0,0-1.838.665c-.946.433-1.881.9-2.82,1.346-.085.04-.168.088-.253.123a.361.361,0,0,1-.466-.08.4.4,0,0,1,0-.513.984.984,0,0,1,.317-.27q4.194-2.8,8.386-5.595a2.511,2.511,0,0,1,.362-.208.466.466,0,0,1,.731.362,2.012,2.012,0,0,1,.033.464c-.009.965.019,1.93-.04,2.893-.1,1.68-.038,3.359-.09,5.039-.14,4.525-.043,9.053-.085,13.581-.017,1.493-.019,2.988.033,4.48a28.339,28.339,0,0,0,.232,3.063c.18,1.244.684,1.689,2.053,1.862.755.092,1.516.13,2.276.189a.52.52,0,0,1,.308.083.31.31,0,0,1,.151.274c-.009.125-.1.18-.206.227a1.362,1.362,0,0,1-.551.069c-1.914.035-3.825-.111-5.739-.1-1.23.007-2.46-.021-3.688.043-1.01.052-2.02.038-3.03.057a1.688,1.688,0,0,1-.554-.071c-.128-.043-.232-.1-.232-.251a.312.312,0,0,1,.206-.286.554.554,0,0,1,.227-.04c.84-.012,1.672-.111,2.508-.189a6.024,6.024,0,0,0,1.322-.255,1.588,1.588,0,0,0,1.114-1.209,4.466,4.466,0,0,0,.116-.83q.117-2.4.111-4.8c-.007-2.723,0-5.448,0-8.171Z" transform="translate(-36.836 -28.259)" fill="#a8aaad"/>
      <path id="Path_28875" data-name="Path 28875" d="M160.918,58.319a.431.431,0,0,0,.088-.36q-.089-4.269-.187-8.54a6.137,6.137,0,0,0-.064-.835.823.823,0,0,0-.807-.766c-.265-.043-.554.021-.792-.14.036-.182.163-.149.265-.154a18.611,18.611,0,0,1,3.69.114c-.092.175-.272.121-.409.147-.589.111-.766.293-.807.9-.019.263-.024.528-.026.792q-.011,2.239-.019,4.48-.014,3.151-.033,6.3a2.161,2.161,0,0,1-.05.6c-.255.118-.381-.085-.516-.215q-.9-.876-1.791-1.774c-2.7-2.742-5.3-5.573-7.87-8.428a1.048,1.048,0,0,0-.291-.286c-.125.054-.071.161-.069.244q.1,4.2.215,8.4a4.328,4.328,0,0,0,.147,1.012.828.828,0,0,0,.7.655,4.533,4.533,0,0,1,.809.106c.024.185-.087.211-.2.211a7.685,7.685,0,0,1-.934-.009,23.506,23.506,0,0,0-2.517.012c-.158,0-.343.057-.457-.118.083-.2.246-.132.371-.144.7-.078.88-.255.953-.96a15.439,15.439,0,0,0,.066-1.585q0-4.95.012-9.9a1.036,1.036,0,0,1,.189-.84,18.607,18.607,0,0,1,1.486,1.545c.5.53,1,1.072,1.5,1.606s.977,1.048,1.464,1.571.982,1.043,1.469,1.566.977,1.048,1.462,1.575.986,1.079,1.481,1.618S160.414,57.77,160.918,58.319Z" transform="translate(-60.621 -7.742)" fill="#fff"/>
      <path id="Path_28876" data-name="Path 28876" d="M171.353,55.02a.544.544,0,0,0-.061.374c0,1.041.009,2.084.026,3.125a9.651,9.651,0,0,0,.08.977c.066.544.246.729.785.811.255.04.516.062.774.09.009.211-.116.225-.241.225-.36,0-.719.019-1.074-.014a24.4,24.4,0,0,0-2.564.014c-.156,0-.348.069-.454-.132.071-.187.234-.116.362-.135.506-.078.636-.187.74-.686a10.781,10.781,0,0,0,.144-2.136c.014-2.661.007-5.32,0-7.981,0-.355-.024-.714-.054-1.069a.807.807,0,0,0-.783-.833,1.868,1.868,0,0,1-.634-.106c-.012-.007-.014-.028-.021-.043,0-.137.1-.13.194-.137s.156,0,.234,0c1.415.045,2.829.009,4.246,0a6.979,6.979,0,0,1,1.254.111,3.163,3.163,0,0,1,2.649,4.166,5.749,5.749,0,0,1-1.509,2.484c-.14.144-.3.27-.414.376.017.1.012.135.028.156,1.036,1.344,2.063,2.692,3.177,3.969a7.048,7.048,0,0,0,1.1,1.069,3.29,3.29,0,0,0,1.857.669c.13,0,.284-.045.381.1-.024.156-.142.163-.244.161-.778-.012-1.557.043-2.332-.043a2.678,2.678,0,0,1-1.573-.743,7.928,7.928,0,0,1-.923-1.048c-.84-1.121-1.682-2.24-2.5-3.373a.8.8,0,0,0-.766-.4C172.621,55.043,172,55.02,171.353,55.02Zm-.064-3.91q0,1.306,0,2.612c0,.423.036.473.447.572a6.02,6.02,0,0,0,1.758.163,1.921,1.921,0,0,0,1.751-1.195,3.1,3.1,0,0,0,.17-.433,4.846,4.846,0,0,0-.031-2.938,2.679,2.679,0,0,0-2.2-1.923,4.919,4.919,0,0,0-1.49,0c-.383.05-.407.09-.409.475C171.287,49.335,171.29,50.222,171.29,51.109Z" transform="translate(-34.153 -7.579)" fill="#fff"/>
      <path id="Path_28877" data-name="Path 28877" d="M161.5,47.5c.038-.05.064-.114.092-.114,1.337-.012,2.673-.017,4.01-.024a.233.233,0,0,1,.211.1c-.083.189-.265.163-.4.166-.518.007-.759.352-.8.842-.059.639-.054,1.275-.057,1.911-.009,1.509-.007,3.018,0,4.528a9.329,9.329,0,0,0,.284,2.5,3.5,3.5,0,0,0,2.377,2.6,3.878,3.878,0,0,0,2.78-.149,3.623,3.623,0,0,0,2.112-2.933,12.628,12.628,0,0,0,.184-2.276c0-1.741,0-3.484-.012-5.226a8.428,8.428,0,0,0-.061-.977.789.789,0,0,0-.764-.795,2.006,2.006,0,0,1-.636-.106c-.012,0-.014-.026-.021-.043-.009-.137.1-.137.187-.14.232,0,.466-.009.7,0,.823.035,1.649.021,2.472,0a.762.762,0,0,1,.494.073c-.059.211-.227.168-.345.189-.641.118-.826.289-.863.946s-.033,1.339-.035,2.006c0,1.355.009,2.709,0,4.062a10.88,10.88,0,0,1-.352,2.815,4.609,4.609,0,0,1-4.144,3.364,6.879,6.879,0,0,1-2.273-.137,4.313,4.313,0,0,1-3.388-3.456,8.644,8.644,0,0,1-.21-1.989q0-2.8-.014-5.6c0-.371-.021-.745-.052-1.117-.045-.568-.27-.785-.842-.875C161.917,47.61,161.685,47.674,161.5,47.5Z" transform="translate(-43.551 -7.581)" fill="#fff"/>
      <path id="Path_28878" data-name="Path 28878" d="M138.3,47.51a.129.129,0,0,1,.137-.125q2.147,0,4.293,0c.064,0,.121.028.14.132-.144.158-.362.09-.544.123-.445.078-.584.244-.449.669.184.577.409,1.14.622,1.708q1.49,3.974,2.981,7.944c.047.123.1.246.142.364.147-.033.151-.14.185-.222,1.273-3.073,2.486-6.167,3.584-9.306a3.134,3.134,0,0,0,.161-.632c.04-.305-.09-.454-.4-.52-.22-.045-.459.009-.658-.116.024-.158.13-.149.218-.156a24.556,24.556,0,0,1,3.511.1c-.033.175-.187.137-.291.142a1.341,1.341,0,0,0-1.232.852c-.149.324-.307.646-.442.977-1.325,3.2-2.635,6.408-4.017,9.588-.229.528-.478,1.046-.719,1.568-.052.111-.1.239-.251.246-.173.009-.241-.13-.3-.253-.177-.414-.348-.833-.513-1.251q-2.054-5.127-4.1-10.257c-.019-.045-.038-.088-.052-.13a1.731,1.731,0,0,0-1.751-1.337C138.47,47.614,138.366,47.624,138.3,47.51Z" transform="translate(-75.233 -7.589)" fill="#fff"/>
      <path id="Path_28879" data-name="Path 28879" d="M174.47,60.575c.2-.175.4-.121.572-.156a.644.644,0,0,0,.537-.513,4.842,4.842,0,0,0,.128-.923c.092-1.866.062-3.733.064-5.6,0-1.476.021-2.955-.043-4.431,0-.125-.012-.248-.026-.374a.807.807,0,0,0-.778-.833,2.083,2.083,0,0,1-.658-.109c-.009-.177.1-.177.187-.177.435,0,.871-.014,1.306,0,1.478.052,2.957,0,4.435.017a4.1,4.1,0,0,0,1.393-.192,20.015,20.015,0,0,0-.22,2.115.265.265,0,0,1-.123.22c-.175-.031-.144-.158-.158-.258-.111-.854-.308-1.048-1.171-1.152a24.238,24.238,0,0,0-2.545-.08.3.3,0,0,0-.13.3q0,2.31,0,4.62a1.078,1.078,0,0,0,.033.2.238.238,0,0,0,.232.092l2.564-.05a1.207,1.207,0,0,0,1.043-.412.1.1,0,0,1,.14-.021c.092.1.05.227.024.341-.177.717-.1,1.469-.244,2.2-.227-.054-.187-.2-.2-.317-.069-.707-.258-.93-.97-1.015-.849-.1-1.7-.057-2.507-.088a.231.231,0,0,0-.116.2q0,2.193,0,4.386a3.964,3.964,0,0,0,.052.6.866.866,0,0,0,.743.792,7.415,7.415,0,0,0,2.645-.017,1.212,1.212,0,0,0,.977-1.008,2.008,2.008,0,0,1,.182-.608.218.218,0,0,1,.163.272,11.9,11.9,0,0,1-.225,1.663c-.1.412-.182.49-.606.487-1.244,0-2.491,0-3.733-.047-.778-.026-1.554-.035-2.332.012C174.907,60.724,174.678,60.793,174.47,60.575Z" transform="translate(-26.116 -7.675)" fill="#fff"/>
      <path id="Path_28880" data-name="Path 28880" d="M144.35,47.561a.847.847,0,0,1,.565-.111q2.636.007,5.275.021a4.294,4.294,0,0,0,1.5-.177c.118.423-.1.8-.095,1.192a2.563,2.563,0,0,1-.17,1.161c-.237-.128-.17-.3-.187-.447a.89.89,0,0,0-.807-.932,4.9,4.9,0,0,0-1.064-.121c-.634-.017-1.268-.043-1.933,0v5.1a.227.227,0,0,0,.2.085c.949-.024,1.9,0,2.846-.062a1.377,1.377,0,0,0,.925-.513,4.693,4.693,0,0,1-.088,1.322c-.007.428-.062.856-.095,1.273-.192.028-.194-.073-.206-.166-.019-.137-.033-.277-.057-.416a.758.758,0,0,0-.632-.662,3.719,3.719,0,0,0-.646-.088c-.669-.024-1.339-.033-2.008-.047a.284.284,0,0,0-.229.059c-.08.116-.04.26-.04.4q0,1.984,0,3.967a4.017,4.017,0,0,0,.043.653.945.945,0,0,0,.968.941,8.053,8.053,0,0,0,1.864.026,4.865,4.865,0,0,0,.554-.076,1.182,1.182,0,0,0,.96-.908c.04-.149.069-.3.106-.452.024-.1.035-.22.182-.241.135.083.1.22.083.334-.059.523-.116,1.05-.206,1.571-.071.407-.208.5-.651.5-1.169,0-2.335,0-3.5-.038-.856-.031-1.71-.054-2.567,0-.185.012-.4.088-.556-.1.024-.17.149-.14.253-.154.651-.092.783-.227.878-.875a11.7,11.7,0,0,0,.1-1.677q0-4.386-.007-8.776a3.678,3.678,0,0,0-.038-.6.808.808,0,0,0-.79-.778A1.5,1.5,0,0,1,144.35,47.561Z" transform="translate(-66.968 -7.667)" fill="#fff"/>
      <path id="Path_28881" data-name="Path 28881" d="M167,47.319a7.3,7.3,0,0,1-.088,2.4c-.182-.017-.161-.163-.163-.277a1,1,0,0,0-.866-1.005,4.544,4.544,0,0,0-.688-.116c-.915-.095-1.831-.04-2.725-.069-.125.13-.083.263-.083.381q0,4.553.014,9.1c0,.53.038,1.057.069,1.585a4.016,4.016,0,0,0,.076.506.668.668,0,0,0,.62.6l.648.071c.088.012.194-.017.239.1,0,.123-.085.158-.182.163a6.913,6.913,0,0,1-.7,0,25.611,25.611,0,0,0-2.983,0c-.177.009-.376.059-.52-.1.031-.2.182-.149.293-.166.608-.083.717-.2.833-.809a9.467,9.467,0,0,0,.1-1.675q.021-4.762.028-9.521c0-.062-.014-.123-.019-.175a.5.5,0,0,0-.371-.057c-.979.026-1.959-.019-2.938.066a1.415,1.415,0,0,0-1.263.88c-.061.132-.09.3-.265.355a4.986,4.986,0,0,1,.473-2.295,7.667,7.667,0,0,0,2.425.258q2.828,0,5.651,0A7.961,7.961,0,0,0,167,47.319Z" transform="translate(-51.004 -7.713)" fill="#fff"/>
      <path id="Path_28882" data-name="Path 28882" d="M185.572,47.538a8.346,8.346,0,0,1-.168,2.373c-.156-.1-.151-.265-.168-.407a1.622,1.622,0,0,0-1.292-1.474,3.488,3.488,0,0,0-1.481-.118,2.024,2.024,0,0,0-1.561,2.955,3.227,3.227,0,0,0,.636.859,17.079,17.079,0,0,0,1.675,1.415,10.748,10.748,0,0,1,1.769,1.654,3.819,3.819,0,0,1,.906,2.489,3.514,3.514,0,0,1-2.657,3.515,5.823,5.823,0,0,1-3.622-.163.644.644,0,0,1-.485-.731c.033-.622,0-1.247.088-1.864.017-.116-.009-.258.154-.319.168.1.114.272.125.412a2.128,2.128,0,0,0,1.817,2.115,3.27,3.27,0,0,0,1.436.033,2.408,2.408,0,0,0,1.561-3.624,4.267,4.267,0,0,0-.852-1.046c-.506-.485-1.06-.915-1.6-1.36a8.613,8.613,0,0,1-1.627-1.665,3.553,3.553,0,0,1-.669-2.512,2.971,2.971,0,0,1,2.29-2.642,6.634,6.634,0,0,1,2.78-.059C184.936,47.415,185.241,47.479,185.572,47.538Z" transform="translate(-19.481 -7.724)" fill="#fff"/>
    </g>
    <rect id="Rectangle_1221" data-name="Rectangle 1221" width="250" height="138" transform="translate(460 2665)" opacity="0"/>
  </g>
</svg>
