<svg xmlns="http://www.w3.org/2000/svg" width="250" height="138" viewBox="0 0 250 138">
  <g id="Group_9766" data-name="Group 9766" transform="translate(-210 -2941)">
    <g id="Group_9696" data-name="Group 9696" transform="translate(251 2985)">
      <path id="Path_28921" data-name="Path 28921" d="M116,145.078a25.384,25.384,0,0,1,21.083-24.824,26.27,26.27,0,0,1,12.583,1,2.6,2.6,0,0,0,1.524,0A25.262,25.262,0,1,1,164.3,169.91a26.038,26.038,0,0,1-12.907-.836,3.359,3.359,0,0,0-1.95,0,25.32,25.32,0,0,1-32.951-19.321C116.189,148.221,116.157,146.637,116,145.078Zm46.158,9.239a22.469,22.469,0,0,0,.059-18.207H138.381l-1.864,7.747c.858.054,1.378.113,1.9.113q9.124.016,18.245.014c.286,0,.634-.089.844.04.415.254,1.02.6,1.057.966a2.046,2.046,0,0,1-.685,1.368c-.218.216-.739.173-1.122.175q-9.338.012-18.674.005H136.86a17.594,17.594,0,0,0,1.972,7.779Zm-15.5-31.144c-7.447-1.7-14.142-.224-19.944,4.639a22.1,22.1,0,0,0-8.06,16.068h15.5C134.9,134.882,139.12,128.058,146.656,123.173ZM118.639,146.6c.753,7.7,4.232,13.627,10.628,17.7a22,22,0,0,0,17.687,2.8c-7.814-4.853-11.963-11.65-12.8-20.506Zm61.732-10.45H165.036a26.017,26.017,0,0,1-.057,18.153h15.3A22.68,22.68,0,0,0,180.371,136.153Zm-16.592-2.716h15.157a22.388,22.388,0,0,0-12.648-9.951,20.328,20.328,0,0,0-12.065-.267A27.41,27.41,0,0,1,163.779,133.436Zm-.108,23.6a26.425,26.425,0,0,1-9.665,10.015c9.233,2.7,20.346-2.031,24.641-10.015Zm-23.616-23.861.21.275h20.411a2.332,2.332,0,0,0-.167-.5,22.25,22.25,0,0,0-9.524-8.329,2,2,0,0,0-1.494.138,21.534,21.534,0,0,0-6.514,4.791C141.928,130.685,141.024,131.958,140.056,133.172Zm20.616,23.893h-20.53a22.788,22.788,0,0,0,10.282,8.861A22.506,22.506,0,0,0,160.672,157.065Z" transform="translate(-115.998 -119.707)" fill="#e0013f"/>
      <path id="Path_28922" data-name="Path 28922" d="M162.82,135.381l1.144-.057.332.642c2.368-1.206,3.617-1.117,5.036.14a28.7,28.7,0,0,1,3.555-.922c1.324-.173,2.182.682,2.8,1.8v7.434l-1.332.062v-3.142c0-.928,0-1.856,0-2.784-.005-1.529-.432-2.018-1.8-2.069a2.468,2.468,0,0,0-2.611,2.15c-.04,1.885-.011,3.771-.011,5.751h-1.392v-5.816c0-1.521-.515-2.1-1.9-2.123a2.424,2.424,0,0,0-2.5,2.255c-.011,1.883,0,3.766,0,5.713H162.82Z" transform="translate(-36.523 -93.847)" fill="#e0013f"/>
      <path id="Path_28923" data-name="Path 28923" d="M153.958,139.465H152.3l-4.227-6.28-2.39,2.411v3.836h-1.33V127.054h1.3v6.08l.275.151,5.9-6.25h1.9l-4.726,5.068Z" transform="translate(-67.874 -107.554)" fill="#e0013f"/>
      <path id="Path_28924" data-name="Path 28924" d="M153.512,122.078l-.809.758a9.774,9.774,0,0,0-1.481-1.071c-2.514-1.179-4.8-.162-5.481,2.552a7.053,7.053,0,0,0,.5,5.4,3.576,3.576,0,0,0,4.149,1.635,3.2,3.2,0,0,0,2.209-3.569c-.456-.027-.939-.065-1.422-.078-.456-.013-.909,0-1.438,0l-.084-1.184h4.283a4.912,4.912,0,1,1-9.519,2.363,8.563,8.563,0,0,1,.556-6.344A5.14,5.14,0,0,1,153.512,122.078Z" transform="translate(-68.367 -119.467)" fill="#e0013f"/>
      <path id="Path_28925" data-name="Path 28925" d="M155.873,132.708l-1.6.31v-13.2h1.206v4.262a16.5,16.5,0,0,1,3.439-.283,3.64,3.64,0,0,1,2.484,1.864,5.823,5.823,0,0,1-.507,6.1C159.741,133.245,158.09,133.533,155.873,132.708Zm-.556-3.876a6.249,6.249,0,0,0,.693,2.32c.869,1.106,2.878.9,3.819-.175a3.915,3.915,0,0,0,.615-4.213,2.706,2.706,0,0,0-2.428-1.832,2.263,2.263,0,0,0-2.252,1.349A9.908,9.908,0,0,0,155.317,128.832Z" transform="translate(-51.031 -119.806)" fill="#e0013f"/>
      <path id="Path_28926" data-name="Path 28926" d="M176.824,140.626h-6.781c.321,2.568,2.215,3.264,5.357,2.015l.607.78a4.637,4.637,0,0,1-4.351,1.146,4.44,4.44,0,0,1-3.089-3.868,4.914,4.914,0,0,1,2.336-5.109c2.719-1.484,5.57.744,5.913,3.369A14.587,14.587,0,0,1,176.824,140.626Zm-1.44-1.465a2.919,2.919,0,0,0-2.794-2.722,2.77,2.77,0,0,0-2.506,2.722Z" transform="translate(-26.846 -93.84)" fill="#e0013f"/>
      <path id="Path_28927" data-name="Path 28927" d="M161.114,140.629h-6.733c.127,2.077,1.953,3.7,5.325,1.977l.677.976c-1.543,1.022-3.11,1.516-4.8.807a4.231,4.231,0,0,1-2.67-4.119,4.68,4.68,0,0,1,2.128-4.577c2.695-1.689,5.872.588,6.072,3.4C161.141,139.545,161.114,140,161.114,140.629Zm-1.384-1.454c-.34-1.791-1.716-2.937-3.11-2.708a2.671,2.671,0,0,0-2.161,2.708Z" transform="translate(-53.357 -93.84)" fill="#e0013f"/>
      <path id="Path_28928" data-name="Path 28928" d="M164.124,129.624c-1.257.9-2.465,1.505-3.965.947a3.053,3.053,0,0,1-2.22-2.916,2.755,2.755,0,0,1,2.436-2.8,22.3,22.3,0,0,1,3.6-.038,1.436,1.436,0,0,0-.4-1.686c-.958-.825-2.735-.723-4.5.321l-.639-.874c1.478-1.716,4.89-1.859,6.328-.2a3.213,3.213,0,0,1,.6,1.767c.092,1.171-.014,2.355.046,3.531.035.753.216,1.5.37,2.5l-.763.575Zm-.14-2.692a3.042,3.042,0,0,0-3.884-.561,1.548,1.548,0,0,0-.051,2.662,2.573,2.573,0,0,0,2.832-.019A1.879,1.879,0,0,0,163.984,126.932Z" transform="translate(-44.811 -117.437)" fill="#e0013f"/>
      <path id="Path_28929" data-name="Path 28929" d="M156.365,133.591h-6.5c-.146,2.563,2.322,3.5,5.257,2.047l.626.874a4.334,4.334,0,0,1-6.946-1.106c-1.119-2.1-.672-5.929,2.4-7.01a3.6,3.6,0,0,1,3.8.774A4.02,4.02,0,0,1,156.365,133.591Zm-1.322-1.327a2.813,2.813,0,0,0-2.687-2.765,2.666,2.666,0,0,0-2.474,2.765Z" transform="translate(-61.266 -105.644)" fill="#e0013f"/>
      <path id="Path_28930" data-name="Path 28930" d="M158.24,126.216a12.91,12.91,0,0,1-.62,2.635c-.782,1.756-2.56,2.144-4.359,1.888a3.551,3.551,0,0,1-2.927-3.482,14.708,14.708,0,0,1,.2-3.385,3.6,3.6,0,0,1,3.873-2.652,3.662,3.662,0,0,1,3.5,2.73C158.054,124.6,158.107,125.277,158.24,126.216Zm-6.536-.3h-.022c0,.391-.019.782.005,1.171a2.3,2.3,0,0,0,2.336,2.393,2.26,2.26,0,0,0,2.67-2.131,12.37,12.37,0,0,0,0-2.754,2.313,2.313,0,0,0-2.452-2.047,2.35,2.35,0,0,0-2.525,2.093A9.58,9.58,0,0,0,151.7,125.916Z" transform="translate(-57.765 -117.433)" fill="#e0013f"/>
      <path id="Path_28931" data-name="Path 28931" d="M146.082,135.39h1.257l.313.631c.3-.165.545-.294.788-.437a3.59,3.59,0,0,1,4.712,1.022,1.554,1.554,0,0,1,.3.772c.024,2.312.014,4.626.014,7.032h-1.387c0-1.974,0-3.892,0-5.81,0-1.621-.5-2.131-2.085-2.155a2.55,2.55,0,0,0-2.511,2.287c-.022,1.853-.005,3.7-.005,5.662h-1.4v-9Z" transform="translate(-64.934 -93.853)" fill="#e0013f"/>
      <path id="Path_28932" data-name="Path 28932" d="M173.915,144.439h-1.3v-9.168l1.807.483a3.963,3.963,0,0,1,3.709-.378,2.117,2.117,0,0,1,1.64,1.9c.113,2.339.038,4.688.038,7.137l-1.3.094v-2.619c0-1.141.014-2.282,0-3.42a2.016,2.016,0,0,0-3.059-1.788,2.431,2.431,0,0,0-1.562,2.522C173.991,140.9,173.915,142.6,173.915,144.439Z" transform="translate(-19.892 -93.853)" fill="#e0013f"/>
      <path id="Path_28933" data-name="Path 28933" d="M154.948,140.245h-1.44l1.74-3.971-3.612-8.027h1.513l2.856,6.4,2.873-6.409h1.486Z" transform="translate(-55.507 -105.511)" fill="#e0013f"/>
      <path id="Path_28934" data-name="Path 28934" d="M163.288,136.25l-.691.936-.03-.294a21.364,21.364,0,0,0-3.188-.324c-.372.014-.89.623-1.044,1.065-.235.682.256,1.146.92,1.316.72.189,1.462.3,2.193.467a2.569,2.569,0,0,1,2.107,2.576,2.529,2.529,0,0,1-1.953,2.476c-1.8.437-3.534.407-5.074-1.289l.847-.833a3.826,3.826,0,0,0,3.447.955c.715-.119,1.351-.423,1.381-1.246.032-.842-.523-1.276-1.3-1.446-.7-.151-1.405-.251-2.091-.44a2.511,2.511,0,0,1,.067-4.893A4.761,4.761,0,0,1,163.288,136.25Z" transform="translate(-47.203 -93.842)" fill="#e0013f"/>
      <path id="Path_28935" data-name="Path 28935" d="M161.317,138.614l-1.645-.2-.057-1.03,1.64-.243V134.1h1.457v3.07l2.314.146.075,1.111-2.36.138c0,1.858-.07,3.7.062,5.524.024.345.82.736,1.33.909.353.121.823-.089,1.365-.17l.281,1.146c-2.171.728-3.194.534-4.057-.825a2.825,2.825,0,0,1-.388-1.389C161.287,142.064,161.317,140.362,161.317,138.614Z" transform="translate(-41.963 -95.556)" fill="#e0013f"/>
      <path id="Path_28936" data-name="Path 28936" d="M157.836,135.221l-3.579,9.007H152.87l-3.585-9h1.424l2.7,6.822.275.04,2.73-6.868Z" transform="translate(-59.497 -93.66)" fill="#e0013f"/>
      <path id="Path_28937" data-name="Path 28937" d="M177.713,138.612l-1.621-.167v-1.052l1.516-.216.183-3.091h1.173v3.1l2.344.162.127,1.1-2.42.159c0,1.84-.051,3.612.024,5.379.03.731.628,1.1,1.362,1.082.458-.008.914-.1,1.462-.167l.324,1.057c-1.915.8-3.242.58-4.073-.688a2.543,2.543,0,0,1-.386-1.279C177.689,142.221,177.713,140.446,177.713,138.612Z" transform="translate(-13.995 -95.586)" fill="#e0013f"/>
      <path id="Path_28938" data-name="Path 28938" d="M148.813,119.813h1.246v13.08h-1.246Z" transform="translate(-60.298 -119.813)" fill="#e0013f"/>
      <path id="Path_28939" data-name="Path 28939" d="M161.944,119.813H163.2v13.069l-1.254.059Z" transform="translate(-38.01 -119.813)" fill="#e0013f"/>
      <path id="Path_28940" data-name="Path 28940" d="M144.354,133.951h1.225v12.443h-1.225Z" transform="translate(-67.867 -95.815)" fill="#e0013f"/>
    </g>
    <rect id="Rectangle_1230" data-name="Rectangle 1230" width="250" height="138" transform="translate(210 2941)" opacity="0"/>
  </g>
</svg>
