<?xml version="1.0" encoding="utf-8"?>
<!-- Generator: Adobe Illustrator 18.0.0, SVG Export Plug-In . SVG Version: 6.00 Build 0)  -->
<!DOCTYPE svg PUBLIC "-//W3C//DTD SVG 1.1//EN" "http://www.w3.org/Graphics/SVG/1.1/DTD/svg11.dtd">
<svg version="1.1" id="Layer_2" xmlns="http://www.w3.org/2000/svg" xmlns:xlink="http://www.w3.org/1999/xlink" x="0px" y="0px"
	 viewBox="0 0 570 493.5" enable-background="new 0 0 570 493.5" xml:space="preserve">
<rect x="0.6" y="0.2" fill="#3C4145" width="573" height="496.9"/>
<g>
	<g>
		<g>
			<path fill="#FFFFFF" d="M418.4,265.2c-1.4,0-3.9,0.1-7,0.1l0.1,2.4l3,0c0.4,0,0.6,0,0.9,0.2c0.6,0.4,1.4,0.8,2,1.2
				c0.2,0.1,0.2,0.4,0.4,0.6c-1.7,0-3.9,0-6.2,0l0,0.5c3.1,0,5.6,0,7.1,0c-0.1-0.5,0.2-1.1-0.8-1.5c-0.5-0.2-0.8-0.5-1.2-0.8
				c-0.3-0.2-0.3-0.3,0-0.5c0.2-0.2,0.4-0.3,0.7-0.5C418.4,266.6,418.7,265.9,418.4,265.2z M411.5,267.8l-0.1-2.4
				c-8.7,0.2-46.5,1.1-50.4,1.1c-2,0-53.2,2.5-53.2,2.5s59.3,1.2,64.4,1.2c1.6,0,35.3,0,39.7,0.1l0-0.5c-0.7,0-1.5,0-2.2,0
				c-7.5,0-99-0.7-99.2-0.7L411.5,267.8z"/>
			<path fill="#FFFFFF" d="M424.4,266.4c2.9,0,5.8-0.1,8.7-0.1c2.6,0,5.1,0.1,7.7,0.1c0.6,0,1,0,1.4-0.2c1.4-0.7,3.9-0.7,5.4,0
				c1.5,0.7,1.5,1.8,0.1,2.5c-1.5,0.7-3.9,0.7-5.4,0.1c-0.5-0.2-0.9-0.2-1.4-0.2c-2.4,0.1-4.8,0.2-7.3,0.3c-3,0.1-6.1,0.1-9.1,0.1
				c-0.2,0-0.4,0-0.7,0c0,0.2,0,0.3-0.1,0.4c-0.5,0-1,0-1.5,0c-0.1-1.2-0.1-2.3-0.2-3.4c0.5,0,1,0,1.5,0c0,0.1,0.1,0.2,0.1,0.4
				C423.9,266.4,424.2,266.4,424.4,266.4z M444.8,268.7c-1.4,0-2.3-0.4-2.8-1.1c0,0.8,1.5,1.3,3.1,1.3c1.5,0,2.9-0.7,2.8-1.4
				C447.4,268.4,446.4,268.8,444.8,268.7z"/>
			<path fill="#FFFFFF" d="M418.7,266.7c0.2-0.1,0.4-0.3,0.4-0.5c0.1-1.3,0.1-2.6,0.2-3.9c0-0.4-0.1-0.6-0.8-0.8
				c-0.5-0.1-0.6-0.5-0.3-0.7c0.3-0.3,0.7-0.4,1.3-0.3c0.6,0,1,0.2,1.1,0.5c0.1,0.1,0.1,0.3,0.1,0.4c0.2,1.2,0.4,2.4,0.6,3.5
				c0.2,1.1,0.4,2.1,0.5,3.2c0,1.1-0.1,2.1-0.2,3.2c-0.1,1.1-0.2,2.2-0.3,3.3c0,0.3-0.5,0.5-1.1,0.6c-0.5,0-1.1-0.1-1.3-0.3
				c-0.3-0.3-0.2-0.5,0.4-0.7c0.5-0.2,0.7-0.4,0.6-0.7c-0.2-1.3-0.4-2.7-0.6-4c0-0.2-0.2-0.3-0.4-0.4c-0.5-0.4-1.1-0.7-1.7-1.1
				C417.7,267.4,418.2,267,418.7,266.7z M418.9,274.6c0.2,0.3,0.5,0.4,1,0.4c0.5,0,0.8-0.1,1-0.4C420.1,275,419.8,275,418.9,274.6z"
				/>
		</g>
	</g>
	<rect x="307.8" y="228.6" fill="#FFFFFF" width="140.9" height="0.5"/>
	<g>
		<g>
			<path fill="#FFFFFF" d="M152.6,267.1c0.3,0.1,0.5,0.3,0.7,0.5c0.3,0.2,0.2,0.3,0,0.5c-0.4,0.3-0.8,0.5-1.2,0.8
				c-0.9,0.4-0.6,1-0.8,1.5c1.5,0,4,0,7.1,0l0-0.5c-2.3,0-4.4,0-6.2,0c0.1-0.2,0.2-0.5,0.4-0.6c0.6-0.4,1.3-0.8,2-1.2
				c0.2-0.1,0.5-0.2,0.9-0.2l3,0l0.1-2.4c-3.2-0.1-5.6-0.1-7-0.1C151.4,265.9,151.7,266.6,152.6,267.1z M259.6,269
				c-0.1,0-91.7,0.8-99.2,0.7c-0.7,0-1.5,0-2.2,0l0,0.5c4.4,0,38.1-0.1,39.7-0.1c5.1,0,64.4-1.2,64.4-1.2s-51.2-2.5-53.2-2.5
				c-3.9-0.1-41.7-0.9-50.4-1.1l-0.1,2.4L259.6,269z"/>
			<path fill="#FFFFFF" d="M146.4,266.4c0-0.2,0.1-0.3,0.1-0.4c0.5,0,1.1,0,1.5,0c-0.1,1.1-0.1,2.3-0.2,3.4c-0.5,0-1,0-1.5,0
				c0-0.1,0-0.2-0.1-0.4c-0.2,0-0.4,0-0.7,0c-3,0-6.1-0.1-9.1-0.1c-2.4-0.1-4.8-0.2-7.3-0.3c-0.5,0-1,0-1.4,0.2
				c-1.5,0.7-3.9,0.6-5.4-0.1c-1.4-0.7-1.4-1.8,0.1-2.5c1.5-0.7,4-0.7,5.4,0c0.4,0.2,0.8,0.3,1.4,0.2c2.6-0.1,5.1-0.1,7.7-0.1
				c2.9,0,5.8,0,8.7,0.1C145.9,266.4,146.2,266.4,146.4,266.4z M122.2,267.6c-0.2,0.6,1.3,1.4,2.8,1.4c1.6,0,3.1-0.6,3.1-1.3
				c-0.5,0.7-1.4,1.1-2.8,1.1C123.7,268.8,122.6,268.4,122.2,267.6z"/>
			<path fill="#FFFFFF" d="M152.9,267.8c-0.6,0.4-1.2,0.7-1.7,1.1c-0.2,0.1-0.4,0.3-0.4,0.4c-0.2,1.3-0.4,2.7-0.6,4
				c0,0.3,0.1,0.5,0.6,0.7c0.6,0.2,0.7,0.5,0.4,0.7c-0.2,0.2-0.8,0.4-1.3,0.3c-0.7,0-1.1-0.3-1.1-0.6c-0.1-1.1-0.2-2.2-0.3-3.3
				c-0.1-1.1-0.3-2.1-0.2-3.2c0-1.1,0.3-2.1,0.5-3.2c0.2-1.2,0.4-2.4,0.6-3.5c0-0.1,0.1-0.3,0.1-0.4c0.1-0.3,0.5-0.4,1.1-0.5
				c0.6,0,1,0.1,1.3,0.3c0.2,0.2,0.1,0.6-0.3,0.7c-0.7,0.2-0.8,0.5-0.8,0.8c0.1,1.3,0.1,2.6,0.2,3.9c0,0.2,0.2,0.3,0.4,0.5
				C151.8,267,152.4,267.4,152.9,267.8z M149.1,274.6c0.2,0.3,0.5,0.4,1,0.4c0.6,0,0.8-0.2,1-0.4C150.3,275,149.9,275,149.1,274.6z"
				/>
		</g>
	</g>
	<rect x="121.4" y="228.6" fill="#FFFFFF" width="140.9" height="0.5"/>
	<g>
		<g>
			<path fill="#FFFFFF" d="M279.7,248.2c-0.1-0.3-0.2-0.6-0.2-0.9c0-0.3,0-0.6,0.1-0.8c0.1-0.2,0.2-0.5,0.4-0.7
				c0.2-0.2,0.4-0.4,0.7-0.6c0.4-0.2,1-0.3,1.6-0.3c0.8,0,1.6,0.2,2.3,0.6c0.9,0.5,1.6,1.3,2,2.2c0.2,0.5,0.3,1.1,0.3,1.7
				c0,1.4-0.5,2.5-1.5,3.4c-1,0.8-2.3,1.3-3.9,1.3c-1.6,0-2.9-0.4-3.9-1.3c-1-0.8-1.5-2-1.5-3.3c0-1,0.3-1.9,0.9-2.7
				c0.6-0.8,1.4-1.3,2.4-1.6l0.1,0.1c-0.4,0.4-0.7,0.9-1,1.6c-0.2,0.7-0.3,1.4-0.3,2.2c0,1.3,0.3,2.4,0.9,3.2
				c0.6,0.8,1.4,1.2,2.4,1.2s1.8-0.4,2.4-1.1c0.6-0.8,0.9-1.7,0.9-3c0-0.7-0.1-1.4-0.3-2c-0.2-0.6-0.6-1.1-1-1.4
				c-0.4-0.3-0.9-0.5-1.4-0.5c-0.6,0-1.1,0.2-1.4,0.5c-0.5,0.4-0.8,1-0.8,1.7c0,0.2,0,0.4,0.1,0.7H279.7z"/>
			<path fill="#FFFFFF" d="M290.4,245.6v3.6h1.6c0.3,0,0.6-0.1,0.8-0.3c0.2-0.2,0.3-0.5,0.3-0.8V248h0.1v2.9h-0.1v-0.1
				c0-0.3-0.1-0.6-0.3-0.8c-0.2-0.2-0.4-0.3-0.8-0.3h-1.7v3.1c0,0.3,0.1,0.5,0.4,0.7c0.1,0.1,0.3,0.1,0.4,0.1h0.1l0,0.1h-3.8v-0.1
				h0.2c0.2,0,0.4-0.1,0.6-0.2c0.2-0.2,0.2-0.3,0.2-0.6v-6.9c0-0.2-0.1-0.4-0.3-0.5c-0.2-0.1-0.3-0.2-0.5-0.2h-0.2v-0.1h4.8
				c0.4,0,0.7,0,1-0.1c0.3-0.1,0.4-0.1,0.5-0.1v2.1h-0.1v-0.1c0-0.4-0.1-0.7-0.3-0.9c-0.2-0.2-0.5-0.3-0.9-0.3H290.4z"/>
		</g>
	</g>
	<g>
		<g>
			<path fill="#FFFFFF" d="M294.4,223c-0.1,0.4-0.4,0.6-0.8,0.6c-0.2,0-0.3,0.1-0.3,0.3c-0.3,1.2-1.1,4.6-1.8,7.6
				c-1.8-0.9-3.5-1.9-5.2-3.3c-0.2-0.2-0.4-0.3-0.6-0.5c-0.1-0.1-0.2-0.2-0.3-0.2l-0.4-0.3c-0.1,0.1-0.3,0.2-0.4,0.3
				c-0.3,0.3-0.6,0.5-0.9,0.7c-2,1.5-4,2.7-6,3.6c-0.7-3-1.5-6.6-1.9-7.8c-0.1-0.3-0.1-0.5-0.5-0.5c-0.3,0-0.6-0.3-0.7-0.6
				c-0.1-0.3,0.1-0.7,0.5-0.8c0.3-0.1,0.7-0.1,0.9,0.2c0.2,0.3,0.3,0.7,0.1,1c-0.1,0.1-0.1,0.1-0.2,0.2c0.8,1,1.7,1.9,3,2.4
				c1.2,0.4,2.2,0,3-0.9c0.6-0.6,1-1.3,1.4-2.1c0.4-0.9,0.8-1.9,1.1-2.9c-0.5-0.3-0.8-0.6-0.6-1.2c0.1-0.3,0.4-0.5,0.8-0.5
				c0.3,0,0.6,0.3,0.7,0.6c0.1,0.4-0.1,0.7-0.6,1.1c0.3,0.8,0.6,1.7,1,2.5c0.4,0.9,0.8,1.7,1.5,2.4c0.8,0.9,1.8,1.4,3,1
				c0.6-0.2,1.1-0.5,1.6-0.9c0.5-0.4,0.9-0.9,1.3-1.3c0.1-0.1,0.2-0.2,0-0.4c-0.2-0.3-0.2-0.7,0-1c0.2-0.3,0.6-0.4,1-0.2
				C294.3,222.3,294.4,222.7,294.4,223z"/>
			<path fill="#FFFFFF" d="M288,225.2c0.3-0.7,0.5-1.5,0.8-2.2c0-0.1,0-0.2,0.1-0.2c0.1-0.2,0-0.3-0.1-0.4c-0.3-0.2-0.4-0.5-0.3-0.9
				c0.1-0.3,0.4-0.6,0.7-0.6c0.4,0,0.7,0.2,0.8,0.5c0.1,0.4,0,0.8-0.4,0.9c-0.2,0.1-0.2,0.2-0.2,0.4c0.3,0.7,0.5,1.5,0.8,2.2
				c0,0.1,0.1,0.2,0.1,0.3C289.7,225.8,288.6,225.7,288,225.2z"/>
			<path fill="#FFFFFF" d="M280.9,225.2c-0.6,0.5-1.6,0.5-2.3,0.1c0.1-0.3,0.3-0.7,0.4-1c0.2-0.5,0.4-1.1,0.5-1.6
				c0.1-0.1,0-0.2-0.1-0.3c-0.4-0.2-0.5-0.5-0.5-0.9c0.1-0.3,0.4-0.6,0.7-0.6c0.4,0,0.7,0.2,0.8,0.5c0.1,0.4,0,0.7-0.4,0.9
				c-0.2,0.1-0.2,0.2-0.1,0.4C280.3,223.6,280.6,224.4,280.9,225.2z"/>
		</g>
		<path fill="#FFFFFF" d="M303,236.1l-0.5-0.1c0,0-2-0.2-4.8-1c-0.2-0.1-0.4-0.1-0.6-0.2c-0.2,0-0.3-0.1-0.5-0.2
			c-3.1-1-7-2.6-10.5-5.4c-0.2-0.2-0.4-0.3-0.6-0.5c-0.1-0.1-0.2-0.2-0.3-0.2l-0.4-0.3c-0.1,0.1-0.3,0.2-0.4,0.3
			c-0.3,0.3-0.6,0.5-0.9,0.7c-4,3-8.3,4.7-11.5,5.7c-0.2,0.1-0.4,0.1-0.6,0.2c-0.2,0.1-0.4,0.1-0.6,0.2c-0.4,0.1-0.8,0.2-1.2,0.3
			c-0.2,0.1-0.5,0.1-0.7,0.1c0,0-0.1,0-0.1,0c-0.1,0-0.2,0-0.3,0.1c0,0,0,0,0,0c-0.8,0.2-1.3,0.2-1.3,0.2l-0.2,0c-0.2,0-0.3,0-0.3,0
			l0,0.6c0.1,8.8,2.1,15.6,4.6,20.7c0,0,0.1,0.2,0.2,0.5c0,0.1,0.1,0.2,0.2,0.3c0.4,0.8,1.1,2.1,2.1,3.6c0.1,0.2,0.2,0.3,0.3,0.5
			c0.1,0.1,0.2,0.2,0.2,0.3l0,0c0.5,0.7,1,1.3,1.4,1.9c0.1,0.1,0.2,0.3,0.3,0.4c0.1,0.1,0.2,0.3,0.3,0.4c0.1,0.1,0.1,0.2,0.2,0.2
			c4.1,4.7,7.8,6.7,8,6.8l0.3,0.1l0.3-0.1c0.2-0.1,3.8-1.9,7.8-6.5c0.4-0.4,0.7-0.9,1.1-1.3c0.2-0.3,0.5-0.6,0.7-0.9
			c0.2-0.2,0.3-0.4,0.4-0.6c0.1-0.1,0.2-0.3,0.3-0.4c0.1-0.1,0.2-0.2,0.2-0.3c0.1-0.2,0.2-0.3,0.3-0.5c0.2-0.4,0.5-0.7,0.7-1.1
			c3.2-5.3,6.2-13.1,6.4-23.9L303,236.1C303.1,236.1,303,236.1,303,236.1z M293.1,263.6c-3.6,4.5-7.2,6.8-8.2,7.4
			c-1-0.6-4.6-2.8-8.2-7.4c-3.8-4.8-8.4-13.3-8.7-26.4c2.2-0.3,10-1.8,16.9-7.3c6.9,5.5,14.8,7,16.9,7.3
			C301.5,250.3,296.9,258.8,293.1,263.6z"/>
		<path fill="#FFFFFF" d="M300.3,238.2c-0.1,0-8.4-1-15.3-6.6l-0.1-0.1l-0.1,0.1c-6.9,5.7-15.2,6.6-15.3,6.6l-0.1,0v0.1
			c0.2,12,4.3,19.7,7.8,24.1c3.8,4.8,7.6,6.7,7.6,6.7l0.1,0l0.1,0c0,0,3.8-2,7.6-6.7c3.5-4.4,7.7-12.1,7.8-24.1v-0.1L300.3,238.2z
			 M292.3,262.2c-3.5,4.4-6.9,6.3-7.5,6.6c-0.5-0.3-4-2.3-7.5-6.6c-3.4-4.3-7.6-12-7.8-23.7c1.1-0.2,8.8-1.3,15.2-6.6
			c6.4,5.2,14.1,6.4,15.2,6.6C299.9,250.3,295.8,257.9,292.3,262.2z"/>
	</g>
	<path fill="#FFFFFF" d="M432.8,246.6c-1.2,1.6-1.8,3.2-1.8,5c0,0.5,0.1,1.1,0.2,1.6c0.6,2.3,2,4,4.2,4.9c1.2,0.5,2.5,0.8,4,0.8
		c1.5,0,2.8-0.2,4-0.7c1.2-0.5,2.2-1.1,3-1.9c0.8-0.8,1.3-1.6,1.7-2.6c0.3-0.9,0.5-1.8,0.5-2.6c0-1.3-0.4-2.5-1.2-3.8
		c-0.7-1-1.6-1.9-2.7-2.7l-5.7-3.8c-0.8-0.5-1.3-0.9-1.7-1.3c-0.3-0.4-0.5-0.9-0.5-1.5c0-0.6,0.2-1.1,0.5-1.6c0.7-1,1.9-1.5,3.5-1.5
		c1.3,0,2.4,0.3,3.2,1c0.8,0.7,1.2,1.5,1.2,2.6h0.3l0.4-4.6h-1.9c-1.7-0.2-3.1-0.3-4.2-0.3c-1.9,0-3.4,0.5-4.6,1.5
		c-1.1,1-1.8,2.3-1.9,3.9c0,0.2,0,0.4,0,0.6c0,2,1,3.7,3,5l5.2,3.6c1,0.6,1.7,1.4,2.2,2.2c0.5,0.8,0.7,1.6,0.7,2.3
		c0,1.9-0.9,3.3-2.6,4.2c-0.9,0.4-1.8,0.6-2.9,0.6c-1.1,0-2.1-0.2-3-0.6c-0.9-0.4-1.7-0.9-2.3-1.7c-1.1-1.2-1.6-2.6-1.6-4.2
		c0-1.4,0.4-2.8,1.2-4.1L432.8,246.6z M412.2,255.4v0.3H428l1.4-6.4h-0.3c-0.5,1.6-1.2,2.8-2.3,3.7c-1,0.9-2.3,1.3-3.8,1.3h-4v-8.8
		h4.1c0.5,0,0.9,0.1,1.3,0.4c0.8,0.5,1.2,1.3,1.2,2.3v0.2h0.3v-7.2h-0.3v0.3c0,0.7-0.2,1.4-0.7,1.9c-0.5,0.5-1.1,0.8-1.9,0.8h-4
		v-9.1h5.2c0.9,0,1.6,0.3,2.2,0.9c0.5,0.6,0.8,1.3,0.8,2.3v0.4h0.3v-5.5c-0.3,0.1-0.8,0.2-1.6,0.4c-0.8,0.1-1.5,0.2-2.1,0.2h-11.7
		v0.3h0.4c0.3,0,0.6,0.1,1,0.3c0.6,0.4,1,0.9,1,1.6v17.4c0,0.5-0.2,1-0.6,1.4c-0.4,0.4-0.8,0.6-1.4,0.6H412.2z M399,235.2
		c1.1,0,1.9,0.4,2.6,1.2c0.7,0.8,1,2,1,3.7c0,0.2,0,0.6-0.1,1c-0.2,1.3-0.7,2.2-1.4,2.7c-0.7,0.6-1.5,0.8-2.4,0.8h-1v0.3
		c0.8,0.1,1.5,0.8,2.1,2.1c0.2,0.5,0.6,1.4,1.1,2.6c0.6,1.2,1,2.1,1.4,2.7c0.7,1.2,1.7,2,2.9,2.5c1.2,0.5,2.6,0.7,4.4,0.7h3v-0.3
		c-0.8,0-1.5-0.2-2-0.5c-1.1-0.7-2.7-2.8-4.9-6.4c-0.9-1.4-1.9-2.4-3.1-2.7c1.1-0.1,2-0.5,2.8-1.1c0.8-0.6,1.3-1.4,1.7-2.2
		c0.3-0.8,0.5-1.7,0.5-2.7c0-1-0.2-1.9-0.6-2.7c-0.4-0.8-1-1.4-1.7-1.8c-1.4-0.9-3-1.3-5-1.3h-10.5v0.3h0.4c0.5,0,1,0.2,1.4,0.6
		c0.4,0.4,0.6,0.8,0.6,1.4v17.3c0,0.4-0.1,0.7-0.3,1c-0.4,0.6-1,1-1.7,1h-0.4v0.3h9.3v-0.3h-0.4c-0.3,0-0.7-0.1-1-0.3
		c-0.6-0.4-1-0.9-1-1.7v-18.2h0.1h1.3C398.5,235.2,398.8,235.2,399,235.2z M377.8,255.4v0.3h9.3l0-0.3h-0.4c-0.5,0-1-0.2-1.4-0.6
		c-0.4-0.4-0.6-0.8-0.6-1.4v-17.3c0-0.5,0.2-1,0.6-1.4c0.4-0.4,0.8-0.6,1.4-0.6h0.4l0-0.3h-9.3v0.3h0.4c0.5,0,1,0.2,1.4,0.6
		c0.4,0.4,0.6,0.8,0.6,1.4v17.3c0,0.5-0.2,1-0.6,1.4c-0.4,0.4-0.8,0.6-1.4,0.6H377.8z M364.5,243.9c0.1,0.8,0.5,1.4,1.1,1.9
		c0.6,0.5,1.3,0.7,2.1,0.9c0.4,0.1,0.8,0.1,1.3,0.1c0.5,0,0.9-0.1,1.5-0.2c2.1-0.5,3.6-1.7,4.4-3.5c0.4-1,0.7-2.1,0.7-3.3
		c0-1.3-0.3-2.4-0.9-3.4c-0.6-0.9-1.3-1.6-2.2-2.1c-0.9-0.5-1.8-0.8-2.7-0.9c-0.9-0.1-1.6-0.2-2.3-0.2c-0.6,0-1.2,0-1.8,0.1
		c-0.6,0.1-1.9,0.3-3.8,0.6c-1.9,0.3-3.7,0.6-5.5,0.7l0.1,0.3c0.2,0,0.4,0,0.6,0c0.6,0,1,0.2,1.3,0.5c0.3,0.3,0.5,0.7,0.5,1.3v16.6
		c0,0.6-0.2,1-0.6,1.4c-0.4,0.4-0.8,0.6-1.4,0.6h-0.4v0.3h9.3v-0.3h-0.4c-0.5,0-1-0.2-1.4-0.6c-0.4-0.4-0.6-0.8-0.6-1.4v-18.3
		l2.1-0.3c0.3,0,0.6-0.1,0.8-0.1c1.2,0,2.1,0.3,2.9,1c1,0.9,1.5,2.3,1.5,4.2c0,1.3-0.3,2.4-0.8,3.2c-0.7,1.2-1.7,1.9-2.9,1.9
		c-1.1,0-1.8-0.4-2.1-1.2L364.5,243.9z M353.4,254.8c-0.4-0.4-0.7-0.8-0.8-1.4l-2.6-20h-0.3l-9.1,15.9l-9.5-15.9h-0.3l-2.5,20
		c-0.1,0.6-0.3,1.1-0.8,1.4c-0.4,0.4-0.9,0.5-1.5,0.5h-0.5v0.3h6.4v-0.3h-0.5c-0.3,0-0.6-0.1-0.9-0.4c-0.2-0.3-0.3-0.6-0.3-0.9
		l1.2-11.2l7.9,13.5h0.3c0-1,0.4-2.2,1.2-3.5l5.8-10.1l1.2,11.3c0,0.3-0.1,0.6-0.3,0.9c-0.2,0.3-0.5,0.4-0.9,0.4h-0.5v0.3h9.2v-0.3
		h-0.5C354.3,255.4,353.8,255.2,353.4,254.8z M307.8,255.4v0.3h15.9l1.4-6.4h-0.3c-0.5,1.6-1.2,2.8-2.3,3.7c-1,0.9-2.3,1.3-3.8,1.3
		h-4v-8.8h4.1c0.5,0,0.9,0.1,1.3,0.4c0.8,0.5,1.2,1.3,1.2,2.3v0.2h0.3v-7.2h-0.3v0.3c0,0.7-0.2,1.4-0.7,1.9
		c-0.5,0.5-1.1,0.8-1.9,0.8h-4v-9.1h5.1c0.9,0,1.6,0.3,2.2,0.9c0.5,0.6,0.8,1.3,0.8,2.3v0.4h0.3v-5.5c-0.3,0.1-0.8,0.2-1.6,0.4
		c-0.8,0.1-1.5,0.2-2.1,0.2h-11.7v0.3h0.4c0.3,0,0.6,0.1,1,0.3c0.6,0.4,1,0.9,1,1.6v17.4c0,0.5-0.2,1-0.6,1.4
		c-0.4,0.4-0.8,0.6-1.4,0.6H307.8z"/>
	<path fill="#1D1D1B" d="M312,253.4c-0.6-5.5-0.6-11,0-16.5C312.6,242.4,312.6,247.9,312,253.4z"/>
	<path fill="#1D1D1B" d="M361.1,253.4c-0.6-5.5-0.6-11,0-16.5C361.7,242.4,361.7,247.9,361.1,253.4z"/>
	<path fill="#1D1D1B" d="M382.5,253.4c-0.6-5.5-0.6-11,0-16.5C383.1,242.4,383.1,247.9,382.5,253.4z"/>
	<path fill="#1D1D1B" d="M394.4,253.4c-0.6-5.5-0.6-11,0-16.5C395,242.4,395,247.9,394.4,253.4z"/>
	<path fill="#1D1D1B" d="M417,253.4c-0.6-5.5-0.6-11,0-16.5C417.6,242.4,417.6,247.9,417,253.4z"/>
	<path fill="#1D1D1B" d="M332.5,240.2c2.5,3,4.4,6.2,5.8,9.8C335.9,247.1,334,243.8,332.5,240.2z"/>
	<path fill="#1D1D1B" d="M348.6,241.8c1.1,3.6,1.6,7.2,1.4,11C348.9,249.2,348.5,245.5,348.6,241.8z"/>
	<path fill="#FFFFFF" d="M262.7,233.7h-7.5v0.3h0.4c0.5,0,0.8,0.2,1.1,0.7c0.1,0.2,0.2,0.4,0.2,0.6c0,0.2-0.1,0.4-0.2,0.6l-4.7,8.2
		l-4.5-8.2c-0.1-0.2-0.2-0.4-0.2-0.6c0-0.2,0.1-0.4,0.2-0.7c0.3-0.4,0.6-0.6,1.1-0.6h0.4v-0.3h-10.4v0.3h0.4c0.6,0,1.2,0.2,1.8,0.5
		c0.6,0.3,1,0.8,1.3,1.3l6,9.9v7.8c0,0.5-0.2,1-0.6,1.4c-0.4,0.4-0.9,0.6-1.4,0.6h-0.4v0.3h9.6l0-0.3h-0.4c-0.5,0-1-0.2-1.4-0.6
		c-0.4-0.4-0.6-0.9-0.6-1.4v-7.7l6.2-9.9c0.3-0.5,0.8-0.9,1.4-1.3c0.6-0.4,1.2-0.5,1.8-0.5h0.4V233.7z M237.3,243.5
		c0,0.1,0,0.3,0,0.4c0,3.4-0.9,6.1-2.7,8c-1.8,2-4.3,3-7.4,3c-2.9-0.1-5.1-1-6.7-2.9c-1.6-1.9-2.4-4.3-2.4-7.4c0-3,0.8-5.4,2.4-7.3
		c1.6-1.8,3.6-2.7,6.2-2.7c2.6,0,4.6,0.8,6.1,2.4c0.8,0.9,1.4,2,1.8,3.4h0.3l-0.1-5.4c-0.9-0.5-2.1-0.9-3.6-1.2
		c-1.4-0.3-2.9-0.5-4.5-0.5c-4.1,0-7.4,1.1-10,3.2c-2.5,2.1-3.8,4.9-3.8,8.3c0,3.4,1.2,6.2,3.7,8.3c2.5,2.1,5.9,3.2,10.2,3.2
		c3.5,0,6.3-1.1,8.3-3.2c1-1.1,1.7-2.3,2.1-3.6c0.4-1.4,0.6-2.5,0.6-3.5c0-1,0-1.8-0.1-2.4H237.3z M199.2,240
		c0.1,0.2,0.2,0.6,0.4,1.1c0.2,0.5,0.3,0.9,0.4,1.2l2.2,5.8h-6.4L199.2,240z M219.6,261.3c-0.5,0.1-1,0.2-1.6,0.2
		c-0.5,0-1.2-0.1-2-0.4c-0.8-0.3-1.5-0.7-2.3-1.4c-1.8-1.6-3.6-4.5-5.3-8.8l-4.6-11.3c-1-2.5-2.2-4.4-3.6-5.7c-1.4-1.3-2.9-2-4.6-2
		c-1.4,0-2.8,0.4-4.4,1.2l0.1,0.3c0.6-0.2,1.3-0.3,2-0.3c0.7,0,1.4,0.3,2.2,0.9c0.9,0.7,1.8,2,2.6,3.8l-7,16.1
		c-0.3,0.6-0.7,1-1.2,1.3c-0.5,0.3-1,0.4-1.4,0.4h-0.3v0.3h6.8v-0.3h-0.3c-0.3,0-0.6-0.1-0.8-0.2c-0.2-0.2-0.4-0.3-0.5-0.5
		c-0.1-0.2-0.1-0.4-0.1-0.6c0-0.2,0.1-0.4,0.2-0.7l1.7-4h7.4l1,2.7c0.7,1.8,1.5,3.4,2.5,4.8c1.8,2.6,4,4.3,6.5,5.1
		c2.4,0.8,4.7,0.6,7-0.6L219.6,261.3z M187.6,245.2h-8.9v0.3h0.5c0.5,0,0.9,0.1,1.2,0.4c0.3,0.2,0.4,0.6,0.4,1.1v4.8
		c-0.3,0.7-0.7,1.2-1.2,1.7c-1.1,0.9-2.5,1.4-4.2,1.4c-2.3,0-4.1-0.9-5.3-2.7c-1.3-1.8-1.9-4.3-1.9-7.4c0-3.2,0.7-5.7,2.1-7.5
		c1.4-1.8,3.3-2.7,5.9-2.7c1.8,0,3.4,0.5,4.7,1.4c1.3,0.9,2.3,2.4,2.8,4.4h0.3L184,235c-1-0.5-2.2-0.9-3.8-1.2
		c-1.6-0.3-3.2-0.5-4.9-0.5c-3.7,0-6.7,1-8.8,3.1c-2.2,2.1-3.3,4.9-3.3,8.4c0,3.5,1.1,6.3,3.3,8.4c2.2,2.1,5.1,3.1,8.7,3.1
		c2.4,0,4.5-0.4,6.4-1.2c1.9-0.8,3.2-1.8,4.1-2.8V247c0-0.5,0.1-0.8,0.4-1.1c0.3-0.2,0.7-0.4,1.2-0.4h0.5V245.2z M142,255.5v0.3
		h16.3l1.5-6.4h-0.3c-0.5,1.6-1.3,2.9-2.3,3.8c-1,0.9-2.3,1.3-3.9,1.3h-4.1v-8.9h4.2c0.5,0,1,0.1,1.4,0.4c0.8,0.5,1.3,1.3,1.3,2.3
		v0.3h0.3v-7.3H156v0.3c0,0.8-0.3,1.4-0.8,1.9c-0.5,0.5-1.1,0.8-1.9,0.8h-4.2v-9.2h5.3c0.9,0,1.7,0.4,2.3,0.9
		c0.6,0.6,0.8,1.3,0.8,2.3v0.4h0.3v-5.5c-0.3,0.1-0.9,0.3-1.6,0.4c-0.8,0.1-1.5,0.2-2.1,0.2H142v0.3h0.4c0.3,0,0.7,0.1,1,0.3
		c0.6,0.4,1,0.9,1,1.6v17.6c0,0.5-0.2,1-0.6,1.4c-0.4,0.4-0.9,0.6-1.4,0.6H142z M121.3,255.5v0.3h16.3l1.5-6.4h-0.3
		c-0.5,1.6-1.3,2.9-2.3,3.8c-1,0.9-2.3,1.3-3.9,1.3h-4.1V236c0-0.5,0.2-1,0.6-1.4c0.4-0.4,0.9-0.6,1.4-0.6h0.4l0-0.3h-9.6v0.3h0.4
		c0.5,0,1,0.2,1.4,0.6c0.4,0.4,0.6,0.9,0.6,1.4v17.5c0,0.5-0.2,1-0.6,1.4c-0.4,0.4-0.9,0.6-1.4,0.6H121.3z"/>
	<path fill="#1D1D1B" d="M146.9,253.5c-0.6-5.6-0.6-11.1,0-16.7C147.5,242.4,147.5,248,146.9,253.5z"/>
	<path fill="#1D1D1B" d="M169.1,236c-3.1,4.2-3.9,9.8-1.2,14.4c0.3,0.7,0.8,1.3,1.2,1.9c-0.5-0.5-1.1-1.1-1.5-1.7
		C164.1,246.3,164.9,239.5,169.1,236z"/>
	<path fill="#1D1D1B" d="M197.8,235c4.7,2.4,5.5,8.2,7.3,12.7c0.8,2.3,1.7,4.6,2.6,7c0.4,1.2,0.9,2.3,1.7,3.2
		c0.8,0.9,1.8,1.6,2.8,2.4c-1.1-0.5-2.2-1.2-3.1-2c-0.9-0.9-1.6-2.1-2-3.2c-1.5-3.4-2.9-6.9-4-10.4C202.1,241,201,237.2,197.8,235z"
		/>
	<path fill="#1D1D1B" d="M219.4,237c-4.5,4.1-4.4,9.5-1.3,14.4c0.4,0.7,0.9,1.3,1.3,2c-0.6-0.5-1.1-1.1-1.6-1.7
		C213.8,247.1,213.9,240.3,219.4,237z"/>
	<path fill="#1D1D1B" d="M245.6,237c2,2.8,3.8,5.8,5.4,8.9c0,2.9-0.1,5.8-0.5,8.7c-0.3-2.8-0.4-5.7-0.4-8.5
		C248.8,244.1,246.8,239.8,245.6,237z"/>
</g>
</svg>
