<svg xmlns="http://www.w3.org/2000/svg" width="250" height="138" viewBox="0 0 250 138">
  <g id="Group_9933" data-name="Group 9933" transform="translate(-1400 -3508)">
    <g id="Group_9929" data-name="Group 9929" transform="translate(189 981)">
      <rect id="Rectangle_1236" data-name="Rectangle 1236" width="250" height="138" transform="translate(1211 2527)" opacity="0"/>
    </g>
    <g id="Group_9932" data-name="Group 9932" transform="translate(1466.407 3545.32)">
      <g id="Group_9930" data-name="Group 9930">
        <path id="Path_29672" data-name="Path 29672" d="M318.089,387.7h6.238c1.362,0,2.73-.056,4.087.034a1.839,1.839,0,0,1,1.248.693q6.031,9.022,11.979,18.1c1.785,2.711,3.556,5.433,5.338,8.145.181.274.409.513.616.767l.268-.064v-27.56h11.278v45.671c-.422.04-.781.1-1.142.1-3.035.008-6.071-.019-9.106.019a1.782,1.782,0,0,1-1.689-.887q-3.143-4.86-6.32-9.7c-1.514-2.3-3.072-4.56-4.594-6.849-2.069-3.112-4.116-6.235-6.177-9.35-.162-.244-.356-.47-.534-.706l-.244.056v27.3H318.089Z" transform="translate(-318.089 -387.683)" fill="#c9f502"/>
        <path id="Path_29673" data-name="Path 29673" d="M361.754,414.942H347.918V433.4h-11.4V387.725h30.027v8.955H348.006v9.488h13.748Z" transform="translate(-287.583 -387.612)" fill="#c9f502"/>
        <path id="Path_29674" data-name="Path 29674" d="M384.509,387.73v8.952H372.384v36.737H361.071V396.767H349.036V387.73Z" transform="translate(-266.853 -387.604)" fill="#c9f502"/>
      </g>
      <g id="Group_9931" data-name="Group 9931" transform="translate(0 54.974)">
        <path id="Path_29675" data-name="Path 29675" d="M321.536,409.678h-3.447v-1.251h8.32v1.251h-3.45v8.811h-1.423Z" transform="translate(-318.089 -408.313)" fill="#fff"/>
        <path id="Path_29676" data-name="Path 29676" d="M329.111,417.238v1.251h-7.3V408.427h7.1v1.251h-5.662v3.088h5.046v1.224h-5.046v3.248Z" transform="translate(-311.927 -408.313)" fill="#fff"/>
        <path id="Path_29677" data-name="Path 29677" d="M325.11,413.528a5.088,5.088,0,0,1,5.333-5.144,4.975,4.975,0,0,1,3.824,1.567l-.935.906a3.73,3.73,0,0,0-2.831-1.195,3.868,3.868,0,1,0,0,7.733,3.733,3.733,0,0,0,2.831-1.208l.935.908a5.005,5.005,0,0,1-3.84,1.58A5.085,5.085,0,0,1,325.11,413.528Z" transform="translate(-306.465 -408.384)" fill="#fff"/>
        <path id="Path_29678" data-name="Path 29678" d="M337.984,408.427v10.062h-1.439V414h-5.776v4.485h-1.439V408.427h1.439v4.329h5.776v-4.329Z" transform="translate(-299.48 -408.313)" fill="#fff"/>
        <path id="Path_29679" data-name="Path 29679" d="M342.374,408.427v10.062h-1.179l-6.036-7.5v7.5h-1.437V408.427H334.9l6.036,7.5v-7.5Z" transform="translate(-292.207 -408.313)" fill="#fff"/>
        <path id="Path_29680" data-name="Path 29680" d="M337.806,413.528a5.351,5.351,0,1,1,5.362,5.146A5.113,5.113,0,0,1,337.806,413.528Zm9.257,0a3.911,3.911,0,1,0-3.9,3.867A3.779,3.779,0,0,0,347.063,413.528Z" transform="translate(-285.446 -408.384)" fill="#fff"/>
        <path id="Path_29681" data-name="Path 29681" d="M342.659,408.427H344.1v8.811h5.447v1.251h-6.883Z" transform="translate(-277.411 -408.313)" fill="#fff"/>
        <path id="Path_29682" data-name="Path 29682" d="M345.493,413.528a5.351,5.351,0,1,1,5.362,5.146A5.113,5.113,0,0,1,345.493,413.528Zm9.257,0a3.911,3.911,0,1,0-3.9,3.867A3.779,3.779,0,0,0,354.75,413.528Z" transform="translate(-272.719 -408.384)" fill="#fff"/>
        <path id="Path_29683" data-name="Path 29683" d="M357.829,413.472h1.378v3.922a5.938,5.938,0,0,1-3.808,1.28,5.149,5.149,0,1,1,3.9-8.74l-.892.89a4,4,0,0,0-2.918-1.163,3.869,3.869,0,1,0-.013,7.733,4.269,4.269,0,0,0,2.358-.645Z" transform="translate(-265.196 -408.384)" fill="#fff"/>
        <path id="Path_29684" data-name="Path 29684" d="M354.521,408.427h1.439v10.062h-1.439Z" transform="translate(-257.773 -408.313)" fill="#fff"/>
        <path id="Path_29685" data-name="Path 29685" d="M363.5,417.238v1.251h-7.3V408.427h7.1v1.251h-5.662v3.088h5.043v1.224h-5.043v3.248Z" transform="translate(-254.996 -408.313)" fill="#fff"/>
        <path id="Path_29686" data-name="Path 29686" d="M359.476,417.41l.534-1.123a5.167,5.167,0,0,0,3.32,1.166c1.739,0,2.486-.677,2.486-1.551,0-2.459-6.095-.906-6.095-4.645,0-1.551,1.208-2.873,3.853-2.873a5.931,5.931,0,0,1,3.234.89l-.475,1.15a5.19,5.19,0,0,0-2.759-.818c-1.71,0-2.443.717-2.443,1.6,0,2.456,6.095.919,6.095,4.613,0,1.537-1.237,2.86-3.9,2.86A5.988,5.988,0,0,1,359.476,417.41Z" transform="translate(-249.569 -408.384)" fill="#fff"/>
      </g>
    </g>
  </g>
</svg>
