<svg xmlns="http://www.w3.org/2000/svg" width="250" height="138" viewBox="0 0 250 138">
  <g id="Group_9778" data-name="Group 9778" transform="translate(-961 -2665)">
    <g id="Group_9694" data-name="Group 9694" transform="translate(1014 2699)">
      <g id="Group_9692" data-name="Group 9692" transform="translate(3.76)">
        <path id="Path_28883" data-name="Path 28883" d="M185.036,105.945a2.6,2.6,0,0,1-.175-2.072.827.827,0,0,1,.655-.316q.437-.024.874-.024h17.274q.437,0,.874.024a.778.778,0,0,1,.642.364,3.689,3.689,0,0,1-.051,1.859,2.872,2.872,0,0,1-1.351.413,10.491,10.491,0,0,0-1.794.418,2.525,2.525,0,0,0-1.769,2.109,15.4,15.4,0,0,0-.189,2.411c.005,3.072-.016,6.142.035,9.212.024,1.516.181,3.029.283,4.545a1.774,1.774,0,0,1-.051.912,2.1,2.1,0,0,1-1.192.477c-3.056.7-6.1,1.449-9.212,1.91a46.981,46.981,0,0,1-7.822.653,36.238,36.238,0,0,1-11.345-1.872,25.5,25.5,0,0,1-11.232-7.518,24.8,24.8,0,0,1-5.031-9.635,30.865,30.865,0,0,1-1-9.7,24.806,24.806,0,0,1,4.615-13.67,26.059,26.059,0,0,1,9.624-8.106,32.2,32.2,0,0,1,10.442-3.164,36.021,36.021,0,0,1,6.773-.329c1.807.105,3.612.248,5.414.442,2.738.3,5.435.812,8.13,1.359a1.869,1.869,0,0,1,.9.286,1.177,1.177,0,0,1,.262.823c.21,2.544.413,5.087.637,7.631.086.963.227,1.923.329,2.889a2.545,2.545,0,0,1,0,1.3,3.291,3.291,0,0,1-2.134.429,2.171,2.171,0,0,1-.588-1.152,26.705,26.705,0,0,0-1.038-2.819,13.386,13.386,0,0,0-2.813-4.262,11.336,11.336,0,0,0-3.107-2.126,18.109,18.109,0,0,0-5.98-1.554,28.331,28.331,0,0,0-3.482-.216,22.374,22.374,0,0,0-7.232,1.265,17.07,17.07,0,0,0-8.918,7.28,23.009,23.009,0,0,0-2.975,8.046A35.782,35.782,0,0,0,162,104.707a28.65,28.65,0,0,0,2.363,8.864,20.831,20.831,0,0,0,6.282,8.127,19.372,19.372,0,0,0,8.842,3.733,23.246,23.246,0,0,0,4.637.345,18.189,18.189,0,0,0,4.869-.8,7.751,7.751,0,0,0,2.166-1.065A4.015,4.015,0,0,0,192.883,121a19.633,19.633,0,0,0,.154-2.32c-.008-1.68-.019-3.361,0-5.041a35.583,35.583,0,0,0-.181-3.677,5.425,5.425,0,0,0-.186-.949,3.1,3.1,0,0,0-2.142-2.19,14.48,14.48,0,0,0-3.231-.626C186.56,106.125,185.824,106.034,185.036,105.945Z" transform="translate(-67.859 -73.443)" fill="#fff"/>
        <path id="Path_28884" data-name="Path 28884" d="M143.633,77.428a2.376,2.376,0,0,1,.067-2.037,1.865,1.865,0,0,1,1.012-.162q9.46,0,18.919,0a2.787,2.787,0,0,1,1.009.111,2.236,2.236,0,0,1,.119,2.039,3.011,3.011,0,0,1-1.26.351c-.766.121-1.538.224-2.3.375a8.849,8.849,0,0,0-1.3.391,2.859,2.859,0,0,0-1.772,1.926,7.492,7.492,0,0,0-.367,2c-.024.645-.049,1.292-.049,1.937q0,16.767,0,33.537a16.514,16.514,0,0,0,.154,2.8,9.846,9.846,0,0,0,.245,1.039,2.932,2.932,0,0,0,1.85,1.977,9.618,9.618,0,0,0,2.352.561c.577.07,1.155.148,1.732.224a1.127,1.127,0,0,1,.691.275,2.532,2.532,0,0,1,.07,1.829.791.791,0,0,1-.645.326c-.291.016-.583.022-.874.022q-9.12,0-18.24,0a2.062,2.062,0,0,1-1.424-.256,2.724,2.724,0,0,1-.051-1.807.934.934,0,0,1,.718-.378c.545-.073,1.09-.156,1.635-.216a12.143,12.143,0,0,0,2.082-.453,3.126,3.126,0,0,0,2.339-2.579,19.083,19.083,0,0,0,.256-1.921c.043-.513.032-1.033.032-1.548q0-16.674,0-33.345a15.929,15.929,0,0,0-.221-3.183c-.04-.192-.073-.38-.119-.569a3.056,3.056,0,0,0-1.956-2.242,13.929,13.929,0,0,0-3.215-.693A5.622,5.622,0,0,1,143.633,77.428Z" transform="translate(-84.809 -72.726)" fill="#fff"/>
        <path id="Path_28885" data-name="Path 28885" d="M164.2,78.084a23.814,23.814,0,0,1,4.831,8.432,28.212,28.212,0,0,1,1.37,11.556,33.871,33.871,0,0,1-1.262,6.943,25.384,25.384,0,0,1-7.41,11.839,24.783,24.783,0,0,1-10.442,5.516,31.4,31.4,0,0,1-5.743.871,26.292,26.292,0,0,1-6.94-.542,25.5,25.5,0,0,1-10.617-4.747,23.019,23.019,0,0,1-3.736-3.509,5.321,5.321,0,0,1,.286-.5q1.914-2.658,3.838-5.311a1.379,1.379,0,0,1,.461-.48l.437.863a21.749,21.749,0,0,0,5.422,7.113,16.426,16.426,0,0,0,8.062,3.766,18.839,18.839,0,0,0,4.642.113,14.316,14.316,0,0,0,7.733-3.04,16.674,16.674,0,0,0,5.1-7.067,27.812,27.812,0,0,0,1.926-8.761,44.994,44.994,0,0,0-.138-8.219,32.394,32.394,0,0,0-1.683-7.345,3.226,3.226,0,0,0-.461-.955,1.974,1.974,0,0,1,.423-.85q1.675-2.513,3.358-5.023A1.98,1.98,0,0,1,164.2,78.084Z" transform="translate(-117.38 -67.876)" fill="#fff"/>
        <path id="Path_28886" data-name="Path 28886" d="M126.917,118.2a21.932,21.932,0,0,1-2.954-5.214,27.512,27.512,0,0,1-2.1-11.259A28.779,28.779,0,0,1,125.4,88.269a25.391,25.391,0,0,1,10.628-10.46,27.806,27.806,0,0,1,21.293-1.543,25.471,25.471,0,0,1,8.958,5.292l.434.388a1.769,1.769,0,0,1-.351.682q-1.529,2.3-3.067,4.591c-.127.186-.286.348-.429.523a20.4,20.4,0,0,0-2.935-4.2A17.059,17.059,0,0,0,144.7,78.081a15.056,15.056,0,0,0-8.1,4.076,19.378,19.378,0,0,0-4.769,7.666,32.268,32.268,0,0,0-1.613,10.873c0,.548.089,1.1.108,1.643a30.751,30.751,0,0,0,1.64,8.826,2.24,2.24,0,0,1-.475.831q-2.035,2.816-4.073,5.627C127.265,117.826,127.084,118.01,126.917,118.2Z" transform="translate(-121.439 -73.427)" fill="#fff"/>
        <path id="Path_28887" data-name="Path 28887" d="M163.135,88.616c.143-.175.3-.337.429-.523q1.538-2.29,3.067-4.591a1.769,1.769,0,0,0,.351-.682q1.5-2.2,2.994-4.4c.307-.453.618-.906.909-1.37.113-.181.286-.361.159-.655a2.272,2.272,0,0,0-1.2.154c-.44.1-.882.189-1.322.294a3.912,3.912,0,0,1-1.257.21,1.845,1.845,0,0,1-.272-1.02,1.016,1.016,0,0,1,.666-.337q3.018-.7,6.034-1.392c.084-.019.183.043.254.062a.985.985,0,0,1,.321.707q.477,2.962.944,5.926a2.028,2.028,0,0,1-.016.34,1.265,1.265,0,0,1-1.2.2l-.68-3.76c-.407-.051-.488.245-.62.44q-1.408,2.088-2.8,4.186c-.464.7-.92,1.4-1.378,2.1a1.98,1.98,0,0,0-.542.664q-1.683,2.509-3.358,5.023a1.975,1.975,0,0,0-.423.85c-.181.227-.375.445-.537.682-.723,1.071-1.435,2.15-2.152,3.226q-3.443,5.159-6.892,10.312a2.241,2.241,0,0,1-.728.855c-1.3-.318-2.6-.8-3.919-1.214s-2.652-.839-3.976-1.26-2.627-.869-3.944-1.238a5.546,5.546,0,0,0-1.025,1.235q-2.448,3.37-4.888,6.749c-1,1.389-1.985,2.789-2.978,4.184a1.379,1.379,0,0,0-.461.48q-1.922,2.654-3.838,5.311a5.318,5.318,0,0,0-.286.5c-1.721,2.339-3.391,4.715-5.157,7.075a4.806,4.806,0,0,1-1.713-1.206c1.791-2.606,3.693-5.09,5.478-7.658.167-.194.348-.378.5-.583q2.039-2.812,4.073-5.627a2.24,2.24,0,0,0,.475-.831c.224-.275.459-.542.666-.828q3.807-5.256,7.612-10.514a2.387,2.387,0,0,1,.75-.809c1.306.421,2.625.844,3.946,1.265q1.938.619,3.879,1.227c1.319.415,2.619.89,3.914,1.208a2.53,2.53,0,0,0,.736-.866q2.7-4.022,5.392-8.049Q161.139,91.649,163.135,88.616Z" transform="translate(-121.703 -74.3)" fill="#90090c"/>
      </g>
      <g id="Group_9693" data-name="Group 9693" transform="translate(0 63.923)">
        <path id="Path_28888" data-name="Path 28888" d="M123.675,104.851a3.425,3.425,0,1,1,3.366-3.426A3.308,3.308,0,0,1,123.675,104.851Zm0-.761a2.672,2.672,0,1,0-2.473-2.665A2.45,2.45,0,0,0,123.675,104.09Z" transform="translate(-120.309 -97.991)" fill="#ccc"/>
        <path id="Path_28889" data-name="Path 28889" d="M125.541,98.03c1.578,0,2.328.877,2.328,1.972a1.89,1.89,0,0,1-1.6,1.926l1.683,2.808h-1.047l-1.6-2.743h-1.06v2.743h-.874V98.03Zm0,.723h-1.289v2.538h1.289c.993,0,1.424-.539,1.424-1.289S126.542,98.753,125.541,98.753Z" transform="translate(-115.1 -97.944)" fill="#ccc"/>
        <path id="Path_28890" data-name="Path 28890" d="M129.92,103.219H127l-.539,1.492h-.923l2.422-6.665h1.012l2.414,6.665h-.923Zm-1.462-4.1-1.214,3.385h2.425Z" transform="translate(-111.44 -97.918)" fill="#ccc"/>
        <path id="Path_28891" data-name="Path 28891" d="M131.464,98a3.155,3.155,0,0,1,3.107,2.028h-1.047a2.115,2.115,0,0,0-2.061-1.26,2.67,2.67,0,0,0,0,5.322,2.12,2.12,0,0,0,2.061-1.252h1.047a3.15,3.15,0,0,1-3.107,2.01,3.425,3.425,0,0,1,0-6.849Z" transform="translate(-107.056 -97.998)" fill="#ccc"/>
        <path id="Path_28892" data-name="Path 28892" d="M132.013,98.03v5.994h2.347v.712h-3.223V98.03Z" transform="translate(-101.931 -97.944)" fill="#ccc"/>
        <path id="Path_28893" data-name="Path 28893" d="M136.427,98.749h-2.732v2.242h2.444v.72h-2.444v2.309h2.732v.723h-3.606V98.026h3.606Z" transform="translate(-99.071 -97.95)" fill="#ccc"/>
        <path id="Path_28894" data-name="Path 28894" d="M137.04,104.857c-1.346,0-2.3-.75-2.317-1.859h.931a1.244,1.244,0,0,0,1.387,1.117c.847,0,1.346-.48,1.346-1.117,0-1.807-3.625-.653-3.625-3.145,0-1.106.893-1.856,2.223-1.856a2.007,2.007,0,0,1,2.223,1.724h-.963a1.217,1.217,0,0,0-1.3-.974c-.72-.019-1.289.356-1.289,1.076,0,1.734,3.617.655,3.617,3.137A2.008,2.008,0,0,1,137.04,104.857Z" transform="translate(-95.843 -97.998)" fill="#ccc"/>
        <path id="Path_28895" data-name="Path 28895" d="M138.127,98.03H139v6.706h-.877Z" transform="translate(-90.065 -97.944)" fill="#ccc"/>
        <path id="Path_28896" data-name="Path 28896" d="M144.419,98.026v6.716h-.877l-3.52-5.338v5.338h-.874V98.026h.874l3.52,5.33v-5.33Z" transform="translate(-88.332 -97.95)" fill="#ccc"/>
        <path id="Path_28897" data-name="Path 28897" d="M146.75,98.03h.922l-2.527,6.706h-1.011L141.6,98.03h.933l2.107,5.78Z" transform="translate(-84.165 -97.944)" fill="#ccc"/>
        <path id="Path_28898" data-name="Path 28898" d="M147.963,98.749h-2.732v2.242h2.444v.72h-2.444v2.309h2.732v.723h-3.609V98.026h3.609Z" transform="translate(-79.495 -97.95)" fill="#ccc"/>
        <path id="Path_28899" data-name="Path 28899" d="M148.574,104.857c-1.346,0-2.3-.75-2.317-1.859h.931a1.244,1.244,0,0,0,1.386,1.117c.847,0,1.346-.48,1.346-1.117,0-1.807-3.625-.653-3.625-3.145,0-1.106.893-1.856,2.223-1.856a2.007,2.007,0,0,1,2.223,1.724h-.963a1.217,1.217,0,0,0-1.3-.974c-.72-.019-1.289.356-1.289,1.076,0,1.734,3.617.655,3.617,3.137A2.008,2.008,0,0,1,148.574,104.857Z" transform="translate(-76.265 -97.998)" fill="#ccc"/>
        <path id="Path_28900" data-name="Path 28900" d="M148.412,98.03h4.542v.712h-1.829v5.994h-.874V98.742h-1.84Z" transform="translate(-72.607 -97.944)" fill="#ccc"/>
        <path id="Path_28901" data-name="Path 28901" d="M150.639,98.048h.944l2.463,5.5,2.463-5.5h.931v6.657h-.874V99.739l-2.212,4.966h-.618l-2.22-4.974v4.974h-.877Z" transform="translate(-68.827 -97.913)" fill="#ccc"/>
        <path id="Path_28902" data-name="Path 28902" d="M157.463,98.749h-2.732v2.242h2.444v.72h-2.444v2.309h2.732v.723h-3.609V98.026h3.609Z" transform="translate(-63.37 -97.95)" fill="#ccc"/>
        <path id="Path_28903" data-name="Path 28903" d="M161.1,98.026v6.716h-.877L156.7,99.4v5.338h-.874V98.026h.874l3.52,5.33v-5.33Z" transform="translate(-60.02 -97.95)" fill="#ccc"/>
        <path id="Path_28904" data-name="Path 28904" d="M158.326,98.03h4.54v.712H161.04v5.994h-.877V98.742h-1.837Z" transform="translate(-55.78 -97.944)" fill="#ccc"/>
        <path id="Path_28905" data-name="Path 28905" d="M167.982,100.02h-1.049a2.139,2.139,0,0,0-2.039-1.23,2.637,2.637,0,0,0,0,5.263,2.261,2.261,0,0,0,2.358-2.174h-2.676v-.712h3.609v.672a3.251,3.251,0,0,1-3.291,3,3.419,3.419,0,0,1,0-6.838A3.169,3.169,0,0,1,167.982,100.02Z" transform="translate(-50.346 -97.991)" fill="#ccc"/>
        <path id="Path_28906" data-name="Path 28906" d="M166.731,98.03c1.578,0,2.328.877,2.328,1.972a1.893,1.893,0,0,1-1.6,1.926l1.683,2.808H168.1l-1.6-2.743h-1.057v2.743h-.874V98.03Zm0,.723h-1.289v2.538h1.289c.99,0,1.424-.539,1.424-1.289S167.732,98.753,166.731,98.753Z" transform="translate(-45.185 -97.944)" fill="#ccc"/>
        <path id="Path_28907" data-name="Path 28907" d="M170.125,104.851a3.425,3.425,0,1,1,3.366-3.426A3.308,3.308,0,0,1,170.125,104.851Zm0-.761a2.672,2.672,0,1,0-2.474-2.665A2.45,2.45,0,0,0,170.125,104.09Z" transform="translate(-41.466 -97.991)" fill="#ccc"/>
        <path id="Path_28908" data-name="Path 28908" d="M169.821,98.03h.874v4.243a1.535,1.535,0,0,0,1.656,1.761c.99,0,1.645-.531,1.645-1.761V98.03h.874v4.232a2.525,2.525,0,1,1-5.049,0Z" transform="translate(-36.268 -97.944)" fill="#ccc"/>
        <path id="Path_28909" data-name="Path 28909" d="M174.545,101.936h-1.289v2.8h-.877V98.03h2.166c1.578,0,2.317.866,2.317,1.964C176.862,101.013,176.209,101.936,174.545,101.936Zm0-.72c1,0,1.424-.472,1.424-1.222,0-.78-.424-1.241-1.424-1.241h-1.289v2.463Z" transform="translate(-31.926 -97.944)" fill="#ccc"/>
      </g>
    </g>
    <rect id="Rectangle_1219" data-name="Rectangle 1219" width="250" height="138" transform="translate(961 2665)" opacity="0"/>
  </g>
</svg>
