<svg xmlns="http://www.w3.org/2000/svg" width="250" height="138" viewBox="0 0 250 138">
  <g id="Group_9873" data-name="Group 9873" transform="translate(-204 -2499)">
    <rect id="Rectangle_1274" data-name="Rectangle 1274" width="250" height="138" transform="translate(204 2499)" opacity="0"/>
    <g id="Group_9874" data-name="Group 9874" transform="translate(-1.153 2151.275)">
      <path id="Path_29655" data-name="Path 29655" d="M255,422.27c0,1.611.034,2.925-.009,4.239a3.384,3.384,0,0,0,1.8,3.276c1.967,1.14,3.928,2.295,5.921,3.4a3.028,3.028,0,0,0,3.127,0c2.124-1.234,4.253-2.466,6.357-3.735a3.038,3.038,0,0,0,1.445-2.777c0-2.278.014-4.553-.009-6.831a3.328,3.328,0,0,0-1.825-2.994c-1.816-1.041-3.646-2.061-5.445-3.13a3.825,3.825,0,0,0-4.234.04c-6.32,3.709-12.695,7.321-18.992,11.067a4.773,4.773,0,0,1-5.562.023c-3.276-2.05-6.682-3.9-10.058-5.784a3.525,3.525,0,0,1-1.93-3.344c0-4.145.048-8.29-.028-12.433-.04-2.238,1.465-3.19,3.059-4.111,3.07-1.77,6.189-3.461,9.245-5.257a4.291,4.291,0,0,1,4.852-.046c3.455,2.112,6.985,4.105,10.48,6.149a2.952,2.952,0,0,1,1.614,2.529c.051,1.454.031,2.911.051,4.367.006.285,0,.573-.268.727-1.594.932-3.193,1.847-5.015,2.894,0-1.6-.011-2.9,0-4.208a3.525,3.525,0,0,0-1.947-3.344c-1.787-1-3.569-2.01-5.325-3.062a3.642,3.642,0,0,0-3.994-.068q-2.767,1.621-5.565,3.184a3.4,3.4,0,0,0-1.847,3.25c.029,2.141.026,4.282.009,6.42a3.374,3.374,0,0,0,1.8,3.144c1.964,1.146,3.923,2.3,5.9,3.432a3.428,3.428,0,0,0,3.635-.074c6.483-3.78,12.994-7.523,19.437-11.372a4.486,4.486,0,0,1,5.189-.046c3.375,2.067,6.839,3.988,10.289,5.933a3.58,3.58,0,0,1,1.961,3.458c-.046,4.142-.034,8.287,0,12.43a3.53,3.53,0,0,1-1.919,3.355q-5.456,3.1-10.9,6.226a3.491,3.491,0,0,1-3.743.028q-5.623-3.233-11.244-6.463a2.831,2.831,0,0,1-1.548-2.284c-.108-1.539-.074-3.087-.1-4.636a.815.815,0,0,1,.5-.741C251.68,424.214,253.2,423.319,255,422.27Z" transform="translate(0 0)" fill="#834ae1"/>
      <path id="Path_29656" data-name="Path 29656" d="M290.9,414.717c-4.889,3.452-9.519,3.375-12.951-.217a9.97,9.97,0,0,1-.827-12.778c3.1-4.074,8.618-5.2,13.875-1.842.316-.964,1.012-1.183,1.973-1.112,1.266.091,2.54.023,3.792.023a1.742,1.742,0,0,1,.171.467c.006,5.83.105,11.663-.026,17.49-.094,4.185-2.737,7.29-7.022,8.524a12.73,12.73,0,0,1-12.832-2.976l3.2-3.812c.636.057.929.516,1.326.8a7.446,7.446,0,0,0,4.73,1.46C289.96,420.587,291.662,418.377,290.9,414.717Zm.182-7.059c0-3.424-1.565-5.049-4.869-5.06a4.794,4.794,0,0,0-5.035,4.909,5.029,5.029,0,0,0,4.906,5.132C289.356,412.6,291.089,410.874,291.086,407.658Z" transform="translate(91.869 8.822)" fill="#834ae1"/>
      <path id="Path_29657" data-name="Path 29657" d="M248.327,398.417c1.508,0,2.953-.046,4.393.014,1.061.046.525,1.229,1.212,1.745,5.143-2.962,10.266-3.894,14.149,2a10.578,10.578,0,0,1-1.075,12.458c-3.028,3.13-7.957,3.544-12.886.972v9.739h-5.793Zm10.346,4.527c-3.578.057-4.6,1.468-4.516,6.241.037,2.127,1.91,3.68,4.407,3.649a4.823,4.823,0,0,0,4.961-5.015A4.563,4.563,0,0,0,258.673,402.944Z" transform="translate(42.144 8.704)" fill="#834ae1"/>
      <path id="Path_29658" data-name="Path 29658" d="M266.593,397.91c4.288.031,7.535,1.519,9.368,5.183a9.5,9.5,0,0,1-.73,10.217c-2.164,3.1-5.391,4.068-8.96,3.957-7.791-.24-12.187-7.657-8.541-14.445C259.657,399.236,263.013,398.044,266.593,397.91Zm4.553,9.681c-.014-2.979-1.836-5.026-4.442-4.992-2.551.031-4.308,2.067-4.3,4.98.011,2.859,1.842,4.9,4.393,4.9C269.419,412.475,271.16,410.514,271.146,407.591Z" transform="translate(57.142 8.828)" fill="#834ae1"/>
      <path id="Path_29659" data-name="Path 29659" d="M292.313,416.54a.144.144,0,0,0,.108-.214q.013-.843.026-1.685V399.882l.074-1.052h5.157c.445.813.046,1.679.7,2.372l1.026-1.274.733-.6.308-.248-.011.02c2.925-1.457,5.839-1.742,8.732.077a5.986,5.986,0,0,1,1.953,4.881c-.071,4.182-.023,8.367-.023,12.649h-5.65c-.362-.425-.22-.947-.22-1.428-.009-3.053.011-6.1,0-9.157-.006-1.237-.02-2.586-1.371-3.142a3.455,3.455,0,0,0-4.271,1.551,8.5,8.5,0,0,0-1.277,4.812c-.011,2.449,0,4.9,0,7.464-2.113-.128-4.06.274-5.984-.242Z" transform="translate(123.556 8.823)" fill="#834ae1"/>
      <path id="Path_29660" data-name="Path 29660" d="M293.647,417.239l-1.594-.1a17.111,17.111,0,0,1-4.667-1.993l-.271-.188-1.1-1.115.011.006a11.449,11.449,0,0,1-2-7.612l.063-.553.545-1.91.259-.559a10.533,10.533,0,0,1,3.629-3.772,11.86,11.86,0,0,1,11.683-.06l.006.006.251.2a.277.277,0,0,0,.222.1,11.775,11.775,0,0,1,3.6,5.448l.074.556c.023.721.074,1.445.063,2.167a8.911,8.911,0,0,1-6.546,8.8q-.77.239-1.537.485l-.519.057a.324.324,0,0,0-.262.011l-1.659.031A.261.261,0,0,0,293.647,417.239Zm-3.84-9.77c-.011,3,1.756,5.055,4.348,5.066,2.609.014,4.379-1.941,4.393-4.852s-1.765-4.938-4.325-4.963A4.518,4.518,0,0,0,289.807,407.469Z" transform="translate(108.184 8.765)" fill="#834ae1"/>
      <path id="Path_29661" data-name="Path 29661" d="M278.974,408.9c1.2-2.7,2.4-4.955,3.2-7.341.858-2.546,2.209-3.863,5-3.247a8.675,8.675,0,0,0,1.679.014c-.912,2.112-1.748,4.068-2.6,6.015-2.825,6.46-5.676,12.909-8.461,19.383a1.754,1.754,0,0,1-2.013,1.32c-1.3-.111-2.609-.026-4.157-.026,1.274-2.819,2.395-5.437,3.643-7.994a3.058,3.058,0,0,0,.031-3.039c-2.346-4.675-4.593-9.4-6.873-14.109-.214-.442-.408-.892-.7-1.545,2.15,0,4.128-.011,6.109.006.673,0,.7.639.889,1.06C276.092,402.415,277.435,405.445,278.974,408.9Z" transform="translate(78.047 9.29)" fill="#834ae1"/>
      <path id="Path_29662" data-name="Path 29662" d="M264.9,393.157h5.656V425.5H264.9Z" transform="translate(72.811 0.031)" fill="#834ae1"/>
      <path id="Path_29663" data-name="Path 29663" d="M292.306,398.146l.017.036-.009-.061Z" transform="translate(123.542 9.219)" fill="#834ae1"/>
    </g>
  </g>
</svg>
