<svg xmlns="http://www.w3.org/2000/svg" width="250" height="138" viewBox="0 0 250 138">
  <g id="Group_9777" data-name="Group 9777" transform="translate(-710 -2803)">
    <g id="Group_9714" data-name="Group 9714" transform="translate(779 2844)">
      <path id="Path_28978" data-name="Path 28978" d="M162.3,180.671q-3.18-4.034-12.3-8.578a79.724,79.724,0,0,1-8.316-4.542,13.086,13.086,0,0,1-3.563-3.609,5.972,5.972,0,0,1-.807-3.1,6.474,6.474,0,0,1,2.282-4.871,8.734,8.734,0,0,1,6.188-2.115,13.642,13.642,0,0,1,9.408,4.016,18.029,18.029,0,0,1,5.459,10.617h1.573L161.8,150.94h-1.152a7.23,7.23,0,0,1-1.071,2.989,2.044,2.044,0,0,1-1.573.62,10.228,10.228,0,0,1-3.62-1.262A24.523,24.523,0,0,0,150,151.56a19.368,19.368,0,0,0-4.907-.62,15.836,15.836,0,0,0-11.5,4.424,14.383,14.383,0,0,0-4.561,10.714,13.9,13.9,0,0,0,1.67,6.752,18.391,18.391,0,0,0,4.769,5.551,60.864,60.864,0,0,0,10.193,6.018,44.546,44.546,0,0,1,7.054,4.095,11.433,11.433,0,0,1,2.97,3.318,7.208,7.208,0,0,1-1.573,9.123,9.653,9.653,0,0,1-6.841,2.368,15.111,15.111,0,0,1-10.366-4.408q-4.811-4.4-6.5-12.788H129v19.872h1.419a5.424,5.424,0,0,1,1.8-2.366,3.717,3.717,0,0,1,2.107-.777,8.187,8.187,0,0,1,3.026.777,34.927,34.927,0,0,0,5.481,1.9,20.67,20.67,0,0,0,4.637.5,20.193,20.193,0,0,0,7.569-1.373l9.578-19.748A14.761,14.761,0,0,0,162.3,180.671Z" transform="translate(-128.999 -150.94)" fill="#e5e5e5"/>
      <path id="Path_28979" data-name="Path 28979" d="M151.538,181.548q0,3.532-.076,3.96a7.41,7.41,0,0,1-1.189,2.832,5.135,5.135,0,0,1-2.26,1.61,8,8,0,0,1-3.218.564h-.537v1.435h17.781v-1.435a8.916,8.916,0,0,1-5.23-1.222,5.539,5.539,0,0,1-2.166-3.164,33.328,33.328,0,0,1-.192-4.774V158.5l-2.913,6Z" transform="translate(-103.099 -138.115)" fill="#e5e5e5"/>
      <path id="Path_28980" data-name="Path 28980" d="M200.008,155.462a3.781,3.781,0,0,1,1.532-1.826,7.214,7.214,0,0,1,3.679-.815h1.686v-1.435H185.753l-14.1,34.7-14.6-34.7h-1.732l-6.088,12.548,17.015,40.083h.92L187.093,156v39.01a16.215,16.215,0,0,1-.421,4.89,3.777,3.777,0,0,1-1.532,1.864,7.215,7.215,0,0,1-3.679.815h-1.686v1.435h27.13v-1.435H205.22a6.9,6.9,0,0,1-3.488-.758,3.846,3.846,0,0,1-1.724-1.764,17.561,17.561,0,0,1-.421-5.047v-34.7A15.99,15.99,0,0,1,200.008,155.462Z" transform="translate(-94.659 -150.183)" fill="#e5e5e5"/>
    </g>
    <rect id="Rectangle_1224" data-name="Rectangle 1224" width="250" height="138" transform="translate(710 2803)" opacity="0"/>
  </g>
</svg>
