<svg xmlns="http://www.w3.org/2000/svg" viewBox="0 0 271 271"><defs><style>.cls-1{fill:#fff;}.cls-2{fill:none;stroke:#3c4145;stroke-miterlimit:10;stroke-width:5px;}</style></defs><g id="Layer_2" data-name="Layer 2"><g id="Layer_2-2" data-name="Layer 2"><path class="cls-1" d="M187.94,111.75c-.64,40.66-14.88,67-26.77,81.9s-23.89,21.85-25.74,22.85c-1.84-1-13.78-7.79-25.71-22.81s-26.15-41.25-26.79-81.94c3.93-.52,30.33-4.63,52.5-22.74C157.63,107.12,184,111.23,187.94,111.75Z"/><path class="cls-1" d="M168.23,58.36a2.58,2.58,0,0,1-2.67,2.1c-.8,0-1,.33-1.2,1-1.16,4.07-3.87,15.89-6.3,26.24A101.47,101.47,0,0,1,140,76.44c-.73-.53-1.46-1.11-2.16-1.71-.36-.25-.66-.53-1-.81l-1.38-1.13c-.45.41-.93.78-1.38,1.13-1.06.88-2.09,1.69-3.14,2.52a111.29,111.29,0,0,1-20.69,12.45C107.78,78.42,105,66.09,103.81,62c-.27-.95-.5-1.61-1.75-1.56a2.44,2.44,0,0,1-2.29-2.23,2.82,2.82,0,0,1,1.56-2.89,2.74,2.74,0,0,1,3.19.65,2.88,2.88,0,0,1,.3,3.34c-.18.26-.38.51-.63.83,2.89,3.44,5.93,6.71,10.32,8.16,4.15,1.41,7.51-.15,10.4-3.11a24.21,24.21,0,0,0,4.74-7.23c1.41-3.27,2.64-6.58,4-10-1.83-.9-2.81-2.06-2.13-4a2.57,2.57,0,0,1,2.78-1.66,2.74,2.74,0,0,1,2.42,2c.32,1.38-.21,2.34-2.21,3.64,1.08,2.87,2.11,5.81,3.29,8.69A27.29,27.29,0,0,0,143,65c2.87,3,6.23,4.78,10.42,3.29a19.29,19.29,0,0,0,5.38-3.06,47.32,47.32,0,0,0,4.52-4.44.82.82,0,0,0,.07-1.33,2.73,2.73,0,0,1,3.42-4.1A2.82,2.82,0,0,1,168.23,58.36Z"/><path class="cls-1" d="M146.3,65.86c.89-2.54,1.77-5,2.66-7.57.09-.27.14-.55.25-.81.26-.63.11-1-.51-1.36a2.57,2.57,0,0,1-1.15-3,2.63,2.63,0,0,1,2.47-2A2.69,2.69,0,0,1,152.79,53a2.62,2.62,0,0,1-1.29,3.25c-.78.36-.84.75-.59,1.45,1,2.57,1.87,5.16,2.81,7.74.12.33.26.64.39,1A7.09,7.09,0,0,1,146.3,65.86Z"/><path class="cls-1" d="M121.71,65.89a7.29,7.29,0,0,1-7.81.51c.47-1.15,1-2.3,1.42-3.49.65-1.82,1.22-3.67,1.85-5.5.17-.51.16-.79-.42-1.06A2.73,2.73,0,1,1,120.43,53a2.6,2.6,0,0,1-1.25,3.25c-.59.35-.54.72-.37,1.22C119.77,60.22,120.73,63,121.71,65.89Z"/><path class="cls-1" d="M198.11,103.41l-1.86-.18a107.43,107.43,0,0,1-16.45-3.61c-.66-.21-1.34-.39-2-.61s-1.09-.35-1.66-.53C165.28,95.08,152,89.37,140,80c-.72-.52-1.45-1.11-2.15-1.71-.34-.25-.66-.52-1-.79l-1.39-1.14c-.45.39-.93.78-1.39,1.14-1,.86-2.09,1.68-3.13,2.5A121.21,121.21,0,0,1,91.18,99.6c-.69.2-1.34.38-2,.56s-1.38.39-2,.55c-1.45.36-2.79.68-4.07,1-.79.18-1.56.34-2.27.47l-.34.07c-.39.09-.77.16-1.13.23,0,0,0,0,0,0-2.89.57-4.57.77-4.63.77l-.75.07-1.21.14,0,2c.39,30.26,7.3,53.71,15.84,71.29,0,0,.27.57.79,1.57.16.34.37.7.57,1.13,1.46,2.78,4,7.34,7.13,12.29l1.14,1.75c.27.39.52.8.8,1.21l0,0c1.66,2.41,3.29,4.62,4.91,6.66.4.5.81,1,1.2,1.5s.73.89,1.11,1.32a9.73,9.73,0,0,1,.68.82c14,16.33,27,23,27.58,23.3l1,.48,1-.48c.57-.29,13.06-6.72,26.78-22.4,1.25-1.43,2.52-2.95,3.8-4.54.81-1,1.63-2.09,2.45-3.23.52-.7,1-1.4,1.52-2.11.34-.45.66-.91,1-1.38s.54-.8.82-1.18c.4-.62.79-1.21,1.15-1.78.84-1.27,1.62-2.5,2.32-3.68,11.13-18.33,21.47-45.27,22-82.51l0-2S198.15,103.41,198.11,103.41Zm-34.37,95C151.36,214,139,221.79,135.43,223.82c-3.52-2-15.92-9.82-28.31-25.42-13.22-16.7-29.07-46-30.07-91.13,7.47-1.11,34.5-6.29,58.38-25.35,23.88,19.06,50.91,24.24,58.38,25.35C192.82,152.41,177,181.7,163.74,198.4Z"/><path class="cls-1" d="M188.53,110.73c-.28,0-29-3.3-52.75-22.83l-.35-.3-.34.3c-23.71,19.53-52.47,22.8-52.75,22.83l-.5.07v.47c.55,41.28,15,68,27,83.1,13.06,16.43,26.19,23.15,26.31,23.22l.24.14.25-.14c.14-.07,13.27-6.79,26.31-23.22,12-15.13,26.49-41.82,27-83.1v-.47Zm-27.36,82.92c-11.92,15-23.89,21.85-25.74,22.85-1.84-1-13.78-7.79-25.71-22.81s-26.15-41.25-26.79-81.94c3.93-.52,30.33-4.63,52.5-22.74,22.2,18.11,48.6,22.22,52.51,22.74C187.3,152.41,173.06,178.72,161.17,193.65Z"/><path class="cls-2" d="M216.83,55.16a10.82,10.82,0,0,0-5.66,5.69A4.3,4.3,0,0,1,210,62.58c-2.75,2.63-5.51,5.24-8.21,7.92-3.05,3-6,6.12-9,9.19l-.76.78-.53-.33-1.59,1.63,3.81,3.43,1.56-1.6-.37-.48.7-.71c3.14-3.23,6.32-6.44,9.43-9.7,2.49-2.61,4.91-5.29,7.35-7.95a4.26,4.26,0,0,1,1.7-1.29,10.84,10.84,0,0,0,5.59-5.75C220.37,55.5,219.09,54.32,216.83,55.16Zm.43,5.46c-1.67,1.7-3.83,2.62-4.66,1.85,1.22.22,2.59-.32,4.11-1.81s2.32-3.1,2-4.39C219.59,56.75,218.81,59,217.26,60.62Z"/><path class="cls-2" d="M181.31,80.69c.95-.52,1.38-.38,1.73,0,1.27,1.47,2.61,2.88,3.89,4.36A1.2,1.2,0,0,1,187,86c-.14.92-.34,1.87-.51,2.82,1-.23,2-.48,2.94-.66a1.28,1.28,0,0,1,.88,0c1.65,1.18,3.25,2.4,4.9,3.58.36.26.42.66.06,1.4s-.2,1.21.38,1.2a2.93,2.93,0,0,0,1.75-1c.63-.73.86-1.41.54-1.8q-1.54-1.91-3.14-3.78a39,39,0,0,0-3.12-3.55,38.3,38.3,0,0,0-3.86-2.92c-1.45-1-2.93-2-4.39-3.05a3,3,0,0,0-.58-.33c-.42-.17-1,.1-1.66.69a2.55,2.55,0,0,0-1,1.73C180.23,80.79,180.68,81,181.31,80.69Zm16.45,11.24c.12.53-.13,1-.67,1.52a1.68,1.68,0,0,1-1.52.62A3,3,0,0,0,197.76,91.93Z"/><path class="cls-2" d="M144.83,146.52c-.74-.76-2.66-2.77-5.36-5.59,1.08-1.05,1.85-1.81,2.27-2.23l41.65-41.54h0l7.44-7.44c-.69-.41-1-1.28-2.38-.77a21.23,21.23,0,0,1-2.1.5c-.44.11-.61,0-.51-.47a11.75,11.75,0,0,1,.24-1.24c.5-1.58.15-2.5-.86-3L178,92.31l2.68,2.42,3.16-3.22a2.17,2.17,0,0,1,1.12-.74c1.09-.27,2.22-.63,3.28-.85.38-.07.63.12,1,.22l-6.49,6.49h0l-2.13,2.14c-3.21,3.23-21.49,21.26-41.94,41.4l-1.2-1.26,43.17-44.17L178,92.31,135.5,136.78,93,92.31l-2.7,2.43,43.17,44.17-1.2,1.26C111.81,120,93.53,102,90.32,98.77l-2.13-2.14h0c-2.42-2.41-4.67-4.67-6.49-6.49.41-.1.66-.29,1-.22,1.06.22,2.19.58,3.28.85a2.21,2.21,0,0,1,1.12.74l3.16,3.22L93,92.31l-7.22-7.54c-1,.48-1.36,1.4-.86,3A11.75,11.75,0,0,1,85.15,89c.1.44-.07.58-.51.47a21.23,21.23,0,0,1-2.1-.5c-1.42-.51-1.69.36-2.38.77l7.44,7.44h0l41.65,41.54c.42.42,1.19,1.18,2.27,2.23-2.7,2.82-4.62,4.83-5.36,5.59-2.06,2.14-53.39,58.67-53.39,58.67s45.41-43.63,62.72-60.4c17.31,16.77,62.72,60.4,62.72,60.4S146.89,148.66,144.83,146.52ZM135.5,141l1.18,1.21-1.18,1.16-1.18-1.16Zm-60,61.37,58.08-59.43,1.17,1.14C106.44,172,75.62,202.31,75.52,202.37Zm61.88-59.43,58.08,59.43c-.1-.06-30.93-30.38-59.25-58.29Z"/><path class="cls-2" d="M76.17,83.12l-.36.48,1.56,1.6,3.81-3.43-1.59-1.63-.53.33-.76-.78c-3-3.07-6-6.16-9-9.19-2.7-2.68-5.46-5.29-8.21-7.92a4.21,4.21,0,0,1-1.22-1.73,10.82,10.82,0,0,0-5.66-5.69c-2.26-.84-3.54.34-2.76,2.56A10.84,10.84,0,0,0,57,63.47a4.26,4.26,0,0,1,1.7,1.29c2.44,2.66,4.86,5.34,7.35,7.95,3.11,3.26,6.29,6.47,9.43,9.7ZM53.74,60.62c-1.55-1.58-2.33-3.87-1.46-4.35-.32,1.29.36,2.77,2,4.39s2.89,2,4.11,1.81C57.57,63.24,55.41,62.32,53.74,60.62Z"/><path class="cls-2" d="M76.16,87.73Q74.57,89.61,73,91.51c-.32.39-.09,1.07.54,1.8a2.93,2.93,0,0,0,1.75,1c.57,0,.76-.4.38-1.2s-.3-1.14.06-1.4c1.65-1.18,3.25-2.4,4.9-3.58a1.27,1.27,0,0,1,.88,0c1,.18,1.93.43,2.94.66-.17-1-.37-1.9-.51-2.82a1.2,1.2,0,0,1,.11-.89c1.28-1.48,2.62-2.89,3.89-4.36.35-.41.78-.55,1.73,0,.63.35,1.08.1,1.08-.39a2.55,2.55,0,0,0-1-1.73c-.65-.59-1.24-.86-1.66-.69a3,3,0,0,0-.58.33c-1.46,1-2.94,2-4.39,3.05a38.3,38.3,0,0,0-3.86,2.92A39,39,0,0,0,76.16,87.73Zm-2.25,5.72c-.54-.53-.79-1-.67-1.52a3,3,0,0,0,2.19,2.14A1.67,1.67,0,0,1,73.91,93.45Z"/><path class="cls-1" d="M216.83,55.16a10.82,10.82,0,0,0-5.66,5.69A4.3,4.3,0,0,1,210,62.58c-2.75,2.63-5.51,5.24-8.21,7.92-3.05,3-6,6.12-9,9.19l-.76.78-.53-.33-1.59,1.63,3.81,3.43,1.56-1.6-.37-.48.7-.71c3.14-3.23,6.32-6.44,9.43-9.7,2.49-2.61,4.91-5.29,7.35-7.95a4.26,4.26,0,0,1,1.7-1.29,10.84,10.84,0,0,0,5.59-5.75C220.37,55.5,219.09,54.32,216.83,55.16Zm.43,5.46c-1.67,1.7-3.83,2.62-4.66,1.85,1.22.22,2.59-.32,4.11-1.81s2.32-3.1,2-4.39C219.59,56.75,218.81,59,217.26,60.62Z"/><path class="cls-1" d="M181.31,80.69c.95-.52,1.38-.38,1.73,0,1.27,1.47,2.61,2.88,3.89,4.36A1.2,1.2,0,0,1,187,86c-.14.92-.34,1.87-.51,2.82,1-.23,2-.48,2.94-.66a1.28,1.28,0,0,1,.88,0c1.65,1.18,3.25,2.4,4.9,3.58.36.26.42.66.06,1.4s-.2,1.21.38,1.2a2.93,2.93,0,0,0,1.75-1c.63-.73.86-1.41.54-1.8q-1.54-1.91-3.14-3.78a39,39,0,0,0-3.12-3.55,38.3,38.3,0,0,0-3.86-2.92c-1.45-1-2.93-2-4.39-3.05a3,3,0,0,0-.58-.33c-.42-.17-1,.1-1.66.69a2.55,2.55,0,0,0-1,1.73C180.23,80.79,180.68,81,181.31,80.69Zm16.45,11.24c.12.53-.13,1-.67,1.52a1.68,1.68,0,0,1-1.52.62A3,3,0,0,0,197.76,91.93Z"/><path class="cls-1" d="M144.83,146.52c-.74-.76-2.66-2.77-5.36-5.59,1.08-1.05,1.85-1.81,2.27-2.23l41.65-41.54h0l7.44-7.44c-.69-.41-1-1.28-2.38-.77a21.23,21.23,0,0,1-2.1.5c-.44.11-.61,0-.51-.47a11.75,11.75,0,0,1,.24-1.24c.5-1.58.15-2.5-.86-3L178,92.31l2.68,2.42,3.16-3.22a2.17,2.17,0,0,1,1.12-.74c1.09-.27,2.22-.63,3.28-.85.38-.07.63.12,1,.22l-6.49,6.49h0l-2.13,2.14c-3.21,3.23-21.49,21.26-41.94,41.4l-1.2-1.26,43.17-44.17L178,92.31,135.5,136.78,93,92.31l-2.7,2.43,43.17,44.17-1.2,1.26C111.81,120,93.53,102,90.32,98.77l-2.13-2.14h0c-2.42-2.41-4.67-4.67-6.49-6.49.41-.1.66-.29,1-.22,1.06.22,2.19.58,3.28.85a2.21,2.21,0,0,1,1.12.74l3.16,3.22L93,92.31l-7.22-7.54c-1,.48-1.36,1.4-.86,3A11.75,11.75,0,0,1,85.15,89c.1.44-.07.58-.51.47a21.23,21.23,0,0,1-2.1-.5c-1.42-.51-1.69.36-2.38.77l7.44,7.44h0l41.65,41.54c.42.42,1.19,1.18,2.27,2.23-2.7,2.82-4.62,4.83-5.36,5.59-2.06,2.14-53.39,58.67-53.39,58.67s45.41-43.63,62.72-60.4c17.31,16.77,62.72,60.4,62.72,60.4S146.89,148.66,144.83,146.52ZM135.5,141l1.18,1.21-1.18,1.16-1.18-1.16Zm-60,61.37,58.08-59.43,1.17,1.14C106.44,172,75.62,202.31,75.52,202.37Zm61.88-59.43,58.08,59.43c-.1-.06-30.93-30.38-59.25-58.29Z"/><path class="cls-1" d="M76.17,83.12l-.36.48,1.56,1.6,3.81-3.43-1.59-1.63-.53.33-.76-.78c-3-3.07-6-6.16-9-9.19-2.7-2.68-5.46-5.29-8.21-7.92a4.21,4.21,0,0,1-1.22-1.73,10.82,10.82,0,0,0-5.66-5.69c-2.26-.84-3.54.34-2.76,2.56A10.84,10.84,0,0,0,57,63.47a4.26,4.26,0,0,1,1.7,1.29c2.44,2.66,4.86,5.34,7.35,7.95,3.11,3.26,6.29,6.47,9.43,9.7ZM53.74,60.62c-1.55-1.58-2.33-3.87-1.46-4.35-.32,1.29.36,2.77,2,4.39s2.89,2,4.11,1.81C57.57,63.24,55.41,62.32,53.74,60.62Z"/><path class="cls-1" d="M76.16,87.73Q74.57,89.61,73,91.51c-.32.39-.09,1.07.54,1.8a2.93,2.93,0,0,0,1.75,1c.57,0,.76-.4.38-1.2s-.3-1.14.06-1.4c1.65-1.18,3.25-2.4,4.9-3.58a1.27,1.27,0,0,1,.88,0c1,.18,1.93.43,2.94.66-.17-1-.37-1.9-.51-2.82a1.2,1.2,0,0,1,.11-.89c1.28-1.48,2.62-2.89,3.89-4.36.35-.41.78-.55,1.73,0,.63.35,1.08.1,1.08-.39a2.55,2.55,0,0,0-1-1.73c-.65-.59-1.24-.86-1.66-.69a3,3,0,0,0-.58.33c-1.46,1-2.94,2-4.39,3.05a38.3,38.3,0,0,0-3.86,2.92A39,39,0,0,0,76.16,87.73Zm-2.25,5.72c-.54-.53-.79-1-.67-1.52a3,3,0,0,0,2.19,2.14A1.67,1.67,0,0,1,73.91,93.45Z"/><path class="cls-1" d="M135.5,271C60.79,271,0,210.21,0,135.5S60.79,0,135.5,0,271,60.79,271,135.5,210.21,271,135.5,271Zm0-268C62.44,3,3,62.44,3,135.5S62.44,268,135.5,268,268,208.56,268,135.5,208.56,3,135.5,3Z"/></g></g></svg>