<svg xmlns="http://www.w3.org/2000/svg" width="250" height="138" viewBox="0 0 250 138">
  <g id="Group_9771" data-name="Group 9771" transform="translate(-710 -2527)">
    <g id="Group_9720" data-name="Group 9720" transform="translate(786 2565)">
      <path id="Path_28981" data-name="Path 28981" d="M248.475,206.907H276.45v7.651H238.514c.294-10.287,4.968-18.037,13.116-23.9,3.465-2.488,7.174-4.593,10.73-6.937a17.555,17.555,0,0,0,3.78-3.2,6.822,6.822,0,0,0-3.587-11.345,18.737,18.737,0,0,0-16.664,3.887c-.307.242-.516.628-1.1.7l-4.931-5.864a24.749,24.749,0,0,1,10.019-5.932,26.229,26.229,0,0,1,18.271.552c5.825,2.355,8.609,8.052,7.75,15.1-.641,5.223-3.835,8.56-7.862,11.368-3.863,2.694-8.065,4.863-11.876,7.646-3.332,2.433-6.288,5.155-7.471,9.308C248.624,206.178,248.585,206.418,248.475,206.907Z" transform="translate(-198.504 -152.177)" fill="#fbfbfb"/>
      <path id="Path_28982" data-name="Path 28982" d="M224.872,172.111c-.724-2.436-.318-3.043,2.12-3.324a23.748,23.748,0,0,1,5.7-.044,3.72,3.72,0,0,1,3.123,2.251,89.659,89.659,0,0,0,5.241,9.633c.268.417.537.831.907,1.4a60.094,60.094,0,0,0,5.249-8.953c-.349-.628-1.019-.091-1.42-.578a4.466,4.466,0,0,1-.386-1.8c-.01-1.084.482-1.732,1.607-1.743,2.66-.023,5.322-.023,7.982-.031,1.2,0,.94.979,1.029,1.644.122.92.109,2.024-1.117,2.055a2.84,2.84,0,0,0-2.347,1.56c-2.391,3.282-4.741,6.591-7,9.969a1.681,1.681,0,0,0-.044,2.243c2.266,3.251,4.457,6.554,6.69,9.829a4.275,4.275,0,0,0,2.863,2.032c.93.135,1.131.672,1.178,1.435.052.875-.143,1.573-1.11,1.873a10.394,10.394,0,0,1-3.131.237c-4.835.023-4.848.023-7.362-4.072-1.6-2.608-3.147-5.241-4.728-7.859-.276-.458-.6-.893-1-1.5a54.188,54.188,0,0,0-5.536,9.93l2.146.146a2.688,2.688,0,0,1,.482,1.972,1.237,1.237,0,0,1-1.383,1.375c-3.308-.005-6.614,0-9.886,0-1.076-2.368-.709-3.1,1.67-3.4a1.093,1.093,0,0,0,.894-.438q4.423-6.432,8.875-12.863c-2.35-3.582-4.5-7.145-7-10.475C227.727,172.684,227.3,172.481,224.872,172.111Z" transform="translate(-221.53 -139.345)" fill="#fbfbfb"/>
      <path id="Path_28983" data-name="Path 28983" d="M272.975,160.939V214h-7.922V173.427h-9.276v-5.481c1.383-.289,2.808-.524,4.2-.891,3-.792,5.515-2.2,6.387-5.476.18-.677.656-.646,1.17-.643C269.289,160.942,271.045,160.939,272.975,160.939Z" transform="translate(-170.797 -151.632)" fill="#fbfbfb"/>
      <path id="Path_28984" data-name="Path 28984" d="M232.225,157.364c5.416,5.554,5.515,13.311.01,18.988C226.962,172.47,226.955,161.74,232.225,157.364Z" transform="translate(-214.935 -157.364)" fill="#ee6c0e"/>
      <path id="Path_28985" data-name="Path 28985" d="M223.155,161.477a19.5,19.5,0,0,1,5.34-.13c.482.047.852.169,1.006.716,1.211,4.259,4.181,6.976,7.979,8.966C233.828,173.931,224.121,167.5,223.155,161.477Z" transform="translate(-223.155 -151.169)" fill="#ee6c0e"/>
      <path id="Path_28986" data-name="Path 28986" d="M230.851,171.3c1.454-1.042,2.746-1.771,3.907-2.7,2.079-1.654,3.118-3.965,4.173-6.27a1.46,1.46,0,0,1,1.441-1.039,20.231,20.231,0,0,1,4.926.174C245.3,166.846,237.546,172.247,230.851,171.3Z" transform="translate(-210.803 -151.164)" fill="#ee6c0e"/>
      <path id="Path_28987" data-name="Path 28987" d="M226.46,158.5a12.868,12.868,0,0,1,4.47,2.592,1.23,1.23,0,0,1,.412,1.326,15.338,15.338,0,0,0,1.85,10.878c.135.247.349.5.185.828C228.346,173.049,224.066,163.51,226.46,158.5Z" transform="translate(-218.947 -155.536)" fill="#ee6c0e"/>
      <path id="Path_28988" data-name="Path 28988" d="M237.918,158.493c1.461,7-1.8,14.03-6.807,15.276-.422-.367,0-.636.135-.9,1.62-3.274,2.532-6.656,1.618-10.329-.109-.438-.24-.914.174-1.269A12.486,12.486,0,0,1,237.918,158.493Z" transform="translate(-210.678 -155.552)" fill="#ee6c0e"/>
    </g>
    <rect id="Rectangle_1217" data-name="Rectangle 1217" width="250" height="138" transform="translate(710 2527)" opacity="0"/>
  </g>
</svg>
