<svg xmlns="http://www.w3.org/2000/svg" width="192.089" height="54.114" viewBox="0 0 192.089 54.114">
  <g id="Group_5994" data-name="Group 5994" transform="translate(0.5 0.5)">
    <rect id="Rectangle_169" data-name="Rectangle 169" width="191.089" height="53.114" rx="5" transform="translate(0 0)" fill="#070607" stroke="#4d4d4d" stroke-miterlimit="10" stroke-width="1"/>
    <g id="Group_5987" data-name="Group 5987" transform="translate(22.068 7.892)">
      <path id="Path_12371" data-name="Path 12371" d="M114.475,238.552a8.243,8.243,0,0,0-1.686-1.788,9.84,9.84,0,0,0-5.742-1.951,7.858,7.858,0,0,0-2.737.407c-1.082.339-2.154.708-3.224,1.083a2.807,2.807,0,0,1-1.982.079c-.923-.34-1.858-.648-2.792-.959a8.007,8.007,0,0,0-3.617-.462,9.27,9.27,0,0,0-6.225,3.487,11.5,11.5,0,0,0-2.431,6.934,20.241,20.241,0,0,0,1.039,7.07,23.417,23.417,0,0,0,4.182,7.691,12.21,12.21,0,0,0,2.312,2.3,4.147,4.147,0,0,0,3.385.775,14.927,14.927,0,0,0,2.417-.777,7.977,7.977,0,0,1,5.848-.134c.733.27,1.468.543,2.218.758a4.624,4.624,0,0,0,4.33-.875,11.105,11.105,0,0,0,1.79-1.831,22.147,22.147,0,0,0,3.412-5.662c.178-.446.341-.9.5-1.327-2.984-1.488-4.9-3.71-5.142-7.125A7.853,7.853,0,0,1,114.475,238.552ZM107.57,225.98c-.067,0-.113,0-.158,0a7.444,7.444,0,0,0-2.728.782,8.468,8.468,0,0,0-4.872,6.465A4.736,4.736,0,0,0,99.8,234.8c.252,0,.493.013.732,0a6.167,6.167,0,0,0,3.689-1.545,8.643,8.643,0,0,0,3.336-5.737A13.842,13.842,0,0,0,107.57,225.98Z" transform="translate(-84.023 -225.979)" fill="#fff"/>
      <path id="Path_12372" data-name="Path 12372" d="M114.475,249.362a7.853,7.853,0,0,0-4.142,7.693c.24,3.415,2.159,5.637,5.142,7.125-.163.43-.326.881-.5,1.327a22.147,22.147,0,0,1-3.412,5.662A11.105,11.105,0,0,1,109.77,273a4.624,4.624,0,0,1-4.33.875c-.75-.215-1.485-.488-2.218-.758a7.977,7.977,0,0,0-5.848.134,14.93,14.93,0,0,1-2.417.777,4.147,4.147,0,0,1-3.385-.775,12.211,12.211,0,0,1-2.312-2.3,23.418,23.418,0,0,1-4.182-7.691,20.241,20.241,0,0,1-1.039-7.07,11.5,11.5,0,0,1,2.431-6.934,9.27,9.27,0,0,1,6.225-3.487,8.007,8.007,0,0,1,3.617.462c.934.311,1.869.619,2.792.959a2.807,2.807,0,0,0,1.982-.079c1.07-.375,2.142-.744,3.224-1.083a7.859,7.859,0,0,1,2.737-.407,9.84,9.84,0,0,1,5.742,1.951A8.242,8.242,0,0,1,114.475,249.362Z" transform="translate(-84.023 -236.789)" fill="#fff"/>
      <path id="Path_12373" data-name="Path 12373" d="M126.818,225.98a13.842,13.842,0,0,1-.008,1.535,8.643,8.643,0,0,1-3.336,5.737,6.167,6.167,0,0,1-3.689,1.545c-.239.017-.48,0-.732,0a4.736,4.736,0,0,1,.007-1.573,8.468,8.468,0,0,1,4.872-6.465,7.444,7.444,0,0,1,2.728-.782C126.705,225.977,126.751,225.98,126.818,225.98Z" transform="translate(-103.272 -225.979)" fill="#fff"/>
    </g>
    <text id="Download_on_the_App_Store" data-name="Download on the 
App Store" transform="translate(74.092 19.889)" fill="#fff" font-size="13" font-family="ArialMT, Arial"><tspan x="0" y="0">Download on the </tspan><tspan font-size="21"><tspan x="0" y="24">App Store</tspan></tspan></text>
  </g>
</svg>
