<svg xmlns="http://www.w3.org/2000/svg" width="192.089" height="54.114" viewBox="0 0 192.089 54.114">
  <g id="Group_5993" data-name="Group 5993" transform="translate(0.5 0.5)">
    <rect id="Rectangle_170" data-name="Rectangle 170" width="191.089" height="53.114" rx="5" transform="translate(0 0)" fill="#070607" stroke="#4d4d4d" stroke-miterlimit="10" stroke-width="1"/>
    <text id="GET_IT_ON" data-name="GET IT ON" transform="translate(84.391 15.644)" fill="#fff" font-size="11" font-family="ArialMT, Arial"><tspan x="-27.301" y="0">GET IT ON</tspan></text>
    <g id="Group_5988" data-name="Group 5988" transform="translate(55.824 23.493)">
      <path id="Path_12374" data-name="Path 12374" d="M653.554,263.277,651.793,265c-.255-.185-.534-.4-.828-.6a7.172,7.172,0,1,0-5.277,13.061,6.441,6.441,0,0,0,6.774-2.446,7.063,7.063,0,0,0,.892-2.184c.205-.68.139-.712-.558-.712-1.687,0-3.375-.019-5.063.01-.5.009-.684-.141-.644-.643a13.269,13.269,0,0,0,.005-1.421c-.009-.325.09-.484.451-.483q3.982.015,7.964,0c.413,0,.47.253.494.543.385,4.561-1.714,8.405-6.361,9.663a9.874,9.874,0,0,1-12.389-8.154,9.29,9.29,0,0,1,4.252-9.26,9.691,9.691,0,0,1,11.555.468C653.219,262.968,653.367,263.11,653.554,263.277Z" transform="translate(-637.167 -260.683)" fill="#fff"/>
      <path id="Path_12375" data-name="Path 12375" d="M753.694,276.592c-1.008-.008-1.008,0-1.249.993-.178-.124-.295-.2-.4-.294a4.268,4.268,0,0,0-3.483-1.078,6.268,6.268,0,0,0-3.142,11.062,5.065,5.065,0,0,0,6.8.085,1.053,1.053,0,0,1,.287-.124,5.267,5.267,0,0,1-.427,3.142,2.825,2.825,0,0,1-1.544,1.358,3.516,3.516,0,0,1-4.36-1.458c-.124-.178-.4-.45-.512-.411-.675.233-1.319.535-1.963.815a5.472,5.472,0,0,0,4.034,3.437c2.366.473,4.507.054,6.066-1.971a6.3,6.3,0,0,0,1.187-3.9q.012-5.178,0-10.356C754.982,276.39,755.2,276.607,753.694,276.592Zm-2.5,9.107a3.4,3.4,0,0,1-4.554-.644,4.2,4.2,0,0,1,.124-5.422,3.235,3.235,0,0,1,3.406-1,3.444,3.444,0,0,1,2.451,2.738,8.012,8.012,0,0,1,.132.931A3.972,3.972,0,0,1,751.2,285.7Z" transform="translate(-695.47 -269.206)" fill="#fff"/>
      <path id="Path_12376" data-name="Path 12376" d="M835.08,266.345a5.8,5.8,0,0,0-5.531-4.127c-2.024-.023-4.057.008-6.081-.016-.543-.008-.721.14-.714.7.023,2.824.008,5.647.008,8.471,0,2.863.008,5.725-.008,8.587,0,.442.124.613.582.574a8.863,8.863,0,0,1,1.365-.008c.489.031.659-.139.652-.644-.023-1.823-.008-3.638-.008-5.461,0-.884,0-.884.915-.892.985,0,1.978.062,2.955-.015a9.159,9.159,0,0,0,2.382-.442A5.476,5.476,0,0,0,835.08,266.345Zm-5.655,4.755c-1.171.016-2.342-.008-3.522.016-.411,0-.574-.147-.566-.566.023-.908.008-1.815.008-2.723s.008-1.823,0-2.73c-.008-.318.1-.52.442-.512,1.365.015,2.73-.054,4.088.085a3.2,3.2,0,0,1,2.816,3.413A3.282,3.282,0,0,1,829.425,271.1Z" transform="translate(-739.327 -261.52)" fill="#fff"/>
      <path id="Path_12377" data-name="Path 12377" d="M874.622,280.68a4.3,4.3,0,0,0-1.73-3.382,6.384,6.384,0,0,0-7.3-.054,3.8,3.8,0,0,0-1.28,1.6c.706.294,1.342.589,2,.815.132.046.38-.085.5-.209a3.368,3.368,0,0,1,4.623-.124,1.948,1.948,0,0,1,.644,1.846c-.256-.093-.458-.178-.667-.249a6.485,6.485,0,0,0-5.88.667,3.591,3.591,0,0,0-1.4,4.251c1.024,2.87,5.406,3.708,7.431,1.427.14-.155.271-.3.528-.589a9.109,9.109,0,0,1,.07.97c-.008.356.116.527.5.52.5-.016,1.024-.016,1.536,0,.349.008.45-.155.45-.489C874.645,285.35,874.676,283.015,874.622,280.68Zm-2.537,2.971a3.318,3.318,0,0,1-4.81,2.2,1.51,1.51,0,0,1-.241-2.436,4.122,4.122,0,0,1,2.917-.884c.38.108,1.063.294,1.753.473A.47.47,0,0,1,872.085,283.651Z" transform="translate(-761.989 -269.183)" fill="#fff"/>
      <path id="Path_12378" data-name="Path 12378" d="M718.695,276.181a6.222,6.222,0,1,0,6.206,6.283A6.172,6.172,0,0,0,718.695,276.181Zm3.219,7.99a3.418,3.418,0,0,1-3.344,2.125,3.7,3.7,0,0,1-3.56-3.886,3.778,3.778,0,0,1,2.451-3.677,3.436,3.436,0,0,1,3.871,1.016A3.982,3.982,0,0,1,721.914,284.171Z" transform="translate(-678.6 -269.214)" fill="#fff"/>
      <path id="Path_12379" data-name="Path 12379" d="M687.973,276.181a6.221,6.221,0,1,0,6.237,6.322A6.184,6.184,0,0,0,687.973,276.181Zm1.272,9.882a3.5,3.5,0,0,1-3.863-.868,4.022,4.022,0,0,1-.713-4.492,3.59,3.59,0,0,1,3.3-2.2,3.719,3.719,0,0,1,3.623,3.933A3.777,3.777,0,0,1,689.245,286.063Z" transform="translate(-661.701 -269.214)" fill="#fff"/>
      <path id="Path_12380" data-name="Path 12380" d="M792.166,285.237a3.538,3.538,0,0,1-5.484-.411c-.248-.388-.194-.59.24-.753,1.2-.473,2.389-.97,3.584-1.459,1.411-.589,2.823-1.179,4.3-1.8-.14-.372-.233-.659-.357-.931-.985-2.18-2.591-3.607-5.042-3.653-4.235-.078-6.78,3.8-5.825,7.749a6.128,6.128,0,0,0,8.8,4.01,5.609,5.609,0,0,0,2.3-2.032,11.327,11.327,0,0,1-1.272-.846C792.911,284.679,792.608,284.764,792.166,285.237Zm-6.174-2.994a3.453,3.453,0,0,1,.869-2.568,3.185,3.185,0,0,1,4.2-.644,2.982,2.982,0,0,1,.512.528q.3.372-.163.558-2.583,1.047-5.151,2.11A1.556,1.556,0,0,1,785.992,282.243Z" transform="translate(-717.652 -269.242)" fill="#fff"/>
      <path id="Path_12381" data-name="Path 12381" d="M888.835,277.091c.92,0,1.714-.028,2.5.023.164.01.37.29.452.489.946,2.273,1.87,4.554,2.8,6.832.084.2.192.4.374.774.19-.4.325-.653.429-.915.879-2.218,1.764-4.434,2.619-6.662a.739.739,0,0,1,.841-.558c.71.033,1.423.009,2.245.009-.285.688-.512,1.263-.759,1.83q-3.177,7.293-6.364,14.581c-.453,1.033-.2.851-1.308.867-.512.007-1.023-.006-1.535-.013-.033,0-.066-.03-.162-.076.462-1.048.921-2.1,1.388-3.148.362-.813.764-1.61,1.085-2.438a1.38,1.38,0,0,0,.015-.949c-1.4-3.251-2.842-6.486-4.269-9.727C889.081,277.753,888.99,277.489,888.835,277.091Z" transform="translate(-775.703 -269.705)" fill="#fff"/>
      <path id="Path_12382" data-name="Path 12382" d="M774.221,271.338c0-2.826.013-5.653-.012-8.479,0-.539.169-.7.682-.662a11.907,11.907,0,0,0,1.422,0c.377-.016.518.152.494.508-.008.113,0,.227,0,.342q0,8.365,0,16.731c0,.736,0,.735-.744.734-.4,0-.8-.024-1.195.005-.49.037-.66-.14-.656-.646C774.232,277.029,774.221,274.183,774.221,271.338Z" transform="translate(-712.604 -261.513)" fill="#fff"/>
      <path id="Path_12383" data-name="Path 12383" d="M857.023,271.341c0,2.824-.013,5.649.011,8.474,0,.549-.163.754-.71.71-.471-.038-.947-.013-1.421-.01-.307,0-.456-.137-.443-.449.005-.132,0-.265,0-.4V263c0-.8,0-.8.818-.8.379,0,.76.025,1.137-.006.467-.039.623.131.619.608C857.013,265.653,857.023,268.5,857.023,271.341Z" transform="translate(-756.779 -261.516)" fill="#fff"/>
    </g>
    <g id="Group_5989" data-name="Group 5989" transform="translate(7.774 5.455)">
      <path id="Path_12384" data-name="Path 12384" d="M551.6,241.612l6.74,6.74c-9.449,5.4-23.589,13.424-23.589,13.424s-2.048,1.213-3.314,0a3.175,3.175,0,0,1-.822-1.7c-.77-3.7,0-37.285,0-37.285a2.871,2.871,0,0,1,.69-1.473c.033-.04.066-.079.1-.118a2.645,2.645,0,0,1,3.179-.217l23.948,13.7Z" transform="translate(-530.277 -220.558)" fill="#00cbff"/>
      <path id="Path_12385" data-name="Path 12385" d="M559.8,234.679l-6.934,6.934-20.295-20.295c.033-.04.066-.079.1-.118a2.645,2.645,0,0,1,3.179-.217Z" transform="translate(-531.541 -220.558)" fill="#00f076"/>
      <path id="Path_12386" data-name="Path 12386" d="M592.268,261.15c-1.134.671-4.113,2.38-7.808,4.494l-6.74-6.74,6.934-6.934,8.436,4.823S596.3,258.767,592.268,261.15Z" transform="translate(-556.393 -237.85)" fill="#ffcf00"/>
      <path id="Path_12387" data-name="Path 12387" d="M559.769,274.135c-9.449,5.4-23.589,13.424-23.589,13.424s-2.048,1.213-3.314,0l20.163-20.164Z" transform="translate(-531.702 -246.34)" fill="#f3314a"/>
    </g>
  </g>
</svg>
