<svg width="236" height="66" viewBox="0 0 236 66" fill="none" xmlns="http://www.w3.org/2000/svg">
<path fill-rule="evenodd" clip-rule="evenodd" d="M39.0828 61.5V66H0V61.5H39.0828ZM39.0828 0V57H0V0H39.0828ZM34.5732 4.5H4.50955V52.5H34.5732V4.5Z" fill="url(#paint0_linear)"/>
<path fill-rule="evenodd" clip-rule="evenodd" d="M211.597 0V20.5638C211.821 20.1468 212.102 19.6907 212.438 19.1955C212.774 18.7003 213.188 18.166 213.681 17.5926C214.443 16.7064 215.384 16.0158 216.505 15.5206C217.625 15.0254 218.97 14.7778 220.538 14.7778C221.793 14.7778 223.07 14.9733 224.37 15.3642C225.67 15.7551 226.969 16.3937 228.269 17.2798C229.838 18.3745 231.126 19.6255 232.135 21.0329C233.143 22.4403 233.927 23.952 234.487 25.5679C235.048 27.1838 235.44 28.8649 235.664 30.6111C235.888 32.3573 236 34.0645 236 35.7325C236 37.4527 235.888 39.1859 235.664 40.9321C235.44 42.6783 235.048 44.3724 234.487 46.0144C233.927 47.6564 233.143 49.1811 232.135 50.5885C231.126 51.9959 229.838 53.2469 228.269 54.3416C226.88 55.2798 225.446 55.9575 223.967 56.3745C222.488 56.7915 221.054 57 219.664 57C218.544 57 217.423 56.8697 216.303 56.6091C215.989 56.5569 215.676 56.4266 215.362 56.2181C215.093 56.0617 214.802 55.8793 214.488 55.6708C214.174 55.4623 213.905 55.2016 213.681 54.8889L213.402 54.5598C213.313 54.4534 213.228 54.3503 213.147 54.2503L212.917 53.9604C212.698 53.6802 212.516 53.4294 212.37 53.2078C212.137 52.8534 211.926 52.4906 211.736 52.1194L211.597 51.8395V56.3745H194.186V55.749H199.228V2.26749H194.186V1.64198H199.228C200.886 1.53772 202.477 1.40741 204.001 1.25103C205.301 1.14678 206.656 0.990398 208.068 0.781893C209.379 0.588281 210.487 0.349724 211.392 0.0662216L211.597 0ZM192.069 1.58333V22.049H191.467C191.467 19.6967 191.11 17.475 190.396 15.384C189.683 13.293 188.612 10.9929 187.185 8.48365C186.382 7.1245 185.602 6.03979 184.843 5.22952C184.085 4.41926 183.349 3.79196 182.636 3.34762C181.922 2.90328 181.231 2.61577 180.562 2.48508C179.988 2.37306 179.431 2.30905 178.891 2.29305L178.622 2.28905V55.8449H185.312V56.4722H157.213V55.8449H163.903V2.28905C163.279 2.28905 162.587 2.35439 161.829 2.48508C161.071 2.61577 160.29 2.89021 159.487 3.30841C158.685 3.72661 157.86 4.32778 157.012 5.1119C156.221 5.84376 155.469 6.82606 154.756 8.05883L154.604 8.32683C153.176 10.836 152.206 13.1361 151.693 15.2271C151.215 17.1787 150.959 19.2442 150.927 21.4235L150.924 21.8922H150.255V1.58333H192.069ZM148.138 19.8535V1.58333H105.795V2.21063H111.795V55.8449H105.795V56.4722H134.45V55.8449L127.303 55.7665V28.5573H130.203L130.524 28.5601C132.013 28.5861 133.356 28.7943 134.552 29.1846C135.833 29.6028 136.923 30.5699 137.822 32.0859C138.631 33.445 139.249 34.778 139.676 36.0849C140.103 37.3918 140.316 38.8032 140.316 40.3192H140.856V16.1681H140.316L140.313 16.48C140.285 17.9274 140.062 19.261 139.642 20.4808C139.193 21.7877 138.586 23.0946 137.822 24.4014C137.327 25.2378 136.81 25.8913 136.271 26.3617C135.731 26.8322 135.147 27.1851 134.518 27.4203C133.889 27.6556 133.214 27.7993 132.495 27.8516C131.776 27.9039 131.012 27.93 130.203 27.93H127.303V2.21063H132.697L133.214 2.21304C134.241 2.22264 135.226 2.26104 136.17 2.32825C137.271 2.40667 138.305 2.62884 139.271 2.99476C140.238 3.36069 141.148 3.93571 142.002 4.71984C142.856 5.50397 143.688 6.57561 144.497 7.93476C145.216 9.13709 145.778 10.2218 146.182 11.1889C146.587 12.156 146.89 13.0839 147.093 13.9725C147.295 14.8612 147.419 15.776 147.464 16.717L147.49 17.3598L147.51 18.0335C147.518 18.3782 147.524 18.7344 147.528 19.1023L147.531 19.8535H148.138ZM62.5999 1.58333C63.5843 1.63561 64.6582 1.87085 65.8216 2.28905C66.806 2.65497 67.9247 3.19079 69.1776 3.89651C70.4305 4.60222 71.7282 5.63466 73.0706 6.99381C73.2496 7.17503 73.4308 7.3602 73.6141 7.54932L74.1708 8.12853C74.2646 8.22704 74.3591 8.32654 74.454 8.42702L75.0304 9.04177L75.6198 9.68023C75.7192 9.78861 75.819 9.89798 75.9195 10.0083L76.5286 10.6823L77.1509 11.38C77.2557 11.4983 77.3611 11.6175 77.467 11.7378C79.0555 13.5413 80.6552 15.4493 82.2661 17.4619C83.8769 19.4745 85.4543 21.5132 86.998 23.5781C87.6596 24.463 88.2657 25.324 88.8426 26.1609L90.2397 28.2032C90.422 28.4689 90.6035 28.7319 90.7852 28.9922L91.5581 30.0923L92.0378 30.7844L92.4972 31.457L92.9363 32.1101C93.0078 32.2173 93.0784 32.3237 93.1482 32.4293L93.5569 33.0531L93.9453 33.6574C94.0084 33.7565 94.0706 33.8548 94.1319 33.9523L94.4525 34.4665L94.7173 34.8987L94.9642 35.3093L95.1932 35.6981L95.4045 36.0652L95.5978 36.4105L95.7733 36.7342L95.931 37.0361L96.0708 37.3163C96.0926 37.3612 96.1137 37.4052 96.134 37.4482L96.1928 37.5748V5.97444C96.1928 4.92894 95.8908 4.04026 95.2867 3.30841C94.7162 2.61722 94.0159 2.25242 93.186 2.21402L93.0382 2.21063H89.4808V1.58333H103.996V2.21063H99.9515C99.0566 2.21063 98.3071 2.57656 97.703 3.30841C97.1345 3.99721 96.8335 4.82493 96.8 5.79157L96.7969 5.97444V56.4722H96.1928C95.1636 56.4722 93.8436 55.8188 92.2327 54.5119C91.2662 53.7278 90.2999 52.8072 89.2611 51.7502L88.7353 51.2103L88.1954 50.6477L87.6393 50.0624L87.0652 49.4543C85.1187 47.3894 83.0715 45.024 80.9237 42.3579C78.7758 39.6919 76.6727 36.9736 74.6144 34.203C74.3095 33.7979 74.0035 33.3893 73.6962 32.9772L72.7707 31.7306C72.4609 31.3115 72.15 30.8891 71.8378 30.4631L70.8976 29.1748L69.95 27.8657C69.7915 27.6458 69.6327 27.425 69.4735 27.2033L68.5149 25.8629L67.549 24.5017C67.3875 24.2731 67.2255 24.0437 67.0633 23.8133L66.0864 22.4209L65.1022 21.0076L64.1106 19.5735C63.7788 19.092 63.4458 18.6071 63.1116 18.1186L62.1054 16.6429L61.0917 15.1463L60.0708 13.6289L59.0425 12.0906V52.0811C59.0425 53.1266 59.3445 54.0153 59.9486 54.7471C60.5191 55.4383 61.2194 55.8031 62.0493 55.8415L62.1971 55.8449H65.7545V56.4722H51.7935V55.8449H55.2838C56.1787 55.8449 56.9394 55.479 57.5658 54.7471C58.1554 54.0583 58.4676 53.2306 58.5023 52.264L58.5055 52.0811V11.5417L55.7536 8.24841C54.7244 7.09836 53.7512 6.13127 52.8339 5.34714C51.9166 4.56302 51.0999 3.93571 50.384 3.46524C49.6518 2.94249 48.9565 2.54934 48.2983 2.28581L48.1019 2.21063V1.58333H62.5999ZM214.973 17.2021C215.294 16.9933 215.66 16.8889 216.073 16.8889C216.852 16.8889 217.596 17.2152 218.307 17.8677C219.017 18.5203 219.601 19.2381 220.059 20.0212C220.884 21.483 221.365 23.6495 221.503 26.5208C221.64 29.3921 221.709 32.5245 221.709 35.9179C221.709 37.1155 221.699 38.2725 221.679 39.3889L221.656 40.4917C221.634 41.3994 221.605 42.2789 221.568 43.1302L221.522 44.1382C221.505 44.4697 221.487 44.7967 221.469 45.1191C221.308 47.8599 220.816 49.9612 219.991 51.4229C219.922 51.5404 219.845 51.667 219.76 51.8029L219.58 52.0867C219.56 52.1172 219.54 52.1481 219.52 52.1794C219.507 52.1987 219.494 52.2182 219.482 52.2378L219.269 52.5584C218.971 53.0022 218.616 53.4459 218.203 53.8897C217.791 54.3334 217.333 54.6988 216.829 54.986C216.325 55.2731 215.798 55.4167 215.248 55.4167C214.835 55.4167 214.526 55.3123 214.32 55.1034L213.254 54.0071C212.888 53.5895 212.578 53.0674 212.326 52.4409C212.074 51.8145 211.879 51.188 211.742 50.5615C211.33 48.9432 211.123 47.2204 211.123 45.3932V27.9304L211.127 27.3071C211.138 26.4801 211.171 25.6699 211.226 24.8764C211.295 23.8844 211.467 22.9447 211.742 22.0572C211.971 21.3264 212.223 20.6346 212.498 19.9821C212.773 19.3295 213.163 18.7683 213.667 18.2984L213.932 18.0505C213.975 18.0113 214.017 17.9732 214.058 17.9363L214.294 17.7274C214.559 17.499 214.786 17.3239 214.973 17.2021Z" fill="white"/>
<defs>
<linearGradient id="paint0_linear" x1="-10.1062" y1="33.2257" x2="36.5077" y2="53.6493" gradientUnits="userSpaceOnUse">
<stop stop-color="#18D3FD"/>
<stop offset="1" stop-color="#DE04FF"/>
</linearGradient>
</defs>
</svg>
