<svg xmlns="http://www.w3.org/2000/svg" xmlns:xlink="http://www.w3.org/1999/xlink" viewBox="0 0 896 677"><defs><style>.cls-1{fill:url(#linear-gradient);}.cls-2{fill:url(#linear-gradient-2);}.cls-3{fill:url(#linear-gradient-3);}.cls-4{fill:url(#linear-gradient-4);}.cls-5{fill:url(#linear-gradient-5);}.cls-6{fill:url(#linear-gradient-6);}.cls-7{fill:url(#linear-gradient-7);}.cls-8{fill:url(#linear-gradient-8);}.cls-9{fill:url(#linear-gradient-9);}.cls-10{fill:url(#linear-gradient-10);}.cls-11{fill:url(#linear-gradient-11);}.cls-12{fill:url(#linear-gradient-12);}.cls-13{fill:url(#linear-gradient-13);}.cls-14{fill:url(#linear-gradient-14);}.cls-15{fill:url(#linear-gradient-15);}.cls-16{fill:url(#linear-gradient-16);}.cls-17{fill:url(#linear-gradient-17);}.cls-18{fill:url(#linear-gradient-18);}.cls-19{fill:url(#linear-gradient-19);}.cls-20{fill:url(#linear-gradient-20);}.cls-21{fill:url(#linear-gradient-21);}.cls-22{fill:url(#linear-gradient-22);}.cls-23{fill:url(#linear-gradient-23);}.cls-24{fill:url(#linear-gradient-24);}.cls-25{fill:url(#linear-gradient-25);}.cls-26{fill:url(#linear-gradient-26);}.cls-27{fill:url(#linear-gradient-27);}.cls-28{fill:url(#linear-gradient-28);}.cls-29{fill:url(#linear-gradient-29);}.cls-30{fill:url(#linear-gradient-30);}.cls-31{fill:url(#linear-gradient-31);}.cls-32{fill:url(#linear-gradient-32);}.cls-33{fill:url(#linear-gradient-33);}.cls-34{fill:url(#linear-gradient-34);}.cls-35{fill:url(#linear-gradient-35);}.cls-36{fill:url(#linear-gradient-36);}.cls-37{fill:url(#linear-gradient-37);}.cls-38{fill:url(#linear-gradient-38);}.cls-39{fill:url(#linear-gradient-39);}.cls-40{fill:url(#linear-gradient-40);}.cls-41{fill:url(#linear-gradient-41);}.cls-42{fill:url(#linear-gradient-42);}.cls-43{fill:url(#linear-gradient-43);}.cls-44{fill:url(#linear-gradient-44);}.cls-45{fill:url(#linear-gradient-45);}.cls-46{fill:url(#linear-gradient-46);}.cls-47{fill:url(#linear-gradient-47);}.cls-48{fill:url(#linear-gradient-48);}.cls-49{fill:url(#linear-gradient-49);}.cls-50{fill:url(#linear-gradient-50);}.cls-51{fill:url(#linear-gradient-51);}.cls-52{fill:url(#linear-gradient-52);}.cls-53{fill:url(#linear-gradient-53);}.cls-54{fill:url(#linear-gradient-54);}.cls-55{fill:url(#linear-gradient-55);}.cls-56{fill:url(#linear-gradient-56);}.cls-57{fill:url(#linear-gradient-57);}.cls-58{fill:url(#linear-gradient-58);}.cls-59{fill:url(#linear-gradient-59);}.cls-60{fill:url(#linear-gradient-60);}.cls-61{fill:url(#linear-gradient-61);}.cls-62{fill:url(#linear-gradient-62);}.cls-63{fill:url(#linear-gradient-63);}.cls-64{fill:url(#linear-gradient-64);}.cls-65{fill:url(#linear-gradient-65);}.cls-66{fill:url(#linear-gradient-66);}.cls-67{fill:url(#linear-gradient-67);}.cls-68{fill:url(#linear-gradient-68);}.cls-69{fill:url(#linear-gradient-69);}.cls-70{fill:url(#linear-gradient-70);}.cls-71{fill:url(#linear-gradient-71);}.cls-72{fill:url(#linear-gradient-72);}.cls-73{fill:url(#linear-gradient-73);}.cls-74{fill:url(#linear-gradient-74);}.cls-75{fill:url(#linear-gradient-75);}.cls-76{fill:url(#linear-gradient-76);}.cls-77{fill:url(#linear-gradient-77);}.cls-78{fill:url(#linear-gradient-78);}.cls-79{fill:url(#linear-gradient-79);}.cls-80{fill:url(#linear-gradient-80);}.cls-81{fill:url(#linear-gradient-81);}.cls-82{fill:url(#linear-gradient-82);}.cls-83{fill:url(#linear-gradient-83);}.cls-84{fill:url(#linear-gradient-84);}.cls-85{fill:url(#linear-gradient-85);}.cls-86{fill:url(#linear-gradient-86);}.cls-87{fill:url(#linear-gradient-87);}.cls-88{fill:url(#linear-gradient-88);}.cls-89{fill:url(#linear-gradient-89);}.cls-90{fill:url(#linear-gradient-90);}.cls-91{fill:url(#linear-gradient-91);}.cls-92{fill:url(#linear-gradient-92);}.cls-93{fill:url(#linear-gradient-93);}.cls-94{fill:url(#linear-gradient-94);}.cls-95{fill:url(#linear-gradient-95);}.cls-96{fill:url(#linear-gradient-96);}.cls-97{fill:url(#linear-gradient-97);}.cls-98{fill:url(#linear-gradient-98);}.cls-99{font-size:18.18px;font-family:MyriadPro-Bold, Myriad Pro;font-weight:700;}.cls-100,.cls-99{fill:#fff;}.cls-101{fill:url(#linear-gradient-99);}.cls-102{fill:url(#linear-gradient-100);}.cls-103{fill:url(#linear-gradient-101);}.cls-104{fill:url(#linear-gradient-102);}.cls-105{fill:url(#linear-gradient-103);}.cls-106{fill:url(#linear-gradient-104);}.cls-107{fill:url(#linear-gradient-105);}.cls-108{fill:url(#linear-gradient-106);}.cls-109{fill:url(#linear-gradient-107);}.cls-110{fill:none;}</style><linearGradient id="linear-gradient" x1="387.67" y1="369.66" x2="267.95" y2="214.98" gradientUnits="userSpaceOnUse"><stop offset="0" stop-color="#b17f49"/><stop offset="1" stop-color="#925f36"/></linearGradient><linearGradient id="linear-gradient-2" x1="439.01" y1="335.53" x2="199.57" y2="296.42" gradientUnits="userSpaceOnUse"><stop offset="0" stop-color="#be16ff"/><stop offset="1" stop-color="#662482"/></linearGradient><linearGradient id="linear-gradient-3" x1="224.42" y1="353.96" x2="406.96" y2="462.42" gradientUnits="userSpaceOnUse"><stop offset="0" stop-color="#c40d7d"/><stop offset="1" stop-color="#ea4e96"/></linearGradient><linearGradient id="linear-gradient-4" x1="502.93" y1="403.55" x2="346.46" y2="533.93" gradientUnits="userSpaceOnUse"><stop offset="0" stop-color="#11b7c6"/><stop offset="0.99" stop-color="#ccfb87"/></linearGradient><linearGradient id="linear-gradient-5" x1="464.17" y1="544.41" x2="629.33" y2="217.25" gradientUnits="userSpaceOnUse"><stop offset="0" stop-color="#e64613"/><stop offset="1" stop-color="#df9129"/></linearGradient><linearGradient id="linear-gradient-6" x1="600.29" y1="239.84" x2="491.84" y2="236.88" gradientUnits="userSpaceOnUse"><stop offset="0" stop-color="#941b80"/><stop offset="1" stop-color="#e8457a"/></linearGradient><linearGradient id="linear-gradient-7" x1="426.38" y1="291.16" x2="605.37" y2="125.21" gradientUnits="userSpaceOnUse"><stop offset="0" stop-color="#57c3ab"/><stop offset="0.17" stop-color="#40ce8c"/><stop offset="0.42" stop-color="#24db66"/><stop offset="0.65" stop-color="#10e54b"/><stop offset="0.85" stop-color="#04eb3b"/><stop offset="1" stop-color="#00ed35"/></linearGradient><linearGradient id="linear-gradient-8" x1="511.5" y1="118.55" x2="445.05" y2="203.22" gradientUnits="userSpaceOnUse"><stop offset="0" stop-color="#edb900"/><stop offset="1" stop-color="#d6c739"/></linearGradient><linearGradient id="linear-gradient-9" x1="467.26" y1="212.9" x2="263.97" y2="167.27" gradientUnits="userSpaceOnUse"><stop offset="0" stop-color="#0096d4"/><stop offset="1" stop-color="#1545ff"/></linearGradient><linearGradient id="linear-gradient-10" x1="144.66" y1="69.44" x2="320.09" y2="28.54" xlink:href="#linear-gradient-9"/><linearGradient id="linear-gradient-11" x1="145.74" y1="74.06" x2="321.17" y2="33.17" xlink:href="#linear-gradient-9"/><linearGradient id="linear-gradient-12" x1="146.23" y1="76.19" x2="321.67" y2="35.29" xlink:href="#linear-gradient-9"/><linearGradient id="linear-gradient-13" x1="146.88" y1="78.96" x2="322.31" y2="38.06" xlink:href="#linear-gradient-9"/><linearGradient id="linear-gradient-14" x1="147.53" y1="81.72" x2="322.96" y2="40.83" xlink:href="#linear-gradient-9"/><linearGradient id="linear-gradient-15" x1="148.33" y1="85.19" x2="323.77" y2="44.3" xlink:href="#linear-gradient-9"/><linearGradient id="linear-gradient-16" x1="149.4" y1="89.77" x2="324.83" y2="48.87" xlink:href="#linear-gradient-9"/><linearGradient id="linear-gradient-17" x1="149.27" y1="89.2" x2="324.7" y2="48.31" xlink:href="#linear-gradient-9"/><linearGradient id="linear-gradient-18" x1="150.46" y1="94.3" x2="325.89" y2="53.4" xlink:href="#linear-gradient-9"/><linearGradient id="linear-gradient-19" x1="151.1" y1="97.07" x2="326.53" y2="56.17" xlink:href="#linear-gradient-9"/><linearGradient id="linear-gradient-20" x1="151.39" y1="98.28" x2="326.82" y2="57.39" xlink:href="#linear-gradient-9"/><linearGradient id="linear-gradient-21" x1="465.62" y1="35.44" x2="580.3" y2="25.36" xlink:href="#linear-gradient-8"/><linearGradient id="linear-gradient-22" x1="465.9" y1="38.62" x2="580.58" y2="28.55" xlink:href="#linear-gradient-8"/><linearGradient id="linear-gradient-23" x1="465.99" y1="39.62" x2="580.67" y2="29.54" xlink:href="#linear-gradient-8"/><linearGradient id="linear-gradient-24" x1="465.88" y1="38.41" x2="580.57" y2="28.34" xlink:href="#linear-gradient-8"/><linearGradient id="linear-gradient-25" x1="466.03" y1="40.11" x2="580.72" y2="30.04" xlink:href="#linear-gradient-8"/><linearGradient id="linear-gradient-26" x1="466.31" y1="43.22" x2="580.99" y2="33.14" xlink:href="#linear-gradient-8"/><linearGradient id="linear-gradient-27" x1="466.4" y1="44.31" x2="581.08" y2="34.23" xlink:href="#linear-gradient-8"/><linearGradient id="linear-gradient-28" x1="466.5" y1="45.4" x2="581.18" y2="35.32" xlink:href="#linear-gradient-8"/><linearGradient id="linear-gradient-29" x1="466.4" y1="44.29" x2="581.08" y2="34.22" xlink:href="#linear-gradient-8"/><linearGradient id="linear-gradient-30" x1="754.38" y1="84.1" x2="594.95" y2="82.32" xlink:href="#linear-gradient-7"/><linearGradient id="linear-gradient-31" x1="754.36" y1="86.05" x2="594.93" y2="84.27" xlink:href="#linear-gradient-7"/><linearGradient id="linear-gradient-32" x1="754.38" y1="83.95" x2="594.95" y2="82.17" xlink:href="#linear-gradient-7"/><linearGradient id="linear-gradient-33" x1="754.36" y1="86" x2="594.93" y2="84.22" xlink:href="#linear-gradient-7"/><linearGradient id="linear-gradient-34" x1="754.36" y1="85.91" x2="594.93" y2="84.13" xlink:href="#linear-gradient-7"/><linearGradient id="linear-gradient-35" x1="754.38" y1="84.32" x2="594.95" y2="82.55" xlink:href="#linear-gradient-7"/><linearGradient id="linear-gradient-36" x1="754.36" y1="85.68" x2="594.93" y2="83.9" xlink:href="#linear-gradient-7"/><linearGradient id="linear-gradient-37" x1="754.39" y1="83.32" x2="594.96" y2="81.54" xlink:href="#linear-gradient-7"/><linearGradient id="linear-gradient-38" x1="754.37" y1="85.37" x2="594.94" y2="83.59" xlink:href="#linear-gradient-7"/><linearGradient id="linear-gradient-39" x1="754.37" y1="85.33" x2="594.94" y2="83.56" xlink:href="#linear-gradient-7"/><linearGradient id="linear-gradient-40" x1="754.37" y1="84.99" x2="594.94" y2="83.21" xlink:href="#linear-gradient-7"/><linearGradient id="linear-gradient-41" x1="754.4" y1="82.49" x2="594.97" y2="80.71" xlink:href="#linear-gradient-7"/><linearGradient id="linear-gradient-42" x1="925.42" y1="166.54" x2="748.41" y2="158.64" xlink:href="#linear-gradient-6"/><linearGradient id="linear-gradient-43" x1="925.35" y1="168.16" x2="748.33" y2="160.26" xlink:href="#linear-gradient-6"/><linearGradient id="linear-gradient-44" x1="925.48" y1="165.17" x2="748.47" y2="157.27" xlink:href="#linear-gradient-6"/><linearGradient id="linear-gradient-45" x1="925.51" y1="164.59" x2="748.49" y2="156.69" xlink:href="#linear-gradient-6"/><linearGradient id="linear-gradient-46" x1="925.5" y1="164.77" x2="748.49" y2="156.86" xlink:href="#linear-gradient-6"/><linearGradient id="linear-gradient-47" x1="925.42" y1="166.5" x2="748.41" y2="158.6" xlink:href="#linear-gradient-6"/><linearGradient id="linear-gradient-48" x1="925.54" y1="163.75" x2="748.53" y2="155.84" xlink:href="#linear-gradient-6"/><linearGradient id="linear-gradient-49" x1="925.47" y1="165.3" x2="748.46" y2="157.4" xlink:href="#linear-gradient-6"/><linearGradient id="linear-gradient-50" x1="925.5" y1="164.79" x2="748.48" y2="156.88" xlink:href="#linear-gradient-6"/><linearGradient id="linear-gradient-51" x1="925.53" y1="164.14" x2="748.51" y2="156.24" xlink:href="#linear-gradient-6"/><linearGradient id="linear-gradient-52" x1="925.66" y1="161.1" x2="748.65" y2="153.2" xlink:href="#linear-gradient-6"/><linearGradient id="linear-gradient-53" x1="925.65" y1="161.34" x2="748.64" y2="153.43" xlink:href="#linear-gradient-6"/><linearGradient id="linear-gradient-54" x1="925.68" y1="160.71" x2="748.67" y2="152.81" xlink:href="#linear-gradient-6"/><linearGradient id="linear-gradient-55" x1="925.69" y1="160.36" x2="748.68" y2="152.46" xlink:href="#linear-gradient-6"/><linearGradient id="linear-gradient-56" x1="925.73" y1="159.57" x2="748.72" y2="151.67" xlink:href="#linear-gradient-6"/><linearGradient id="linear-gradient-57" x1="695.49" y1="468.62" x2="860.85" y2="424.17" xlink:href="#linear-gradient-5"/><linearGradient id="linear-gradient-58" x1="696.17" y1="471.13" x2="861.52" y2="426.68" xlink:href="#linear-gradient-5"/><linearGradient id="linear-gradient-59" x1="697.42" y1="475.81" x2="862.78" y2="431.36" xlink:href="#linear-gradient-5"/><linearGradient id="linear-gradient-60" x1="698.4" y1="479.43" x2="863.75" y2="434.98" xlink:href="#linear-gradient-5"/><linearGradient id="linear-gradient-61" x1="698.5" y1="479.82" x2="863.86" y2="435.37" xlink:href="#linear-gradient-5"/><linearGradient id="linear-gradient-62" x1="698.87" y1="481.18" x2="864.22" y2="436.73" xlink:href="#linear-gradient-5"/><linearGradient id="linear-gradient-63" x1="699.82" y1="484.7" x2="865.17" y2="440.25" xlink:href="#linear-gradient-5"/><linearGradient id="linear-gradient-64" x1="700.33" y1="486.62" x2="865.69" y2="442.17" xlink:href="#linear-gradient-5"/><linearGradient id="linear-gradient-65" x1="700.59" y1="487.6" x2="865.95" y2="443.15" xlink:href="#linear-gradient-5"/><linearGradient id="linear-gradient-66" x1="701.91" y1="492.51" x2="867.27" y2="448.06" xlink:href="#linear-gradient-5"/><linearGradient id="linear-gradient-67" x1="702.39" y1="494.29" x2="867.75" y2="449.84" xlink:href="#linear-gradient-5"/><linearGradient id="linear-gradient-68" x1="703.15" y1="497.1" x2="868.5" y2="452.65" xlink:href="#linear-gradient-5"/><linearGradient id="linear-gradient-69" x1="312.55" y1="636.62" x2="440.56" y2="608.76" xlink:href="#linear-gradient-4"/><linearGradient id="linear-gradient-70" x1="312.9" y1="638.23" x2="440.91" y2="610.37" xlink:href="#linear-gradient-4"/><linearGradient id="linear-gradient-71" x1="314.26" y1="644.5" x2="442.28" y2="616.64" xlink:href="#linear-gradient-4"/><linearGradient id="linear-gradient-72" x1="314.31" y1="644.71" x2="442.33" y2="616.86" xlink:href="#linear-gradient-4"/><linearGradient id="linear-gradient-73" x1="314.28" y1="644.58" x2="442.3" y2="616.72" xlink:href="#linear-gradient-4"/><linearGradient id="linear-gradient-74" x1="314.76" y1="646.78" x2="442.78" y2="618.93" xlink:href="#linear-gradient-4"/><linearGradient id="linear-gradient-75" x1="315.1" y1="648.34" x2="443.11" y2="620.49" xlink:href="#linear-gradient-4"/><linearGradient id="linear-gradient-76" x1="315.57" y1="650.49" x2="443.58" y2="622.64" xlink:href="#linear-gradient-4"/><linearGradient id="linear-gradient-77" x1="316.55" y1="655.03" x2="444.57" y2="627.17" xlink:href="#linear-gradient-4"/><linearGradient id="linear-gradient-78" x1="109.91" y1="504.04" x2="213.62" y2="493.96" xlink:href="#linear-gradient-3"/><linearGradient id="linear-gradient-79" x1="110.23" y1="507.38" x2="213.95" y2="497.3" xlink:href="#linear-gradient-3"/><linearGradient id="linear-gradient-80" x1="110.33" y1="508.45" x2="214.05" y2="498.37" xlink:href="#linear-gradient-3"/><linearGradient id="linear-gradient-81" x1="110.47" y1="509.84" x2="214.19" y2="499.76" xlink:href="#linear-gradient-3"/><linearGradient id="linear-gradient-82" x1="144.1" y1="295.84" x2="0.67" y2="279.83" xlink:href="#linear-gradient-2"/><linearGradient id="linear-gradient-83" x1="144.35" y1="293.63" x2="0.92" y2="277.63" xlink:href="#linear-gradient-2"/><linearGradient id="linear-gradient-84" x1="144.23" y1="294.7" x2="0.8" y2="278.7" xlink:href="#linear-gradient-2"/><linearGradient id="linear-gradient-85" x1="144.53" y1="291.95" x2="1.11" y2="275.95" xlink:href="#linear-gradient-2"/><linearGradient id="linear-gradient-86" x1="144.39" y1="293.25" x2="0.96" y2="277.25" xlink:href="#linear-gradient-2"/><linearGradient id="linear-gradient-87" x1="144.52" y1="292.07" x2="1.09" y2="276.07" xlink:href="#linear-gradient-2"/><linearGradient id="linear-gradient-88" x1="144.66" y1="290.81" x2="1.23" y2="274.8" xlink:href="#linear-gradient-2"/><linearGradient id="linear-gradient-89" x1="144.74" y1="290.07" x2="1.32" y2="274.07" xlink:href="#linear-gradient-2"/><linearGradient id="linear-gradient-90" x1="191.53" y1="170" x2="32.1" y2="155.18" xlink:href="#linear-gradient"/><linearGradient id="linear-gradient-91" x1="191.45" y1="170.8" x2="32.03" y2="155.99" xlink:href="#linear-gradient"/><linearGradient id="linear-gradient-92" x1="191.55" y1="169.73" x2="32.13" y2="154.91" xlink:href="#linear-gradient"/><linearGradient id="linear-gradient-93" x1="191.83" y1="166.75" x2="32.4" y2="151.94" xlink:href="#linear-gradient"/><linearGradient id="linear-gradient-94" x1="191.72" y1="167.99" x2="32.29" y2="153.17" xlink:href="#linear-gradient"/><linearGradient id="linear-gradient-95" x1="191.93" y1="165.65" x2="32.5" y2="150.83" xlink:href="#linear-gradient"/><linearGradient id="linear-gradient-96" x1="192.04" y1="164.47" x2="32.61" y2="149.65" xlink:href="#linear-gradient"/><linearGradient id="linear-gradient-97" x1="191.92" y1="165.79" x2="32.49" y2="150.98" xlink:href="#linear-gradient"/><linearGradient id="linear-gradient-98" x1="191.83" y1="166.78" x2="32.4" y2="151.96" xlink:href="#linear-gradient"/><linearGradient id="linear-gradient-99" x1="522.95" y1="52.28" x2="486.2" y2="119.06" gradientTransform="translate(402.34 -415.82) rotate(68.84)" xlink:href="#linear-gradient-8"/><linearGradient id="linear-gradient-100" x1="563.27" y1="123.84" x2="594.22" y2="123.84" gradientTransform="translate(448.78 -453.56) rotate(65.24)" xlink:href="#linear-gradient-7"/><linearGradient id="linear-gradient-101" x1="608.35" y1="-95.88" x2="668.06" y2="-95.88" gradientTransform="translate(64.17 -130.25) rotate(36.46)" gradientUnits="userSpaceOnUse"><stop offset="0" stop-color="#e8457a"/><stop offset="1" stop-color="#941b80"/></linearGradient><linearGradient id="linear-gradient-102" x1="629.42" y1="453.3" x2="699.81" y2="453.3" gradientTransform="translate(930.33 -306.03) rotate(74.99)" gradientUnits="userSpaceOnUse"><stop offset="0" stop-color="#df9129"/><stop offset="1" stop-color="#e64613"/></linearGradient><linearGradient id="linear-gradient-103" x1="382" y1="583.85" x2="399.12" y2="583.85" gradientTransform="translate(863.48 64.47) rotate(76.1)" xlink:href="#linear-gradient-4"/><linearGradient id="linear-gradient-104" x1="186.8" y1="480.86" x2="250.22" y2="480.86" gradientTransform="translate(325.36 -36.4) rotate(36.11)" xlink:href="#linear-gradient-3"/><linearGradient id="linear-gradient-105" x1="136.2" y1="293.05" x2="213.71" y2="293.05" gradientTransform="translate(447.32 87.38) rotate(83.78)" gradientUnits="userSpaceOnUse"><stop offset="0" stop-color="#662482"/><stop offset="1" stop-color="#be16ff"/></linearGradient><linearGradient id="linear-gradient-106" x1="186.63" y1="184.66" x2="252.84" y2="184.66" gradientTransform="translate(264.6 -98.83) rotate(58.95)" gradientUnits="userSpaceOnUse"><stop offset="0" stop-color="#925f36"/><stop offset="1" stop-color="#b17f49"/></linearGradient><linearGradient id="linear-gradient-107" x1="332.36" y1="92.37" x2="362.77" y2="92.37" gradientTransform="translate(70.77 -137.23) rotate(24.79)" gradientUnits="userSpaceOnUse"><stop offset="0" stop-color="#1545ff"/><stop offset="1" stop-color="#0096d4"/></linearGradient></defs><g id="Layer_2" data-name="Layer 2"><g id="Layer_1-2" data-name="Layer 1"><path class="cls-1" d="M394.54,290.75A2.83,2.83,0,0,0,395,287L304.55,162.8a2.87,2.87,0,0,0-4.08-.58,215.71,215.71,0,0,0-72,99.12,2.86,2.86,0,0,0,1.82,3.69l146,47.49a2.66,2.66,0,0,0,.88.14,2.8,2.8,0,0,0,2.6-1.7A57.59,57.59,0,0,1,394.54,290.75Z"/><path class="cls-2" d="M375.79,317.73,229.72,270.38a3,3,0,0,0-.89-.14,2.89,2.89,0,0,0-2.75,2.07,215.94,215.94,0,0,0-8.78,55.47,2.89,2.89,0,0,0,2.87,3l153.56.06a2.81,2.81,0,0,0,2.83-2.56,58.14,58.14,0,0,1,1.14-7.19A2.83,2.83,0,0,0,375.79,317.73Z"/><path class="cls-3" d="M376.56,338.81a2.85,2.85,0,0,0-2.83-2.54h0l-153.55.09a2.83,2.83,0,0,0-2,.87,2.86,2.86,0,0,0-.82,2.09A216.12,216.12,0,0,0,361.18,537.24a2.9,2.9,0,0,0,3.7-1.82l47.46-146a2.84,2.84,0,0,0-1.57-3.49A56.93,56.93,0,0,1,376.56,338.81Z"/><path class="cls-4" d="M428.06,390.3a56.29,56.29,0,0,1-7.19-1.13,2.7,2.7,0,0,0-.63-.07,2.83,2.83,0,0,0-2.7,2L370.23,537.16a2.87,2.87,0,0,0,1.93,3.64,215.85,215.85,0,0,0,55.47,8.76h.08a2.87,2.87,0,0,0,2.87-2.87l0-153.55A2.84,2.84,0,0,0,428.06,390.3Z"/><path class="cls-5" d="M436.09,393.14l.12,153.55a2.88,2.88,0,0,0,2.88,2.87h.08A216.11,216.11,0,0,0,611.48,211.19a2.89,2.89,0,0,0-2.39-1.26,2.81,2.81,0,0,0-1.67.55L483.16,300.7a2.83,2.83,0,0,0-.78,3.76,57,57,0,0,1-43.75,85.84A2.84,2.84,0,0,0,436.09,393.14Z"/><path class="cls-6" d="M585.33,179.9a2.91,2.91,0,0,0-2-.84,2.85,2.85,0,0,0-2.09.9l-105.11,112a2.86,2.86,0,0,0,0,3.85l.07.08a2.9,2.9,0,0,0,2.15,1,2.8,2.8,0,0,0,1.67-.54l124.18-90.35a2.85,2.85,0,0,0,1.15-1.91,2.89,2.89,0,0,0-.57-2.18A219.13,219.13,0,0,0,585.33,179.9Z"/><path class="cls-7" d="M542.4,147a2.88,2.88,0,0,0-1.46-.39,2.84,2.84,0,0,0-2.51,1.48l-74,134.56a2.84,2.84,0,0,0,.85,3.7c1,.7,2.05,1.44,3,2.21a2.7,2.7,0,0,0,1.69.58,2.91,2.91,0,0,0,2.1-.92l105-112.07a2.84,2.84,0,0,0,.77-2.08,2.92,2.92,0,0,0-1-2A216.86,216.86,0,0,0,542.4,147Z"/><path class="cls-8" d="M532.27,141.4A217.45,217.45,0,0,0,439,117.49h-.08a2.87,2.87,0,0,0-2.88,2.87l0,152.71a3.77,3.77,0,0,0,3.37,3.76A56.71,56.71,0,0,1,456,281.22a2.78,2.78,0,0,0,1.1.23,2.87,2.87,0,0,0,2.5-1.49l73.85-134.62a2.8,2.8,0,0,0,.23-2.21A2.86,2.86,0,0,0,532.27,141.4Z"/><path class="cls-9" d="M430.54,273.92l-.21-153.55a2.88,2.88,0,0,0-2.88-2.87h-.08a215.64,215.64,0,0,0-116.45,37.93,2.87,2.87,0,0,0-.7,4.06l90.27,124.23a2.83,2.83,0,0,0,3.75.78A56.34,56.34,0,0,1,428,276.76,2.84,2.84,0,0,0,430.54,273.92Z"/><path class="cls-10" d="M194.94,59H189v5.51h6.63v1.66H187V50.91h8.26v1.66H189V57.4h5.95Z"/><path class="cls-11" d="M205.85,65.8a7.38,7.38,0,0,1-3.16.64,5.22,5.22,0,0,1-5.47-5.61,5.58,5.58,0,0,1,5.9-5.83,6.72,6.72,0,0,1,2.77.56l-.45,1.55a4.69,4.69,0,0,0-2.32-.52c-2.51,0-3.88,1.86-3.88,4.15a3.77,3.77,0,0,0,3.82,4.11,5.68,5.68,0,0,0,2.45-.55Z"/><path class="cls-12" d="M218,60.63c0,4.06-2.81,5.83-5.46,5.83-3,0-5.27-2.18-5.27-5.65,0-3.68,2.41-5.84,5.45-5.84S218,57.27,218,60.63Zm-8.71.11c0,2.4,1.38,4.22,3.34,4.22s3.33-1.79,3.33-4.27c0-1.86-.93-4.22-3.29-4.22S209.27,58.65,209.27,60.74Z"/><path class="cls-13" d="M220.5,58.2c0-1.14,0-2.07-.09-3h1.77l.11,1.82h.05A4,4,0,0,1,226,55c1.52,0,3.88.91,3.88,4.68v6.56h-2V59.88c0-1.77-.66-3.25-2.54-3.25a2.84,2.84,0,0,0-2.68,2,2.9,2.9,0,0,0-.13.93v6.61h-2Z"/><path class="cls-14" d="M243,60.63c0,4.06-2.82,5.83-5.47,5.83-3,0-5.27-2.18-5.27-5.65,0-3.68,2.41-5.84,5.45-5.84S243,57.27,243,60.63Zm-8.72.11c0,2.4,1.39,4.22,3.34,4.22S241,63.17,241,60.69c0-1.86-.93-4.22-3.29-4.22S234.31,58.65,234.31,60.74Z"/><path class="cls-15" d="M245.54,58.2c0-1.14,0-2.07-.09-3h1.75l.09,1.77h.07a3.79,3.79,0,0,1,3.45-2,3.26,3.26,0,0,1,3.11,2.21h0a4.37,4.37,0,0,1,1.23-1.43,3.72,3.72,0,0,1,2.42-.78c1.46,0,3.61,1,3.61,4.77v6.47h-2V60c0-2.11-.77-3.38-2.38-3.38a2.58,2.58,0,0,0-2.36,1.81,3.38,3.38,0,0,0-.16,1v6.79h-2V59.63c0-1.75-.77-3-2.3-3a2.74,2.74,0,0,0-2.47,2,2.78,2.78,0,0,0-.16,1v6.63h-2Z"/><path class="cls-16" d="M264.89,55.22l2.41,6.5c.25.72.52,1.58.7,2.24h.05c.2-.66.43-1.5.7-2.29l2.18-6.45H273l-3,7.83c-1.43,3.77-2.4,5.7-3.77,6.88a5.38,5.38,0,0,1-2.45,1.29l-.5-1.68a5.09,5.09,0,0,0,1.75-1,5.9,5.9,0,0,0,1.68-2.23,1.43,1.43,0,0,0,.16-.47,1.75,1.75,0,0,0-.14-.52l-4.06-10.13Z"/><path class="cls-17" d="M279.72,50.91H288v1.66H281.7v5.08h5.79v1.64H281.7v6.92h-2Z"/><path class="cls-18" d="M299.1,63.21c0,1.14,0,2.14.09,3h-1.77l-.11-1.79h-.05a4.14,4.14,0,0,1-3.63,2c-1.72,0-3.79-.95-3.79-4.81V55.22h2v6.09c0,2.08.63,3.49,2.45,3.49A2.88,2.88,0,0,0,296.92,63a2.82,2.82,0,0,0,.18-1V55.22h2Z"/><path class="cls-19" d="M302.41,58.2c0-1.14,0-2.07-.09-3h1.77L304.2,57h.05A4,4,0,0,1,307.88,55c1.52,0,3.88.91,3.88,4.68v6.56h-2V59.88c0-1.77-.66-3.25-2.54-3.25a2.84,2.84,0,0,0-2.68,2,2.9,2.9,0,0,0-.13.93v6.61h-2Z"/><path class="cls-20" d="M324.49,50.1V63.37c0,1,0,2.09.09,2.84h-1.8l-.09-1.91h0a4.08,4.08,0,0,1-3.75,2.16c-2.65,0-4.7-2.25-4.7-5.59,0-3.65,2.25-5.9,4.93-5.9a3.68,3.68,0,0,1,3.31,1.68h.05V50.1Zm-2,9.6a3.43,3.43,0,0,0-.09-.84,2.94,2.94,0,0,0-2.89-2.32c-2.06,0-3.29,1.82-3.29,4.24,0,2.23,1.09,4.07,3.25,4.07a3,3,0,0,0,2.93-2.39,3.34,3.34,0,0,0,.09-.86Z"/><path class="cls-21" d="M465.59,40.33a6.93,6.93,0,0,0,3.54,1c2,0,3.2-1.07,3.2-2.61s-.82-2.25-2.88-3c-2.5-.89-4-2.18-4-4.34,0-2.38,2-4.15,4.94-4.15a6.88,6.88,0,0,1,3.38.75l-.54,1.61a6.13,6.13,0,0,0-2.9-.72c-2.09,0-2.89,1.24-2.89,2.29,0,1.43.93,2.13,3,2.95,2.59,1,3.91,2.24,3.91,4.49S472.6,43,469,43a8,8,0,0,1-3.9-1Z"/><path class="cls-22" d="M478.22,37.61A3.52,3.52,0,0,0,482,41.42a7.18,7.18,0,0,0,3-.57l.34,1.43a8.82,8.82,0,0,1-3.65.68c-3.38,0-5.4-2.22-5.4-5.53s1.95-5.93,5.15-5.93c3.58,0,4.54,3.16,4.54,5.18a8.09,8.09,0,0,1-.07.93Zm5.86-1.43c0-1.27-.52-3.25-2.77-3.25-2,0-2.9,1.86-3.06,3.25Z"/><path class="cls-23" d="M489.59,37.61a3.51,3.51,0,0,0,3.76,3.81,7.2,7.2,0,0,0,3-.57l.34,1.43a8.91,8.91,0,0,1-3.66.68c-3.38,0-5.4-2.22-5.4-5.53s1.95-5.93,5.15-5.93c3.59,0,4.54,3.16,4.54,5.18a6.3,6.3,0,0,1-.07.93Zm5.85-1.43c0-1.27-.52-3.25-2.77-3.25-2,0-2.9,1.86-3.06,3.25Z"/><path class="cls-24" d="M509.33,26.62V39.9c0,1,0,2.09.09,2.84h-1.8l-.09-1.91h0A4.06,4.06,0,0,1,503.74,43c-2.65,0-4.69-2.25-4.69-5.59,0-3.65,2.24-5.9,4.92-5.9a3.68,3.68,0,0,1,3.31,1.68h.05V26.62Zm-2,9.6a3.43,3.43,0,0,0-.09-.84,2.94,2.94,0,0,0-2.88-2.31c-2.07,0-3.29,1.81-3.29,4.24,0,2.23,1.08,4.07,3.24,4.07A3,3,0,0,0,507.24,39a3.34,3.34,0,0,0,.09-.86Z"/><path class="cls-25" d="M517.51,27.65a20.08,20.08,0,0,1,3.79-.32c2.11,0,3.47.38,4.43,1.25a3.8,3.8,0,0,1,1.2,2.9,4,4,0,0,1-2.88,3.9v.07c1.18.41,1.88,1.5,2.24,3.09a25.32,25.32,0,0,0,1.18,4.2h-2a19.72,19.72,0,0,1-1-3.66c-.45-2.11-1.27-2.9-3.06-3h-1.87v6.63h-2Zm2,7h2c2.11,0,3.44-1.15,3.44-2.9,0-2-1.43-2.84-3.51-2.86a8.25,8.25,0,0,0-2,.18Z"/><path class="cls-26" d="M539.68,37.15c0,4.07-2.82,5.84-5.47,5.84-3,0-5.27-2.18-5.27-5.65,0-3.68,2.41-5.84,5.45-5.84S539.68,33.8,539.68,37.15Zm-8.72.12c0,2.4,1.39,4.22,3.34,4.22s3.34-1.79,3.34-4.27c0-1.86-.94-4.22-3.3-4.22S531,35.18,531,37.27Z"/><path class="cls-27" d="M551.38,39.74c0,1.14,0,2.14.09,3H549.7l-.11-1.8h-.05A4.12,4.12,0,0,1,545.91,43c-1.72,0-3.79-1-3.79-4.81V31.75h2v6.08c0,2.09.63,3.5,2.45,3.5a2.88,2.88,0,0,0,2.63-1.82,2.73,2.73,0,0,0,.18-1V31.75h2Z"/><path class="cls-28" d="M554.69,34.73c0-1.14,0-2.07-.09-3h1.77l.11,1.82h0a4,4,0,0,1,3.63-2.07c1.52,0,3.88.91,3.88,4.68v6.56h-2V36.41c0-1.77-.66-3.25-2.54-3.25a2.84,2.84,0,0,0-2.68,2,2.89,2.89,0,0,0-.14.93v6.61h-2Z"/><path class="cls-29" d="M576.76,26.62V39.9c0,1,0,2.09.1,2.84h-1.8L575,40.83h0A4.08,4.08,0,0,1,571.18,43c-2.65,0-4.7-2.25-4.7-5.59,0-3.65,2.25-5.9,4.93-5.9a3.68,3.68,0,0,1,3.31,1.68h0V26.62Zm-2,9.6a4,4,0,0,0-.09-.84,3,3,0,0,0-2.89-2.31c-2.06,0-3.29,1.81-3.29,4.24,0,2.23,1.09,4.07,3.25,4.07A3,3,0,0,0,574.68,39a3.85,3.85,0,0,0,.09-.86Z"/><path class="cls-30" d="M598.06,75a22.63,22.63,0,0,1,3.79-.3,6.33,6.33,0,0,1,4.29,1.27,4.12,4.12,0,0,1,1.34,3.2,4.5,4.5,0,0,1-1.18,3.27,6.37,6.37,0,0,1-4.68,1.68A7.06,7.06,0,0,1,600,84v6.12h-2Zm2,7.37a6.35,6.35,0,0,0,1.64.16c2.38,0,3.83-1.15,3.83-3.26s-1.43-3-3.61-3a8.32,8.32,0,0,0-1.86.16Z"/><path class="cls-31" d="M609.69,82.53c0-1.3,0-2.41-.09-3.43h1.75l.07,2.16h.09a3.29,3.29,0,0,1,3-2.41,2,2,0,0,1,.57.07V80.8a3.39,3.39,0,0,0-.68-.07,2.8,2.8,0,0,0-2.68,2.57,6.24,6.24,0,0,0-.09.93v5.85h-2Z"/><path class="cls-32" d="M619.43,76A1.24,1.24,0,0,1,617,76a1.22,1.22,0,0,1,1.25-1.25A1.19,1.19,0,0,1,619.43,76ZM617.2,90.08v-11h2v11Z"/><path class="cls-33" d="M623.28,79.1l2.16,6.17c.36,1,.65,1.91.88,2.82h.07c.25-.91.57-1.82.93-2.82l2.13-6.17h2.09l-4.31,11h-1.91l-4.17-11Z"/><path class="cls-34" d="M639.41,90.08l-.16-1.38h-.06a4.12,4.12,0,0,1-3.36,1.63,3.12,3.12,0,0,1-3.36-3.15c0-2.66,2.36-4.11,6.6-4.09v-.22a2.27,2.27,0,0,0-2.5-2.55,5.43,5.43,0,0,0-2.85.82l-.46-1.31a6.84,6.84,0,0,1,3.61-1c3.36,0,4.18,2.29,4.18,4.49v4.11a15.09,15.09,0,0,0,.18,2.63Zm-.29-5.6c-2.18,0-4.66.34-4.66,2.47a1.77,1.77,0,0,0,1.89,1.91A2.72,2.72,0,0,0,639,87a2,2,0,0,0,.12-.64Z"/><path class="cls-35" d="M646.58,75.94V79.1h2.86v1.52h-2.86v5.92c0,1.36.38,2.14,1.5,2.14a4.28,4.28,0,0,0,1.15-.14l.09,1.5a4.82,4.82,0,0,1-1.77.27,2.74,2.74,0,0,1-2.15-.84,4.06,4.06,0,0,1-.77-2.86v-6h-1.71V79.1h1.71V76.47Z"/><path class="cls-36" d="M652.66,85a3.52,3.52,0,0,0,3.76,3.82,7.23,7.23,0,0,0,3.05-.57l.34,1.43a8.91,8.91,0,0,1-3.66.68c-3.38,0-5.4-2.22-5.4-5.54s2-5.92,5.15-5.92c3.59,0,4.54,3.15,4.54,5.17a6.18,6.18,0,0,1-.07.93Zm5.85-1.43c0-1.27-.52-3.24-2.77-3.24-2,0-2.9,1.86-3.06,3.24Z"/><path class="cls-37" d="M667.79,75a21,21,0,0,1,3.79-.32c2.11,0,3.47.39,4.42,1.25a3.83,3.83,0,0,1,1.21,2.91,4,4,0,0,1-2.89,3.9v.07c1.18.41,1.89,1.5,2.25,3.09a24.12,24.12,0,0,0,1.18,4.19h-2a19.52,19.52,0,0,1-1-3.65c-.46-2.11-1.28-2.91-3.07-3h-1.86v6.62h-2Zm2,7h2c2.11,0,3.45-1.16,3.45-2.91,0-2-1.43-2.83-3.52-2.86a8,8,0,0,0-2,.19Z"/><path class="cls-38" d="M690,84.5c0,4.06-2.81,5.83-5.47,5.83-3,0-5.26-2.18-5.26-5.65,0-3.67,2.41-5.83,5.45-5.83S690,81.14,690,84.5Zm-8.71.11c0,2.41,1.38,4.23,3.33,4.23s3.34-1.8,3.34-4.27c0-1.86-.93-4.22-3.29-4.22S681.24,82.53,681.24,84.61Z"/><path class="cls-39" d="M701.66,87.09c0,1.13,0,2.13.09,3H700l-.12-1.79h0a4.12,4.12,0,0,1-3.63,2c-1.73,0-3.79-1-3.79-4.81V79.1h2v6.08c0,2.09.64,3.5,2.46,3.5a2.88,2.88,0,0,0,2.63-1.82,3,3,0,0,0,.18-1V79.1h2Z"/><path class="cls-40" d="M705,82.07c0-1.13,0-2.06-.09-3h1.77l.12,1.81h0a4.05,4.05,0,0,1,3.63-2.06c1.52,0,3.89.91,3.89,4.67v6.56h-2V83.75c0-1.77-.66-3.24-2.54-3.24a2.84,2.84,0,0,0-2.68,2,2.89,2.89,0,0,0-.14.93v6.6h-2Z"/><path class="cls-41" d="M727,74V87.25c0,1,0,2.08.09,2.83h-1.79l-.09-1.9h0a4.06,4.06,0,0,1-3.74,2.15c-2.66,0-4.7-2.24-4.7-5.58,0-3.65,2.25-5.9,4.93-5.9A3.67,3.67,0,0,1,725,80.53h0V74Zm-2,9.6a3.43,3.43,0,0,0-.09-.84,2.93,2.93,0,0,0-2.88-2.31c-2.06,0-3.29,1.81-3.29,4.24,0,2.22,1.09,4.06,3.25,4.06A3,3,0,0,0,725,86.34a3.39,3.39,0,0,0,.09-.86Z"/><path class="cls-42" d="M678.67,148.21a22.73,22.73,0,0,1,3.79-.3,6.28,6.28,0,0,1,4.29,1.28,4.09,4.09,0,0,1,1.34,3.2,4.49,4.49,0,0,1-1.18,3.26,6.34,6.34,0,0,1-4.67,1.68,7,7,0,0,1-1.59-.13v6.12h-2Zm2,7.38a6.79,6.79,0,0,0,1.63.15c2.38,0,3.84-1.15,3.84-3.26s-1.43-3-3.61-3a8.32,8.32,0,0,0-1.86.16Z"/><path class="cls-43" d="M699.52,160.33c0,1.13,0,2.13.09,3h-1.77l-.11-1.79h-.05a4.11,4.11,0,0,1-3.63,2c-1.72,0-3.79-.95-3.79-4.81v-6.42h2v6.08c0,2.09.64,3.5,2.45,3.5a2.88,2.88,0,0,0,2.63-1.82,2.77,2.77,0,0,0,.19-1v-6.74h2Z"/><path class="cls-44" d="M702.74,163.32c0-.75.09-1.86.09-2.83V147.21h2v6.9h0a4.08,4.08,0,0,1,3.74-2c2.73,0,4.66,2.27,4.64,5.61,0,3.92-2.48,5.87-4.93,5.87a3.92,3.92,0,0,1-3.68-2.06h-.06l-.1,1.81Zm2.07-4.4a3.47,3.47,0,0,0,.09.73,3.07,3.07,0,0,0,3,2.33c2.09,0,3.34-1.7,3.34-4.22,0-2.2-1.14-4.08-3.27-4.08a3.19,3.19,0,0,0-3,2.45,3.7,3.7,0,0,0-.11.82Z"/><path class="cls-45" d="M715.74,147.21h2v16.11h-2Z"/><path class="cls-46" d="M723.31,149.25a1.18,1.18,0,0,1-1.27,1.23,1.19,1.19,0,0,1-1.2-1.23,1.22,1.22,0,0,1,1.25-1.25A1.18,1.18,0,0,1,723.31,149.25Zm-2.22,14.07v-11h2v11Z"/><path class="cls-47" d="M734.23,162.92a7.41,7.41,0,0,1-3.16.63,5.22,5.22,0,0,1-5.47-5.6,5.59,5.59,0,0,1,5.9-5.84,6.7,6.7,0,0,1,2.77.57l-.45,1.54a4.69,4.69,0,0,0-2.32-.52c-2.51,0-3.88,1.86-3.88,4.15a3.77,3.77,0,0,0,3.82,4.11,5.7,5.7,0,0,0,2.45-.54Z"/><path class="cls-48" d="M741.44,148.23a21,21,0,0,1,3.79-.32c2.11,0,3.47.39,4.42,1.25a3.83,3.83,0,0,1,1.21,2.91A4,4,0,0,1,748,156V156c1.18.41,1.89,1.5,2.25,3.09a24.12,24.12,0,0,0,1.18,4.19h-2a19.52,19.52,0,0,1-1-3.65c-.46-2.11-1.28-2.91-3.07-3h-1.86v6.62h-2Zm2,7h2c2.11,0,3.45-1.16,3.45-2.91,0-2-1.43-2.83-3.52-2.86a8,8,0,0,0-2,.19Z"/><path class="cls-49" d="M763.6,157.74c0,4.06-2.81,5.83-5.47,5.83-3,0-5.26-2.17-5.26-5.65,0-3.67,2.4-5.83,5.45-5.83S763.6,154.38,763.6,157.74Zm-8.71.11c0,2.41,1.38,4.23,3.33,4.23s3.34-1.8,3.34-4.27c0-1.86-.93-4.22-3.29-4.22S754.89,155.77,754.89,157.85Z"/><path class="cls-50" d="M775.31,160.33c0,1.13,0,2.13.09,3h-1.77l-.11-1.79h0a4.12,4.12,0,0,1-3.63,2c-1.73,0-3.79-.95-3.79-4.81v-6.42h2v6.08c0,2.09.63,3.5,2.45,3.5a2.88,2.88,0,0,0,2.63-1.82,3,3,0,0,0,.18-1v-6.74h2Z"/><path class="cls-51" d="M778.62,155.31c0-1.13,0-2.06-.09-3h1.77l.11,1.82h0a4,4,0,0,1,3.64-2.07c1.52,0,3.88.91,3.88,4.67v6.56h-2V157c0-1.77-.66-3.24-2.54-3.24a2.84,2.84,0,0,0-2.68,2,2.89,2.89,0,0,0-.14.93v6.6h-2Z"/><path class="cls-52" d="M800.69,147.21v13.28c0,1,0,2.08.09,2.83H799l-.09-1.9h0a4.06,4.06,0,0,1-3.74,2.15c-2.66,0-4.7-2.24-4.7-5.58,0-3.65,2.25-5.9,4.93-5.9a3.67,3.67,0,0,1,3.31,1.68h0v-6.56Zm-2,9.6a3.43,3.43,0,0,0-.09-.84,2.93,2.93,0,0,0-2.88-2.31c-2.06,0-3.29,1.81-3.29,4.24,0,2.22,1.09,4.06,3.25,4.06a3,3,0,0,0,2.92-2.38,3.39,3.39,0,0,0,.09-.86Z"/><path class="cls-53" d="M802.32,164.23l6.33-16.45h1.54l-6.35,16.45Z"/><path class="cls-54" d="M813.82,148v15.29h-2V148Z"/><path class="cls-55" d="M817.27,148.23a28.41,28.41,0,0,1,4.2-.32c2.83,0,4.85.66,6.19,1.91a7.06,7.06,0,0,1,2.16,5.49,8.1,8.1,0,0,1-2.2,5.95c-1.43,1.43-3.79,2.2-6.77,2.2a32.76,32.76,0,0,1-3.58-.18Zm2,13.53a12.67,12.67,0,0,0,2,.11c4.22,0,6.51-2.36,6.51-6.49,0-3.61-2-5.9-6.19-5.9a11.59,11.59,0,0,0-2.32.2Z"/><path class="cls-56" d="M845.45,155.52c0,5.26-3.2,8-7.1,8-4.05,0-6.88-3.13-6.88-7.76,0-4.85,3-8,7.1-8S845.45,151,845.45,155.52Zm-11.87.25c0,3.26,1.77,6.19,4.88,6.19s4.9-2.88,4.9-6.35c0-3-1.59-6.22-4.88-6.22S833.58,152.41,833.58,155.77Z"/><path class="cls-57" d="M709.93,456.91a22.9,22.9,0,0,1,3.79-.29,6.24,6.24,0,0,1,4.29,1.27,4.11,4.11,0,0,1,1.34,3.2,4.49,4.49,0,0,1-1.18,3.26A6.29,6.29,0,0,1,713.5,466a7,7,0,0,1-1.59-.13V472h-2Zm2,7.38a6.73,6.73,0,0,0,1.63.16c2.39,0,3.84-1.16,3.84-3.27s-1.43-3-3.61-3a8.32,8.32,0,0,0-1.86.16Z"/><path class="cls-58" d="M721.82,455.91h2V472h-2Z"/><path class="cls-59" d="M733.25,472l-.15-1.39H733a4.11,4.11,0,0,1-3.36,1.64,3.13,3.13,0,0,1-3.36-3.16c0-2.65,2.36-4.11,6.6-4.08v-.23a2.26,2.26,0,0,0-2.49-2.54,5.46,5.46,0,0,0-2.86.81l-.46-1.31a6.84,6.84,0,0,1,3.61-1c3.36,0,4.18,2.29,4.18,4.5v4.1a15.14,15.14,0,0,0,.18,2.64Zm-.29-5.61c-2.18-.05-4.65.34-4.65,2.47a1.76,1.76,0,0,0,1.88,1.91,2.74,2.74,0,0,0,2.66-1.84,2.32,2.32,0,0,0,.11-.63Z"/><path class="cls-60" d="M738.65,461l2.41,6.49c.25.73.52,1.59.7,2.25h0c.2-.66.43-1.5.7-2.29l2.18-6.45h2.11l-3,7.83c-1.43,3.77-2.4,5.7-3.76,6.88a5.43,5.43,0,0,1-2.45,1.29l-.5-1.68a5.41,5.41,0,0,0,1.74-1,6.07,6.07,0,0,0,1.68-2.23,1.43,1.43,0,0,0,.16-.47,1.7,1.7,0,0,0-.13-.53L736.47,461Z"/><path class="cls-61" d="M753.15,465.15v1.47h-5.61v-1.47Z"/><path class="cls-62" d="M757.89,457.89V461h2.86v1.52h-2.86v5.92c0,1.37.38,2.14,1.5,2.14a4.28,4.28,0,0,0,1.15-.14l.09,1.5a4.82,4.82,0,0,1-1.77.27,2.73,2.73,0,0,1-2.15-.84,4,4,0,0,1-.77-2.86v-6h-1.71V461h1.71v-2.63Z"/><path class="cls-63" d="M772.8,466.44c0,4.07-2.82,5.84-5.47,5.84-3,0-5.27-2.18-5.27-5.66,0-3.67,2.41-5.83,5.45-5.83S772.8,463.08,772.8,466.44Zm-8.72.12c0,2.4,1.38,4.22,3.34,4.22s3.33-1.8,3.33-4.27c0-1.86-.93-4.22-3.29-4.22S764.08,464.47,764.08,466.56Z"/><path class="cls-64" d="M780.28,465.15v1.47h-5.61v-1.47Z"/><path class="cls-65" d="M790.6,464.85h-6v5.52h6.63V472h-8.6v-15.3h8.26v1.66h-6.29v4.83h6Z"/><path class="cls-66" d="M799.85,472l-.15-1.39h-.07a4.09,4.09,0,0,1-3.36,1.64,3.13,3.13,0,0,1-3.36-3.16c0-2.65,2.36-4.11,6.6-4.08v-.23a2.26,2.26,0,0,0-2.49-2.54,5.46,5.46,0,0,0-2.86.81l-.46-1.31a6.84,6.84,0,0,1,3.61-1c3.36,0,4.18,2.29,4.18,4.5v4.1a15.14,15.14,0,0,0,.18,2.64Zm-.29-5.61c-2.18-.05-4.65.34-4.65,2.47a1.76,1.76,0,0,0,1.88,1.91,2.74,2.74,0,0,0,2.66-1.84,2.32,2.32,0,0,0,.11-.63Z"/><path class="cls-67" d="M804.71,464.47c0-1.3,0-2.41-.09-3.43h1.74l.07,2.16h.09a3.29,3.29,0,0,1,3-2.41,2,2,0,0,1,.57.07v1.88a3.31,3.31,0,0,0-.68-.07,2.8,2.8,0,0,0-2.68,2.57,6.24,6.24,0,0,0-.09.93V472h-2Z"/><path class="cls-68" d="M812.21,464c0-1.13,0-2.06-.09-3h1.77l.12,1.82h0a4,4,0,0,1,3.63-2.07c1.52,0,3.88.91,3.88,4.68V472h-2v-6.34c0-1.77-.66-3.24-2.54-3.24a2.84,2.84,0,0,0-2.68,2,2.89,2.89,0,0,0-.14.93V472h-2Z"/><path class="cls-69" d="M336.65,622.8h2v13.64h6.54v1.65h-8.51Z"/><path class="cls-70" d="M349.51,624a1.18,1.18,0,0,1-1.27,1.23A1.19,1.19,0,0,1,347,624a1.21,1.21,0,0,1,1.25-1.24A1.18,1.18,0,0,1,349.51,624Zm-2.22,14.07v-11h2v11Z"/><path class="cls-71" d="M360.09,636.39h0a3.91,3.91,0,0,1-3.58,2c-2.57,0-4.66-2.22-4.66-5.56,0-4.1,2.66-5.92,5-5.92a3.6,3.6,0,0,1,3.38,1.91h.05l.07-1.66h1.88c0,.93-.07,1.88-.07,3v12.46h-2Zm0-4.83a3.33,3.33,0,0,0-.1-.84,2.91,2.91,0,0,0-2.85-2.27c-2.07,0-3.32,1.75-3.32,4.22,0,2.18,1.05,4.09,3.25,4.09a3,3,0,0,0,2.86-2.18,3.45,3.45,0,0,0,.16-1Z"/><path class="cls-72" d="M374.56,635.1c0,1.13,0,2.13.09,3h-1.77l-.11-1.79h0a4.12,4.12,0,0,1-3.63,2c-1.73,0-3.79-1-3.79-4.81v-6.42h2v6.08c0,2.09.63,3.5,2.45,3.5a2.88,2.88,0,0,0,2.63-1.82,3,3,0,0,0,.18-1v-6.74h2Z"/><path class="cls-73" d="M380.09,624a1.24,1.24,0,0,1-2.47,0,1.21,1.21,0,0,1,1.24-1.24A1.18,1.18,0,0,1,380.09,624Zm-2.22,14.07v-11h2v11Z"/><path class="cls-74" d="M392.66,622v13.28c0,1,0,2.09.09,2.83H391l-.09-1.9h-.05a4.06,4.06,0,0,1-3.74,2.15c-2.66,0-4.7-2.24-4.7-5.58,0-3.65,2.25-5.9,4.93-5.9a3.67,3.67,0,0,1,3.31,1.68h0V622Zm-2,9.6a3.43,3.43,0,0,0-.09-.84,2.93,2.93,0,0,0-2.88-2.31c-2.07,0-3.29,1.81-3.29,4.24,0,2.22,1.09,4.06,3.25,4.06a3,3,0,0,0,2.92-2.38,3.39,3.39,0,0,0,.09-.86Z"/><path class="cls-75" d="M398.19,624a1.24,1.24,0,0,1-2.47,0,1.21,1.21,0,0,1,1.25-1.24A1.18,1.18,0,0,1,398.19,624ZM396,638.09v-11h2v11Z"/><path class="cls-76" d="M403.68,624v3.15h2.86v1.52h-2.86v5.92c0,1.37.39,2.14,1.5,2.14a4.36,4.36,0,0,0,1.16-.14l.09,1.5a4.89,4.89,0,0,1-1.77.27,2.76,2.76,0,0,1-2.16-.84,4,4,0,0,1-.77-2.86v-6H400v-1.52h1.7v-2.63Z"/><path class="cls-77" d="M409.71,627.11l2.41,6.49c.25.73.52,1.59.7,2.25h.05c.2-.66.43-1.5.7-2.3l2.18-6.44h2.11l-3,7.83c-1.43,3.77-2.41,5.7-3.77,6.88a5.43,5.43,0,0,1-2.45,1.29l-.5-1.68a5.31,5.31,0,0,0,1.75-1,6,6,0,0,0,1.67-2.22,1.21,1.21,0,0,0,.16-.48,1.72,1.72,0,0,0-.13-.52l-4.07-10.12Z"/><path class="cls-78" d="M137.75,495.49H133.1v-1.68h11.33v1.68h-4.68v13.62h-2Z"/><path class="cls-79" d="M145.56,504a3.51,3.51,0,0,0,3.76,3.81,7.14,7.14,0,0,0,3-.57l.34,1.43a8.82,8.82,0,0,1-3.65.68c-3.38,0-5.4-2.22-5.4-5.53s1.95-5.93,5.15-5.93c3.59,0,4.54,3.16,4.54,5.18a8.09,8.09,0,0,1-.07.93Zm5.85-1.43c0-1.27-.52-3.25-2.77-3.25-2,0-2.9,1.87-3.06,3.25Z"/><path class="cls-80" d="M161.89,509.11l-.16-1.39h-.07a4.06,4.06,0,0,1-3.35,1.64A3.13,3.13,0,0,1,155,506.2c0-2.65,2.36-4.1,6.6-4.08v-.23a2.26,2.26,0,0,0-2.5-2.54,5.5,5.5,0,0,0-2.86.82l-.45-1.32a6.82,6.82,0,0,1,3.61-1c3.36,0,4.18,2.3,4.18,4.5v4.11a15.09,15.09,0,0,0,.18,2.63Zm-.29-5.61c-2.18,0-4.66.34-4.66,2.48a1.77,1.77,0,0,0,1.89,1.9,2.72,2.72,0,0,0,2.65-1.83,2.12,2.12,0,0,0,.12-.64Z"/><path class="cls-81" d="M166.74,501.1c0-1.14,0-2.07-.09-3h1.75l.09,1.77h.07a3.79,3.79,0,0,1,3.45-2,3.25,3.25,0,0,1,3.11,2.21h0a4.37,4.37,0,0,1,1.23-1.43,3.74,3.74,0,0,1,2.43-.78c1.45,0,3.6,1,3.6,4.77v6.47h-1.95v-6.22c0-2.11-.77-3.38-2.38-3.38a2.59,2.59,0,0,0-2.36,1.81,3.38,3.38,0,0,0-.16,1v6.79h-1.95v-6.58c0-1.75-.77-3-2.29-3a2.74,2.74,0,0,0-2.48,2,2.78,2.78,0,0,0-.16,1v6.63h-1.95Z"/><path class="cls-82" d="M54.18,288.66l-1.59,4.81h-2l5.2-15.3h2.38l5.22,15.3H61.24l-1.63-4.81Zm5-1.54-1.5-4.41c-.34-1-.57-1.9-.79-2.79h0c-.23.91-.47,1.84-.77,2.77l-1.5,4.43Z"/><path class="cls-83" d="M74.74,277.36v13.27c0,1,0,2.09.09,2.84H73L73,291.56h0a4.05,4.05,0,0,1-3.74,2.16c-2.66,0-4.7-2.25-4.7-5.58,0-3.66,2.24-5.9,4.92-5.9a3.68,3.68,0,0,1,3.32,1.68h0v-6.56Zm-2,9.6a3.43,3.43,0,0,0-.09-.84,2.93,2.93,0,0,0-2.88-2.32c-2.07,0-3.29,1.82-3.29,4.25,0,2.22,1.09,4.06,3.24,4.06a3,3,0,0,0,2.93-2.38,3.47,3.47,0,0,0,.09-.87Z"/><path class="cls-84" d="M78.82,282.49,81,288.66a28,28,0,0,1,.89,2.81h.07c.25-.9.56-1.81.93-2.81L85,282.49h2.09l-4.31,11H80.86l-4.18-11Z"/><path class="cls-85" d="M91.18,279.4a1.24,1.24,0,0,1-2.47,0A1.22,1.22,0,0,1,90,278.15,1.19,1.19,0,0,1,91.18,279.4ZM89,293.47v-11h2v11Z"/><path class="cls-86" d="M94,291.43a5.31,5.31,0,0,0,2.63.79c1.46,0,2.14-.72,2.14-1.63s-.57-1.48-2-2c-2-.71-2.91-1.79-2.91-3.11,0-1.77,1.43-3.22,3.79-3.22a5.4,5.4,0,0,1,2.7.68l-.5,1.45a4.26,4.26,0,0,0-2.24-.64c-1.18,0-1.84.69-1.84,1.5s.66,1.32,2.08,1.86c1.91.73,2.89,1.68,2.89,3.32,0,1.93-1.5,3.29-4.11,3.29a6.32,6.32,0,0,1-3.09-.75Z"/><path class="cls-87" d="M113.19,287.89c0,4.06-2.82,5.83-5.47,5.83-3,0-5.27-2.18-5.27-5.65,0-3.68,2.41-5.83,5.45-5.83S113.19,284.53,113.19,287.89Zm-8.72.11c0,2.41,1.39,4.22,3.34,4.22s3.33-1.79,3.33-4.26c0-1.87-.93-4.23-3.29-4.23S104.47,285.91,104.47,288Z"/><path class="cls-88" d="M115.7,285.91c0-1.29,0-2.4-.09-3.42h1.75l.06,2.15h.1a3.29,3.29,0,0,1,3-2.4,2.4,2.4,0,0,1,.56.06v1.89a2.68,2.68,0,0,0-.68-.07,2.8,2.8,0,0,0-2.67,2.56,5.21,5.21,0,0,0-.1.94v5.85h-2Z"/><path class="cls-89" d="M122.85,291.43a5.28,5.28,0,0,0,2.63.79c1.45,0,2.13-.72,2.13-1.63s-.57-1.48-2-2c-2-.71-2.91-1.79-2.91-3.11,0-1.77,1.43-3.22,3.79-3.22a5.45,5.45,0,0,1,2.71.68l-.5,1.45a4.34,4.34,0,0,0-2.25-.64c-1.18,0-1.84.69-1.84,1.5s.66,1.32,2.09,1.86c1.9.73,2.88,1.68,2.88,3.32,0,1.93-1.5,3.29-4.11,3.29a6.28,6.28,0,0,1-3.08-.75Z"/><path class="cls-90" d="M99.81,161.85c-.12-2.13-.25-4.7-.23-6.61h-.07c-.52,1.8-1.15,3.7-1.93,5.81l-2.7,7.43h-1.5l-2.47-7.29c-.73-2.16-1.34-4.13-1.77-5.95h0c0,1.91-.16,4.48-.3,6.77l-.41,6.56H86.51l1.07-15.3h2.51l2.61,7.4c.64,1.88,1.16,3.56,1.55,5.15h.07c.38-1.54.93-3.22,1.61-5.15l2.72-7.4h2.52l1,15.3h-1.93Z"/><path class="cls-91" d="M111.3,168.57l-.15-1.39h-.07a4.11,4.11,0,0,1-3.36,1.64,3.13,3.13,0,0,1-3.36-3.16c0-2.65,2.36-4.11,6.6-4.08v-.23a2.26,2.26,0,0,0-2.49-2.54,5.56,5.56,0,0,0-2.86.81l-.46-1.31a6.84,6.84,0,0,1,3.61-1c3.36,0,4.18,2.29,4.18,4.5v4.1a15.14,15.14,0,0,0,.18,2.64ZM111,163c-2.18,0-4.65.34-4.65,2.47a1.76,1.76,0,0,0,1.88,1.91,2.74,2.74,0,0,0,2.66-1.84,2.32,2.32,0,0,0,.11-.63Z"/><path class="cls-92" d="M116.16,161c0-1.29,0-2.41-.1-3.43h1.75l.07,2.16H118a3.29,3.29,0,0,1,3-2.41,2.4,2.4,0,0,1,.57.07v1.88a3.37,3.37,0,0,0-.68-.06,2.79,2.79,0,0,0-2.68,2.56,6.24,6.24,0,0,0-.09.93v5.86h-2Z"/><path class="cls-93" d="M125.64,162.62h0c.28-.39.66-.86,1-1.25l3.22-3.79h2.41L128,162.1l4.84,6.47h-2.43l-3.79-5.27-1,1.14v4.13h-2V152.45h2Z"/><path class="cls-94" d="M135.41,163.44a3.52,3.52,0,0,0,3.77,3.81,7.18,7.18,0,0,0,3-.57l.34,1.43a8.82,8.82,0,0,1-3.65.68c-3.38,0-5.4-2.22-5.4-5.53s2-5.93,5.15-5.93c3.59,0,4.54,3.16,4.54,5.18a8.09,8.09,0,0,1-.07.93Zm5.86-1.43c0-1.27-.52-3.25-2.77-3.25-2,0-2.9,1.86-3.06,3.25Z"/><path class="cls-95" d="M148.07,154.43v3.15h2.86v1.52h-2.86V165c0,1.36.39,2.13,1.5,2.13a4.36,4.36,0,0,0,1.16-.14l.09,1.5a4.89,4.89,0,0,1-1.77.27,2.76,2.76,0,0,1-2.16-.84,4.1,4.1,0,0,1-.77-2.86v-6h-1.7v-1.52h1.7V155Z"/><path class="cls-96" d="M155.4,154.5a1.24,1.24,0,0,1-2.47,0,1.21,1.21,0,0,1,1.24-1.25A1.19,1.19,0,0,1,155.4,154.5Zm-2.22,14.07v-11h2v11Z"/><path class="cls-97" d="M158.48,160.56c0-1.14,0-2.07-.09-3h1.77l.12,1.82h0a4,4,0,0,1,3.63-2.07c1.52,0,3.88.91,3.88,4.68v6.56h-2v-6.34c0-1.77-.66-3.24-2.55-3.24a2.83,2.83,0,0,0-2.67,2,2.89,2.89,0,0,0-.14.93v6.61h-2Z"/><path class="cls-98" d="M180.54,157.58c0,.8-.09,1.68-.09,3V167c0,2.52-.5,4.06-1.57,5a5.82,5.82,0,0,1-4,1.32,7.12,7.12,0,0,1-3.66-.91l.5-1.52a6.14,6.14,0,0,0,3.22.86c2.05,0,3.54-1.06,3.54-3.83v-1.23h0a3.92,3.92,0,0,1-3.5,1.84c-2.72,0-4.67-2.31-4.67-5.35,0-3.73,2.43-5.84,4.95-5.84a3.64,3.64,0,0,1,3.42,1.91h0l.09-1.66Zm-2.07,4.34a2.91,2.91,0,0,0-2.9-3c-1.91,0-3.27,1.61-3.27,4.15,0,2.16,1.09,3.95,3.24,3.95a2.91,2.91,0,0,0,2.77-2,3.31,3.31,0,0,0,.16-1.07Z"/><text class="cls-99" transform="translate(355.95 161.62)">10%</text><text class="cls-99" transform="translate(467.96 151.27)">8%</text><text class="cls-99" transform="translate(533.85 183.87)">4%</text><text class="cls-99" transform="translate(563.01 213.66)">3%</text><path class="cls-100" d="M576.41,416.71a6.58,6.58,0,0,0,2.74.73c1.44,0,2.17-.69,2.17-1.58,0-1.17-1.17-1.69-2.38-1.69h-1.13v-2h1.07c.93,0,2.11-.37,2.11-1.37,0-.7-.58-1.23-1.74-1.23a5.45,5.45,0,0,0-2.48.71l-.56-2a7.46,7.46,0,0,1,3.65-.89c2.53,0,3.93,1.32,3.93,2.94a2.83,2.83,0,0,1-2.17,2.75v0a2.94,2.94,0,0,1,2.57,2.87c0,2.09-1.84,3.62-4.84,3.62a6.92,6.92,0,0,1-3.5-.84Z"/><path class="cls-100" d="M593.89,409.88h-4.58l-.25,1.82a4.59,4.59,0,0,1,.76,0,5.41,5.41,0,0,1,3.11.85,3.36,3.36,0,0,1,1.43,3c0,2.2-1.88,4.15-5.06,4.15a7.4,7.4,0,0,1-3.29-.68l.49-2.07a6.71,6.71,0,0,0,2.67.58c1.14,0,2.36-.54,2.36-1.79s-1-2-3.32-2a10.47,10.47,0,0,0-1.6.11l.78-6.19h6.5Z"/><path class="cls-100" d="M599.15,407.41c2,0,3.16,1.49,3.16,3.5,0,2.47-1.56,3.78-3.27,3.78a3.26,3.26,0,0,1-3.22-3.58c0-2.1,1.29-3.7,3.31-3.7Zm-.09,1.51c-.8,0-1.18.94-1.18,2.14s.41,2.13,1.21,2.13,1.17-.8,1.17-2.15-.33-2.12-1.18-2.12Zm.11,10.7L606,407.43h1.47l-6.78,12.19Zm8.48-7.31c2,0,3.16,1.49,3.16,3.51,0,2.47-1.56,3.76-3.27,3.76a3.27,3.27,0,0,1-3.22-3.56c0-2.11,1.29-3.71,3.31-3.71Zm-.07,1.51c-.82,0-1.18.95-1.18,2.13s.39,2.12,1.19,2.12,1.17-.8,1.17-2.12-.31-2.13-1.17-2.13Z"/><text class="cls-99" transform="translate(393.03 527.64)">5%</text><text class="cls-99" transform="translate(268.18 450.57)">20%</text><text class="cls-99" transform="translate(230.74 310.76)">5%</text><text class="cls-99" transform="translate(265.18 231.32)">10%</text><rect class="cls-101" x="466.03" y="84.9" width="77.1" height="1.52" transform="translate(242.57 525.31) rotate(-68.84)"/><rect class="cls-102" x="543.42" y="123.09" width="70.64" height="1.51" transform="translate(223.87 597.49) rotate(-65.24)"/><rect class="cls-103" x="597.9" y="171.1" width="73.14" height="1.51" transform="translate(-19.77 235.59) rotate(-20.72)"/><rect class="cls-104" x="663.86" y="417.06" width="1.52" height="72.48" transform="translate(54.66 977.84) rotate(-74.99)"/><rect class="cls-105" x="358.06" y="583.09" width="65" height="1.51" transform="translate(-270.02 822.71) rotate(-76.1)"/><rect class="cls-106" x="179.81" y="480.1" width="77.41" height="1.52" transform="matrix(0.81, -0.59, 0.59, 0.81, -241.41, 221.15)"/><rect class="cls-107" x="174.2" y="254.15" width="1.51" height="77.8" transform="translate(-135.32 435.22) rotate(-83.78)"/><rect class="cls-108" x="218.97" y="146.47" width="1.51" height="76.37" transform="translate(-51.81 277.66) rotate(-58.95)"/><rect class="cls-109" x="346.81" y="57.76" width="1.51" height="69.23" transform="translate(-6.7 154.26) rotate(-24.79)"/><rect class="cls-110" width="896" height="677"/></g></g></svg>